<svg width="35" height="38" viewBox="0 0 35 38" fill="none" xmlns="http://www.w3.org/2000/svg">
<g filter="url(#filter0_d_1613_19107)">
<path d="M17.5 28.2949C24.4036 28.2949 30 22.6985 30 15.7949C30 8.89136 24.4036 3.29492 17.5 3.29492C10.5964 3.29492 5 8.89136 5 15.7949C5 22.6985 10.5964 28.2949 17.5 28.2949Z" fill="white"/>
<path d="M17.5 28.2949C24.4036 28.2949 30 22.6985 30 15.7949C30 8.89136 24.4036 3.29492 17.5 3.29492C10.5964 3.29492 5 8.89136 5 15.7949C5 22.6985 10.5964 28.2949 17.5 28.2949Z" stroke="white" stroke-width="2" stroke-linecap="round" stroke-linejoin="round"/>
</g>
<path d="M21.25 12.0449L13.75 19.5449" stroke="black" stroke-linecap="round" stroke-linejoin="round"/>
<path d="M13.75 12.0449L21.25 19.5449" stroke="black" stroke-linecap="round" stroke-linejoin="round"/>
<defs>
<filter id="filter0_d_1613_19107" x="0" y="2.29492" width="35" height="35" filterUnits="userSpaceOnUse" color-interpolation-filters="sRGB">
<feFlood flood-opacity="0" result="BackgroundImageFix"/>
<feColorMatrix in="SourceAlpha" type="matrix" values="0 0 0 0 0 0 0 0 0 0 0 0 0 0 0 0 0 0 127 0" result="hardAlpha"/>
<feOffset dy="4"/>
<feGaussianBlur stdDeviation="2"/>
<feComposite in2="hardAlpha" operator="out"/>
<feColorMatrix type="matrix" values="0 0 0 0 0 0 0 0 0 0 0 0 0 0 0 0 0 0 0.25 0"/>
<feBlend mode="normal" in2="BackgroundImageFix" result="effect1_dropShadow_1613_19107"/>
<feBlend mode="normal" in="SourceGraphic" in2="effect1_dropShadow_1613_19107" result="shape"/>
</filter>
</defs>
</svg>
