<svg width="24" height="25" viewBox="0 0 24 25" fill="none" xmlns="http://www.w3.org/2000/svg">
<path d="M9.40674 3.5H4.40674C3.85445 3.5 3.40674 3.94771 3.40674 4.5V13.5C3.40674 14.0523 3.85445 14.5 4.40674 14.5H9.40674C9.95902 14.5 10.4067 14.0523 10.4067 13.5V4.5C10.4067 3.94772 9.95902 3.5 9.40674 3.5Z" fill="#675EF2"/>
<path d="M20.0137 3.5H15.0137C14.4614 3.5 14.0137 3.94772 14.0137 4.5V7.44043C14.0137 7.99271 14.4614 8.44043 15.0137 8.44043H20.0137C20.566 8.44043 21.0137 7.99271 21.0137 7.44043V4.5C21.0137 3.94772 20.566 3.5 20.0137 3.5Z" fill="#675EF2"/>
<path d="M20.0137 10.5H15.0137C14.4614 10.5 14.0137 10.9477 14.0137 11.5V20.5C14.0137 21.0523 14.4614 21.5 15.0137 21.5H20.0137C20.566 21.5 21.0137 21.0523 21.0137 20.5V11.5C21.0137 10.9477 20.566 10.5 20.0137 10.5Z" fill="#675EF2"/>
<path d="M9.40625 16.4639H4.40625C3.85397 16.4639 3.40625 16.9116 3.40625 17.4639V20.5C3.40625 21.0523 3.85397 21.5 4.40625 21.5H9.40625C9.95853 21.5 10.4062 21.0523 10.4062 20.5V17.4639C10.4062 16.9116 9.95853 16.4639 9.40625 16.4639Z" fill="#675EF2"/>
</svg>
