<svg width="385" height="121" viewBox="0 0 385 121" fill="none" xmlns="http://www.w3.org/2000/svg">
<g opacity="0.8" filter="url(#filter0_d_3061_115965)">
<circle cx="199.646" cy="39.646" r="39.646" fill="#695DFB"/>
</g>
<path d="M193.747 36.0866H195.94V46.4206C195.94 47.3553 195.754 48.1548 195.384 48.819C195.019 49.4833 194.504 49.991 193.84 50.3421C193.176 50.6884 192.398 50.8616 191.506 50.8616C190.685 50.8616 189.947 50.7122 189.292 50.4133C188.642 50.1143 188.127 49.6802 187.748 49.1108C187.373 48.5367 187.186 47.8392 187.186 47.0184H189.37C189.37 47.4217 189.463 47.7704 189.648 48.0646C189.838 48.3588 190.096 48.5889 190.424 48.755C190.756 48.9163 191.136 48.997 191.563 48.997C192.028 48.997 192.421 48.8997 192.744 48.7052C193.071 48.5059 193.32 48.2141 193.491 47.8298C193.662 47.4454 193.747 46.9757 193.747 46.4206V36.0866ZM207.09 39.9156C207.014 39.2418 206.701 38.7199 206.151 38.3498C205.6 37.975 204.908 37.7875 204.073 37.7875C203.475 37.7875 202.958 37.8824 202.521 38.0722C202.085 38.2573 201.745 38.5135 201.503 38.8409C201.266 39.1635 201.147 39.5312 201.147 39.944C201.147 40.2904 201.228 40.5893 201.389 40.8408C201.556 41.0922 201.771 41.3034 202.037 41.4742C202.308 41.6403 202.597 41.7802 202.905 41.8941C203.214 42.0032 203.51 42.0934 203.795 42.1646L205.218 42.5346C205.683 42.6485 206.16 42.8027 206.649 42.9973C207.138 43.1918 207.591 43.448 208.008 43.7659C208.426 44.0838 208.763 44.4776 209.019 44.9473C209.28 45.4171 209.41 45.9793 209.41 46.6341C209.41 47.4597 209.197 48.1927 208.77 48.8333C208.348 49.4738 207.733 49.9791 206.927 50.3492C206.125 50.7193 205.154 50.9043 204.016 50.9043C202.924 50.9043 201.98 50.7312 201.183 50.3848C200.386 50.0384 199.762 49.5473 199.311 48.9116C198.861 48.271 198.611 47.5119 198.564 46.6341H200.77C200.813 47.1607 200.984 47.5996 201.283 47.9507C201.586 48.2971 201.973 48.5557 202.443 48.7265C202.917 48.8926 203.437 48.9756 204.001 48.9756C204.623 48.9756 205.176 48.8783 205.66 48.6838C206.148 48.4845 206.533 48.2093 206.813 47.8582C207.093 47.5024 207.233 47.0872 207.233 46.6127C207.233 46.181 207.109 45.8275 206.862 45.5523C206.621 45.2771 206.291 45.0493 205.873 44.869C205.46 44.6887 204.993 44.5298 204.471 44.3922L202.749 43.9225C201.582 43.6046 200.656 43.1372 199.973 42.5204C199.295 41.9036 198.955 41.0875 198.955 40.0721C198.955 39.2323 199.183 38.4993 199.639 37.8729C200.094 37.2466 200.711 36.7603 201.489 36.4139C202.267 36.0628 203.145 35.8873 204.122 35.8873C205.109 35.8873 205.98 36.0605 206.734 36.4068C207.494 36.7532 208.091 37.23 208.528 37.8374C208.964 38.4399 209.192 39.1327 209.211 39.9156H207.09Z" fill="white"/>
<g opacity="0.8" filter="url(#filter1_d_3061_115965)">
<circle cx="118.872" cy="76.8721" r="32.8721" fill="#FF737D"/>
</g>
<path d="M118.612 76.9331H117.242C117.19 76.6404 117.092 76.3828 116.948 76.1604C116.805 75.938 116.629 75.7492 116.421 75.5941C116.214 75.439 115.981 75.3219 115.723 75.2429C115.469 75.1639 115.198 75.1244 114.911 75.1244C114.393 75.1244 113.929 75.2546 113.52 75.5151C113.113 75.7756 112.791 76.1575 112.554 76.6609C112.32 77.1643 112.203 77.7789 112.203 78.5047C112.203 79.2363 112.32 79.8538 112.554 80.3572C112.791 80.8606 113.114 81.2411 113.524 81.4986C113.934 81.7562 114.395 81.8849 114.907 81.8849C115.191 81.8849 115.46 81.8469 115.715 81.7708C115.972 81.6918 116.205 81.5762 116.413 81.424C116.62 81.2718 116.796 81.086 116.939 80.8665C117.086 80.644 117.187 80.3894 117.242 80.1026L118.612 80.107C118.539 80.5489 118.397 80.9557 118.186 81.3274C117.978 81.6962 117.711 82.0152 117.383 82.2844C117.058 82.5508 116.686 82.7571 116.268 82.9034C115.849 83.0498 115.393 83.1229 114.898 83.1229C114.12 83.1229 113.426 82.9385 112.817 82.5698C112.209 82.1981 111.729 81.6669 111.377 80.9762C111.029 80.2855 110.855 79.4617 110.855 78.5047C110.855 77.5447 111.031 76.7209 111.382 76.0331C111.733 75.3424 112.213 74.8127 112.822 74.4439C113.43 74.0722 114.123 73.8864 114.898 73.8864C115.375 73.8864 115.82 73.9552 116.233 74.0927C116.648 74.2274 117.021 74.4264 117.352 74.6898C117.683 74.9502 117.956 75.2692 118.173 75.6468C118.39 76.0214 118.536 76.4502 118.612 76.9331ZM120.934 83H119.494L122.73 74.0093H124.297L127.532 83H126.093L123.551 75.6424H123.481L120.934 83ZM121.176 79.4792H125.847V80.6206H121.176V79.4792Z" fill="white"/>
<g opacity="0.8" filter="url(#filter2_d_3061_115965)">
<circle cx="275.253" cy="78.253" r="27.253" fill="#AB5BEA"/>
</g>
<path d="M269.278 82.5098V74.3364H272.271C272.851 74.3364 273.332 74.4322 273.712 74.6238C274.092 74.8127 274.377 75.0694 274.566 75.394C274.755 75.7159 274.849 76.0791 274.849 76.4835C274.849 76.8241 274.787 77.1114 274.662 77.3456C274.537 77.577 274.369 77.7633 274.159 77.9043C273.951 78.0426 273.723 78.1437 273.473 78.2076V78.2874C273.744 78.3007 274.009 78.3885 274.267 78.5508C274.527 78.7104 274.743 78.9379 274.913 79.2332C275.084 79.5286 275.169 79.8878 275.169 80.3108C275.169 80.7285 275.07 81.1036 274.873 81.4362C274.679 81.7661 274.378 82.0282 273.971 82.2224C273.564 82.414 273.044 82.5098 272.411 82.5098H269.278ZM270.511 81.4522H272.291C272.882 81.4522 273.305 81.3378 273.56 81.109C273.816 80.8802 273.943 80.5941 273.943 80.2509C273.943 79.9928 273.878 79.7561 273.748 79.5405C273.618 79.325 273.431 79.1534 273.189 79.0257C272.95 78.898 272.665 78.8342 272.335 78.8342H270.511V81.4522ZM270.511 77.8724H272.164C272.44 77.8724 272.689 77.8191 272.91 77.7127C273.133 77.6063 273.31 77.4573 273.441 77.2657C273.574 77.0715 273.64 76.8427 273.64 76.5793C273.64 76.2414 273.522 75.9581 273.285 75.7292C273.048 75.5004 272.685 75.386 272.195 75.386H270.511V77.8724ZM276.631 82.5098V74.3364H277.864V81.4482H281.568V82.5098H276.631Z" fill="white"/>
<g opacity="0.8" filter="url(#filter3_d_3061_115965)">
<circle cx="119" cy="20" r="20" fill="#FFB673"/>
</g>
<path d="M115.033 15.8729V26.0547H113.497V15.8729H115.033ZM116.768 17.1953V15.8729H124.648V17.1953H121.471V26.0547H119.94V17.1953H116.768Z" fill="white"/>
<g opacity="0.8" filter="url(#filter4_d_3061_115965)">
<circle cx="268.5" cy="26.5" r="17.5" fill="#E3D022"/>
</g>
<path d="M261.976 31V22.2727H267.448V23.4062H263.293V26.0653H267.162V27.1946H263.293V29.8665H267.499V31H261.976ZM269.207 31V22.2727H272.318C272.994 22.2727 273.555 22.3892 274.001 22.6222C274.45 22.8551 274.785 23.1776 275.007 23.5895C275.228 23.9986 275.339 24.4716 275.339 25.0085C275.339 25.5426 275.227 26.0128 275.002 26.419C274.781 26.8224 274.445 27.1364 273.997 27.3608C273.551 27.5852 272.99 27.6974 272.313 27.6974H269.957V26.5639H272.194C272.62 26.5639 272.967 26.5028 273.234 26.3807C273.504 26.2585 273.701 26.081 273.826 25.848C273.951 25.6151 274.014 25.3352 274.014 25.0085C274.014 24.679 273.95 24.3935 273.822 24.152C273.697 23.9105 273.499 23.7259 273.23 23.598C272.963 23.4673 272.612 23.402 272.177 23.402H270.524V31H269.207ZM273.515 27.0625L275.671 31H274.171L272.058 27.0625H273.515Z" fill="white"/>
<defs>
<filter id="filter0_d_3061_115965" x="153.319" y="0" width="92.6531" height="92.6531" filterUnits="userSpaceOnUse" color-interpolation-filters="sRGB">
<feFlood flood-opacity="0" result="BackgroundImageFix"/>
<feColorMatrix in="SourceAlpha" type="matrix" values="0 0 0 0 0 0 0 0 0 0 0 0 0 0 0 0 0 0 127 0" result="hardAlpha"/>
<feOffset dy="6.68057"/>
<feGaussianBlur stdDeviation="3.34029"/>
<feComposite in2="hardAlpha" operator="out"/>
<feColorMatrix type="matrix" values="0 0 0 0 0.411765 0 0 0 0 0.364706 0 0 0 0 0.984314 0 0 0 0.25 0"/>
<feBlend mode="normal" in2="BackgroundImageFix" result="effect1_dropShadow_3061_115965"/>
<feBlend mode="normal" in="SourceGraphic" in2="effect1_dropShadow_3061_115965" result="shape"/>
</filter>
<filter id="filter1_d_3061_115965" x="80.3808" y="44" width="76.9825" height="76.9826" filterUnits="userSpaceOnUse" color-interpolation-filters="sRGB">
<feFlood flood-opacity="0" result="BackgroundImageFix"/>
<feColorMatrix in="SourceAlpha" type="matrix" values="0 0 0 0 0 0 0 0 0 0 0 0 0 0 0 0 0 0 127 0" result="hardAlpha"/>
<feOffset dy="5.61917"/>
<feGaussianBlur stdDeviation="2.80959"/>
<feComposite in2="hardAlpha" operator="out"/>
<feColorMatrix type="matrix" values="0 0 0 0 1 0 0 0 0 0.45098 0 0 0 0 0.490196 0 0 0 0.25 0"/>
<feBlend mode="normal" in2="BackgroundImageFix" result="effect1_dropShadow_3061_115965"/>
<feBlend mode="normal" in="SourceGraphic" in2="effect1_dropShadow_3061_115965" result="shape"/>
</filter>
<filter id="filter2_d_3061_115965" x="242.381" y="51" width="65.7442" height="65.7443" filterUnits="userSpaceOnUse" color-interpolation-filters="sRGB">
<feFlood flood-opacity="0" result="BackgroundImageFix"/>
<feColorMatrix in="SourceAlpha" type="matrix" values="0 0 0 0 0 0 0 0 0 0 0 0 0 0 0 0 0 0 127 0" result="hardAlpha"/>
<feOffset dy="5.61917"/>
<feGaussianBlur stdDeviation="2.80959"/>
<feComposite in2="hardAlpha" operator="out"/>
<feColorMatrix type="matrix" values="0 0 0 0 0.670588 0 0 0 0 0.356863 0 0 0 0 0.917647 0 0 0 0.25 0"/>
<feBlend mode="normal" in2="BackgroundImageFix" result="effect1_dropShadow_3061_115965"/>
<feBlend mode="normal" in="SourceGraphic" in2="effect1_dropShadow_3061_115965" result="shape"/>
</filter>
<filter id="filter3_d_3061_115965" x="89" y="0" width="60" height="60" filterUnits="userSpaceOnUse" color-interpolation-filters="sRGB">
<feFlood flood-opacity="0" result="BackgroundImageFix"/>
<feColorMatrix in="SourceAlpha" type="matrix" values="0 0 0 0 0 0 0 0 0 0 0 0 0 0 0 0 0 0 127 0" result="hardAlpha"/>
<feOffset dy="10"/>
<feGaussianBlur stdDeviation="5"/>
<feComposite in2="hardAlpha" operator="out"/>
<feColorMatrix type="matrix" values="0 0 0 0 1 0 0 0 0 0.713726 0 0 0 0 0.45098 0 0 0 0.25 0"/>
<feBlend mode="normal" in2="BackgroundImageFix" result="effect1_dropShadow_3061_115965"/>
<feBlend mode="normal" in="SourceGraphic" in2="effect1_dropShadow_3061_115965" result="shape"/>
</filter>
<filter id="filter4_d_3061_115965" x="241" y="9" width="55" height="55" filterUnits="userSpaceOnUse" color-interpolation-filters="sRGB">
<feFlood flood-opacity="0" result="BackgroundImageFix"/>
<feColorMatrix in="SourceAlpha" type="matrix" values="0 0 0 0 0 0 0 0 0 0 0 0 0 0 0 0 0 0 127 0" result="hardAlpha"/>
<feOffset dy="10"/>
<feGaussianBlur stdDeviation="5"/>
<feComposite in2="hardAlpha" operator="out"/>
<feColorMatrix type="matrix" values="0 0 0 0 0.890196 0 0 0 0 0.815686 0 0 0 0 0.133333 0 0 0 0.25 0"/>
<feBlend mode="normal" in2="BackgroundImageFix" result="effect1_dropShadow_3061_115965"/>
<feBlend mode="normal" in="SourceGraphic" in2="effect1_dropShadow_3061_115965" result="shape"/>
</filter>
</defs>
</svg>
