<svg width="385" height="134" viewBox="0 0 385 134" fill="none" xmlns="http://www.w3.org/2000/svg">
<path d="M9.86861 35.8828H7.69105C7.65128 35.6011 7.57008 35.3509 7.44744 35.1321C7.32481 34.91 7.16738 34.7211 6.97514 34.5653C6.78291 34.4096 6.56084 34.2902 6.30895 34.2074C6.06037 34.1245 5.79025 34.0831 5.49858 34.0831C4.97159 34.0831 4.51255 34.214 4.12145 34.4759C3.73035 34.7344 3.42708 35.1122 3.21165 35.6094C2.99621 36.1032 2.88849 36.7031 2.88849 37.4091C2.88849 38.1349 2.99621 38.7448 3.21165 39.2386C3.4304 39.7325 3.73532 40.1054 4.12642 40.3572C4.51752 40.6091 4.96993 40.7351 5.48366 40.7351C5.77202 40.7351 6.03883 40.697 6.28409 40.6207C6.53267 40.5445 6.75308 40.4335 6.94531 40.2876C7.13755 40.1385 7.29664 39.9579 7.42259 39.7457C7.55185 39.5336 7.64134 39.2917 7.69105 39.0199L9.86861 39.0298C9.81226 39.4972 9.6714 39.9479 9.44602 40.3821C9.22396 40.813 8.92401 41.1991 8.54617 41.5405C8.17164 41.8786 7.7242 42.147 7.20384 42.3459C6.68679 42.5414 6.1018 42.6392 5.44886 42.6392C4.54072 42.6392 3.72869 42.4337 3.01278 42.0227C2.30019 41.6117 1.73674 41.0168 1.32244 40.2379C0.911458 39.459 0.705966 38.5161 0.705966 37.4091C0.705966 36.2988 0.914773 35.3542 1.33239 34.5753C1.75 33.7964 2.31676 33.2031 3.03267 32.7955C3.74858 32.3845 4.55398 32.179 5.44886 32.179C6.03883 32.179 6.5857 32.2618 7.08949 32.4276C7.59659 32.5933 8.04569 32.8352 8.43679 33.1534C8.82789 33.4683 9.14607 33.8544 9.39134 34.3118C9.63991 34.7692 9.79901 35.2929 9.86861 35.8828ZM13.5501 42.6442C13.0629 42.6442 12.6287 42.5597 12.2475 42.3906C11.8664 42.2183 11.5647 41.9647 11.3427 41.63C11.1239 41.2919 11.0146 40.871 11.0146 40.3672C11.0146 39.9429 11.0924 39.5866 11.2482 39.2983C11.404 39.0099 11.6161 38.7779 11.8846 38.6023C12.1531 38.4266 12.458 38.294 12.7994 38.2045C13.1441 38.1151 13.5053 38.0521 13.8832 38.0156C14.3273 37.9692 14.6853 37.9261 14.957 37.8864C15.2288 37.8433 15.426 37.7803 15.5487 37.6974C15.6713 37.6146 15.7326 37.492 15.7326 37.3295V37.2997C15.7326 36.9848 15.6332 36.7412 15.4343 36.5689C15.2388 36.3965 14.9603 36.3104 14.5991 36.3104C14.2179 36.3104 13.9147 36.3949 13.6893 36.5639C13.4639 36.7296 13.3147 36.9384 13.2418 37.1903L11.283 37.0312C11.3825 36.5672 11.578 36.1662 11.8697 35.8281C12.1613 35.4867 12.5375 35.2249 12.9982 35.0426C13.4622 34.857 13.9992 34.7642 14.609 34.7642C15.0333 34.7642 15.4393 34.8139 15.8271 34.9134C16.2182 35.0128 16.5645 35.1669 16.8661 35.3757C17.171 35.5845 17.4113 35.853 17.587 36.1811C17.7627 36.5059 17.8505 36.8954 17.8505 37.3494V42.5H15.842V41.4411H15.7823C15.6597 41.6797 15.4956 41.8902 15.2901 42.0724C15.0846 42.2514 14.8377 42.3923 14.5494 42.495C14.261 42.5945 13.9279 42.6442 13.5501 42.6442ZM14.1566 41.1825C14.4682 41.1825 14.7433 41.1212 14.9819 40.9986C15.2205 40.8726 15.4078 40.7036 15.5437 40.4915C15.6796 40.2794 15.7475 40.0391 15.7475 39.7706V38.9602C15.6812 39.0033 15.5901 39.0431 15.4741 39.0795C15.3614 39.1127 15.2338 39.1442 15.0913 39.174C14.9487 39.2005 14.8062 39.2254 14.6637 39.2486C14.5212 39.2685 14.3919 39.2867 14.2759 39.3033C14.0273 39.3397 13.8103 39.3977 13.6246 39.4773C13.439 39.5568 13.2949 39.6645 13.1921 39.8004C13.0894 39.933 13.038 40.0987 13.038 40.2976C13.038 40.5859 13.1424 40.8063 13.3512 40.9588C13.5633 41.108 13.8318 41.1825 14.1566 41.1825ZM19.4936 42.5V34.8636H21.5121V36.2109H21.6016C21.7607 35.7635 22.0258 35.4105 22.397 35.152C22.7682 34.8935 23.2124 34.7642 23.7294 34.7642C24.2531 34.7642 24.6989 34.8951 25.0668 35.157C25.4347 35.4155 25.6799 35.7668 25.8026 36.2109H25.8821C26.0379 35.7734 26.3196 35.4238 26.7273 35.1619C27.1383 34.8968 27.6238 34.7642 28.1839 34.7642C28.8965 34.7642 29.4749 34.9912 29.919 35.4453C30.3665 35.8961 30.5902 36.5357 30.5902 37.3643V42.5H28.4773V37.782C28.4773 37.3577 28.3646 37.0395 28.1392 36.8274C27.9138 36.6153 27.6321 36.5092 27.294 36.5092C26.9096 36.5092 26.6096 36.6319 26.3942 36.8771C26.1787 37.1191 26.071 37.4389 26.071 37.8366V42.5H24.0178V37.7372C24.0178 37.3627 23.91 37.0644 23.6946 36.8423C23.4825 36.6203 23.2024 36.5092 22.8544 36.5092C22.6191 36.5092 22.407 36.5689 22.218 36.6882C22.0324 36.8042 21.8849 36.9683 21.7756 37.1804C21.6662 37.3892 21.6115 37.6345 21.6115 37.9162V42.5H19.4936ZM32.2631 45.3636V34.8636H34.3512V36.1463H34.4457C34.5385 35.9408 34.6727 35.732 34.8484 35.5199C35.0273 35.3045 35.2594 35.1255 35.5444 34.983C35.8327 34.8371 36.1907 34.7642 36.6183 34.7642C37.1751 34.7642 37.6888 34.91 38.1594 35.2017C38.6301 35.4901 39.0063 35.9259 39.288 36.5092C39.5697 37.0893 39.7106 37.8168 39.7106 38.6918C39.7106 39.5436 39.573 40.2628 39.2979 40.8494C39.0262 41.4328 38.6549 41.8752 38.1843 42.1768C37.717 42.4751 37.1933 42.6243 36.6133 42.6243C36.2023 42.6243 35.8526 42.5563 35.5643 42.4205C35.2792 42.2846 35.0456 42.1139 34.8633 41.9084C34.681 41.6996 34.5418 41.4891 34.4457 41.277H34.381V45.3636H32.2631ZM34.3363 38.6818C34.3363 39.1359 34.3993 39.532 34.5252 39.87C34.6512 40.2081 34.8335 40.4716 35.0721 40.6605C35.3107 40.8461 35.6007 40.9389 35.9421 40.9389C36.2868 40.9389 36.5785 40.8445 36.8171 40.6555C37.0558 40.4633 37.2364 40.1982 37.359 39.8601C37.485 39.5187 37.5479 39.1259 37.5479 38.6818C37.5479 38.241 37.4866 37.8532 37.364 37.5185C37.2414 37.1837 37.0607 36.9219 36.8221 36.733C36.5835 36.544 36.2901 36.4496 35.9421 36.4496C35.5974 36.4496 35.3058 36.5407 35.0671 36.723C34.8318 36.9053 34.6512 37.1638 34.5252 37.4986C34.3993 37.8333 34.3363 38.2277 34.3363 38.6818ZM43.3001 42.6442C42.8129 42.6442 42.3787 42.5597 41.9975 42.3906C41.6164 42.2183 41.3147 41.9647 41.0927 41.63C40.8739 41.2919 40.7646 40.871 40.7646 40.3672C40.7646 39.9429 40.8424 39.5866 40.9982 39.2983C41.154 39.0099 41.3661 38.7779 41.6346 38.6023C41.9031 38.4266 42.208 38.294 42.5494 38.2045C42.8941 38.1151 43.2553 38.0521 43.6332 38.0156C44.0773 37.9692 44.4353 37.9261 44.707 37.8864C44.9788 37.8433 45.176 37.7803 45.2987 37.6974C45.4213 37.6146 45.4826 37.492 45.4826 37.3295V37.2997C45.4826 36.9848 45.3832 36.7412 45.1843 36.5689C44.9888 36.3965 44.7103 36.3104 44.3491 36.3104C43.9679 36.3104 43.6647 36.3949 43.4393 36.5639C43.2139 36.7296 43.0647 36.9384 42.9918 37.1903L41.033 37.0312C41.1325 36.5672 41.328 36.1662 41.6197 35.8281C41.9113 35.4867 42.2875 35.2249 42.7482 35.0426C43.2122 34.857 43.7492 34.7642 44.359 34.7642C44.7833 34.7642 45.1893 34.8139 45.5771 34.9134C45.9682 35.0128 46.3145 35.1669 46.6161 35.3757C46.921 35.5845 47.1613 35.853 47.337 36.1811C47.5127 36.5059 47.6005 36.8954 47.6005 37.3494V42.5H45.592V41.4411H45.5323C45.4097 41.6797 45.2456 41.8902 45.0401 42.0724C44.8346 42.2514 44.5877 42.3923 44.2994 42.495C44.011 42.5945 43.6779 42.6442 43.3001 42.6442ZM43.9066 41.1825C44.2182 41.1825 44.4933 41.1212 44.7319 40.9986C44.9705 40.8726 45.1578 40.7036 45.2937 40.4915C45.4296 40.2794 45.4975 40.0391 45.4975 39.7706V38.9602C45.4312 39.0033 45.3401 39.0431 45.2241 39.0795C45.1114 39.1127 44.9838 39.1442 44.8413 39.174C44.6987 39.2005 44.5562 39.2254 44.4137 39.2486C44.2712 39.2685 44.1419 39.2867 44.0259 39.3033C43.7773 39.3397 43.5603 39.3977 43.3746 39.4773C43.189 39.5568 43.0449 39.6645 42.9421 39.8004C42.8394 39.933 42.788 40.0987 42.788 40.2976C42.788 40.5859 42.8924 40.8063 43.1012 40.9588C43.3133 41.108 43.5818 41.1825 43.9066 41.1825ZM49.2436 42.5V34.8636H51.3615V42.5H49.2436ZM50.3075 33.8793C49.9927 33.8793 49.7225 33.7749 49.4972 33.5661C49.2751 33.3539 49.1641 33.1004 49.1641 32.8054C49.1641 32.5137 49.2751 32.2635 49.4972 32.0547C49.7225 31.8426 49.9927 31.7365 50.3075 31.7365C50.6224 31.7365 50.8909 31.8426 51.1129 32.0547C51.3383 32.2635 51.451 32.5137 51.451 32.8054C51.451 33.1004 51.3383 33.3539 51.1129 33.5661C50.8909 33.7749 50.6224 33.8793 50.3075 33.8793ZM56.4984 45.5227C55.8123 45.5227 55.224 45.4283 54.7335 45.2393C54.2463 45.0537 53.8585 44.8002 53.5701 44.4787C53.2818 44.1572 53.0945 43.7959 53.0083 43.3949L54.9672 43.1314C55.0268 43.2839 55.1213 43.4264 55.2505 43.5589C55.3798 43.6915 55.5505 43.7976 55.7626 43.8771C55.978 43.96 56.2399 44.0014 56.5481 44.0014C57.0088 44.0014 57.3883 43.8887 57.6866 43.6634C57.9882 43.4413 58.139 43.0684 58.139 42.5447V41.1477H58.0495C57.9567 41.3598 57.8175 41.5604 57.6319 41.7493C57.4463 41.9382 57.2077 42.0923 56.916 42.2116C56.6243 42.331 56.2763 42.3906 55.872 42.3906C55.2986 42.3906 54.7766 42.258 54.3059 41.9929C53.8386 41.7244 53.4657 41.3151 53.1873 40.7649C52.9122 40.2114 52.7747 39.5121 52.7747 38.6669C52.7747 37.8018 52.9155 37.0793 53.1973 36.4993C53.479 35.9193 53.8535 35.4851 54.3208 35.1967C54.7915 34.9084 55.3069 34.7642 55.867 34.7642C56.2946 34.7642 56.6525 34.8371 56.9409 34.983C57.2292 35.1255 57.4612 35.3045 57.6369 35.5199C57.8159 35.732 57.9534 35.9408 58.0495 36.1463H58.1291V34.8636H60.2321V42.5746C60.2321 43.2242 60.073 43.7678 59.7548 44.2053C59.4366 44.6428 58.9958 44.9709 58.4324 45.1896C57.8722 45.4117 57.2276 45.5227 56.4984 45.5227ZM56.5431 40.7997C56.8845 40.7997 57.1729 40.7152 57.4082 40.5462C57.6468 40.3738 57.8291 40.1286 57.9551 39.8104C58.0843 39.4889 58.149 39.1044 58.149 38.657C58.149 38.2095 58.086 37.8217 57.96 37.4936C57.8341 37.1622 57.6518 36.9053 57.4132 36.723C57.1745 36.5407 56.8845 36.4496 56.5431 36.4496C56.1951 36.4496 55.9018 36.544 55.6632 36.733C55.4245 36.9186 55.2439 37.1771 55.1213 37.5085C54.9986 37.84 54.9373 38.2228 54.9373 38.657C54.9373 39.0978 54.9986 39.4789 55.1213 39.8004C55.2472 40.1186 55.4279 40.3655 55.6632 40.5412C55.9018 40.7135 56.1951 40.7997 56.5431 40.7997ZM64.0353 38.0852V42.5H61.9174V34.8636H63.9359V36.2109H64.0254C64.1944 35.7668 64.4778 35.4155 64.8755 35.157C65.2733 34.8951 65.7555 34.7642 66.3223 34.7642C66.8526 34.7642 67.3149 34.8802 67.7093 35.1122C68.1038 35.3442 68.4103 35.6757 68.6291 36.1065C68.8478 36.5341 68.9572 37.0445 68.9572 37.6378V42.5H66.8393V38.0156C66.8426 37.5483 66.7233 37.1837 66.4814 36.9219C66.2394 36.6567 65.9063 36.5241 65.4821 36.5241C65.197 36.5241 64.9451 36.5855 64.7264 36.7081C64.5109 36.8307 64.3419 37.0097 64.2193 37.245C64.1 37.477 64.0386 37.7571 64.0353 38.0852ZM78.2765 32.3182V42.5H76.1238V34.3615H76.0641L73.7324 35.8232V33.9141L76.253 32.3182H78.2765Z" fill="#675EF2"/>
<path d="M4.12926 73.6918C3.39631 73.6889 2.76563 73.5085 2.23722 73.1506C1.71165 72.7926 1.30682 72.2741 1.02273 71.5952C0.741477 70.9162 0.602273 70.0994 0.605114 69.1449C0.605114 68.1932 0.745739 67.3821 1.02699 66.7116C1.31108 66.0412 1.71591 65.5312 2.24148 65.1818C2.76989 64.8295 3.39915 64.6534 4.12926 64.6534C4.85938 64.6534 5.48722 64.8295 6.01278 65.1818C6.54119 65.5341 6.94744 66.0455 7.23153 66.7159C7.51563 67.3835 7.65625 68.1932 7.65341 69.1449C7.65341 70.1023 7.51136 70.9205 7.22727 71.5994C6.94602 72.2784 6.54261 72.7969 6.01705 73.1548C5.49148 73.5128 4.86222 73.6918 4.12926 73.6918ZM4.12926 72.1619C4.62926 72.1619 5.02841 71.9105 5.3267 71.4077C5.625 70.9048 5.77273 70.1506 5.76989 69.1449C5.76989 68.483 5.7017 67.9318 5.56534 67.4915C5.43182 67.0511 5.24148 66.7202 4.99432 66.4986C4.75 66.277 4.46165 66.1662 4.12926 66.1662C3.6321 66.1662 3.23438 66.4148 2.93608 66.9119C2.63778 67.4091 2.48722 68.1534 2.48438 69.1449C2.48438 69.8153 2.55114 70.375 2.68466 70.8239C2.82102 71.2699 3.01278 71.6051 3.25994 71.8295C3.5071 72.0511 3.79688 72.1619 4.12926 72.1619ZM12.1566 73.6193C11.5543 73.6193 11.0174 73.5085 10.5458 73.2869C10.0771 73.0653 9.7049 72.7599 9.42933 72.3707C9.15376 71.9815 9.0103 71.5355 8.99893 71.0327H10.7887C10.8086 71.3707 10.9506 71.6449 11.2148 71.8551C11.479 72.0653 11.793 72.1705 12.1566 72.1705C12.4464 72.1705 12.7021 72.1065 12.9237 71.9787C13.1481 71.848 13.3228 71.6676 13.4478 71.4375C13.5756 71.2045 13.6396 70.9375 13.6396 70.6364C13.6396 70.3295 13.5742 70.0597 13.4435 69.8267C13.3157 69.5937 13.1381 69.4119 12.9109 69.2812C12.6836 69.1506 12.4237 69.0838 12.131 69.081C11.8754 69.081 11.6268 69.1335 11.3853 69.2386C11.1467 69.3437 10.9606 69.4872 10.8271 69.669L9.18643 69.375L9.59979 64.7727H14.935V66.2812H11.1211L10.8952 68.4673H10.9464C11.0998 68.2514 11.3313 68.0724 11.641 67.9304C11.9506 67.7884 12.2972 67.7173 12.6808 67.7173C13.2063 67.7173 13.6751 67.8409 14.087 68.0881C14.4989 68.3352 14.8242 68.6747 15.0629 69.1065C15.3015 69.5355 15.4194 70.0298 15.4165 70.5895C15.4194 71.1776 15.283 71.7003 15.0075 72.1577C14.7347 72.6122 14.3526 72.9702 13.8612 73.2315C13.3725 73.4901 12.8043 73.6193 12.1566 73.6193ZM20.5217 64.3636L17.7092 74.8125H16.1452L18.9577 64.3636H20.5217ZM25.1761 64.7727V73.5H23.331V66.5241H23.2798L21.2812 67.777V66.1406L23.4418 64.7727H25.1761ZM30.4379 73.6193C29.8356 73.6193 29.2987 73.5085 28.8271 73.2869C28.3583 73.0653 27.9862 72.7599 27.7106 72.3707C27.435 71.9815 27.2915 71.5355 27.2802 71.0327H29.07C29.0898 71.3707 29.2319 71.6449 29.4961 71.8551C29.7603 72.0653 30.0742 72.1705 30.4379 72.1705C30.7276 72.1705 30.9833 72.1065 31.2049 71.9787C31.4293 71.848 31.604 71.6676 31.729 71.4375C31.8569 71.2045 31.9208 70.9375 31.9208 70.6364C31.9208 70.3295 31.8555 70.0597 31.7248 69.8267C31.5969 69.5937 31.4194 69.4119 31.1921 69.2812C30.9648 69.1506 30.7049 69.0838 30.4123 69.081C30.1566 69.081 29.908 69.1335 29.6665 69.2386C29.4279 69.3437 29.2418 69.4872 29.1083 69.669L27.4677 69.375L27.881 64.7727H33.2163V66.2812H29.4023L29.1765 68.4673H29.2276C29.381 68.2514 29.6126 68.0724 29.9222 67.9304C30.2319 67.7884 30.5785 67.7173 30.962 67.7173C31.4876 67.7173 31.9563 67.8409 32.3683 68.0881C32.7802 68.3352 33.1055 68.6747 33.3441 69.1065C33.5827 69.5355 33.7006 70.0298 33.6978 70.5895C33.7006 71.1776 33.5643 71.7003 33.2887 72.1577C33.016 72.6122 32.6339 72.9702 32.1424 73.2315C31.6538 73.4901 31.0856 73.6193 30.4379 73.6193Z" fill="#585858"/>
<path d="M1.17898 100.5V98.2841L6.35653 93.4901C6.79688 93.0639 7.16619 92.6804 7.46449 92.3395C7.76752 91.9986 7.99716 91.6648 8.15341 91.3381C8.30966 91.0066 8.38778 90.6491 8.38778 90.2656C8.38778 89.8395 8.29072 89.4725 8.09659 89.1648C7.90246 88.8523 7.63731 88.6132 7.30114 88.4474C6.96496 88.277 6.58381 88.1918 6.15767 88.1918C5.71259 88.1918 5.32434 88.2817 4.9929 88.4616C4.66146 88.6416 4.40578 88.8996 4.22585 89.2358C4.04593 89.572 3.95597 89.9721 3.95597 90.4361H1.03693C1.03693 89.4844 1.25237 88.6581 1.68324 87.9574C2.11411 87.2566 2.7178 86.7145 3.49432 86.331C4.27083 85.9474 5.16572 85.7557 6.17898 85.7557C7.22064 85.7557 8.12737 85.9403 8.89915 86.3097C9.67566 86.6742 10.2794 87.1809 10.7102 87.8295C11.1411 88.4782 11.3565 89.2216 11.3565 90.0597C11.3565 90.6089 11.2476 91.151 11.0298 91.6861C10.8168 92.2211 10.4356 92.8153 9.88636 93.4688C9.33712 94.1174 8.56297 94.8963 7.56392 95.8054L5.44034 97.8864V97.9858H11.5483V100.5H1.17898ZM15.5735 100.685C15.1048 100.685 14.7023 100.519 14.3661 100.188C14.0347 99.8513 13.869 99.4489 13.869 98.9801C13.869 98.5161 14.0347 98.1184 14.3661 97.7869C14.7023 97.4555 15.1048 97.2898 15.5735 97.2898C16.0281 97.2898 16.4258 97.4555 16.7667 97.7869C17.1076 98.1184 17.2781 98.5161 17.2781 98.9801C17.2781 99.2926 17.1976 99.5791 17.0366 99.8395C16.8803 100.095 16.6744 100.301 16.4187 100.457C16.163 100.609 15.8813 100.685 15.5735 100.685ZM24.2454 85.9545V100.5H21.1701V88.8736H21.0849L17.7539 90.9616V88.2344L21.3548 85.9545H24.2454ZM27.7024 100.5V98.2841L32.88 93.4901C33.3203 93.0639 33.6896 92.6804 33.9879 92.3395C34.291 91.9986 34.5206 91.6648 34.6768 91.3381C34.8331 91.0066 34.9112 90.6491 34.9112 90.2656C34.9112 89.8395 34.8142 89.4725 34.62 89.1648C34.4259 88.8523 34.1607 88.6132 33.8246 88.4474C33.4884 88.277 33.1072 88.1918 32.6811 88.1918C32.236 88.1918 31.8478 88.2817 31.5163 88.4616C31.1849 88.6416 30.9292 88.8996 30.7493 89.2358C30.5694 89.572 30.4794 89.9721 30.4794 90.4361H27.5604C27.5604 89.4844 27.7758 88.6581 28.2067 87.9574C28.6375 87.2566 29.2412 86.7145 30.0178 86.331C30.7943 85.9474 31.6892 85.7557 32.7024 85.7557C33.7441 85.7557 34.6508 85.9403 35.4226 86.3097C36.1991 86.6742 36.8028 87.1809 37.2337 87.8295C37.6645 88.4782 37.88 89.2216 37.88 90.0597C37.88 90.6089 37.7711 91.151 37.5533 91.6861C37.3402 92.2211 36.959 92.8153 36.4098 93.4688C35.8606 94.1174 35.0864 94.8963 34.0874 95.8054L31.9638 97.8864V97.9858H38.0717V100.5H27.7024ZM40.3853 85.9545H44.1779L48.1836 95.7273H48.354L52.3597 85.9545H56.1523V100.5H53.1694V91.0327H53.0487L49.2844 100.429H47.2532L43.489 90.9972H43.3683V100.5H40.3853V85.9545ZM66.369 100.706C65.6729 100.706 65.0527 100.585 64.5082 100.344C63.9637 100.098 63.5328 99.7353 63.2156 99.2571C62.9031 98.7741 62.7468 98.1728 62.7468 97.4531C62.7468 96.8471 62.8581 96.3381 63.0806 95.9261C63.3031 95.5142 63.6062 95.1828 63.9897 94.9318C64.3732 94.6809 64.8088 94.4915 65.2965 94.3636C65.7889 94.2358 66.305 94.1458 66.8448 94.0938C67.4793 94.0275 67.9906 93.9659 68.3789 93.9091C68.7672 93.8475 69.0489 93.7576 69.2241 93.6392C69.3993 93.5208 69.4869 93.3456 69.4869 93.1136V93.071C69.4869 92.6212 69.3448 92.2732 69.0607 92.027C68.7814 91.7808 68.3836 91.6577 67.8675 91.6577C67.323 91.6577 66.8898 91.7784 66.5678 92.0199C66.2459 92.2566 66.0328 92.5549 65.9286 92.9148L63.1303 92.6875C63.2724 92.0246 63.5517 91.4517 63.9684 90.9688C64.3851 90.4811 64.9225 90.107 65.5806 89.8466C66.2435 89.5814 67.0105 89.4489 67.8817 89.4489C68.4878 89.4489 69.0678 89.5199 69.6218 89.6619C70.1805 89.804 70.6753 90.0241 71.1062 90.3224C71.5418 90.6207 71.8851 91.0043 72.136 91.473C72.387 91.937 72.5124 92.4934 72.5124 93.142V100.5H69.6431V98.9872H69.5579C69.3827 99.3281 69.1483 99.6288 68.8548 99.8892C68.5612 100.145 68.2085 100.346 67.7965 100.493C67.3846 100.635 66.9087 100.706 66.369 100.706ZM67.2354 98.6179C67.6805 98.6179 68.0735 98.5303 68.4144 98.3551C68.7553 98.1752 69.0228 97.9337 69.217 97.6307C69.4111 97.3277 69.5082 96.9844 69.5082 96.6009V95.4432C69.4135 95.5047 69.2833 95.5616 69.1175 95.6136C68.9566 95.661 68.7743 95.706 68.5707 95.7486C68.3671 95.7865 68.1635 95.822 67.9599 95.8551C67.7563 95.8835 67.5716 95.9096 67.4059 95.9332C67.0508 95.9853 66.7406 96.0682 66.4755 96.1818C66.2103 96.2955 66.0044 96.4493 65.8576 96.6435C65.7108 96.8329 65.6374 97.0696 65.6374 97.3537C65.6374 97.7656 65.7866 98.0805 66.0849 98.2983C66.3879 98.5114 66.7714 98.6179 67.2354 98.6179ZM74.8597 100.5V89.5909H77.793V91.4943H77.9066C78.1055 90.8172 78.4393 90.3059 78.908 89.9602C79.3768 89.6098 79.9165 89.4347 80.5273 89.4347C80.6789 89.4347 80.8422 89.4441 81.0174 89.4631C81.1926 89.482 81.3465 89.508 81.479 89.5412V92.2259C81.337 92.1832 81.1405 92.1454 80.8896 92.1122C80.6386 92.0791 80.409 92.0625 80.2006 92.0625C79.7556 92.0625 79.3578 92.1596 79.0075 92.3537C78.6618 92.5431 78.3872 92.8082 78.1836 93.1491C77.9847 93.4901 77.8853 93.883 77.8853 94.3281V100.5H74.8597ZM89.3928 89.5909V91.8636H82.8232V89.5909H89.3928ZM84.3146 86.9773H87.3402V97.1477C87.3402 97.4271 87.3828 97.6449 87.468 97.8011C87.5533 97.9527 87.6716 98.0592 87.8232 98.1207C87.9794 98.1823 88.1593 98.2131 88.3629 98.2131C88.505 98.2131 88.647 98.2012 88.7891 98.1776C88.9311 98.1491 89.04 98.1278 89.1158 98.1136L89.5916 100.365C89.4401 100.412 89.227 100.467 88.9524 100.528C88.6778 100.595 88.344 100.635 87.951 100.649C87.2218 100.678 86.5826 100.58 86.0334 100.358C85.4889 100.135 85.0651 99.7898 84.7621 99.321C84.459 98.8523 84.3099 98.2604 84.3146 97.5455V86.9773ZM91.3636 100.5V89.5909H94.3892V100.5H91.3636ZM92.8835 88.1847C92.4337 88.1847 92.0478 88.0355 91.7259 87.7372C91.4086 87.4342 91.25 87.072 91.25 86.6506C91.25 86.2339 91.4086 85.8764 91.7259 85.5781C92.0478 85.2751 92.4337 85.1236 92.8835 85.1236C93.3333 85.1236 93.7169 85.2751 94.0341 85.5781C94.3561 85.8764 94.517 86.2339 94.517 86.6506C94.517 87.072 94.3561 87.4342 94.0341 87.7372C93.7169 88.0355 93.3333 88.1847 92.8835 88.1847ZM101.742 100.713C100.624 100.713 99.6632 100.476 98.8583 100.003C98.0581 99.5246 97.4426 98.8617 97.0117 98.0142C96.5856 97.1667 96.3725 96.1913 96.3725 95.0881C96.3725 93.9706 96.5879 92.9905 97.0188 92.1477C97.4544 91.3002 98.0723 90.6397 98.8725 90.1662C99.6727 89.688 100.624 89.4489 101.728 89.4489C102.679 89.4489 103.513 89.6217 104.228 89.9673C104.943 90.313 105.508 90.7983 105.925 91.4233C106.342 92.0483 106.571 92.7822 106.614 93.625H103.759C103.678 93.0805 103.465 92.6425 103.12 92.3111C102.779 91.9749 102.331 91.8068 101.777 91.8068C101.309 91.8068 100.899 91.9347 100.549 92.1903C100.203 92.4413 99.9331 92.8082 99.739 93.2912C99.5449 93.7741 99.4478 94.3589 99.4478 95.0455C99.4478 95.7415 99.5425 96.3333 99.7319 96.821C99.926 97.3087 100.198 97.6804 100.549 97.9361C100.899 98.1918 101.309 98.3196 101.777 98.3196C102.123 98.3196 102.433 98.2486 102.708 98.1065C102.987 97.9645 103.217 97.7585 103.397 97.4886C103.581 97.214 103.702 96.8849 103.759 96.5014H106.614C106.567 97.3348 106.339 98.0687 105.932 98.7031C105.53 99.3329 104.973 99.8253 104.263 100.18C103.553 100.536 102.712 100.713 101.742 100.713ZM111.577 85.9545V100.5H108.551V85.9545H111.577ZM118.972 100.713C117.85 100.713 116.884 100.486 116.074 100.031C115.269 99.572 114.649 98.9233 114.213 98.0852C113.778 97.2424 113.56 96.2457 113.56 95.0952C113.56 93.973 113.778 92.9882 114.213 92.1406C114.649 91.2931 115.262 90.6326 116.053 90.1591C116.848 89.6856 117.781 89.4489 118.851 89.4489C119.571 89.4489 120.241 89.5649 120.861 89.7969C121.486 90.0241 122.031 90.3674 122.495 90.8267C122.963 91.286 123.328 91.8636 123.588 92.5597C123.849 93.2509 123.979 94.0606 123.979 94.9886V95.8196H114.767V93.9446H121.131C121.131 93.509 121.036 93.1231 120.847 92.7869C120.658 92.4508 120.395 92.188 120.059 91.9986C119.727 91.8045 119.341 91.7074 118.901 91.7074C118.442 91.7074 118.034 91.8139 117.679 92.027C117.329 92.2353 117.054 92.517 116.855 92.8722C116.657 93.2225 116.555 93.6132 116.55 94.044V95.8267C116.55 96.3665 116.65 96.8329 116.848 97.2259C117.052 97.6188 117.338 97.9219 117.708 98.1349C118.077 98.348 118.515 98.4545 119.022 98.4545C119.358 98.4545 119.666 98.4072 119.945 98.3125C120.224 98.2178 120.463 98.0758 120.662 97.8864C120.861 97.697 121.013 97.465 121.117 97.1903L123.915 97.375C123.773 98.0473 123.482 98.6345 123.042 99.1364C122.606 99.6335 122.042 100.022 121.351 100.301C120.665 100.576 119.872 100.713 118.972 100.713ZM135.03 92.7017L132.26 92.8722C132.213 92.6354 132.111 92.4223 131.955 92.233C131.799 92.0388 131.593 91.8849 131.337 91.7713C131.086 91.6529 130.785 91.5938 130.435 91.5938C129.966 91.5938 129.571 91.6932 129.249 91.892C128.927 92.0862 128.766 92.3466 128.766 92.6733C128.766 92.9337 128.87 93.1539 129.078 93.3338C129.287 93.5137 129.644 93.6581 130.151 93.767L132.125 94.1648C133.186 94.3826 133.977 94.733 134.498 95.2159C135.018 95.6989 135.279 96.3333 135.279 97.1193C135.279 97.8343 135.068 98.4616 134.647 99.0014C134.23 99.5412 133.657 99.9626 132.928 100.266C132.203 100.564 131.368 100.713 130.421 100.713C128.977 100.713 127.826 100.412 126.969 99.8111C126.117 99.205 125.617 98.3812 125.471 97.3395L128.446 97.1832C128.536 97.6236 128.754 97.9598 129.1 98.1918C129.445 98.419 129.888 98.5327 130.428 98.5327C130.958 98.5327 131.384 98.4309 131.706 98.2273C132.033 98.0189 132.199 97.7514 132.203 97.4247C132.199 97.1501 132.083 96.9252 131.855 96.75C131.628 96.5701 131.278 96.4328 130.804 96.3381L128.915 95.9616C127.85 95.7486 127.057 95.3793 126.536 94.8537C126.02 94.3281 125.762 93.6581 125.762 92.8438C125.762 92.143 125.951 91.5393 126.33 91.0327C126.713 90.526 127.251 90.1354 127.942 89.8608C128.638 89.5862 129.453 89.4489 130.385 89.4489C131.763 89.4489 132.847 89.7401 133.638 90.3224C134.434 90.9048 134.898 91.6979 135.03 92.7017Z" fill="black"/>
</svg>
