<svg width="831" height="335" viewBox="0 0 831 335" fill="none" xmlns="http://www.w3.org/2000/svg">
<rect x="323.611" y="322.5" width="12" height="12" fill="#8F82FF"/>
<path d="M344.58 333V325H347.377C347.934 325 348.394 325.096 348.756 325.289C349.118 325.479 349.387 325.736 349.564 326.059C349.742 326.379 349.83 326.734 349.83 327.125C349.83 327.469 349.769 327.753 349.646 327.977C349.527 328.201 349.368 328.378 349.17 328.508C348.975 328.638 348.762 328.734 348.533 328.797V328.875C348.778 328.891 349.024 328.977 349.271 329.133C349.519 329.289 349.726 329.513 349.893 329.805C350.059 330.096 350.143 330.453 350.143 330.875C350.143 331.276 350.051 331.637 349.869 331.957C349.687 332.277 349.399 332.531 349.006 332.719C348.613 332.906 348.101 333 347.471 333H344.58ZM345.549 332.141H347.471C348.104 332.141 348.553 332.018 348.818 331.773C349.087 331.526 349.221 331.227 349.221 330.875C349.221 330.604 349.152 330.354 349.014 330.125C348.876 329.893 348.679 329.708 348.424 329.57C348.169 329.43 347.867 329.359 347.518 329.359H345.549V332.141ZM345.549 328.516H347.346C347.637 328.516 347.9 328.458 348.135 328.344C348.372 328.229 348.559 328.068 348.697 327.859C348.838 327.651 348.908 327.406 348.908 327.125C348.908 326.773 348.786 326.475 348.541 326.23C348.296 325.983 347.908 325.859 347.377 325.859H345.549V328.516ZM351.609 333V327H352.5V327.906H352.563C352.672 327.609 352.87 327.368 353.156 327.184C353.443 326.999 353.766 326.906 354.125 326.906C354.193 326.906 354.277 326.908 354.379 326.91C354.48 326.913 354.557 326.917 354.609 326.922V327.859C354.578 327.852 354.507 327.84 354.395 327.824C354.285 327.806 354.169 327.797 354.047 327.797C353.755 327.797 353.495 327.858 353.266 327.98C353.039 328.1 352.859 328.267 352.727 328.48C352.596 328.691 352.531 328.932 352.531 329.203V333H351.609ZM357.957 333.125C357.415 333.125 356.94 332.996 356.531 332.738C356.125 332.48 355.807 332.12 355.578 331.656C355.352 331.193 355.238 330.651 355.238 330.031C355.238 329.406 355.352 328.861 355.578 328.395C355.807 327.928 356.125 327.566 356.531 327.309C356.94 327.051 357.415 326.922 357.957 326.922C358.499 326.922 358.973 327.051 359.379 327.309C359.788 327.566 360.105 327.928 360.332 328.395C360.561 328.861 360.676 329.406 360.676 330.031C360.676 330.651 360.561 331.193 360.332 331.656C360.105 332.12 359.788 332.48 359.379 332.738C358.973 332.996 358.499 333.125 357.957 333.125ZM357.957 332.297C358.368 332.297 358.707 332.191 358.973 331.98C359.238 331.77 359.435 331.492 359.563 331.148C359.69 330.805 359.754 330.432 359.754 330.031C359.754 329.63 359.69 329.257 359.563 328.91C359.435 328.564 359.238 328.284 358.973 328.07C358.707 327.857 358.368 327.75 357.957 327.75C357.546 327.75 357.207 327.857 356.941 328.07C356.676 328.284 356.479 328.564 356.352 328.91C356.224 329.257 356.16 329.63 356.16 330.031C356.16 330.432 356.224 330.805 356.352 331.148C356.479 331.492 356.676 331.77 356.941 331.98C357.207 332.191 357.546 332.297 357.957 332.297ZM363.849 333.141C363.468 333.141 363.123 333.069 362.813 332.926C362.504 332.78 362.257 332.57 362.075 332.297C361.893 332.021 361.802 331.687 361.802 331.297C361.802 330.953 361.869 330.674 362.005 330.461C362.14 330.245 362.321 330.076 362.548 329.953C362.774 329.831 363.024 329.74 363.298 329.68C363.574 329.617 363.851 329.568 364.13 329.531C364.494 329.484 364.79 329.449 365.017 329.426C365.246 329.4 365.412 329.357 365.517 329.297C365.623 329.237 365.677 329.133 365.677 328.984V328.953C365.677 328.568 365.571 328.268 365.36 328.055C365.152 327.841 364.836 327.734 364.411 327.734C363.971 327.734 363.626 327.831 363.376 328.023C363.126 328.216 362.95 328.422 362.849 328.641L361.974 328.328C362.13 327.964 362.338 327.68 362.599 327.477C362.862 327.271 363.148 327.128 363.458 327.047C363.771 326.964 364.078 326.922 364.38 326.922C364.573 326.922 364.794 326.945 365.044 326.992C365.297 327.036 365.54 327.129 365.774 327.27C366.011 327.41 366.208 327.622 366.364 327.906C366.521 328.19 366.599 328.57 366.599 329.047V333H365.677V332.187H365.63C365.567 332.318 365.463 332.457 365.317 332.605C365.172 332.754 364.978 332.88 364.735 332.984C364.493 333.089 364.198 333.141 363.849 333.141ZM363.989 332.312C364.354 332.312 364.661 332.241 364.911 332.098C365.164 331.954 365.354 331.77 365.481 331.543C365.612 331.316 365.677 331.078 365.677 330.828V329.984C365.638 330.031 365.552 330.074 365.419 330.113C365.289 330.15 365.138 330.182 364.966 330.211C364.797 330.237 364.631 330.26 364.47 330.281C364.311 330.299 364.182 330.315 364.083 330.328C363.843 330.359 363.619 330.41 363.411 330.48C363.205 330.548 363.039 330.651 362.911 330.789C362.786 330.924 362.724 331.109 362.724 331.344C362.724 331.664 362.842 331.906 363.079 332.07C363.319 332.232 363.622 332.312 363.989 332.312ZM370.547 333.125C370.047 333.125 369.605 332.999 369.223 332.746C368.84 332.491 368.54 332.132 368.324 331.668C368.108 331.202 368 330.651 368 330.016C368 329.385 368.108 328.839 368.324 328.375C368.54 327.911 368.841 327.553 369.227 327.301C369.612 327.048 370.057 326.922 370.562 326.922C370.953 326.922 371.262 326.987 371.488 327.117C371.717 327.245 371.892 327.391 372.012 327.555C372.134 327.716 372.229 327.849 372.297 327.953H372.375V325H373.297V333H372.406V332.078H372.297C372.229 332.187 372.133 332.326 372.008 332.492C371.883 332.656 371.704 332.803 371.473 332.934C371.241 333.061 370.932 333.125 370.547 333.125ZM370.672 332.297C371.042 332.297 371.354 332.201 371.609 332.008C371.865 331.812 372.059 331.543 372.191 331.199C372.324 330.853 372.391 330.453 372.391 330C372.391 329.552 372.326 329.16 372.195 328.824C372.065 328.486 371.872 328.223 371.617 328.035C371.362 327.845 371.047 327.75 370.672 327.75C370.281 327.75 369.956 327.85 369.695 328.051C369.438 328.249 369.243 328.518 369.113 328.859C368.986 329.198 368.922 329.578 368.922 330C368.922 330.427 368.987 330.815 369.117 331.164C369.25 331.51 369.445 331.786 369.703 331.992C369.964 332.195 370.286 332.297 370.672 332.297ZM377.551 333.125C376.988 333.125 376.504 332.992 376.098 332.727C375.691 332.461 375.379 332.095 375.16 331.629C374.941 331.163 374.832 330.63 374.832 330.031C374.832 329.422 374.944 328.884 375.168 328.418C375.395 327.949 375.71 327.583 376.113 327.32C376.52 327.055 376.993 326.922 377.535 326.922C377.957 326.922 378.337 327 378.676 327.156C379.014 327.312 379.292 327.531 379.508 327.812C379.724 328.094 379.858 328.422 379.91 328.797H378.988C378.918 328.523 378.762 328.281 378.52 328.07C378.28 327.857 377.957 327.75 377.551 327.75C377.191 327.75 376.876 327.844 376.605 328.031C376.337 328.216 376.128 328.478 375.977 328.816C375.828 329.152 375.754 329.547 375.754 330C375.754 330.464 375.827 330.867 375.973 331.211C376.121 331.555 376.329 331.822 376.598 332.012C376.868 332.202 377.186 332.297 377.551 332.297C377.79 332.297 378.008 332.255 378.203 332.172C378.398 332.089 378.564 331.969 378.699 331.812C378.835 331.656 378.931 331.469 378.988 331.25H379.91C379.858 331.604 379.729 331.923 379.523 332.207C379.32 332.488 379.051 332.712 378.715 332.879C378.382 333.043 377.993 333.125 377.551 333.125ZM383.023 333.141C382.643 333.141 382.298 333.069 381.988 332.926C381.678 332.78 381.432 332.57 381.25 332.297C381.068 332.021 380.977 331.687 380.977 331.297C380.977 330.953 381.044 330.674 381.18 330.461C381.315 330.245 381.496 330.076 381.723 329.953C381.949 329.831 382.199 329.74 382.473 329.68C382.749 329.617 383.026 329.568 383.305 329.531C383.669 329.484 383.965 329.449 384.191 329.426C384.421 329.4 384.587 329.357 384.691 329.297C384.798 329.237 384.852 329.133 384.852 328.984V328.953C384.852 328.568 384.746 328.268 384.535 328.055C384.327 327.841 384.01 327.734 383.586 327.734C383.146 327.734 382.801 327.831 382.551 328.023C382.301 328.216 382.125 328.422 382.023 328.641L381.148 328.328C381.305 327.964 381.513 327.68 381.773 327.477C382.036 327.271 382.323 327.128 382.633 327.047C382.945 326.964 383.253 326.922 383.555 326.922C383.747 326.922 383.969 326.945 384.219 326.992C384.471 327.036 384.715 327.129 384.949 327.27C385.186 327.41 385.383 327.622 385.539 327.906C385.695 328.19 385.773 328.57 385.773 329.047V333H384.852V332.187H384.805C384.742 332.318 384.638 332.457 384.492 332.605C384.346 332.754 384.152 332.88 383.91 332.984C383.668 333.089 383.372 333.141 383.023 333.141ZM383.164 332.312C383.529 332.312 383.836 332.241 384.086 332.098C384.339 331.954 384.529 331.77 384.656 331.543C384.786 331.316 384.852 331.078 384.852 330.828V329.984C384.813 330.031 384.727 330.074 384.594 330.113C384.464 330.15 384.312 330.182 384.141 330.211C383.971 330.237 383.806 330.26 383.645 330.281C383.486 330.299 383.357 330.315 383.258 330.328C383.018 330.359 382.794 330.41 382.586 330.48C382.38 330.548 382.214 330.651 382.086 330.789C381.961 330.924 381.898 331.109 381.898 331.344C381.898 331.664 382.017 331.906 382.254 332.07C382.493 332.232 382.797 332.312 383.164 332.312ZM391.706 328.344L390.878 328.578C390.826 328.44 390.749 328.306 390.647 328.176C390.549 328.043 390.413 327.934 390.241 327.848C390.069 327.762 389.849 327.719 389.581 327.719C389.214 327.719 388.908 327.803 388.663 327.973C388.421 328.139 388.3 328.352 388.3 328.609C388.3 328.839 388.383 329.02 388.55 329.152C388.716 329.285 388.977 329.396 389.331 329.484L390.222 329.703C390.758 329.833 391.158 330.033 391.421 330.301C391.684 330.566 391.815 330.909 391.815 331.328C391.815 331.672 391.716 331.979 391.519 332.25C391.323 332.521 391.05 332.734 390.698 332.891C390.347 333.047 389.938 333.125 389.472 333.125C388.86 333.125 388.353 332.992 387.952 332.727C387.551 332.461 387.297 332.073 387.19 331.562L388.065 331.344C388.149 331.667 388.306 331.909 388.538 332.07C388.772 332.232 389.078 332.312 389.456 332.312C389.886 332.312 390.227 332.221 390.479 332.039C390.735 331.854 390.862 331.633 390.862 331.375C390.862 331.167 390.789 330.992 390.644 330.852C390.498 330.708 390.274 330.602 389.972 330.531L388.972 330.297C388.422 330.167 388.019 329.965 387.761 329.691C387.506 329.415 387.378 329.07 387.378 328.656C387.378 328.318 387.473 328.018 387.663 327.758C387.856 327.497 388.118 327.293 388.448 327.145C388.782 326.996 389.159 326.922 389.581 326.922C390.175 326.922 390.641 327.052 390.979 327.312C391.321 327.573 391.563 327.917 391.706 328.344ZM395.813 327V327.781H392.703V327H395.813ZM393.609 325.562H394.531V331.281C394.531 331.542 394.569 331.737 394.645 331.867C394.723 331.995 394.822 332.081 394.941 332.125C395.064 332.167 395.193 332.187 395.328 332.187C395.43 332.187 395.513 332.182 395.578 332.172C395.643 332.159 395.695 332.148 395.734 332.141L395.922 332.969C395.859 332.992 395.772 333.016 395.66 333.039C395.548 333.065 395.406 333.078 395.234 333.078C394.974 333.078 394.719 333.022 394.469 332.91C394.221 332.798 394.016 332.628 393.852 332.398C393.69 332.169 393.609 331.88 393.609 331.531V325.562Z" fill="#585858"/>
<rect x="412.611" y="322.5" width="12" height="12" fill="#FF6888"/>
<path d="M433.58 333V325H436.283C436.911 325 437.424 325.113 437.822 325.34C438.223 325.564 438.52 325.867 438.713 326.25C438.906 326.633 439.002 327.06 439.002 327.531C439.002 328.003 438.906 328.431 438.713 328.816C438.523 329.202 438.229 329.509 437.83 329.738C437.432 329.965 436.921 330.078 436.299 330.078H434.361V329.219H436.268C436.697 329.219 437.042 329.145 437.303 328.996C437.563 328.848 437.752 328.647 437.869 328.395C437.989 328.139 438.049 327.852 438.049 327.531C438.049 327.211 437.989 326.924 437.869 326.672C437.752 326.419 437.562 326.221 437.299 326.078C437.036 325.932 436.687 325.859 436.252 325.859H434.549V333H433.58ZM440.438 333V327H441.328V327.906H441.391C441.5 327.609 441.698 327.368 441.984 327.184C442.271 326.999 442.594 326.906 442.953 326.906C443.021 326.906 443.105 326.908 443.207 326.91C443.309 326.913 443.385 326.917 443.438 326.922V327.859C443.406 327.852 443.335 327.84 443.223 327.824C443.113 327.806 442.997 327.797 442.875 327.797C442.583 327.797 442.323 327.858 442.094 327.98C441.867 328.1 441.688 328.267 441.555 328.48C441.424 328.691 441.359 328.932 441.359 329.203V333H440.438ZM444.53 333V327H445.452V333H444.53ZM444.999 326C444.819 326 444.664 325.939 444.534 325.816C444.407 325.694 444.343 325.547 444.343 325.375C444.343 325.203 444.407 325.056 444.534 324.934C444.664 324.811 444.819 324.75 444.999 324.75C445.179 324.75 445.332 324.811 445.46 324.934C445.59 325.056 445.655 325.203 445.655 325.375C445.655 325.547 445.59 325.694 445.46 325.816C445.332 325.939 445.179 326 444.999 326ZM448.063 329.391V333H447.141V327H448.031V327.937H448.109C448.25 327.633 448.464 327.388 448.75 327.203C449.036 327.016 449.406 326.922 449.859 326.922C450.266 326.922 450.621 327.005 450.926 327.172C451.23 327.336 451.467 327.586 451.637 327.922C451.806 328.255 451.891 328.677 451.891 329.188V333H450.969V329.25C450.969 328.779 450.846 328.411 450.602 328.148C450.357 327.883 450.021 327.75 449.594 327.75C449.299 327.75 449.036 327.814 448.805 327.941C448.576 328.069 448.395 328.255 448.262 328.5C448.129 328.745 448.063 329.042 448.063 329.391ZM456.185 327V327.781H453.075V327H456.185ZM453.981 325.562H454.903V331.281C454.903 331.542 454.941 331.737 455.017 331.867C455.095 331.995 455.194 332.081 455.313 332.125C455.436 332.167 455.565 332.187 455.7 332.187C455.802 332.187 455.885 332.182 455.95 332.172C456.015 332.159 456.067 332.148 456.106 332.141L456.294 332.969C456.231 332.992 456.144 333.016 456.032 333.039C455.92 333.065 455.778 333.078 455.606 333.078C455.346 333.078 455.091 333.022 454.841 332.91C454.593 332.798 454.388 332.628 454.224 332.398C454.062 332.169 453.981 331.88 453.981 331.531V325.562Z" fill="#585858"/>
<rect x="473.611" y="322.5" width="12" height="12" fill="#FFBE6A"/>
<path d="M501.33 329C501.33 329.844 501.178 330.573 500.873 331.187C500.568 331.802 500.15 332.276 499.619 332.609C499.088 332.943 498.481 333.109 497.799 333.109C497.117 333.109 496.51 332.943 495.979 332.609C495.447 332.276 495.029 331.802 494.725 331.187C494.42 330.573 494.268 329.844 494.268 329C494.268 328.156 494.42 327.427 494.725 326.812C495.029 326.198 495.447 325.724 495.979 325.391C496.51 325.057 497.117 324.891 497.799 324.891C498.481 324.891 499.088 325.057 499.619 325.391C500.15 325.724 500.568 326.198 500.873 326.812C501.178 327.427 501.33 328.156 501.33 329ZM500.393 329C500.393 328.307 500.277 327.723 500.045 327.246C499.816 326.77 499.505 326.409 499.111 326.164C498.721 325.919 498.283 325.797 497.799 325.797C497.314 325.797 496.876 325.919 496.482 326.164C496.092 326.409 495.781 326.77 495.549 327.246C495.32 327.723 495.205 328.307 495.205 329C495.205 329.693 495.32 330.277 495.549 330.754C495.781 331.23 496.092 331.591 496.482 331.836C496.876 332.081 497.314 332.203 497.799 332.203C498.283 332.203 498.721 332.081 499.111 331.836C499.505 331.591 499.816 331.23 500.045 330.754C500.277 330.277 500.393 329.693 500.393 329ZM503.756 329.391V333H502.834V327H503.725V327.937H503.803C503.943 327.633 504.157 327.388 504.443 327.203C504.73 327.016 505.1 326.922 505.553 326.922C505.959 326.922 506.314 327.005 506.619 327.172C506.924 327.336 507.161 327.586 507.33 327.922C507.499 328.255 507.584 328.677 507.584 329.188V333H506.662V329.25C506.662 328.779 506.54 328.411 506.295 328.148C506.05 327.883 505.714 327.75 505.287 327.75C504.993 327.75 504.73 327.814 504.498 327.941C504.269 328.069 504.088 328.255 503.955 328.5C503.822 328.745 503.756 329.042 503.756 329.391ZM510.19 325V333H509.269V325H510.19ZM511.879 333V327H512.801V333H511.879ZM512.348 326C512.168 326 512.013 325.939 511.883 325.816C511.755 325.694 511.691 325.547 511.691 325.375C511.691 325.203 511.755 325.056 511.883 324.934C512.013 324.811 512.168 324.75 512.348 324.75C512.527 324.75 512.681 324.811 512.809 324.934C512.939 325.056 513.004 325.203 513.004 325.375C513.004 325.547 512.939 325.694 512.809 325.816C512.681 325.939 512.527 326 512.348 326ZM515.411 329.391V333H514.489V327H515.38V327.937H515.458C515.599 327.633 515.812 327.388 516.099 327.203C516.385 327.016 516.755 326.922 517.208 326.922C517.614 326.922 517.97 327.005 518.274 327.172C518.579 327.336 518.816 327.586 518.985 327.922C519.155 328.255 519.239 328.677 519.239 329.188V333H518.317V329.25C518.317 328.779 518.195 328.411 517.95 328.148C517.705 327.883 517.369 327.75 516.942 327.75C516.648 327.75 516.385 327.814 516.153 327.941C515.924 328.069 515.743 328.255 515.61 328.5C515.478 328.745 515.411 329.042 515.411 329.391ZM523.439 333.125C522.861 333.125 522.363 332.997 521.943 332.742C521.527 332.484 521.205 332.125 520.979 331.664C520.755 331.201 520.643 330.661 520.643 330.047C520.643 329.432 520.755 328.891 520.979 328.422C521.205 327.951 521.52 327.583 521.924 327.32C522.33 327.055 522.804 326.922 523.346 326.922C523.658 326.922 523.967 326.974 524.271 327.078C524.576 327.182 524.854 327.352 525.104 327.586C525.354 327.818 525.553 328.125 525.701 328.508C525.85 328.891 525.924 329.362 525.924 329.922V330.312H521.299V329.516H524.986C524.986 329.177 524.919 328.875 524.783 328.609C524.65 328.344 524.46 328.134 524.213 327.98C523.968 327.827 523.679 327.75 523.346 327.75C522.979 327.75 522.661 327.841 522.393 328.023C522.127 328.203 521.923 328.437 521.779 328.727C521.636 329.016 521.564 329.326 521.564 329.656V330.188C521.564 330.641 521.643 331.025 521.799 331.34C521.958 331.652 522.178 331.891 522.459 332.055C522.74 332.216 523.067 332.297 523.439 332.297C523.682 332.297 523.9 332.263 524.096 332.195C524.294 332.125 524.464 332.021 524.607 331.883C524.751 331.742 524.861 331.568 524.939 331.359L525.83 331.609C525.736 331.911 525.579 332.177 525.357 332.406C525.136 332.633 524.863 332.81 524.537 332.937C524.212 333.063 523.846 333.125 523.439 333.125Z" fill="#585858"/>
<path d="M80.0756 303.455H80.8683V308.134C80.8683 308.551 80.7915 308.906 80.6381 309.198C80.4847 309.49 80.2685 309.711 79.9893 309.863C79.7102 310.014 79.381 310.089 79.0018 310.089C78.6438 310.089 78.3253 310.025 78.0462 309.895C77.767 309.762 77.5476 309.575 77.3878 309.332C77.228 309.089 77.1481 308.8 77.1481 308.466H77.9279C77.9279 308.651 77.9737 308.813 78.0653 308.952C78.1591 309.088 78.2869 309.195 78.4489 309.271C78.6108 309.348 78.7951 309.386 79.0018 309.386C79.2298 309.386 79.4237 309.338 79.5835 309.243C79.7433 309.147 79.8647 309.006 79.9478 308.821C80.033 308.633 80.0756 308.404 80.0756 308.134V303.455ZM83.799 310.115C83.4879 310.115 83.2056 310.056 82.9521 309.939C82.6985 309.82 82.4972 309.648 82.348 309.425C82.1989 309.199 82.1243 308.926 82.1243 308.607C82.1243 308.325 82.1797 308.097 82.2905 307.923C82.4013 307.746 82.5494 307.607 82.7347 307.507C82.9201 307.407 83.1246 307.332 83.3484 307.283C83.5742 307.232 83.8011 307.192 84.0291 307.162C84.3274 307.124 84.5692 307.095 84.7546 307.076C84.9421 307.054 85.0785 307.019 85.1637 306.97C85.2511 306.921 85.2947 306.836 85.2947 306.714V306.689C85.2947 306.374 85.2085 306.129 85.0359 305.954C84.8654 305.779 84.6065 305.692 84.2592 305.692C83.8991 305.692 83.6168 305.771 83.4123 305.928C83.2077 306.086 83.0639 306.254 82.9808 306.433L82.2649 306.178C82.3928 305.879 82.5632 305.647 82.7763 305.481C82.9915 305.312 83.2259 305.195 83.4794 305.129C83.7351 305.061 83.9865 305.027 84.2337 305.027C84.3913 305.027 84.5724 305.046 84.777 305.085C84.9837 305.121 85.1829 305.196 85.3746 305.311C85.5685 305.426 85.7294 305.6 85.8572 305.832C85.9851 306.065 86.049 306.376 86.049 306.766V310H85.2947V309.335H85.2564C85.2053 309.442 85.12 309.556 85.0007 309.677C84.8814 309.799 84.7227 309.902 84.5245 309.987C84.3263 310.072 84.0845 310.115 83.799 310.115ZM83.9141 309.438C84.2124 309.438 84.4638 309.379 84.6683 309.262C84.875 309.145 85.0305 308.993 85.1349 308.808C85.2415 308.623 85.2947 308.428 85.2947 308.223V307.533C85.2628 307.571 85.1925 307.606 85.0838 307.638C84.9773 307.668 84.8537 307.695 84.7131 307.718C84.5746 307.739 84.4393 307.759 84.3072 307.776C84.1772 307.79 84.0717 307.803 83.9908 307.814C83.7947 307.839 83.6115 307.881 83.4411 307.939C83.2727 307.994 83.1364 308.078 83.032 308.191C82.9297 308.302 82.8786 308.453 82.8786 308.645C82.8786 308.907 82.9755 309.105 83.1694 309.239C83.3654 309.371 83.6136 309.438 83.9141 309.438ZM88.18 307.047V310H87.4257V305.091H88.1544V305.858H88.2183C88.3334 305.609 88.5081 305.408 88.7425 305.257C88.9768 305.104 89.2794 305.027 89.6501 305.027C89.9825 305.027 90.2733 305.095 90.5226 305.232C90.7719 305.366 90.9658 305.57 91.1043 305.845C91.2428 306.118 91.3121 306.463 91.3121 306.881V310H90.5578V306.932C90.5578 306.546 90.4577 306.246 90.2574 306.031C90.0571 305.813 89.7822 305.705 89.4328 305.705C89.192 305.705 88.9768 305.757 88.7872 305.861C88.5997 305.966 88.4516 306.118 88.343 306.318C88.2343 306.518 88.18 306.761 88.18 307.047Z" fill="#585858"/>
<path d="M213.243 310V303.455H217.168V304.158H214.035V306.369H216.873V307.072H214.035V310H213.243ZM220.121 310.102C219.648 310.102 219.24 309.998 218.897 309.789C218.556 309.578 218.293 309.284 218.107 308.907C217.924 308.528 217.832 308.087 217.832 307.584C217.832 307.081 217.924 306.638 218.107 306.254C218.293 305.869 218.55 305.568 218.881 305.353C219.213 305.136 219.601 305.027 220.044 305.027C220.3 305.027 220.552 305.07 220.801 305.155C221.051 305.24 221.278 305.379 221.482 305.57C221.687 305.76 221.85 306.011 221.971 306.325C222.093 306.638 222.153 307.023 222.153 307.482V307.801H218.369V307.149H221.386C221.386 306.872 221.331 306.625 221.22 306.408C221.111 306.19 220.956 306.019 220.753 305.893C220.553 305.767 220.317 305.705 220.044 305.705C219.744 305.705 219.484 305.779 219.264 305.928C219.047 306.075 218.88 306.267 218.762 306.504C218.645 306.74 218.587 306.994 218.587 307.264V307.699C218.587 308.07 218.65 308.384 218.778 308.642C218.908 308.897 219.088 309.092 219.318 309.227C219.549 309.359 219.816 309.425 220.121 309.425C220.319 309.425 220.498 309.397 220.658 309.342C220.82 309.284 220.959 309.199 221.076 309.086C221.193 308.971 221.284 308.828 221.348 308.658L222.077 308.862C222 309.109 221.871 309.327 221.69 309.514C221.509 309.7 221.285 309.844 221.019 309.949C220.752 310.051 220.453 310.102 220.121 310.102ZM223.403 310V303.455H224.157V305.871H224.221C224.277 305.786 224.353 305.677 224.451 305.545C224.551 305.411 224.694 305.291 224.88 305.187C225.067 305.08 225.321 305.027 225.64 305.027C226.054 305.027 226.418 305.13 226.733 305.337C227.049 305.544 227.295 305.837 227.472 306.216C227.648 306.595 227.737 307.043 227.737 307.558C227.737 308.078 227.648 308.529 227.472 308.91C227.295 309.289 227.05 309.583 226.736 309.792C226.423 309.999 226.062 310.102 225.653 310.102C225.338 310.102 225.085 310.05 224.896 309.946C224.706 309.839 224.56 309.719 224.458 309.585C224.355 309.448 224.277 309.335 224.221 309.246H224.132V310H223.403ZM224.144 307.545C224.144 307.916 224.199 308.243 224.307 308.527C224.416 308.808 224.575 309.028 224.784 309.188C224.992 309.346 225.248 309.425 225.551 309.425C225.866 309.425 226.129 309.342 226.34 309.175C226.553 309.007 226.713 308.781 226.82 308.498C226.928 308.212 226.983 307.895 226.983 307.545C226.983 307.2 226.929 306.889 226.823 306.612C226.718 306.333 226.56 306.113 226.347 305.951C226.136 305.787 225.87 305.705 225.551 305.705C225.244 305.705 224.986 305.782 224.777 305.938C224.568 306.091 224.411 306.306 224.304 306.583C224.198 306.858 224.144 307.179 224.144 307.545Z" fill="#585858"/>
<path d="M349.766 303.455H350.712L352.937 308.888H353.013L355.238 303.455H356.184V310H355.442V305.027H355.378L353.333 310H352.617L350.572 305.027H350.508V310H349.766V303.455ZM359.115 310.115C358.804 310.115 358.522 310.056 358.268 309.939C358.015 309.82 357.814 309.648 357.664 309.425C357.515 309.199 357.441 308.926 357.441 308.607C357.441 308.325 357.496 308.097 357.607 307.923C357.718 307.746 357.866 307.607 358.051 307.507C358.237 307.407 358.441 307.332 358.665 307.283C358.891 307.232 359.118 307.192 359.346 307.162C359.644 307.124 359.886 307.095 360.071 307.076C360.259 307.054 360.395 307.019 360.48 306.97C360.567 306.921 360.611 306.836 360.611 306.714V306.689C360.611 306.374 360.525 306.129 360.352 305.954C360.182 305.779 359.923 305.692 359.576 305.692C359.216 305.692 358.933 305.771 358.729 305.928C358.524 306.086 358.38 306.254 358.297 306.433L357.581 306.178C357.709 305.879 357.88 305.647 358.093 305.481C358.308 305.312 358.542 305.195 358.796 305.129C359.051 305.061 359.303 305.027 359.55 305.027C359.708 305.027 359.889 305.046 360.093 305.085C360.3 305.121 360.499 305.196 360.691 305.311C360.885 305.426 361.046 305.6 361.174 305.832C361.301 306.065 361.365 306.376 361.365 306.766V310H360.611V309.335H360.573C360.522 309.442 360.436 309.556 360.317 309.677C360.198 309.799 360.039 309.902 359.841 309.987C359.643 310.072 359.401 310.115 359.115 310.115ZM359.23 309.438C359.529 309.438 359.78 309.379 359.985 309.262C360.191 309.145 360.347 308.993 360.451 308.808C360.558 308.623 360.611 308.428 360.611 308.223V307.533C360.579 307.571 360.509 307.606 360.4 307.638C360.294 307.668 360.17 307.695 360.029 307.718C359.891 307.739 359.756 307.759 359.624 307.776C359.494 307.79 359.388 307.803 359.307 307.814C359.111 307.839 358.928 307.881 358.757 307.939C358.589 307.994 358.453 308.078 358.348 308.191C358.246 308.302 358.195 308.453 358.195 308.645C358.195 308.907 358.292 309.105 358.486 309.239C358.682 309.371 358.93 309.438 359.23 309.438ZM362.742 310V305.091H363.471V305.832H363.522C363.611 305.589 363.773 305.392 364.008 305.241C364.242 305.09 364.506 305.014 364.8 305.014C364.856 305.014 364.925 305.015 365.008 305.017C365.091 305.02 365.154 305.023 365.197 305.027V305.794C365.171 305.788 365.112 305.778 365.021 305.765C364.931 305.75 364.837 305.743 364.736 305.743C364.498 305.743 364.285 305.793 364.097 305.893C363.912 305.991 363.765 306.127 363.656 306.302C363.55 306.475 363.496 306.672 363.496 306.893V310H362.742Z" fill="#585858"/>
<path d="M486.746 310H485.915L488.318 303.455H489.136L491.54 310H490.709L488.753 304.49H488.702L486.746 310ZM487.052 307.443H490.402V308.146H487.052V307.443ZM492.457 311.841V305.091H493.186V305.871H493.275C493.331 305.786 493.407 305.677 493.505 305.545C493.605 305.411 493.748 305.291 493.934 305.187C494.121 305.08 494.375 305.027 494.694 305.027C495.108 305.027 495.472 305.13 495.787 305.337C496.103 305.544 496.349 305.837 496.525 306.216C496.702 306.595 496.791 307.043 496.791 307.558C496.791 308.078 496.702 308.529 496.525 308.91C496.349 309.289 496.104 309.583 495.79 309.792C495.477 309.999 495.116 310.102 494.707 310.102C494.392 310.102 494.139 310.05 493.949 309.946C493.76 309.839 493.614 309.719 493.512 309.585C493.409 309.448 493.331 309.335 493.275 309.246H493.211V311.841H492.457ZM493.198 307.545C493.198 307.916 493.253 308.243 493.361 308.527C493.47 308.808 493.629 309.028 493.838 309.188C494.046 309.346 494.302 309.425 494.605 309.425C494.92 309.425 495.183 309.342 495.394 309.175C495.607 309.007 495.767 308.781 495.873 308.498C495.982 308.212 496.036 307.895 496.036 307.545C496.036 307.2 495.983 306.889 495.877 306.612C495.772 306.333 495.614 306.113 495.4 305.951C495.19 305.787 494.924 305.705 494.605 305.705C494.298 305.705 494.04 305.782 493.831 305.938C493.622 306.091 493.465 306.306 493.358 306.583C493.252 306.858 493.198 307.179 493.198 307.545ZM497.941 310V305.091H498.67V305.832H498.721C498.811 305.589 498.973 305.392 499.207 305.241C499.441 305.09 499.706 305.014 500 305.014C500.055 305.014 500.124 305.015 500.207 305.017C500.29 305.02 500.353 305.023 500.396 305.027V305.794C500.37 305.788 500.312 305.778 500.22 305.765C500.131 305.75 500.036 305.743 499.936 305.743C499.697 305.743 499.484 305.793 499.296 305.893C499.111 305.991 498.964 306.127 498.855 306.302C498.749 306.475 498.696 306.672 498.696 306.893V310H497.941Z" fill="#585858"/>
<path d="M621.68 303.455H622.626L624.851 308.888H624.927L627.152 303.455H628.098V310H627.356V305.027H627.293L625.247 310H624.531L622.486 305.027H622.422V310H621.68V303.455ZM631.029 310.115C630.718 310.115 630.436 310.056 630.183 309.939C629.929 309.82 629.728 309.648 629.578 309.425C629.429 309.199 629.355 308.926 629.355 308.607C629.355 308.325 629.41 308.097 629.521 307.923C629.632 307.746 629.78 307.607 629.965 307.507C630.151 307.407 630.355 307.332 630.579 307.283C630.805 307.232 631.032 307.192 631.26 307.162C631.558 307.124 631.8 307.095 631.985 307.076C632.173 307.054 632.309 307.019 632.394 306.97C632.482 306.921 632.525 306.836 632.525 306.714V306.689C632.525 306.374 632.439 306.129 632.266 305.954C632.096 305.779 631.837 305.692 631.49 305.692C631.13 305.692 630.847 305.771 630.643 305.928C630.438 306.086 630.294 306.254 630.211 306.433L629.495 306.178C629.623 305.879 629.794 305.647 630.007 305.481C630.222 305.312 630.456 305.195 630.71 305.129C630.966 305.061 631.217 305.027 631.464 305.027C631.622 305.027 631.803 305.046 632.007 305.085C632.214 305.121 632.413 305.196 632.605 305.311C632.799 305.426 632.96 305.6 633.088 305.832C633.216 306.065 633.279 306.376 633.279 306.766V310H632.525V309.335H632.487C632.436 309.442 632.35 309.556 632.231 309.677C632.112 309.799 631.953 309.902 631.755 309.987C631.557 310.072 631.315 310.115 631.029 310.115ZM631.145 309.438C631.443 309.438 631.694 309.379 631.899 309.262C632.105 309.145 632.261 308.993 632.365 308.808C632.472 308.623 632.525 308.428 632.525 308.223V307.533C632.493 307.571 632.423 307.606 632.314 307.638C632.208 307.668 632.084 307.695 631.944 307.718C631.805 307.739 631.67 307.759 631.538 307.776C631.408 307.79 631.302 307.803 631.221 307.814C631.025 307.839 630.842 307.881 630.672 307.939C630.503 307.994 630.367 308.078 630.262 308.191C630.16 308.302 630.109 308.453 630.109 308.645C630.109 308.907 630.206 309.105 630.4 309.239C630.596 309.371 630.844 309.438 631.145 309.438ZM634.966 311.841C634.838 311.841 634.724 311.83 634.624 311.809C634.524 311.79 634.455 311.771 634.416 311.751L634.608 311.087C634.791 311.134 634.953 311.151 635.094 311.138C635.235 311.125 635.359 311.062 635.468 310.949C635.579 310.838 635.68 310.658 635.772 310.409L635.912 310.026L634.097 305.091H634.915L636.27 309.003H636.321L637.676 305.091H638.495L636.411 310.716C636.317 310.969 636.201 311.179 636.062 311.346C635.924 311.514 635.763 311.638 635.58 311.719C635.399 311.8 635.194 311.841 634.966 311.841Z" fill="#585858"/>
<path d="M762.917 303.455H763.71V308.134C763.71 308.551 763.633 308.906 763.48 309.198C763.327 309.49 763.11 309.711 762.831 309.863C762.552 310.014 762.223 310.089 761.844 310.089C761.486 310.089 761.167 310.025 760.888 309.895C760.609 309.762 760.389 309.575 760.23 309.332C760.07 309.089 759.99 308.8 759.99 308.466H760.77C760.77 308.651 760.816 308.813 760.907 308.952C761.001 309.088 761.129 309.195 761.291 309.271C761.453 309.348 761.637 309.386 761.844 309.386C762.072 309.386 762.265 309.338 762.425 309.243C762.585 309.147 762.706 309.006 762.79 308.821C762.875 308.633 762.917 308.404 762.917 308.134V303.455ZM768.29 307.993V305.091H769.044V310H768.29V309.169H768.239C768.124 309.418 767.945 309.63 767.702 309.805C767.459 309.978 767.152 310.064 766.781 310.064C766.475 310.064 766.202 309.997 765.963 309.863C765.725 309.726 765.537 309.522 765.401 309.249C765.264 308.974 765.196 308.628 765.196 308.21V305.091H765.95V308.159C765.95 308.517 766.051 308.803 766.251 309.016C766.453 309.229 766.711 309.335 767.024 309.335C767.212 309.335 767.403 309.287 767.596 309.191C767.792 309.096 767.956 308.949 768.089 308.75C768.223 308.552 768.29 308.3 768.29 307.993ZM771.18 307.047V310H770.426V305.091H771.154V305.858H771.218C771.333 305.609 771.508 305.408 771.742 305.257C771.977 305.104 772.279 305.027 772.65 305.027C772.983 305.027 773.273 305.095 773.523 305.232C773.772 305.366 773.966 305.57 774.104 305.845C774.243 306.118 774.312 306.463 774.312 306.881V310H773.558V306.932C773.558 306.546 773.458 306.246 773.257 306.031C773.057 305.813 772.782 305.705 772.433 305.705C772.192 305.705 771.977 305.757 771.787 305.861C771.6 305.966 771.452 306.118 771.343 306.318C771.234 306.518 771.18 306.761 771.18 307.047Z" fill="#585858"/>
<rect opacity="0.2" x="726" width="82" height="312" fill="#C3C7D9"/>
<path d="M1.40607 52.5V51.9247L3.56658 49.5597C3.82013 49.2827 4.02894 49.0419 4.193 48.8374C4.35707 48.6307 4.47852 48.4368 4.55735 48.2557C4.63832 48.0724 4.6788 47.8807 4.6788 47.6804C4.6788 47.4503 4.6234 47.2511 4.51261 47.0827C4.40394 46.9144 4.25479 46.7844 4.06516 46.6928C3.87553 46.6012 3.66246 46.5554 3.42596 46.5554C3.17454 46.5554 2.95508 46.6076 2.76758 46.712C2.58221 46.8143 2.43839 46.9581 2.33612 47.1435C2.23597 47.3288 2.1859 47.5462 2.1859 47.7955H1.43164C1.43164 47.4119 1.52006 47.0753 1.69691 46.7855C1.87376 46.4957 2.11452 46.2699 2.41921 46.108C2.72603 45.946 3.07013 45.8651 3.45153 45.8651C3.83505 45.8651 4.17489 45.946 4.47106 46.108C4.76722 46.2699 4.99947 46.4883 5.16779 46.7631C5.33612 47.038 5.42028 47.3438 5.42028 47.6804C5.42028 47.9212 5.3766 48.1566 5.28924 48.3867C5.20401 48.6147 5.05487 48.8693 4.8418 49.1506C4.63086 49.4297 4.33789 49.7706 3.96289 50.1733L2.49272 51.7457V51.7969H5.53533V52.5H1.40607ZM7.41779 52.5511C7.26012 52.5511 7.12482 52.4947 7.0119 52.3817C6.89897 52.2688 6.84251 52.1335 6.84251 51.9759C6.84251 51.8182 6.89897 51.6829 7.0119 51.57C7.12482 51.457 7.26012 51.4006 7.41779 51.4006C7.57546 51.4006 7.71076 51.457 7.82369 51.57C7.93661 51.6829 7.99308 51.8182 7.99308 51.9759C7.99308 52.0803 7.96644 52.1761 7.91317 52.2635C7.86204 52.3509 7.79279 52.4212 7.70543 52.4744C7.62021 52.5256 7.52433 52.5511 7.41779 52.5511ZM11.2474 52.5895C10.8724 52.5895 10.5347 52.5149 10.2343 52.3658C9.93386 52.2166 9.69309 52.0121 9.51199 51.7521C9.33088 51.4922 9.2318 51.196 9.21475 50.8636H9.9818C10.0116 51.1598 10.1459 51.4048 10.3845 51.5987C10.6253 51.7905 10.9129 51.8864 11.2474 51.8864C11.5159 51.8864 11.7545 51.8235 11.9633 51.6978C12.1743 51.5721 12.3394 51.3995 12.4587 51.18C12.5802 50.9585 12.6409 50.7081 12.6409 50.429C12.6409 50.1435 12.578 49.8888 12.4523 49.6651C12.3287 49.4393 12.1583 49.2614 11.941 49.1314C11.7236 49.0014 11.4754 48.9354 11.1963 48.9332C10.996 48.9311 10.7904 48.962 10.5795 49.0259C10.3685 49.0877 10.1949 49.1676 10.0585 49.2656L9.31703 49.1761L9.71333 45.9545H13.1139V46.6577H10.3781L10.148 48.5881H10.1863C10.3206 48.4815 10.4889 48.3931 10.6913 48.3228C10.8937 48.2525 11.1047 48.2173 11.3241 48.2173C11.7247 48.2173 12.0816 48.3132 12.3948 48.505C12.7101 48.6946 12.9573 48.9545 13.1363 49.2848C13.3174 49.6151 13.4079 49.9922 13.4079 50.4162C13.4079 50.8338 13.3142 51.2067 13.1267 51.5348C12.9413 51.8608 12.6856 52.1186 12.3596 52.3082C12.0336 52.4957 11.6629 52.5895 11.2474 52.5895ZM1.35334 100.5V99.9247L3.51385 97.5597C3.7674 97.2827 3.97621 97.0419 4.14027 96.8374C4.30433 96.6307 4.42578 96.4368 4.50462 96.2557C4.58558 96.0724 4.62607 95.8807 4.62607 95.6804C4.62607 95.4503 4.57067 95.2511 4.45987 95.0827C4.35121 94.9144 4.20206 94.7844 4.01243 94.6928C3.8228 94.6012 3.60973 94.5554 3.37322 94.5554C3.1218 94.5554 2.90234 94.6076 2.71484 94.712C2.52947 94.8143 2.38565 94.9581 2.28338 95.1435C2.18324 95.3288 2.13317 95.5462 2.13317 95.7955H1.37891C1.37891 95.4119 1.46733 95.0753 1.64418 94.7855C1.82102 94.4957 2.06179 94.2699 2.36648 94.108C2.6733 93.946 3.0174 93.8651 3.39879 93.8651C3.78232 93.8651 4.12216 93.946 4.41832 94.108C4.71449 94.2699 4.94673 94.4883 5.11506 94.7631C5.28338 95.038 5.36754 95.3438 5.36754 95.6804C5.36754 95.9212 5.32386 96.1566 5.23651 96.3867C5.15128 96.6147 5.00213 96.8693 4.78906 97.1506C4.57812 97.4297 4.28516 97.7706 3.91016 98.1733L2.43999 99.7457V99.7969H5.4826V100.5H1.35334ZM7.36506 100.551C7.20739 100.551 7.07209 100.495 6.95916 100.382C6.84624 100.269 6.78977 100.134 6.78977 99.9759C6.78977 99.8182 6.84624 99.6829 6.95916 99.57C7.07209 99.457 7.20739 99.4006 7.36506 99.4006C7.52273 99.4006 7.65803 99.457 7.77095 99.57C7.88388 99.6829 7.94034 99.8182 7.94034 99.9759C7.94034 100.08 7.91371 100.176 7.86044 100.263C7.8093 100.351 7.74006 100.421 7.6527 100.474C7.56747 100.526 7.47159 100.551 7.36506 100.551ZM11.1875 100.589C10.706 100.589 10.2958 100.458 9.95703 100.196C9.61825 99.9322 9.35938 99.5497 9.1804 99.049C9.00142 98.5462 8.91193 97.9389 8.91193 97.2273C8.91193 96.5199 9.00142 95.9158 9.1804 95.4151C9.36151 94.9123 9.62145 94.5288 9.96023 94.2646C10.3011 93.9982 10.7102 93.8651 11.1875 93.8651C11.6648 93.8651 12.0728 93.9982 12.4116 94.2646C12.7525 94.5288 13.0124 94.9123 13.1914 95.4151C13.3725 95.9158 13.4631 96.5199 13.4631 97.2273C13.4631 97.9389 13.3736 98.5462 13.1946 99.049C13.0156 99.5497 12.7567 99.9322 12.418 100.196C12.0792 100.458 11.669 100.589 11.1875 100.589ZM11.1875 99.8864C11.6648 99.8864 12.0355 99.6562 12.2997 99.196C12.5639 98.7358 12.696 98.0795 12.696 97.2273C12.696 96.6605 12.6353 96.1779 12.5138 95.7795C12.3945 95.381 12.2219 95.0774 11.9961 94.8686C11.7724 94.6598 11.5028 94.5554 11.1875 94.5554C10.7145 94.5554 10.3448 94.7887 10.0785 95.2553C9.81214 95.7198 9.67898 96.3771 9.67898 97.2273C9.67898 97.794 9.73864 98.2756 9.85795 98.6719C9.97727 99.0682 10.1488 99.3697 10.3725 99.5763C10.5984 99.783 10.87 99.8864 11.1875 99.8864ZM5.35955 141.955V148.5H4.56694V142.786H4.52859L2.93058 143.847V143.041L4.56694 141.955H5.35955ZM7.41779 148.551C7.26012 148.551 7.12482 148.495 7.0119 148.382C6.89897 148.269 6.84251 148.134 6.84251 147.976C6.84251 147.818 6.89897 147.683 7.0119 147.57C7.12482 147.457 7.26012 147.401 7.41779 147.401C7.57546 147.401 7.71076 147.457 7.82369 147.57C7.93661 147.683 7.99308 147.818 7.99308 147.976C7.99308 148.08 7.96644 148.176 7.91317 148.263C7.86204 148.351 7.79279 148.421 7.70543 148.474C7.62021 148.526 7.52433 148.551 7.41779 148.551ZM11.2474 148.589C10.8724 148.589 10.5347 148.515 10.2343 148.366C9.93386 148.217 9.69309 148.012 9.51199 147.752C9.33088 147.492 9.2318 147.196 9.21475 146.864H9.9818C10.0116 147.16 10.1459 147.405 10.3845 147.599C10.6253 147.79 10.9129 147.886 11.2474 147.886C11.5159 147.886 11.7545 147.824 11.9633 147.698C12.1743 147.572 12.3394 147.4 12.4587 147.18C12.5802 146.958 12.6409 146.708 12.6409 146.429C12.6409 146.143 12.578 145.889 12.4523 145.665C12.3287 145.439 12.1583 145.261 11.941 145.131C11.7236 145.001 11.4754 144.935 11.1963 144.933C10.996 144.931 10.7904 144.962 10.5795 145.026C10.3685 145.088 10.1949 145.168 10.0585 145.266L9.31703 145.176L9.71333 141.955H13.1139V142.658H10.3781L10.148 144.588H10.1863C10.3206 144.482 10.4889 144.393 10.6913 144.323C10.8937 144.252 11.1047 144.217 11.3241 144.217C11.7247 144.217 12.0816 144.313 12.3948 144.505C12.7101 144.695 12.9573 144.955 13.1363 145.285C13.3174 145.615 13.4079 145.992 13.4079 146.416C13.4079 146.834 13.3142 147.207 13.1267 147.535C12.9413 147.861 12.6856 148.119 12.3596 148.308C12.0336 148.496 11.6629 148.589 11.2474 148.589ZM5.30682 189.955V196.5H4.5142V190.786H4.47585L2.87784 191.847V191.041L4.5142 189.955H5.30682ZM7.36506 196.551C7.20739 196.551 7.07209 196.495 6.95916 196.382C6.84624 196.269 6.78977 196.134 6.78977 195.976C6.78977 195.818 6.84624 195.683 6.95916 195.57C7.07209 195.457 7.20739 195.401 7.36506 195.401C7.52273 195.401 7.65803 195.457 7.77095 195.57C7.88388 195.683 7.94034 195.818 7.94034 195.976C7.94034 196.08 7.91371 196.176 7.86044 196.263C7.8093 196.351 7.74006 196.421 7.6527 196.474C7.56747 196.526 7.47159 196.551 7.36506 196.551ZM11.1875 196.589C10.706 196.589 10.2958 196.458 9.95703 196.196C9.61825 195.932 9.35938 195.55 9.1804 195.049C9.00142 194.546 8.91193 193.939 8.91193 193.227C8.91193 192.52 9.00142 191.916 9.1804 191.415C9.36151 190.912 9.62145 190.529 9.96023 190.265C10.3011 189.998 10.7102 189.865 11.1875 189.865C11.6648 189.865 12.0728 189.998 12.4116 190.265C12.7525 190.529 13.0124 190.912 13.1914 191.415C13.3725 191.916 13.4631 192.52 13.4631 193.227C13.4631 193.939 13.3736 194.546 13.1946 195.049C13.0156 195.55 12.7567 195.932 12.418 196.196C12.0792 196.458 11.669 196.589 11.1875 196.589ZM11.1875 195.886C11.6648 195.886 12.0355 195.656 12.2997 195.196C12.5639 194.736 12.696 194.08 12.696 193.227C12.696 192.661 12.6353 192.178 12.5138 191.779C12.3945 191.381 12.2219 191.077 11.9961 190.869C11.7724 190.66 11.5028 190.555 11.1875 190.555C10.7145 190.555 10.3448 190.789 10.0785 191.255C9.81214 191.72 9.67898 192.377 9.67898 193.227C9.67898 193.794 9.73864 194.276 9.85795 194.672C9.97727 195.068 10.1488 195.37 10.3725 195.576C10.5984 195.783 10.87 195.886 11.1875 195.886ZM3.59375 244.589C3.11222 244.589 2.70206 244.458 2.36328 244.196C2.0245 243.932 1.76563 243.55 1.58665 243.049C1.40767 242.546 1.31818 241.939 1.31818 241.227C1.31818 240.52 1.40767 239.916 1.58665 239.415C1.76776 238.912 2.0277 238.529 2.36648 238.265C2.70739 237.998 3.11648 237.865 3.59375 237.865C4.07102 237.865 4.47905 237.998 4.81783 238.265C5.15874 238.529 5.41868 238.912 5.59766 239.415C5.77876 239.916 5.86932 240.52 5.86932 241.227C5.86932 241.939 5.77983 242.546 5.60085 243.049C5.42188 243.55 5.163 243.932 4.82422 244.196C4.48544 244.458 4.07528 244.589 3.59375 244.589ZM3.59375 243.886C4.07102 243.886 4.44176 243.656 4.70597 243.196C4.97017 242.736 5.10227 242.08 5.10227 241.227C5.10227 240.661 5.04155 240.178 4.9201 239.779C4.80078 239.381 4.6282 239.077 4.40234 238.869C4.17862 238.66 3.90909 238.555 3.59375 238.555C3.12074 238.555 2.75107 238.789 2.48473 239.255C2.21839 239.72 2.08523 240.377 2.08523 241.227C2.08523 241.794 2.14489 242.276 2.2642 242.672C2.38352 243.068 2.55504 243.37 2.77876 243.576C3.00462 243.783 3.27628 243.886 3.59375 243.886ZM7.41779 244.551C7.26012 244.551 7.12482 244.495 7.0119 244.382C6.89897 244.269 6.84251 244.134 6.84251 243.976C6.84251 243.818 6.89897 243.683 7.0119 243.57C7.12482 243.457 7.26012 243.401 7.41779 243.401C7.57546 243.401 7.71076 243.457 7.82369 243.57C7.93661 243.683 7.99308 243.818 7.99308 243.976C7.99308 244.08 7.96644 244.176 7.91317 244.263C7.86204 244.351 7.79279 244.421 7.70543 244.474C7.62021 244.526 7.52433 244.551 7.41779 244.551ZM11.2474 244.589C10.8724 244.589 10.5347 244.515 10.2343 244.366C9.93386 244.217 9.69309 244.012 9.51199 243.752C9.33088 243.492 9.2318 243.196 9.21475 242.864H9.9818C10.0116 243.16 10.1459 243.405 10.3845 243.599C10.6253 243.79 10.9129 243.886 11.2474 243.886C11.5159 243.886 11.7545 243.824 11.9633 243.698C12.1743 243.572 12.3394 243.4 12.4587 243.18C12.5802 242.958 12.6409 242.708 12.6409 242.429C12.6409 242.143 12.578 241.889 12.4523 241.665C12.3287 241.439 12.1583 241.261 11.941 241.131C11.7236 241.001 11.4754 240.935 11.1963 240.933C10.996 240.931 10.7904 240.962 10.5795 241.026C10.3685 241.088 10.1949 241.168 10.0585 241.266L9.31703 241.176L9.71333 237.955H13.1139V238.658H10.3781L10.148 240.588H10.1863C10.3206 240.482 10.4889 240.393 10.6913 240.323C10.8937 240.252 11.1047 240.217 11.3241 240.217C11.7247 240.217 12.0816 240.313 12.3948 240.505C12.7101 240.695 12.9573 240.955 13.1363 241.285C13.3174 241.615 13.4079 241.992 13.4079 242.416C13.4079 242.834 13.3142 243.207 13.1267 243.535C12.9413 243.861 12.6856 244.119 12.3596 244.308C12.0336 244.496 11.6629 244.589 11.2474 244.589ZM11.1875 292.589C10.706 292.589 10.2958 292.458 9.95703 292.196C9.61825 291.932 9.35938 291.55 9.1804 291.049C9.00142 290.546 8.91193 289.939 8.91193 289.227C8.91193 288.52 9.00142 287.916 9.1804 287.415C9.36151 286.912 9.62145 286.529 9.96023 286.265C10.3011 285.998 10.7102 285.865 11.1875 285.865C11.6648 285.865 12.0728 285.998 12.4116 286.265C12.7525 286.529 13.0124 286.912 13.1914 287.415C13.3725 287.916 13.4631 288.52 13.4631 289.227C13.4631 289.939 13.3736 290.546 13.1946 291.049C13.0156 291.55 12.7567 291.932 12.418 292.196C12.0792 292.458 11.669 292.589 11.1875 292.589ZM11.1875 291.886C11.6648 291.886 12.0355 291.656 12.2997 291.196C12.5639 290.736 12.696 290.08 12.696 289.227C12.696 288.661 12.6353 288.178 12.5138 287.779C12.3945 287.381 12.2219 287.077 11.9961 286.869C11.7724 286.66 11.5028 286.555 11.1875 286.555C10.7145 286.555 10.3448 286.789 10.0785 287.255C9.81214 287.72 9.67898 288.377 9.67898 289.227C9.67898 289.794 9.73864 290.276 9.85795 290.672C9.97727 291.068 10.1488 291.37 10.3725 291.576C10.5984 291.783 10.87 291.886 11.1875 291.886Z" fill="#585858"/>
<line x1="19" y1="46.5" x2="831" y2="46.5" stroke="#EBEBEB" stroke-dasharray="4 4"/>
<line x1="19" y1="86.5" x2="831" y2="86.5" stroke="#EBEBEB" stroke-dasharray="4 4"/>
<line x1="19" y1="126.5" x2="831" y2="126.5" stroke="#EBEBEB" stroke-dasharray="4 4"/>
<line x1="19" y1="166.5" x2="831" y2="166.5" stroke="#EBEBEB" stroke-dasharray="4 4"/>
<line x1="19" y1="206.5" x2="831" y2="206.5" stroke="#EBEBEB" stroke-dasharray="4 4"/>
<line x1="19" y1="246.5" x2="831" y2="246.5" stroke="#EBEBEB" stroke-dasharray="4 4"/>
<line x1="19" y1="286.5" x2="831" y2="286.5" stroke="#EBEBEB" stroke-dasharray="4 4"/>
<rect x="57.5" y="199" width="15" height="88" fill="#8F82FF"/>
<rect x="76.5" y="129" width="15" height="158" fill="#FF6888"/>
<rect x="95.5" y="162" width="15" height="125" fill="#FFBE6A"/>
<rect x="193.9" y="140" width="15" height="147" fill="#8F82FF"/>
<rect x="212.9" y="129" width="15" height="158" fill="#FF6888"/>
<rect x="231.9" y="72" width="15" height="215" fill="#FFBE6A"/>
<rect x="330.3" y="95" width="15" height="192" fill="#8F82FF"/>
<rect x="349.3" y="133" width="15" height="154" fill="#FF6888"/>
<rect x="368.3" y="54" width="15" height="233" fill="#FFBE6A"/>
<rect x="466.7" y="155" width="15" height="132" fill="#8F82FF"/>
<rect x="485.7" y="129" width="15" height="158" fill="#FF6888"/>
<rect x="504.7" y="96" width="15" height="191" fill="#FFBE6A"/>
<rect x="603.1" y="172" width="15" height="115" fill="#8F82FF"/>
<rect x="622.1" y="211" width="15" height="76" fill="#FF6888"/>
<rect x="641.1" y="144" width="15" height="143" fill="#FFBE6A"/>
<rect x="739.5" y="138" width="15" height="149" fill="#8F82FF"/>
<rect x="758.5" y="201" width="15" height="86" fill="#FF6888"/>
<rect x="777.5" y="92" width="15" height="195" fill="#FFBE6A"/>
</svg>
