<svg width="385" height="118" viewBox="0 0 385 118" fill="none" xmlns="http://www.w3.org/2000/svg">
<path d="M147.913 53.0858C148.768 59.3455 150.931 65.3552 154.261 70.7236C157.592 76.0921 162.016 80.6991 167.245 84.2448C172.474 87.7905 178.391 90.1954 184.611 91.303C190.831 92.4107 197.214 92.1962 203.346 90.6735C209.477 89.1508 215.219 86.3541 220.198 82.4654C225.178 78.5767 229.282 73.6832 232.245 68.1032C235.208 62.5232 236.962 56.3819 237.395 50.079C237.827 43.776 236.927 37.4527 234.754 31.5205L222.078 36.1643C223.599 40.3169 224.229 44.7432 223.926 49.1553C223.624 53.5674 222.395 57.8663 220.321 61.7722C218.247 65.6782 215.374 69.1037 211.889 71.8258C208.403 74.5479 204.384 76.5056 200.092 77.5714C195.8 78.6373 191.331 78.7875 186.977 78.0121C182.624 77.2368 178.482 75.5534 174.821 73.0714C171.161 70.5894 168.064 67.3645 165.733 63.6066C163.402 59.8486 161.887 55.6418 161.289 51.26L147.913 53.0858Z" fill="#8F82FF"/>
<path d="M219.667 11.1258C212.572 5.75267 204.042 2.60422 195.158 2.07856C186.273 1.55289 177.432 3.67363 169.753 8.17259C162.074 12.6715 155.901 19.3467 152.015 27.3538C148.129 35.361 146.705 44.3405 147.923 53.157L161.296 51.3099C160.444 45.1384 161.441 38.8527 164.161 33.2477C166.881 27.6427 171.201 22.9701 176.577 19.8208C181.953 16.6715 188.141 15.187 194.36 15.555C200.58 15.923 206.55 18.1269 211.517 21.888L219.667 11.1258Z" fill="#FF6888"/>
<path d="M234.805 31.6609C231.849 23.508 226.6 16.383 219.69 11.143L211.533 21.9001C216.37 25.5681 220.044 30.5556 222.113 36.2626L234.805 31.6609Z" fill="#FFBE6A"/>
<path d="M173.817 53.2237C172.962 53.2204 172.227 53.0099 171.61 52.5923C170.997 52.1747 170.525 51.5698 170.193 50.7777C169.865 49.9856 169.703 49.0327 169.706 47.919C169.706 46.8087 169.87 45.8625 170.198 45.0803C170.53 44.2981 171.002 43.7031 171.615 43.2955C172.232 42.8845 172.966 42.679 173.817 42.679C174.669 42.679 175.402 42.8845 176.015 43.2955C176.631 43.7064 177.105 44.303 177.437 45.0852C177.768 45.8641 177.932 46.8087 177.929 47.919C177.929 49.036 177.763 49.9905 177.432 50.7827C177.104 51.5748 176.633 52.1797 176.02 52.5973C175.407 53.0149 174.673 53.2237 173.817 53.2237ZM173.817 51.4389C174.401 51.4389 174.866 51.1456 175.214 50.5589C175.563 49.9723 175.735 49.0923 175.732 47.919C175.732 47.1468 175.652 46.5038 175.493 45.9901C175.337 45.4763 175.115 45.0902 174.827 44.8317C174.542 44.5732 174.205 44.4439 173.817 44.4439C173.237 44.4439 172.773 44.7339 172.425 45.3139C172.077 45.8939 171.902 46.7623 171.898 47.919C171.898 48.7012 171.976 49.3542 172.132 49.8778C172.291 50.3982 172.515 50.7893 172.803 51.0511C173.092 51.3097 173.43 51.4389 173.817 51.4389ZM180.312 53.1293C179.983 53.1293 179.702 53.0133 179.466 52.7812C179.234 52.5459 179.118 52.2642 179.118 51.9361C179.118 51.6113 179.234 51.3329 179.466 51.1009C179.702 50.8688 179.983 50.7528 180.312 50.7528C180.63 50.7528 180.908 50.8688 181.147 51.1009C181.385 51.3329 181.505 51.6113 181.505 51.9361C181.505 52.1548 181.448 52.3554 181.336 52.5376C181.226 52.7166 181.082 52.8608 180.903 52.9702C180.724 53.0762 180.527 53.1293 180.312 53.1293ZM183.224 53V51.4489L186.848 48.093C187.156 47.7947 187.415 47.5263 187.624 47.2876C187.836 47.049 187.996 46.8153 188.106 46.5866C188.215 46.3546 188.27 46.1044 188.27 45.8359C188.27 45.5376 188.202 45.2808 188.066 45.0653C187.93 44.8466 187.745 44.6792 187.509 44.5632C187.274 44.4439 187.007 44.3842 186.709 44.3842C186.397 44.3842 186.125 44.4472 185.893 44.5732C185.661 44.6991 185.482 44.8797 185.357 45.1151C185.231 45.3504 185.168 45.6304 185.168 45.9553H183.124C183.124 45.2891 183.275 44.7107 183.577 44.2202C183.878 43.7296 184.301 43.3501 184.844 43.0817C185.388 42.8132 186.014 42.679 186.724 42.679C187.453 42.679 188.088 42.8082 188.628 43.0668C189.171 43.322 189.594 43.6766 189.896 44.1307C190.197 44.5848 190.348 45.1051 190.348 45.6918C190.348 46.0762 190.272 46.4557 190.119 46.8303C189.97 47.2048 189.703 47.6207 189.319 48.0781C188.934 48.5322 188.393 49.0774 187.693 49.7138L186.207 51.1705V51.2401H190.482V53H183.224ZM195.342 42.8182H197.997L200.801 49.6591H200.92L203.724 42.8182H206.379V53H204.291V46.3729H204.206L201.571 52.9503H200.15L197.515 46.348H197.43V53H195.342V42.8182ZM210.231 48.5852V53H208.113V45.3636H210.131V46.7109H210.221C210.39 46.2668 210.673 45.9155 211.071 45.657C211.469 45.3951 211.951 45.2642 212.518 45.2642C213.048 45.2642 213.51 45.3802 213.905 45.6122C214.299 45.8442 214.606 46.1757 214.824 46.6065C215.043 47.0341 215.153 47.5445 215.153 48.1378V53H213.035V48.5156C213.038 48.0483 212.919 47.6837 212.677 47.4219C212.435 47.1567 212.102 47.0241 211.677 47.0241C211.392 47.0241 211.14 47.0855 210.922 47.2081C210.706 47.3307 210.537 47.5097 210.415 47.745C210.295 47.977 210.234 48.2571 210.231 48.5852Z" fill="black"/>
<rect x="91" y="104.5" width="12" height="12" fill="#8F82FF"/>
<path d="M117.438 109.5C117.352 109.237 117.238 109.001 117.098 108.793C116.96 108.582 116.794 108.402 116.602 108.254C116.411 108.105 116.195 107.992 115.953 107.914C115.711 107.836 115.445 107.797 115.156 107.797C114.682 107.797 114.251 107.919 113.863 108.164C113.475 108.409 113.167 108.77 112.938 109.246C112.708 109.723 112.594 110.307 112.594 111C112.594 111.693 112.71 112.277 112.941 112.754C113.173 113.23 113.487 113.591 113.883 113.836C114.279 114.081 114.724 114.203 115.219 114.203C115.677 114.203 116.081 114.105 116.43 113.91C116.781 113.712 117.055 113.434 117.25 113.074C117.448 112.712 117.547 112.286 117.547 111.797L117.844 111.859H115.438V111H118.484V111.859C118.484 112.518 118.344 113.091 118.063 113.578C117.784 114.065 117.398 114.443 116.906 114.711C116.417 114.977 115.854 115.109 115.219 115.109C114.51 115.109 113.888 114.943 113.352 114.609C112.818 114.276 112.401 113.802 112.102 113.187C111.805 112.573 111.656 111.844 111.656 111C111.656 110.367 111.741 109.798 111.91 109.293C112.082 108.785 112.324 108.353 112.637 107.996C112.949 107.639 113.319 107.366 113.746 107.176C114.173 106.986 114.643 106.891 115.156 106.891C115.578 106.891 115.971 106.954 116.336 107.082C116.703 107.207 117.03 107.385 117.316 107.617C117.605 107.846 117.846 108.121 118.039 108.441C118.232 108.759 118.365 109.112 118.438 109.5H117.438ZM123.8 112.547V109H124.722V115H123.8V113.984H123.737C123.597 114.289 123.378 114.548 123.081 114.762C122.784 114.973 122.409 115.078 121.956 115.078C121.581 115.078 121.248 114.996 120.956 114.832C120.664 114.665 120.435 114.415 120.269 114.082C120.102 113.746 120.019 113.323 120.019 112.812V109H120.94V112.75C120.94 113.187 121.063 113.536 121.308 113.797C121.555 114.057 121.87 114.187 122.253 114.187C122.482 114.187 122.715 114.129 122.952 114.012C123.192 113.895 123.392 113.715 123.554 113.473C123.718 113.23 123.8 112.922 123.8 112.547ZM128.848 115.125C128.285 115.125 127.801 114.992 127.395 114.727C126.988 114.461 126.676 114.095 126.457 113.629C126.238 113.163 126.129 112.63 126.129 112.031C126.129 111.422 126.241 110.884 126.465 110.418C126.691 109.949 127.007 109.583 127.41 109.32C127.816 109.055 128.29 108.922 128.832 108.922C129.254 108.922 129.634 109 129.973 109.156C130.311 109.312 130.589 109.531 130.805 109.812C131.021 110.094 131.155 110.422 131.207 110.797H130.285C130.215 110.523 130.059 110.281 129.816 110.07C129.577 109.857 129.254 109.75 128.848 109.75C128.488 109.75 128.173 109.844 127.902 110.031C127.634 110.216 127.424 110.478 127.273 110.816C127.125 111.152 127.051 111.547 127.051 112C127.051 112.464 127.124 112.867 127.27 113.211C127.418 113.555 127.626 113.822 127.895 114.012C128.165 114.202 128.483 114.297 128.848 114.297C129.087 114.297 129.305 114.255 129.5 114.172C129.695 114.089 129.861 113.969 129.996 113.812C130.132 113.656 130.228 113.469 130.285 113.25H131.207C131.155 113.604 131.026 113.923 130.82 114.207C130.617 114.488 130.348 114.712 130.012 114.879C129.678 115.043 129.29 115.125 128.848 115.125ZM134.992 115.125C134.43 115.125 133.945 114.992 133.539 114.727C133.133 114.461 132.82 114.095 132.602 113.629C132.383 113.163 132.273 112.63 132.273 112.031C132.273 111.422 132.385 110.884 132.609 110.418C132.836 109.949 133.151 109.583 133.555 109.32C133.961 109.055 134.435 108.922 134.977 108.922C135.398 108.922 135.779 109 136.117 109.156C136.456 109.312 136.733 109.531 136.949 109.812C137.165 110.094 137.299 110.422 137.352 110.797H136.43C136.359 110.523 136.203 110.281 135.961 110.07C135.721 109.857 135.398 109.75 134.992 109.75C134.633 109.75 134.318 109.844 134.047 110.031C133.779 110.216 133.569 110.478 133.418 110.816C133.27 111.152 133.195 111.547 133.195 112C133.195 112.464 133.268 112.867 133.414 113.211C133.563 113.555 133.771 113.822 134.039 114.012C134.31 114.202 134.628 114.297 134.992 114.297C135.232 114.297 135.449 114.255 135.645 114.172C135.84 114.089 136.005 113.969 136.141 113.812C136.276 113.656 136.372 113.469 136.43 113.25H137.352C137.299 113.604 137.171 113.923 136.965 114.207C136.762 114.488 136.492 114.712 136.156 114.879C135.823 115.043 135.435 115.125 134.992 115.125ZM138.699 115V109H139.621V115H138.699ZM139.168 108C138.988 108 138.833 107.939 138.703 107.816C138.576 107.694 138.512 107.547 138.512 107.375C138.512 107.203 138.576 107.056 138.703 106.934C138.833 106.811 138.988 106.75 139.168 106.75C139.348 106.75 139.501 106.811 139.629 106.934C139.759 107.056 139.824 107.203 139.824 107.375C139.824 107.547 139.759 107.694 139.629 107.816C139.501 107.939 139.348 108 139.168 108Z" fill="#585858"/>
<rect x="157" y="104.5" width="12" height="12" fill="#FF6888"/>
<path d="M184.406 109.5H183.438C183.38 109.221 183.28 108.977 183.137 108.766C182.996 108.555 182.824 108.378 182.621 108.234C182.421 108.089 182.198 107.979 181.953 107.906C181.708 107.833 181.453 107.797 181.188 107.797C180.703 107.797 180.264 107.919 179.871 108.164C179.48 108.409 179.169 108.77 178.938 109.246C178.708 109.723 178.594 110.307 178.594 111C178.594 111.693 178.708 112.277 178.938 112.754C179.169 113.23 179.48 113.591 179.871 113.836C180.264 114.081 180.703 114.203 181.188 114.203C181.453 114.203 181.708 114.167 181.953 114.094C182.198 114.021 182.421 113.913 182.621 113.77C182.824 113.624 182.996 113.445 183.137 113.234C183.28 113.021 183.38 112.776 183.438 112.5H184.406C184.333 112.909 184.201 113.275 184.008 113.598C183.815 113.921 183.576 114.195 183.289 114.422C183.003 114.646 182.681 114.816 182.324 114.934C181.97 115.051 181.591 115.109 181.188 115.109C180.505 115.109 179.898 114.943 179.367 114.609C178.836 114.276 178.418 113.802 178.113 113.187C177.809 112.573 177.656 111.844 177.656 111C177.656 110.156 177.809 109.427 178.113 108.812C178.418 108.198 178.836 107.724 179.367 107.391C179.898 107.057 180.505 106.891 181.188 106.891C181.591 106.891 181.97 106.949 182.324 107.066C182.681 107.184 183.003 107.355 183.289 107.582C183.576 107.806 183.815 108.079 184.008 108.402C184.201 108.723 184.333 109.089 184.406 109.5ZM186.769 111.391V115H185.847V107H186.769V109.937H186.847C186.987 109.628 187.198 109.382 187.479 109.199C187.763 109.014 188.141 108.922 188.612 108.922C189.021 108.922 189.379 109.004 189.687 109.168C189.994 109.329 190.232 109.578 190.401 109.914C190.573 110.247 190.659 110.672 190.659 111.188V115H189.737V111.25C189.737 110.773 189.614 110.405 189.366 110.145C189.121 109.882 188.782 109.75 188.347 109.75C188.045 109.75 187.774 109.814 187.534 109.941C187.297 110.069 187.11 110.255 186.972 110.5C186.836 110.745 186.769 111.042 186.769 111.391ZM194.111 115.141C193.731 115.141 193.386 115.069 193.076 114.926C192.766 114.78 192.52 114.57 192.338 114.297C192.156 114.021 192.064 113.687 192.064 113.297C192.064 112.953 192.132 112.674 192.268 112.461C192.403 112.245 192.584 112.076 192.811 111.953C193.037 111.831 193.287 111.74 193.561 111.68C193.837 111.617 194.114 111.568 194.393 111.531C194.757 111.484 195.053 111.449 195.279 111.426C195.508 111.4 195.675 111.357 195.779 111.297C195.886 111.237 195.939 111.133 195.939 110.984V110.953C195.939 110.568 195.834 110.268 195.623 110.055C195.415 109.841 195.098 109.734 194.674 109.734C194.234 109.734 193.889 109.831 193.639 110.023C193.389 110.216 193.213 110.422 193.111 110.641L192.236 110.328C192.393 109.964 192.601 109.68 192.861 109.477C193.124 109.271 193.411 109.128 193.721 109.047C194.033 108.964 194.34 108.922 194.643 108.922C194.835 108.922 195.057 108.945 195.307 108.992C195.559 109.036 195.803 109.129 196.037 109.27C196.274 109.41 196.471 109.622 196.627 109.906C196.783 110.19 196.861 110.57 196.861 111.047V115H195.939V114.187H195.893C195.83 114.318 195.726 114.457 195.58 114.605C195.434 114.754 195.24 114.88 194.998 114.984C194.756 115.089 194.46 115.141 194.111 115.141ZM194.252 114.312C194.617 114.312 194.924 114.241 195.174 114.098C195.426 113.954 195.617 113.77 195.744 113.543C195.874 113.316 195.939 113.078 195.939 112.828V111.984C195.9 112.031 195.814 112.074 195.682 112.113C195.551 112.15 195.4 112.182 195.229 112.211C195.059 112.237 194.894 112.26 194.732 112.281C194.574 112.299 194.445 112.315 194.346 112.328C194.106 112.359 193.882 112.41 193.674 112.48C193.468 112.548 193.301 112.651 193.174 112.789C193.049 112.924 192.986 113.109 192.986 113.344C192.986 113.664 193.105 113.906 193.342 114.07C193.581 114.232 193.885 114.312 194.252 114.312ZM199.466 111.391V115H198.544V109H199.435V109.937H199.513C199.653 109.633 199.867 109.388 200.153 109.203C200.44 109.016 200.81 108.922 201.263 108.922C201.669 108.922 202.024 109.005 202.329 109.172C202.634 109.336 202.871 109.586 203.04 109.922C203.209 110.255 203.294 110.677 203.294 111.188V115H202.372V111.25C202.372 110.779 202.25 110.411 202.005 110.148C201.76 109.883 201.424 109.75 200.997 109.75C200.703 109.75 200.44 109.814 200.208 109.941C199.979 110.069 199.798 110.255 199.665 110.5C199.532 110.745 199.466 111.042 199.466 111.391ZM207.494 115.125C206.916 115.125 206.417 114.997 205.998 114.742C205.581 114.484 205.26 114.125 205.033 113.664C204.809 113.201 204.697 112.661 204.697 112.047C204.697 111.432 204.809 110.891 205.033 110.422C205.26 109.951 205.575 109.583 205.979 109.32C206.385 109.055 206.859 108.922 207.4 108.922C207.713 108.922 208.021 108.974 208.326 109.078C208.631 109.182 208.908 109.352 209.158 109.586C209.408 109.818 209.607 110.125 209.756 110.508C209.904 110.891 209.979 111.362 209.979 111.922V112.312H205.354V111.516H209.041C209.041 111.177 208.973 110.875 208.838 110.609C208.705 110.344 208.515 110.134 208.268 109.98C208.023 109.827 207.734 109.75 207.4 109.75C207.033 109.75 206.715 109.841 206.447 110.023C206.182 110.203 205.977 110.437 205.834 110.727C205.691 111.016 205.619 111.326 205.619 111.656V112.188C205.619 112.641 205.697 113.025 205.854 113.34C206.012 113.652 206.232 113.891 206.514 114.055C206.795 114.216 207.122 114.297 207.494 114.297C207.736 114.297 207.955 114.263 208.15 114.195C208.348 114.125 208.519 114.021 208.662 113.883C208.805 113.742 208.916 113.568 208.994 113.359L209.885 113.609C209.791 113.911 209.633 114.177 209.412 114.406C209.191 114.633 208.917 114.81 208.592 114.937C208.266 115.063 207.9 115.125 207.494 115.125ZM212.303 107V115H211.381V107H212.303Z" fill="#585858"/>
<rect x="230" y="104.5" width="12" height="12" fill="#FFBE6A"/>
<path d="M255.344 109C255.297 108.604 255.107 108.297 254.773 108.078C254.44 107.859 254.031 107.75 253.547 107.75C253.193 107.75 252.883 107.807 252.617 107.922C252.354 108.036 252.148 108.194 252 108.395C251.854 108.595 251.781 108.823 251.781 109.078C251.781 109.292 251.832 109.475 251.934 109.629C252.038 109.78 252.171 109.906 252.332 110.008C252.493 110.107 252.663 110.189 252.84 110.254C253.017 110.316 253.18 110.367 253.328 110.406L254.141 110.625C254.349 110.68 254.581 110.755 254.836 110.852C255.094 110.948 255.34 111.079 255.574 111.246C255.811 111.41 256.007 111.621 256.16 111.879C256.314 112.137 256.391 112.453 256.391 112.828C256.391 113.26 256.277 113.651 256.051 114C255.827 114.349 255.499 114.626 255.066 114.832C254.637 115.038 254.115 115.141 253.5 115.141C252.927 115.141 252.431 115.048 252.012 114.863C251.595 114.678 251.267 114.421 251.027 114.09C250.79 113.759 250.656 113.375 250.625 112.938H251.625C251.651 113.24 251.753 113.49 251.93 113.687C252.109 113.883 252.336 114.029 252.609 114.125C252.885 114.219 253.182 114.266 253.5 114.266C253.87 114.266 254.202 114.206 254.496 114.086C254.79 113.964 255.023 113.794 255.195 113.578C255.367 113.359 255.453 113.104 255.453 112.812C255.453 112.547 255.379 112.331 255.23 112.164C255.082 111.997 254.887 111.862 254.645 111.758C254.402 111.654 254.141 111.562 253.859 111.484L252.875 111.203C252.25 111.023 251.755 110.767 251.391 110.434C251.026 110.1 250.844 109.664 250.844 109.125C250.844 108.677 250.965 108.286 251.207 107.953C251.452 107.617 251.78 107.357 252.191 107.172C252.605 106.984 253.068 106.891 253.578 106.891C254.094 106.891 254.552 106.983 254.953 107.168C255.354 107.35 255.672 107.6 255.906 107.918C256.143 108.236 256.268 108.596 256.281 109H255.344ZM260.374 115.125C259.796 115.125 259.297 114.997 258.878 114.742C258.461 114.484 258.14 114.125 257.913 113.664C257.689 113.201 257.577 112.661 257.577 112.047C257.577 111.432 257.689 110.891 257.913 110.422C258.14 109.951 258.455 109.583 258.858 109.32C259.265 109.055 259.739 108.922 260.28 108.922C260.593 108.922 260.901 108.974 261.206 109.078C261.511 109.182 261.788 109.352 262.038 109.586C262.288 109.818 262.487 110.125 262.636 110.508C262.784 110.891 262.858 111.362 262.858 111.922V112.312H258.233V111.516H261.921C261.921 111.177 261.853 110.875 261.718 110.609C261.585 110.344 261.395 110.134 261.147 109.98C260.903 109.827 260.614 109.75 260.28 109.75C259.913 109.75 259.595 109.841 259.327 110.023C259.062 110.203 258.857 110.437 258.714 110.727C258.571 111.016 258.499 111.326 258.499 111.656V112.188C258.499 112.641 258.577 113.025 258.733 113.34C258.892 113.652 259.112 113.891 259.394 114.055C259.675 114.216 260.002 114.297 260.374 114.297C260.616 114.297 260.835 114.263 261.03 114.195C261.228 114.125 261.399 114.021 261.542 113.883C261.685 113.742 261.796 113.568 261.874 113.359L262.765 113.609C262.671 113.911 262.513 114.177 262.292 114.406C262.071 114.633 261.797 114.81 261.472 114.937C261.146 115.063 260.78 115.125 260.374 115.125ZM264.261 117.25V109H265.151V109.953H265.261C265.328 109.849 265.422 109.716 265.542 109.555C265.664 109.391 265.839 109.245 266.065 109.117C266.295 108.987 266.604 108.922 266.995 108.922C267.5 108.922 267.946 109.048 268.331 109.301C268.716 109.553 269.017 109.911 269.233 110.375C269.45 110.839 269.558 111.385 269.558 112.016C269.558 112.651 269.45 113.202 269.233 113.668C269.017 114.132 268.718 114.491 268.335 114.746C267.952 114.999 267.511 115.125 267.011 115.125C266.625 115.125 266.317 115.061 266.085 114.934C265.853 114.803 265.675 114.656 265.55 114.492C265.425 114.326 265.328 114.187 265.261 114.078H265.183V117.25H264.261ZM265.167 112C265.167 112.453 265.233 112.853 265.366 113.199C265.499 113.543 265.693 113.812 265.948 114.008C266.203 114.201 266.516 114.297 266.886 114.297C267.271 114.297 267.593 114.195 267.851 113.992C268.111 113.786 268.306 113.51 268.437 113.164C268.569 112.815 268.636 112.427 268.636 112C268.636 111.578 268.571 111.198 268.44 110.859C268.313 110.518 268.119 110.249 267.858 110.051C267.601 109.85 267.276 109.75 266.886 109.75C266.511 109.75 266.196 109.845 265.94 110.035C265.685 110.223 265.493 110.486 265.362 110.824C265.232 111.16 265.167 111.552 265.167 112ZM271.886 111.391V115H270.964V107H271.886V109.937H271.964C272.104 109.628 272.315 109.382 272.597 109.199C272.881 109.014 273.258 108.922 273.729 108.922C274.138 108.922 274.496 109.004 274.804 109.168C275.111 109.329 275.349 109.578 275.519 109.914C275.69 110.247 275.776 110.672 275.776 111.188V115H274.854V111.25C274.854 110.773 274.731 110.405 274.483 110.145C274.239 109.882 273.899 109.75 273.464 109.75C273.162 109.75 272.891 109.814 272.651 109.941C272.414 110.069 272.227 110.255 272.089 110.5C271.953 110.745 271.886 111.042 271.886 111.391ZM279.9 115.125C279.359 115.125 278.883 114.996 278.475 114.738C278.068 114.48 277.751 114.12 277.521 113.656C277.295 113.193 277.182 112.651 277.182 112.031C277.182 111.406 277.295 110.861 277.521 110.395C277.751 109.928 278.068 109.566 278.475 109.309C278.883 109.051 279.359 108.922 279.9 108.922C280.442 108.922 280.916 109.051 281.322 109.309C281.731 109.566 282.049 109.928 282.275 110.395C282.505 110.861 282.619 111.406 282.619 112.031C282.619 112.651 282.505 113.193 282.275 113.656C282.049 114.12 281.731 114.48 281.322 114.738C280.916 114.996 280.442 115.125 279.9 115.125ZM279.9 114.297C280.312 114.297 280.65 114.191 280.916 113.98C281.182 113.77 281.378 113.492 281.506 113.148C281.633 112.805 281.697 112.432 281.697 112.031C281.697 111.63 281.633 111.257 281.506 110.91C281.378 110.564 281.182 110.284 280.916 110.07C280.65 109.857 280.312 109.75 279.9 109.75C279.489 109.75 279.15 109.857 278.885 110.07C278.619 110.284 278.423 110.564 278.295 110.91C278.167 111.257 278.104 111.63 278.104 112.031C278.104 112.432 278.167 112.805 278.295 113.148C278.423 113.492 278.619 113.77 278.885 113.98C279.15 114.191 279.489 114.297 279.9 114.297ZM284.026 115V109H284.917V109.906H284.979C285.089 109.609 285.287 109.368 285.573 109.184C285.86 108.999 286.183 108.906 286.542 108.906C286.61 108.906 286.694 108.908 286.796 108.91C286.897 108.913 286.974 108.917 287.026 108.922V109.859C286.995 109.852 286.924 109.84 286.812 109.824C286.702 109.806 286.586 109.797 286.464 109.797C286.172 109.797 285.912 109.858 285.683 109.98C285.456 110.1 285.276 110.267 285.144 110.48C285.013 110.691 284.948 110.932 284.948 111.203V115H284.026ZM289.885 115.141C289.505 115.141 289.16 115.069 288.85 114.926C288.54 114.78 288.294 114.57 288.111 114.297C287.929 114.021 287.838 113.687 287.838 113.297C287.838 112.953 287.906 112.674 288.041 112.461C288.176 112.245 288.357 112.076 288.584 111.953C288.811 111.831 289.061 111.74 289.334 111.68C289.61 111.617 289.887 111.568 290.166 111.531C290.531 111.484 290.826 111.449 291.053 111.426C291.282 111.4 291.449 111.357 291.553 111.297C291.66 111.237 291.713 111.133 291.713 110.984V110.953C291.713 110.568 291.607 110.268 291.396 110.055C291.188 109.841 290.872 109.734 290.447 109.734C290.007 109.734 289.662 109.831 289.412 110.023C289.162 110.216 288.986 110.422 288.885 110.641L288.01 110.328C288.166 109.964 288.374 109.68 288.635 109.477C288.898 109.271 289.184 109.128 289.494 109.047C289.807 108.964 290.114 108.922 290.416 108.922C290.609 108.922 290.83 108.945 291.08 108.992C291.333 109.036 291.576 109.129 291.811 109.27C292.048 109.41 292.244 109.622 292.4 109.906C292.557 110.19 292.635 110.57 292.635 111.047V115H291.713V114.187H291.666C291.604 114.318 291.499 114.457 291.354 114.605C291.208 114.754 291.014 114.88 290.771 114.984C290.529 115.089 290.234 115.141 289.885 115.141ZM290.025 114.312C290.39 114.312 290.697 114.241 290.947 114.098C291.2 113.954 291.39 113.77 291.518 113.543C291.648 113.316 291.713 113.078 291.713 112.828V111.984C291.674 112.031 291.588 112.074 291.455 112.113C291.325 112.15 291.174 112.182 291.002 112.211C290.833 112.237 290.667 112.26 290.506 112.281C290.347 112.299 290.218 112.315 290.119 112.328C289.88 112.359 289.656 112.41 289.447 112.48C289.242 112.548 289.075 112.651 288.947 112.789C288.822 112.924 288.76 113.109 288.76 113.344C288.76 113.664 288.878 113.906 289.115 114.07C289.355 114.232 289.658 114.312 290.025 114.312Z" fill="#585858"/>
<g filter="url(#filter0_d_3065_126204)">
<rect x="55.5" y="5" width="94" height="74" rx="15" fill="white" shape-rendering="crispEdges"/>
<path d="M86.9375 30.5C86.8516 30.237 86.7383 30.0013 86.5977 29.793C86.4596 29.582 86.2943 29.4023 86.1016 29.2539C85.9115 29.1055 85.6953 28.9922 85.4531 28.9141C85.2109 28.8359 84.9453 28.7969 84.6562 28.7969C84.1823 28.7969 83.7513 28.9193 83.3633 29.1641C82.9753 29.4089 82.6667 29.7695 82.4375 30.2461C82.2083 30.7227 82.0938 31.3073 82.0938 32C82.0938 32.6927 82.2096 33.2773 82.4414 33.7539C82.6732 34.2305 82.987 34.5911 83.3828 34.8359C83.7786 35.0807 84.224 35.2031 84.7188 35.2031C85.1771 35.2031 85.5807 35.1055 85.9297 34.9102C86.2813 34.7122 86.5547 34.4336 86.75 34.0742C86.9479 33.7122 87.0469 33.2865 87.0469 32.7969L87.3438 32.8594H84.9375V32H87.9844V32.8594C87.9844 33.5182 87.8438 34.0911 87.5625 34.5781C87.2839 35.0651 86.8984 35.4427 86.4062 35.7109C85.9167 35.9766 85.3542 36.1094 84.7188 36.1094C84.0104 36.1094 83.388 35.9427 82.8516 35.6094C82.3177 35.276 81.901 34.8021 81.6016 34.1875C81.3047 33.5729 81.1563 32.8437 81.1563 32C81.1563 31.3672 81.2409 30.7982 81.4102 30.293C81.582 29.7852 81.8242 29.3529 82.1367 28.9961C82.4492 28.6393 82.819 28.3659 83.2461 28.1758C83.6732 27.9857 84.1432 27.8906 84.6562 27.8906C85.0781 27.8906 85.4714 27.9544 85.8359 28.082C86.2031 28.207 86.5299 28.3854 86.8164 28.6172C87.1055 28.8464 87.3464 29.1211 87.5391 29.4414C87.7318 29.7591 87.8646 30.112 87.9375 30.5H86.9375ZM93.2998 33.5469V30H94.2217V36H93.2998V34.9844H93.2373C93.0967 35.2891 92.8779 35.5482 92.5811 35.7617C92.2842 35.9727 91.9092 36.0781 91.4561 36.0781C91.0811 36.0781 90.7477 35.9961 90.4561 35.832C90.1644 35.6654 89.9352 35.4154 89.7686 35.082C89.6019 34.7461 89.5186 34.3229 89.5186 33.8125V30H90.4404V33.75C90.4404 34.1875 90.5628 34.5365 90.8076 34.7969C91.055 35.0573 91.3701 35.1875 91.7529 35.1875C91.9821 35.1875 92.2152 35.1289 92.4521 35.0117C92.6917 34.8945 92.8923 34.7148 93.0537 34.4727C93.2178 34.2305 93.2998 33.9219 93.2998 33.5469ZM98.3477 36.125C97.7852 36.125 97.3008 35.9922 96.8945 35.7266C96.4883 35.4609 96.1758 35.0951 95.957 34.6289C95.7383 34.1628 95.6289 33.6302 95.6289 33.0312C95.6289 32.4219 95.7409 31.8841 95.9648 31.418C96.1914 30.9492 96.5065 30.5833 96.9102 30.3203C97.3164 30.0547 97.7904 29.9219 98.332 29.9219C98.7539 29.9219 99.1341 30 99.4727 30.1562C99.8112 30.3125 100.089 30.5312 100.305 30.8125C100.521 31.0937 100.655 31.4219 100.707 31.7969H99.7852C99.7148 31.5234 99.5586 31.2812 99.3164 31.0703C99.0768 30.8568 98.7539 30.75 98.3477 30.75C97.9883 30.75 97.6732 30.8437 97.4023 31.0312C97.1341 31.2161 96.9245 31.4779 96.7734 31.8164C96.625 32.1523 96.5508 32.5469 96.5508 33C96.5508 33.4635 96.6237 33.8672 96.7695 34.2109C96.918 34.5547 97.1263 34.8216 97.3945 35.0117C97.6654 35.2018 97.9831 35.2969 98.3477 35.2969C98.5872 35.2969 98.8047 35.2552 99 35.1719C99.1953 35.0885 99.3607 34.9688 99.4961 34.8125C99.6315 34.6562 99.7279 34.4687 99.7852 34.25H100.707C100.655 34.6042 100.526 34.9232 100.32 35.207C100.117 35.4883 99.8477 35.7122 99.5117 35.8789C99.1784 36.043 98.7904 36.125 98.3477 36.125ZM104.492 36.125C103.93 36.125 103.445 35.9922 103.039 35.7266C102.633 35.4609 102.32 35.0951 102.102 34.6289C101.883 34.1628 101.773 33.6302 101.773 33.0312C101.773 32.4219 101.885 31.8841 102.109 31.418C102.336 30.9492 102.651 30.5833 103.055 30.3203C103.461 30.0547 103.935 29.9219 104.477 29.9219C104.898 29.9219 105.279 30 105.617 30.1562C105.956 30.3125 106.233 30.5312 106.449 30.8125C106.665 31.0937 106.799 31.4219 106.852 31.7969H105.93C105.859 31.5234 105.703 31.2812 105.461 31.0703C105.221 30.8568 104.898 30.75 104.492 30.75C104.133 30.75 103.818 30.8437 103.547 31.0312C103.279 31.2161 103.069 31.4779 102.918 31.8164C102.77 32.1523 102.695 32.5469 102.695 33C102.695 33.4635 102.768 33.8672 102.914 34.2109C103.063 34.5547 103.271 34.8216 103.539 35.0117C103.81 35.2018 104.128 35.2969 104.492 35.2969C104.732 35.2969 104.949 35.2552 105.145 35.1719C105.34 35.0885 105.505 34.9688 105.641 34.8125C105.776 34.6562 105.872 34.4687 105.93 34.25H106.852C106.799 34.6042 106.671 34.9232 106.465 35.207C106.262 35.4883 105.992 35.7122 105.656 35.8789C105.323 36.043 104.935 36.125 104.492 36.125ZM108.199 36V30H109.121V36H108.199ZM108.668 29C108.488 29 108.333 28.9388 108.203 28.8164C108.076 28.694 108.012 28.5469 108.012 28.375C108.012 28.2031 108.076 28.056 108.203 27.9336C108.333 27.8112 108.488 27.75 108.668 27.75C108.848 27.75 109.001 27.8112 109.129 27.9336C109.259 28.056 109.324 28.2031 109.324 28.375C109.324 28.5469 109.259 28.694 109.129 28.8164C109.001 28.9388 108.848 29 108.668 29Z" fill="#585858"/>
<path d="M85.3175 56.2237C84.4624 56.2204 83.7266 56.0099 83.1101 55.5923C82.4969 55.1747 82.0246 54.5698 81.6932 53.7777C81.3651 52.9856 81.2027 52.0327 81.206 50.919C81.206 49.8087 81.37 48.8625 81.6982 48.0803C82.0296 47.2981 82.5019 46.7031 83.1151 46.2955C83.7315 45.8845 84.4657 45.679 85.3175 45.679C86.1693 45.679 86.9018 45.8845 87.5149 46.2955C88.1314 46.7064 88.6054 47.303 88.9368 48.0852C89.2682 48.8641 89.4323 49.8087 89.429 50.919C89.429 52.036 89.2633 52.9905 88.9318 53.7827C88.6037 54.5748 88.133 55.1797 87.5199 55.5973C86.9067 56.0149 86.1726 56.2237 85.3175 56.2237ZM85.3175 54.4389C85.9008 54.4389 86.3665 54.1456 86.7145 53.5589C87.0625 52.9723 87.2348 52.0923 87.2315 50.919C87.2315 50.1468 87.152 49.5038 86.9929 48.9901C86.8371 48.4763 86.6151 48.0902 86.3267 47.8317C86.0417 47.5732 85.7053 47.4439 85.3175 47.4439C84.7375 47.4439 84.2734 47.7339 83.9254 48.3139C83.5774 48.8939 83.4018 49.7623 83.3984 50.919C83.3984 51.7012 83.4763 52.3542 83.6321 52.8778C83.7912 53.3982 84.0149 53.7893 84.3033 54.0511C84.5916 54.3097 84.9297 54.4389 85.3175 54.4389ZM91.8116 56.1293C91.4835 56.1293 91.2018 56.0133 90.9664 55.7812C90.7344 55.5459 90.6184 55.2642 90.6184 54.9361C90.6184 54.6113 90.7344 54.3329 90.9664 54.1009C91.2018 53.8688 91.4835 53.7528 91.8116 53.7528C92.1298 53.7528 92.4082 53.8688 92.6468 54.1009C92.8855 54.3329 93.0048 54.6113 93.0048 54.9361C93.0048 55.1548 92.9484 55.3554 92.8358 55.5376C92.7264 55.7166 92.5822 55.8608 92.4032 55.9702C92.2243 56.0762 92.027 56.1293 91.8116 56.1293ZM97.8819 45.8182V56H95.7292V47.8615H95.6696L93.3379 49.3232V47.4141L95.8585 45.8182H97.8819ZM103.602 45.8182H106.257L109.061 52.6591H109.18L111.984 45.8182H114.639V56H112.551V49.3729H112.466L109.831 55.9503H108.409L105.774 49.348H105.69V56H103.602V45.8182ZM118.49 51.5852V56H116.373V48.3636H118.391V49.7109H118.48C118.65 49.2668 118.933 48.9155 119.331 48.657C119.728 48.3951 120.211 48.2642 120.777 48.2642C121.308 48.2642 121.77 48.3802 122.164 48.6122C122.559 48.8442 122.865 49.1757 123.084 49.6065C123.303 50.0341 123.412 50.5445 123.412 51.1378V56H121.294V51.5156C121.298 51.0483 121.178 50.6837 120.936 50.4219C120.694 50.1567 120.361 50.0241 119.937 50.0241C119.652 50.0241 119.4 50.0855 119.181 50.2081C118.966 50.3307 118.797 50.5097 118.674 50.745C118.555 50.977 118.494 51.2571 118.49 51.5852Z" fill="black"/>
</g>
<defs>
<filter id="filter0_d_3065_126204" x="45.5" y="0" width="114" height="94" filterUnits="userSpaceOnUse" color-interpolation-filters="sRGB">
<feFlood flood-opacity="0" result="BackgroundImageFix"/>
<feColorMatrix in="SourceAlpha" type="matrix" values="0 0 0 0 0 0 0 0 0 0 0 0 0 0 0 0 0 0 127 0" result="hardAlpha"/>
<feOffset dy="5"/>
<feGaussianBlur stdDeviation="5"/>
<feComposite in2="hardAlpha" operator="out"/>
<feColorMatrix type="matrix" values="0 0 0 0 0.345098 0 0 0 0 0.345098 0 0 0 0 0.345098 0 0 0 0.3 0"/>
<feBlend mode="normal" in2="BackgroundImageFix" result="effect1_dropShadow_3065_126204"/>
<feBlend mode="normal" in="SourceGraphic" in2="effect1_dropShadow_3065_126204" result="shape"/>
</filter>
</defs>
</svg>
