<svg width="234" height="162" viewBox="0 0 234 162" fill="none" xmlns="http://www.w3.org/2000/svg">
<rect width="234" height="162" fill="white"/>
<rect y="7" width="121" height="58" rx="29" fill="#FF6888"/>
<path d="M42.9091 33.1562C42.8097 32.8106 42.67 32.5052 42.4901 32.2401C42.3101 31.9702 42.09 31.7429 41.8295 31.5582C41.5739 31.3688 41.2803 31.2244 40.9489 31.125C40.6222 31.0256 40.2599 30.9759 39.8622 30.9759C39.1188 30.9759 38.4654 31.1605 37.902 31.5298C37.3433 31.8991 36.9077 32.4366 36.5952 33.142C36.2827 33.8428 36.1264 34.6998 36.1264 35.7131C36.1264 36.7263 36.2803 37.5881 36.5881 38.2983C36.8958 39.0085 37.3314 39.5507 37.8949 39.9247C38.4583 40.294 39.1236 40.4787 39.8906 40.4787C40.5866 40.4787 41.1809 40.3556 41.6733 40.1094C42.1705 39.8584 42.5492 39.5057 42.8097 39.0511C43.0748 38.5966 43.2074 38.0592 43.2074 37.4389L43.8324 37.5312H40.0824V35.2159H46.169V37.0483C46.169 38.3267 45.8991 39.4252 45.3594 40.3438C44.8196 41.2576 44.0762 41.9631 43.1293 42.4602C42.1823 42.9527 41.098 43.1989 39.8764 43.1989C38.5128 43.1989 37.3149 42.8982 36.2827 42.2969C35.2505 41.6908 34.4455 40.8314 33.8679 39.7188C33.295 38.6013 33.0085 37.2756 33.0085 35.7415C33.0085 34.5625 33.179 33.5114 33.5199 32.5881C33.8655 31.66 34.3485 30.8741 34.9688 30.2301C35.589 29.5862 36.3111 29.0961 37.1349 28.7599C37.9588 28.4238 38.8513 28.2557 39.8125 28.2557C40.6364 28.2557 41.4034 28.3764 42.1136 28.6179C42.8239 28.8546 43.4536 29.1908 44.0028 29.6264C44.5568 30.062 45.009 30.5805 45.3594 31.1818C45.7098 31.7784 45.9347 32.4366 46.0341 33.1562H42.9091ZM55.418 38.3551V32.0909H58.4435V43H55.5387V41.0185H55.4251C55.1789 41.6577 54.7693 42.1714 54.1964 42.5597C53.6282 42.9479 52.9345 43.142 52.1154 43.142C51.3862 43.142 50.7447 42.9763 50.1907 42.6449C49.6367 42.3134 49.2035 41.8423 48.891 41.2315C48.5832 40.6207 48.427 39.8892 48.4222 39.0369V32.0909H51.4478V38.4972C51.4525 39.1411 51.6254 39.6501 51.9663 40.0241C52.3072 40.3982 52.7641 40.5852 53.337 40.5852C53.7016 40.5852 54.0425 40.5024 54.3597 40.3366C54.677 40.1662 54.9326 39.9152 55.1268 39.5838C55.3256 39.2524 55.4227 38.8428 55.418 38.3551ZM65.7926 43.2131C64.6752 43.2131 63.714 42.9763 62.9091 42.5028C62.1089 42.0246 61.4934 41.3617 61.0625 40.5142C60.6364 39.6667 60.4233 38.6913 60.4233 37.5881C60.4233 36.4706 60.6387 35.4905 61.0696 34.6477C61.5052 33.8002 62.1231 33.1397 62.9233 32.6662C63.7235 32.188 64.6752 31.9489 65.7784 31.9489C66.7301 31.9489 67.5634 32.1217 68.2784 32.4673C68.9934 32.813 69.5592 33.2983 69.9759 33.9233C70.3925 34.5483 70.6222 35.2822 70.6648 36.125H67.8097C67.7292 35.5805 67.5161 35.1425 67.1705 34.8111C66.8295 34.4749 66.3821 34.3068 65.8281 34.3068C65.3594 34.3068 64.9498 34.4347 64.5994 34.6903C64.2538 34.9413 63.9839 35.3082 63.7898 35.7912C63.5956 36.2741 63.4986 36.8589 63.4986 37.5455C63.4986 38.2415 63.5933 38.8333 63.7827 39.321C63.9768 39.8087 64.2491 40.1804 64.5994 40.4361C64.9498 40.6918 65.3594 40.8196 65.8281 40.8196C66.1738 40.8196 66.4839 40.7486 66.7585 40.6065C67.0379 40.4645 67.2675 40.2585 67.4474 39.9886C67.6321 39.714 67.7528 39.3849 67.8097 39.0014H70.6648C70.6174 39.8348 70.3902 40.5687 69.983 41.2031C69.5805 41.8329 69.0241 42.3253 68.3139 42.6804C67.6037 43.0355 66.7633 43.2131 65.7926 43.2131ZM77.5309 43.2131C76.4135 43.2131 75.4523 42.9763 74.6474 42.5028C73.8472 42.0246 73.2317 41.3617 72.8008 40.5142C72.3746 39.6667 72.1616 38.6913 72.1616 37.5881C72.1616 36.4706 72.377 35.4905 72.8079 34.6477C73.2435 33.8002 73.8614 33.1397 74.6616 32.6662C75.4618 32.188 76.4135 31.9489 77.5167 31.9489C78.4684 31.9489 79.3017 32.1217 80.0167 32.4673C80.7317 32.813 81.2975 33.2983 81.7141 33.9233C82.1308 34.5483 82.3604 35.2822 82.4031 36.125H79.5479C79.4674 35.5805 79.2544 35.1425 78.9087 34.8111C78.5678 34.4749 78.1204 34.3068 77.5664 34.3068C77.0977 34.3068 76.6881 34.4347 76.3377 34.6903C75.9921 34.9413 75.7222 35.3082 75.5281 35.7912C75.3339 36.2741 75.2369 36.8589 75.2369 37.5455C75.2369 38.2415 75.3316 38.8333 75.521 39.321C75.7151 39.8087 75.9873 40.1804 76.3377 40.4361C76.6881 40.6918 77.0977 40.8196 77.5664 40.8196C77.9121 40.8196 78.2222 40.7486 78.4968 40.6065C78.7762 40.4645 79.0058 40.2585 79.1857 39.9886C79.3704 39.714 79.4911 39.3849 79.5479 39.0014H82.4031C82.3557 39.8348 82.1284 40.5687 81.7212 41.2031C81.3188 41.8329 80.7624 42.3253 80.0522 42.6804C79.342 43.0355 78.5015 43.2131 77.5309 43.2131ZM84.3402 43V32.0909H87.3658V43H84.3402ZM85.8601 30.6847C85.4103 30.6847 85.0244 30.5355 84.7024 30.2372C84.3852 29.9342 84.2266 29.572 84.2266 29.1506C84.2266 28.7339 84.3852 28.3764 84.7024 28.0781C85.0244 27.7751 85.4103 27.6236 85.8601 27.6236C86.3099 27.6236 86.6934 27.7751 87.0107 28.0781C87.3326 28.3764 87.4936 28.7339 87.4936 29.1506C87.4936 29.572 87.3326 29.9342 87.0107 30.2372C86.6934 30.5355 86.3099 30.6847 85.8601 30.6847Z" fill="white"/>
<rect x="76" y="68" width="130" height="46" rx="23" fill="#FF7794"/>
<path d="M115.324 88.7102C115.278 88.2519 115.083 87.8958 114.739 87.642C114.394 87.3883 113.926 87.2614 113.335 87.2614C112.934 87.2614 112.595 87.3182 112.318 87.4318C112.042 87.5417 111.83 87.6951 111.682 87.892C111.538 88.089 111.466 88.3125 111.466 88.5625C111.458 88.7708 111.502 88.9527 111.597 89.108C111.695 89.2633 111.83 89.3977 112 89.5114C112.17 89.6212 112.367 89.7178 112.591 89.8011C112.814 89.8807 113.053 89.9489 113.307 90.0057L114.352 90.2557C114.86 90.3693 115.326 90.5208 115.75 90.7102C116.174 90.8996 116.542 91.1326 116.852 91.4091C117.163 91.6856 117.403 92.0114 117.574 92.3864C117.748 92.7614 117.837 93.1913 117.841 93.6761C117.837 94.3883 117.655 95.0057 117.295 95.5284C116.939 96.0473 116.424 96.4508 115.75 96.7386C115.08 97.0227 114.271 97.1648 113.324 97.1648C112.384 97.1648 111.566 97.0208 110.869 96.733C110.176 96.4451 109.634 96.0189 109.244 95.4545C108.858 94.8864 108.655 94.1837 108.636 93.3466H111.017C111.044 93.7367 111.155 94.0625 111.352 94.3239C111.553 94.5814 111.82 94.7765 112.153 94.9091C112.491 95.0379 112.871 95.1023 113.295 95.1023C113.712 95.1023 114.074 95.0417 114.381 94.9205C114.691 94.7992 114.932 94.6307 115.102 94.4148C115.273 94.1989 115.358 93.9508 115.358 93.6705C115.358 93.4091 115.28 93.1894 115.125 93.0114C114.973 92.8333 114.75 92.6818 114.455 92.5568C114.163 92.4318 113.805 92.3182 113.381 92.2159L112.114 91.8977C111.133 91.6591 110.358 91.286 109.79 90.7784C109.222 90.2708 108.939 89.5871 108.943 88.7273C108.939 88.0227 109.127 87.4072 109.506 86.8807C109.888 86.3542 110.413 85.9432 111.08 85.6477C111.746 85.3523 112.504 85.2045 113.352 85.2045C114.216 85.2045 114.97 85.3523 115.614 85.6477C116.261 85.9432 116.765 86.3542 117.125 86.8807C117.485 87.4072 117.67 88.017 117.682 88.7102H115.324ZM123.428 97.1705C122.53 97.1705 121.757 96.9886 121.109 96.625C120.465 96.2576 119.969 95.7386 119.621 95.0682C119.272 94.3939 119.098 93.5966 119.098 92.6761C119.098 91.7784 119.272 90.9905 119.621 90.3125C119.969 89.6345 120.46 89.1061 121.092 88.7273C121.729 88.3485 122.475 88.1591 123.331 88.1591C123.907 88.1591 124.443 88.2519 124.939 88.4375C125.439 88.6193 125.875 88.8939 126.246 89.2614C126.621 89.6288 126.912 90.0909 127.121 90.6477C127.329 91.2008 127.433 91.8485 127.433 92.5909V93.2557H120.064V91.7557H125.155C125.155 91.4072 125.079 91.0985 124.928 90.8295C124.776 90.5606 124.566 90.3504 124.297 90.1989C124.032 90.0436 123.723 89.9659 123.371 89.9659C123.003 89.9659 122.678 90.0511 122.393 90.2216C122.113 90.3883 121.893 90.6136 121.734 90.8977C121.575 91.178 121.494 91.4905 121.49 91.8352V93.2614C121.49 93.6932 121.57 94.0663 121.729 94.3807C121.892 94.6951 122.121 94.9375 122.416 95.108C122.712 95.2784 123.062 95.3636 123.467 95.3636C123.736 95.3636 123.982 95.3258 124.206 95.25C124.429 95.1742 124.621 95.0606 124.78 94.9091C124.939 94.7576 125.06 94.572 125.143 94.3523L127.382 94.5C127.268 95.0379 127.036 95.5076 126.683 95.9091C126.335 96.3068 125.884 96.6174 125.331 96.8409C124.782 97.0606 124.147 97.1705 123.428 97.1705ZM129.013 100.273V88.2727H131.399V89.7386H131.507C131.613 89.5038 131.767 89.2652 131.967 89.0227C132.172 88.7765 132.437 88.572 132.763 88.4091C133.092 88.2424 133.501 88.1591 133.99 88.1591C134.626 88.1591 135.214 88.3258 135.751 88.6591C136.289 88.9886 136.719 89.4867 137.041 90.1534C137.363 90.8163 137.524 91.6477 137.524 92.6477C137.524 93.6212 137.367 94.4432 137.053 95.1136C136.742 95.7803 136.318 96.286 135.78 96.6307C135.246 96.9716 134.647 97.142 133.984 97.142C133.515 97.142 133.115 97.0644 132.786 96.9091C132.46 96.7538 132.193 96.5587 131.984 96.3239C131.776 96.0852 131.617 95.8447 131.507 95.6023H131.433V100.273H129.013ZM131.382 92.6364C131.382 93.1553 131.454 93.608 131.598 93.9943C131.742 94.3807 131.95 94.6818 132.223 94.8977C132.496 95.1098 132.827 95.2159 133.217 95.2159C133.611 95.2159 133.945 95.108 134.217 94.892C134.49 94.6723 134.696 94.3693 134.837 93.983C134.981 93.5928 135.053 93.1439 135.053 92.6364C135.053 92.1326 134.982 91.6894 134.842 91.3068C134.702 90.9242 134.496 90.625 134.223 90.4091C133.95 90.1932 133.615 90.0852 133.217 90.0852C132.823 90.0852 132.49 90.1894 132.217 90.3977C131.948 90.6061 131.742 90.9015 131.598 91.2841C131.454 91.6667 131.382 92.1174 131.382 92.6364ZM141.558 91.9545V97H139.138V85.3636H141.49V89.8125H141.592C141.789 89.2973 142.107 88.8939 142.547 88.6023C142.986 88.3068 143.537 88.1591 144.2 88.1591C144.806 88.1591 145.335 88.2917 145.786 88.5568C146.24 88.8182 146.592 89.1951 146.842 89.6875C147.096 90.1761 147.221 90.7614 147.217 91.4432V97H144.797V91.875C144.801 91.3371 144.664 90.9186 144.388 90.6193C144.115 90.3201 143.732 90.1705 143.24 90.1705C142.911 90.1705 142.619 90.2405 142.365 90.3807C142.115 90.5208 141.918 90.7254 141.774 90.9943C141.634 91.2595 141.562 91.5795 141.558 91.9545ZM153.065 97.1705C152.183 97.1705 151.42 96.983 150.776 96.608C150.135 96.2292 149.641 95.7027 149.293 95.0284C148.944 94.3504 148.77 93.5644 148.77 92.6705C148.77 91.7689 148.944 90.9811 149.293 90.3068C149.641 89.6288 150.135 89.1023 150.776 88.7273C151.42 88.3485 152.183 88.1591 153.065 88.1591C153.948 88.1591 154.709 88.3485 155.349 88.7273C155.993 89.1023 156.49 89.6288 156.838 90.3068C157.187 90.9811 157.361 91.7689 157.361 92.6705C157.361 93.5644 157.187 94.3504 156.838 95.0284C156.49 95.7027 155.993 96.2292 155.349 96.608C154.709 96.983 153.948 97.1705 153.065 97.1705ZM153.077 95.2955C153.478 95.2955 153.813 95.1818 154.082 94.9545C154.351 94.7235 154.554 94.4091 154.69 94.0114C154.83 93.6136 154.901 93.161 154.901 92.6534C154.901 92.1458 154.83 91.6932 154.69 91.2955C154.554 90.8977 154.351 90.5833 154.082 90.3523C153.813 90.1212 153.478 90.0057 153.077 90.0057C152.671 90.0057 152.33 90.1212 152.054 90.3523C151.781 90.5833 151.575 90.8977 151.435 91.2955C151.298 91.6932 151.23 92.1458 151.23 92.6534C151.23 93.161 151.298 93.6136 151.435 94.0114C151.575 94.4091 151.781 94.7235 152.054 94.9545C152.33 95.1818 152.671 95.2955 153.077 95.2955ZM158.935 97V88.2727H161.281V89.7955H161.372C161.531 89.2538 161.798 88.8447 162.173 88.5682C162.548 88.2879 162.98 88.1477 163.469 88.1477C163.59 88.1477 163.721 88.1553 163.861 88.1705C164.001 88.1856 164.124 88.2064 164.23 88.233V90.3807C164.116 90.3466 163.959 90.3163 163.759 90.2898C163.558 90.2633 163.374 90.25 163.207 90.25C162.851 90.25 162.533 90.3277 162.253 90.483C161.976 90.6345 161.757 90.8466 161.594 91.1193C161.435 91.392 161.355 91.7064 161.355 92.0625V97H158.935ZM167.72 97.1648C167.163 97.1648 166.667 97.0682 166.232 96.875C165.796 96.678 165.451 96.3883 165.197 96.0057C164.947 95.6193 164.822 95.1383 164.822 94.5625C164.822 94.0777 164.911 93.6705 165.089 93.3409C165.268 93.0114 165.51 92.7462 165.817 92.5455C166.124 92.3447 166.472 92.1932 166.862 92.0909C167.256 91.9886 167.669 91.9167 168.101 91.875C168.608 91.822 169.018 91.7727 169.328 91.7273C169.639 91.678 169.864 91.6061 170.004 91.5114C170.144 91.4167 170.214 91.2765 170.214 91.0909V91.0568C170.214 90.697 170.101 90.4186 169.874 90.2216C169.65 90.0246 169.332 89.9261 168.919 89.9261C168.483 89.9261 168.137 90.0227 167.879 90.2159C167.622 90.4053 167.451 90.6439 167.368 90.9318L165.129 90.75C165.243 90.2197 165.466 89.7614 165.8 89.375C166.133 88.9848 166.563 88.6856 167.089 88.4773C167.62 88.2652 168.233 88.1591 168.93 88.1591C169.415 88.1591 169.879 88.2159 170.322 88.3295C170.769 88.4432 171.165 88.6193 171.51 88.858C171.858 89.0966 172.133 89.4034 172.334 89.7784C172.535 90.1496 172.635 90.5947 172.635 91.1136V97H170.339V95.7898H170.271C170.131 96.0625 169.944 96.303 169.709 96.5114C169.474 96.7159 169.192 96.8769 168.862 96.9943C168.533 97.108 168.152 97.1648 167.72 97.1648ZM168.413 95.4943C168.769 95.4943 169.084 95.4242 169.357 95.2841C169.629 95.1402 169.843 94.947 169.999 94.7045C170.154 94.4621 170.232 94.1875 170.232 93.8807V92.9545C170.156 93.0038 170.052 93.0492 169.919 93.0909C169.79 93.1288 169.644 93.1648 169.482 93.1989C169.319 93.2292 169.156 93.2576 168.993 93.2841C168.83 93.3068 168.682 93.3277 168.55 93.3466C168.266 93.3883 168.018 93.4545 167.805 93.5455C167.593 93.6364 167.429 93.7595 167.311 93.9148C167.194 94.0663 167.135 94.2557 167.135 94.483C167.135 94.8125 167.254 95.0644 167.493 95.2386C167.735 95.4091 168.042 95.4943 168.413 95.4943Z" fill="white"/>
<rect x="128" y="26" width="98" height="34" rx="17" fill="#FF87A0"/>
<path d="M164.459 41.3281H162.592C162.558 41.0866 162.489 40.8722 162.384 40.6847C162.278 40.4943 162.143 40.3324 161.979 40.1989C161.814 40.0653 161.624 39.9631 161.408 39.892C161.195 39.821 160.963 39.7855 160.713 39.7855C160.261 39.7855 159.868 39.8977 159.533 40.1222C159.197 40.3437 158.938 40.6676 158.753 41.0938C158.568 41.517 158.476 42.0312 158.476 42.6364C158.476 43.2585 158.568 43.7812 158.753 44.2045C158.94 44.6278 159.202 44.9474 159.537 45.1634C159.872 45.3793 160.26 45.4872 160.7 45.4872C160.947 45.4872 161.176 45.4545 161.386 45.3892C161.599 45.3239 161.788 45.2287 161.953 45.1037C162.118 44.9759 162.254 44.821 162.362 44.6392C162.473 44.4574 162.55 44.25 162.592 44.017L164.459 44.0256C164.411 44.4261 164.29 44.8125 164.097 45.1847C163.906 45.554 163.649 45.8849 163.325 46.1776C163.004 46.4673 162.621 46.6974 162.175 46.8679C161.732 47.0355 161.23 47.1193 160.67 47.1193C159.892 47.1193 159.196 46.9432 158.582 46.5909C157.972 46.2386 157.489 45.7287 157.134 45.0611C156.781 44.3935 156.605 43.5852 156.605 42.6364C156.605 41.6847 156.784 40.875 157.142 40.2074C157.5 39.5398 157.986 39.0312 158.599 38.6818C159.213 38.3295 159.903 38.1534 160.67 38.1534C161.176 38.1534 161.645 38.2244 162.077 38.3665C162.511 38.5085 162.896 38.7159 163.232 38.9886C163.567 39.2585 163.839 39.5895 164.05 39.9815C164.263 40.3736 164.399 40.8224 164.459 41.3281ZM167.563 43.2159V47H165.748V38.2727H167.512V41.6094H167.589C167.737 41.223 167.975 40.9205 168.305 40.7017C168.634 40.4801 169.048 40.3693 169.545 40.3693C169.999 40.3693 170.396 40.4688 170.734 40.6676C171.075 40.8636 171.339 41.1463 171.526 41.5156C171.717 41.8821 171.81 42.321 171.808 42.8324V47H169.992V43.1562C169.995 42.7528 169.893 42.4389 169.685 42.2145C169.481 41.9901 169.194 41.8778 168.825 41.8778C168.577 41.8778 168.359 41.9304 168.168 42.0355C167.981 42.1406 167.833 42.294 167.725 42.4957C167.62 42.6946 167.566 42.9347 167.563 43.2159ZM175.103 47.1236C174.685 47.1236 174.313 47.0511 173.986 46.9062C173.659 46.7585 173.401 46.5412 173.211 46.2543C173.023 45.9645 172.929 45.6037 172.929 45.1719C172.929 44.8082 172.996 44.5028 173.13 44.2557C173.263 44.0085 173.445 43.8097 173.675 43.6591C173.905 43.5085 174.167 43.3949 174.459 43.3182C174.755 43.2415 175.064 43.1875 175.388 43.1562C175.769 43.1165 176.076 43.0795 176.309 43.0455C176.542 43.0085 176.711 42.9545 176.816 42.8835C176.921 42.8125 176.973 42.7074 176.973 42.5682V42.5426C176.973 42.2727 176.888 42.0639 176.718 41.9162C176.55 41.7685 176.311 41.6946 176.002 41.6946C175.675 41.6946 175.415 41.767 175.222 41.9119C175.029 42.054 174.901 42.233 174.838 42.4489L173.159 42.3125C173.245 41.9148 173.412 41.571 173.662 41.2812C173.912 40.9886 174.235 40.7642 174.63 40.608C175.027 40.4489 175.488 40.3693 176.01 40.3693C176.374 40.3693 176.722 40.4119 177.054 40.4972C177.39 40.5824 177.686 40.7145 177.945 40.8935C178.206 41.0724 178.412 41.3026 178.563 41.5838C178.713 41.8622 178.789 42.196 178.789 42.5852V47H177.067V46.0923H177.016C176.911 46.2969 176.77 46.4773 176.594 46.6335C176.418 46.7869 176.206 46.9077 175.959 46.9957C175.712 47.081 175.426 47.1236 175.103 47.1236ZM175.623 45.8707C175.89 45.8707 176.125 45.8182 176.33 45.7131C176.534 45.6051 176.695 45.4602 176.811 45.2784C176.928 45.0966 176.986 44.8906 176.986 44.6605V43.9659C176.929 44.0028 176.851 44.0369 176.752 44.0682C176.655 44.0966 176.546 44.1236 176.424 44.1491C176.301 44.1719 176.179 44.1932 176.057 44.2131C175.935 44.2301 175.824 44.2457 175.725 44.2599C175.512 44.2912 175.326 44.3409 175.167 44.4091C175.007 44.4773 174.884 44.5696 174.796 44.6861C174.708 44.7997 174.664 44.9418 174.664 45.1122C174.664 45.3594 174.753 45.5483 174.932 45.679C175.114 45.8068 175.344 45.8707 175.623 45.8707ZM182.012 43.2159V47H180.197V40.4545H181.927V41.6094H182.004C182.149 41.2287 182.392 40.9276 182.733 40.706C183.074 40.4815 183.487 40.3693 183.973 40.3693C184.427 40.3693 184.824 40.4688 185.162 40.6676C185.5 40.8665 185.762 41.1506 185.95 41.5199C186.137 41.8864 186.231 42.3239 186.231 42.8324V47H184.416V43.1562C184.419 42.7557 184.316 42.4432 184.109 42.2188C183.902 41.9915 183.616 41.8778 183.252 41.8778C183.008 41.8778 182.792 41.9304 182.605 42.0355C182.42 42.1406 182.275 42.294 182.17 42.4957C182.068 42.6946 182.015 42.9347 182.012 43.2159ZM190.645 47.1278C189.972 47.1278 189.392 46.9915 188.906 46.7188C188.423 46.4432 188.051 46.054 187.79 45.5511C187.528 45.0455 187.398 44.4474 187.398 43.7571C187.398 43.0838 187.528 42.4929 187.79 41.9844C188.051 41.4759 188.419 41.0795 188.893 40.7955C189.371 40.5114 189.93 40.3693 190.572 40.3693C191.004 40.3693 191.406 40.4389 191.778 40.5781C192.153 40.7145 192.48 40.9205 192.759 41.196C193.04 41.4716 193.259 41.8182 193.415 42.2358C193.571 42.6506 193.649 43.1364 193.649 43.6932V44.1918H188.122V43.0668H191.94C191.94 42.8054 191.884 42.5739 191.77 42.3722C191.656 42.1705 191.499 42.0128 191.297 41.8991C191.098 41.7827 190.866 41.7244 190.602 41.7244C190.327 41.7244 190.082 41.7884 189.869 41.9162C189.659 42.0412 189.494 42.2102 189.375 42.4233C189.256 42.6335 189.195 42.8679 189.192 43.1264V44.196C189.192 44.5199 189.251 44.7997 189.371 45.0355C189.493 45.2713 189.665 45.4531 189.886 45.581C190.108 45.7088 190.371 45.7727 190.675 45.7727C190.876 45.7727 191.061 45.7443 191.229 45.6875C191.396 45.6307 191.54 45.5455 191.659 45.4318C191.778 45.3182 191.869 45.179 191.932 45.0142L193.611 45.125C193.526 45.5284 193.351 45.8807 193.087 46.1818C192.825 46.4801 192.487 46.7131 192.072 46.8807C191.661 47.0455 191.185 47.1278 190.645 47.1278ZM196.649 38.2727V47H194.834V38.2727H196.649Z" fill="white"/>
<rect x="30" y="120" width="97" height="34" rx="17" fill="#FF87A0"/>
<path d="M58.7585 141V132.273H62.2017C62.8636 132.273 63.4276 132.399 63.8935 132.652C64.3594 132.902 64.7145 133.25 64.9588 133.696C65.206 134.139 65.3295 134.651 65.3295 135.23C65.3295 135.81 65.2045 136.321 64.9545 136.764C64.7045 137.207 64.3423 137.553 63.8679 137.8C63.3963 138.047 62.8253 138.17 62.1548 138.17H59.9602V136.692H61.8565C62.2116 136.692 62.5043 136.631 62.7344 136.509C62.9673 136.384 63.1406 136.212 63.2543 135.993C63.3707 135.771 63.429 135.517 63.429 135.23C63.429 134.94 63.3707 134.687 63.2543 134.472C63.1406 134.253 62.9673 134.084 62.7344 133.964C62.5014 133.842 62.206 133.781 61.848 133.781H60.6037V141H58.7585ZM69.3714 141.128C68.6982 141.128 68.1186 140.991 67.6328 140.719C67.1499 140.443 66.7777 140.054 66.5163 139.551C66.255 139.045 66.1243 138.447 66.1243 137.757C66.1243 137.084 66.255 136.493 66.5163 135.984C66.7777 135.476 67.1456 135.08 67.62 134.795C68.0973 134.511 68.657 134.369 69.299 134.369C69.7308 134.369 70.1328 134.439 70.505 134.578C70.88 134.714 71.2067 134.92 71.4851 135.196C71.7663 135.472 71.9851 135.818 72.1413 136.236C72.2976 136.651 72.3757 137.136 72.3757 137.693V138.192H66.8487V137.067H70.6669C70.6669 136.805 70.6101 136.574 70.4964 136.372C70.3828 136.17 70.2251 136.013 70.0234 135.899C69.8246 135.783 69.593 135.724 69.3288 135.724C69.0533 135.724 68.8089 135.788 68.5959 135.916C68.3857 136.041 68.2209 136.21 68.1016 136.423C67.9822 136.634 67.9212 136.868 67.9183 137.126V138.196C67.9183 138.52 67.978 138.8 68.0973 139.036C68.2195 139.271 68.3913 139.453 68.6129 139.581C68.8345 139.709 69.0973 139.773 69.4013 139.773C69.603 139.773 69.7876 139.744 69.9553 139.688C70.1229 139.631 70.2663 139.545 70.3857 139.432C70.505 139.318 70.5959 139.179 70.6584 139.014L72.3374 139.125C72.2521 139.528 72.0774 139.881 71.8132 140.182C71.5518 140.48 71.2138 140.713 70.799 140.881C70.3871 141.045 69.9112 141.128 69.3714 141.128ZM76.5178 141.128C75.8558 141.128 75.2834 140.987 74.8004 140.706C74.3203 140.422 73.9496 140.027 73.6882 139.521C73.4268 139.013 73.2962 138.423 73.2962 137.753C73.2962 137.077 73.4268 136.486 73.6882 135.98C73.9496 135.472 74.3203 135.077 74.8004 134.795C75.2834 134.511 75.8558 134.369 76.5178 134.369C77.1797 134.369 77.7507 134.511 78.2308 134.795C78.7138 135.077 79.0859 135.472 79.3473 135.98C79.6087 136.486 79.7393 137.077 79.7393 137.753C79.7393 138.423 79.6087 139.013 79.3473 139.521C79.0859 140.027 78.7138 140.422 78.2308 140.706C77.7507 140.987 77.1797 141.128 76.5178 141.128ZM76.5263 139.722C76.8274 139.722 77.0788 139.636 77.2805 139.466C77.4822 139.293 77.6342 139.057 77.7365 138.759C77.8416 138.46 77.8942 138.121 77.8942 137.74C77.8942 137.359 77.8416 137.02 77.7365 136.722C77.6342 136.423 77.4822 136.187 77.2805 136.014C77.0788 135.841 76.8274 135.754 76.5263 135.754C76.2223 135.754 75.9666 135.841 75.7592 136.014C75.5547 136.187 75.3999 136.423 75.2947 136.722C75.1925 137.02 75.1413 137.359 75.1413 137.74C75.1413 138.121 75.1925 138.46 75.2947 138.759C75.3999 139.057 75.5547 139.293 75.7592 139.466C75.9666 139.636 76.2223 139.722 76.5263 139.722ZM80.9197 143.455V134.455H82.7095V135.554H82.7905C82.87 135.378 82.9851 135.199 83.1357 135.017C83.2891 134.832 83.4879 134.679 83.7322 134.557C83.9794 134.432 84.2862 134.369 84.6527 134.369C85.13 134.369 85.5703 134.494 85.9737 134.744C86.3771 134.991 86.6996 135.365 86.9411 135.865C87.1825 136.362 87.3033 136.986 87.3033 137.736C87.3033 138.466 87.1854 139.082 86.9496 139.585C86.7166 140.085 86.3984 140.464 85.995 140.723C85.5945 140.979 85.1456 141.107 84.6484 141.107C84.2962 141.107 83.9964 141.048 83.7493 140.932C83.505 140.815 83.3047 140.669 83.1484 140.493C82.9922 140.314 82.8729 140.134 82.7905 139.952H82.7351V143.455H80.9197ZM82.6967 137.727C82.6967 138.116 82.7507 138.456 82.8587 138.746C82.9666 139.036 83.1229 139.261 83.3274 139.423C83.532 139.582 83.7805 139.662 84.0732 139.662C84.3686 139.662 84.6186 139.581 84.8232 139.419C85.0277 139.254 85.1825 139.027 85.2876 138.737C85.3956 138.445 85.4496 138.108 85.4496 137.727C85.4496 137.349 85.397 137.017 85.2919 136.73C85.1868 136.443 85.032 136.219 84.8274 136.057C84.6229 135.895 84.3714 135.814 84.0732 135.814C83.7777 135.814 83.5277 135.892 83.3232 136.048C83.1214 136.205 82.9666 136.426 82.8587 136.713C82.7507 137 82.6967 137.338 82.6967 137.727ZM90.3288 132.273V141H88.5135V132.273H90.3288ZM94.766 141.128C94.0927 141.128 93.5131 140.991 93.0273 140.719C92.5444 140.443 92.1722 140.054 91.9109 139.551C91.6495 139.045 91.5188 138.447 91.5188 137.757C91.5188 137.084 91.6495 136.493 91.9109 135.984C92.1722 135.476 92.5401 135.08 93.0146 134.795C93.4918 134.511 94.0515 134.369 94.6935 134.369C95.1254 134.369 95.5273 134.439 95.8995 134.578C96.2745 134.714 96.6012 134.92 96.8796 135.196C97.1609 135.472 97.3796 135.818 97.5359 136.236C97.6921 136.651 97.7702 137.136 97.7702 137.693V138.192H92.2433V137.067H96.0614C96.0614 136.805 96.0046 136.574 95.891 136.372C95.7773 136.17 95.6197 136.013 95.418 135.899C95.2191 135.783 94.9876 135.724 94.7234 135.724C94.4478 135.724 94.2035 135.788 93.9904 135.916C93.7802 136.041 93.6154 136.21 93.4961 136.423C93.3768 136.634 93.3157 136.868 93.3129 137.126V138.196C93.3129 138.52 93.3725 138.8 93.4918 139.036C93.614 139.271 93.7859 139.453 94.0075 139.581C94.229 139.709 94.4918 139.773 94.7958 139.773C94.9975 139.773 95.1822 139.744 95.3498 139.688C95.5174 139.631 95.6609 139.545 95.7802 139.432C95.8995 139.318 95.9904 139.179 96.0529 139.014L97.7319 139.125C97.6467 139.528 97.4719 139.881 97.2077 140.182C96.9464 140.48 96.6083 140.713 96.1935 140.881C95.7816 141.045 95.3058 141.128 94.766 141.128Z" fill="white"/>
<rect x="134" y="120" width="92" height="26" rx="13" fill="#FF96AC"/>
<path d="M158.632 137V129.727H161.501C162.051 129.727 162.519 129.826 162.908 130.022C163.298 130.216 163.595 130.492 163.799 130.849C164.005 131.205 164.108 131.622 164.108 132.103C164.108 132.586 164.004 133.001 163.795 133.349C163.587 133.695 163.285 133.96 162.89 134.145C162.497 134.33 162.021 134.422 161.462 134.422H159.541V133.186H161.214C161.507 133.186 161.751 133.146 161.945 133.065C162.139 132.985 162.284 132.864 162.379 132.703C162.476 132.542 162.524 132.342 162.524 132.103C162.524 131.862 162.476 131.658 162.379 131.492C162.284 131.326 162.138 131.201 161.942 131.116C161.748 131.028 161.503 130.984 161.207 130.984H160.17V137H158.632ZM162.56 133.69L164.367 137H162.67L160.901 133.69H162.56ZM167.543 137.107C166.991 137.107 166.514 136.989 166.112 136.755C165.712 136.518 165.403 136.189 165.185 135.768C164.967 135.344 164.858 134.853 164.858 134.294C164.858 133.731 164.967 133.238 165.185 132.817C165.403 132.393 165.712 132.064 166.112 131.83C166.514 131.593 166.991 131.474 167.543 131.474C168.094 131.474 168.57 131.593 168.97 131.83C169.373 132.064 169.683 132.393 169.901 132.817C170.119 133.238 170.227 133.731 170.227 134.294C170.227 134.853 170.119 135.344 169.901 135.768C169.683 136.189 169.373 136.518 168.97 136.755C168.57 136.989 168.094 137.107 167.543 137.107ZM167.55 135.935C167.801 135.935 168.01 135.864 168.178 135.722C168.347 135.577 168.473 135.381 168.558 135.132C168.646 134.884 168.69 134.601 168.69 134.283C168.69 133.966 168.646 133.683 168.558 133.435C168.473 133.186 168.347 132.99 168.178 132.845C168.01 132.701 167.801 132.629 167.55 132.629C167.297 132.629 167.084 132.701 166.911 132.845C166.74 132.99 166.611 133.186 166.524 133.435C166.438 133.683 166.396 133.966 166.396 134.283C166.396 134.601 166.438 134.884 166.524 135.132C166.611 135.381 166.74 135.577 166.911 135.722C167.084 135.864 167.297 135.935 167.55 135.935ZM173.676 137.107C173.117 137.107 172.636 136.988 172.234 136.751C171.834 136.512 171.526 136.181 171.311 135.757C171.097 135.333 170.991 134.846 170.991 134.294C170.991 133.735 171.099 133.245 171.314 132.824C171.532 132.4 171.841 132.07 172.241 131.833C172.641 131.594 173.117 131.474 173.669 131.474C174.144 131.474 174.561 131.561 174.919 131.734C175.276 131.906 175.559 132.149 175.767 132.462C175.976 132.774 176.09 133.141 176.112 133.562H174.684C174.644 133.29 174.537 133.071 174.365 132.906C174.194 132.737 173.97 132.653 173.693 132.653C173.459 132.653 173.254 132.717 173.079 132.845C172.906 132.971 172.771 133.154 172.674 133.396C172.577 133.637 172.529 133.929 172.529 134.273C172.529 134.621 172.576 134.917 172.671 135.161C172.768 135.404 172.904 135.59 173.079 135.718C173.254 135.846 173.459 135.91 173.693 135.91C173.866 135.91 174.021 135.874 174.159 135.803C174.298 135.732 174.413 135.629 174.503 135.494C174.595 135.357 174.656 135.192 174.684 135.001H176.112C176.088 135.417 175.974 135.784 175.771 136.102C175.57 136.416 175.291 136.663 174.936 136.84C174.581 137.018 174.161 137.107 173.676 137.107ZM178.451 135.43L178.455 133.616H178.675L180.422 131.545H182.158L179.811 134.287H179.452L178.451 135.43ZM177.08 137V129.727H178.593V137H177.08ZM180.489 137L178.884 134.624L179.893 133.555L182.261 137H180.489ZM187.439 133.101L186.054 133.186C186.03 133.068 185.979 132.961 185.901 132.866C185.823 132.769 185.72 132.692 185.592 132.636C185.467 132.576 185.317 132.547 185.141 132.547C184.907 132.547 184.709 132.597 184.548 132.696C184.387 132.793 184.307 132.923 184.307 133.087C184.307 133.217 184.359 133.327 184.463 133.417C184.567 133.507 184.746 133.579 184.999 133.634L185.987 133.832C186.517 133.941 186.912 134.116 187.173 134.358C187.433 134.599 187.563 134.917 187.563 135.31C187.563 135.667 187.458 135.981 187.247 136.251C187.039 136.521 186.752 136.731 186.388 136.883C186.026 137.032 185.608 137.107 185.134 137.107C184.412 137.107 183.837 136.956 183.408 136.656C182.982 136.353 182.732 135.941 182.659 135.42L184.147 135.342C184.192 135.562 184.301 135.73 184.474 135.846C184.647 135.96 184.868 136.016 185.138 136.016C185.403 136.016 185.616 135.965 185.777 135.864C185.94 135.759 186.023 135.626 186.026 135.462C186.023 135.325 185.965 135.213 185.852 135.125C185.738 135.035 185.563 134.966 185.326 134.919L184.381 134.731C183.849 134.624 183.452 134.44 183.192 134.177C182.934 133.914 182.805 133.579 182.805 133.172C182.805 132.821 182.899 132.52 183.089 132.266C183.281 132.013 183.549 131.818 183.895 131.68C184.243 131.543 184.65 131.474 185.116 131.474C185.805 131.474 186.348 131.62 186.743 131.911C187.141 132.202 187.373 132.599 187.439 133.101ZM191.417 131.545V132.682H188.132V131.545H191.417ZM188.878 130.239H190.391V135.324C190.391 135.464 190.412 135.572 190.455 135.651C190.497 135.726 190.557 135.78 190.632 135.81C190.71 135.841 190.8 135.857 190.902 135.857C190.973 135.857 191.044 135.851 191.115 135.839C191.186 135.825 191.241 135.814 191.279 135.807L191.517 136.933C191.441 136.956 191.334 136.983 191.197 137.014C191.06 137.047 190.893 137.067 190.696 137.075C190.332 137.089 190.012 137.04 189.737 136.929C189.465 136.818 189.253 136.645 189.102 136.411C188.95 136.176 188.876 135.88 188.878 135.523V130.239ZM193.958 137.103C193.61 137.103 193.3 137.043 193.028 136.922C192.755 136.799 192.54 136.618 192.381 136.379C192.225 136.137 192.147 135.836 192.147 135.477C192.147 135.174 192.202 134.919 192.314 134.713C192.425 134.507 192.577 134.341 192.768 134.216C192.96 134.09 193.178 133.996 193.422 133.932C193.668 133.868 193.926 133.823 194.196 133.797C194.513 133.764 194.769 133.733 194.963 133.705C195.157 133.674 195.298 133.629 195.385 133.57C195.473 133.51 195.517 133.423 195.517 133.307V133.286C195.517 133.061 195.446 132.887 195.304 132.763C195.164 132.64 194.965 132.579 194.707 132.579C194.435 132.579 194.218 132.639 194.057 132.76C193.896 132.878 193.79 133.027 193.738 133.207L192.339 133.094C192.41 132.762 192.549 132.476 192.758 132.234C192.966 131.991 193.235 131.804 193.564 131.673C193.895 131.541 194.279 131.474 194.714 131.474C195.017 131.474 195.307 131.51 195.584 131.581C195.864 131.652 196.111 131.762 196.327 131.911C196.544 132.06 196.716 132.252 196.841 132.487C196.967 132.719 197.03 132.997 197.03 133.321V137H195.595V136.244H195.552C195.465 136.414 195.348 136.564 195.201 136.695C195.054 136.822 194.878 136.923 194.672 136.996C194.466 137.067 194.228 137.103 193.958 137.103ZM194.391 136.059C194.614 136.059 194.81 136.015 194.981 135.928C195.151 135.838 195.285 135.717 195.382 135.565C195.479 135.414 195.528 135.242 195.528 135.05V134.472C195.48 134.502 195.415 134.531 195.332 134.557C195.252 134.58 195.161 134.603 195.059 134.624C194.957 134.643 194.855 134.661 194.753 134.678C194.652 134.692 194.559 134.705 194.476 134.717C194.299 134.743 194.144 134.784 194.011 134.841C193.879 134.898 193.776 134.975 193.702 135.072C193.629 135.166 193.592 135.285 193.592 135.427C193.592 135.633 193.667 135.79 193.816 135.899C193.967 136.006 194.159 136.059 194.391 136.059ZM198.203 137V131.545H199.67V132.497H199.727C199.826 132.159 199.993 131.903 200.227 131.73C200.462 131.555 200.732 131.467 201.037 131.467C201.113 131.467 201.195 131.472 201.282 131.482C201.37 131.491 201.447 131.504 201.513 131.521V132.863C201.442 132.842 201.344 132.823 201.218 132.806C201.093 132.79 200.978 132.781 200.874 132.781C200.651 132.781 200.452 132.83 200.277 132.927C200.104 133.022 199.967 133.154 199.865 133.325C199.766 133.495 199.716 133.692 199.716 133.914V137H198.203Z" fill="white"/>
</svg>
