<svg width="385" height="134" viewBox="0 0 385 134" fill="none" xmlns="http://www.w3.org/2000/svg">
<path d="M177.562 29.4545V44H174.487V32.3736H174.401L171.07 34.4616V31.7344L174.671 29.4545H177.562ZM182.034 44.1847C181.566 44.1847 181.163 44.0189 180.827 43.6875C180.496 43.3513 180.33 42.9489 180.33 42.4801C180.33 42.0161 180.496 41.6184 180.827 41.2869C181.163 40.9555 181.566 40.7898 182.034 40.7898C182.489 40.7898 182.887 40.9555 183.228 41.2869C183.569 41.6184 183.739 42.0161 183.739 42.4801C183.739 42.7926 183.658 43.0791 183.498 43.3395C183.341 43.5952 183.135 43.8011 182.88 43.9574C182.624 44.1089 182.342 44.1847 182.034 44.1847ZM191.184 29.2557C191.932 29.2557 192.652 29.3812 193.343 29.6321C194.039 29.883 194.659 30.2831 195.204 30.8324C195.753 31.3816 196.186 32.1108 196.504 33.0199C196.826 33.9242 196.989 35.0346 196.994 36.3509C196.994 37.5866 196.854 38.6899 196.575 39.6605C196.3 40.6264 195.905 41.4479 195.388 42.125C194.872 42.8021 194.25 43.3182 193.521 43.6733C192.791 44.0237 191.977 44.1989 191.077 44.1989C190.107 44.1989 189.25 44.0118 188.506 43.6378C187.763 43.259 187.164 42.7453 186.71 42.0966C186.26 41.4432 185.987 40.7093 185.893 39.8949H188.925C189.044 40.4252 189.292 40.8371 189.671 41.1307C190.05 41.4195 190.519 41.5639 191.077 41.5639C192.024 41.5639 192.744 41.152 193.237 40.3281C193.729 39.4995 193.978 38.3655 193.982 36.9261H193.883C193.665 37.3523 193.371 37.7192 193.002 38.027C192.633 38.33 192.209 38.5644 191.731 38.7301C191.257 38.8958 190.753 38.9787 190.218 38.9787C189.361 38.9787 188.596 38.7775 187.924 38.375C187.252 37.9725 186.721 37.4186 186.333 36.7131C185.945 36.0076 185.751 35.2027 185.751 34.2983C185.746 33.3229 185.971 32.4541 186.425 31.6918C186.88 30.9295 187.514 30.3329 188.329 29.902C189.148 29.4664 190.1 29.2509 191.184 29.2557ZM191.205 31.6705C190.727 31.6705 190.301 31.7841 189.927 32.0114C189.558 32.2386 189.264 32.544 189.046 32.9276C188.833 33.3111 188.729 33.7396 188.734 34.2131C188.734 34.6913 188.838 35.1222 189.046 35.5057C189.259 35.8845 189.548 36.1875 189.913 36.4148C190.282 36.6373 190.703 36.7486 191.177 36.7486C191.532 36.7486 191.861 36.6823 192.164 36.5497C192.467 36.4171 192.73 36.2348 192.952 36.0028C193.18 35.7661 193.357 35.4938 193.485 35.1861C193.613 34.8783 193.677 34.5516 193.677 34.206C193.672 33.7467 193.563 33.3253 193.35 32.9418C193.137 32.5582 192.844 32.2505 192.469 32.0185C192.095 31.7865 191.674 31.6705 191.205 31.6705Z" fill="black"/>
<path d="M236.5 51.5618C236.5 38.5437 231.535 26.0073 222.603 16.4684L213.077 25.2418C219.777 32.3959 223.5 41.7982 223.5 51.5618H236.5Z" fill="#FF6888" stroke="white"/>
<path d="M222.6 16.4762C215.361 8.74543 205.905 3.40279 195.508 1.16907C185.111 -1.06466 174.273 -0.0819781 164.457 3.98453C154.64 8.05104 146.318 15.0057 140.612 23.9102C134.906 32.8148 132.092 43.2407 132.548 53.7814L145.536 53.2285C145.193 45.3229 147.304 37.5035 151.584 30.8251C155.863 24.1467 162.105 18.9307 169.467 15.8808C176.829 12.8309 184.958 12.0939 192.755 13.7692C200.553 15.4445 207.645 19.4515 213.075 25.2495L222.6 16.4762Z" fill="#8F82FF"/>
<path d="M132.551 54.6424C133.134 68.1155 139.016 80.826 148.935 90.0499C158.854 99.2739 172.022 104.277 185.617 103.988C199.211 103.699 212.151 98.1398 221.662 88.5024C231.174 78.865 236.5 65.916 236.5 52.4305H223.5C223.5 62.5446 219.506 72.2564 212.372 79.4844C205.239 86.7125 195.534 90.8818 185.338 91.0987C175.142 91.3157 165.266 87.5631 157.827 80.6451C150.387 73.7271 145.976 64.1942 145.538 54.0894L132.551 54.6424Z" fill="#FFBE6A"/>
<path d="M164.885 52.8182H167.54L170.344 59.6591H170.463L173.267 52.8182H175.922V63H173.834V56.3729H173.749L171.114 62.9503H169.692L167.058 56.348H166.973V63H164.885V52.8182ZM177.656 63V55.3636H179.774V63H177.656ZM178.72 54.3793C178.405 54.3793 178.135 54.2749 177.909 54.0661C177.687 53.8539 177.576 53.6004 177.576 53.3054C177.576 53.0137 177.687 52.7635 177.909 52.5547C178.135 52.3426 178.405 52.2365 178.72 52.2365C179.035 52.2365 179.303 52.3426 179.525 52.5547C179.75 52.7635 179.863 53.0137 179.863 53.3054C179.863 53.6004 179.75 53.8539 179.525 54.0661C179.303 54.2749 179.035 54.3793 178.72 54.3793ZM183.588 52.8182V63H181.47V52.8182H183.588ZM187.403 52.8182V63H185.285V52.8182H187.403ZM189.099 63V55.3636H191.217V63H189.099ZM190.163 54.3793C189.848 54.3793 189.578 54.2749 189.353 54.0661C189.131 53.8539 189.02 53.6004 189.02 53.3054C189.02 53.0137 189.131 52.7635 189.353 52.5547C189.578 52.3426 189.848 52.2365 190.163 52.2365C190.478 52.2365 190.746 52.3426 190.968 52.5547C191.194 52.7635 191.306 53.0137 191.306 53.3054C191.306 53.6004 191.194 53.8539 190.968 54.0661C190.746 54.2749 190.478 54.3793 190.163 54.3793ZM196.364 63.1491C195.592 63.1491 194.924 62.9851 194.36 62.657C193.8 62.3255 193.368 61.8648 193.063 61.2749C192.758 60.6816 192.605 59.9938 192.605 59.2116C192.605 58.4228 192.758 57.7334 193.063 57.1435C193.368 56.5502 193.8 56.0895 194.36 55.7614C194.924 55.4299 195.592 55.2642 196.364 55.2642C197.136 55.2642 197.802 55.4299 198.362 55.7614C198.926 56.0895 199.36 56.5502 199.665 57.1435C199.97 57.7334 200.122 58.4228 200.122 59.2116C200.122 59.9938 199.97 60.6816 199.665 61.2749C199.36 61.8648 198.926 62.3255 198.362 62.657C197.802 62.9851 197.136 63.1491 196.364 63.1491ZM196.374 61.5085C196.725 61.5085 197.018 61.4091 197.254 61.2102C197.489 61.008 197.666 60.733 197.786 60.3849C197.908 60.0369 197.97 59.6409 197.97 59.1967C197.97 58.7526 197.908 58.3565 197.786 58.0085C197.666 57.6605 197.489 57.3854 197.254 57.1832C197.018 56.9811 196.725 56.88 196.374 56.88C196.019 56.88 195.721 56.9811 195.479 57.1832C195.24 57.3854 195.06 57.6605 194.937 58.0085C194.818 58.3565 194.758 58.7526 194.758 59.1967C194.758 59.6409 194.818 60.0369 194.937 60.3849C195.06 60.733 195.24 61.008 195.479 61.2102C195.721 61.4091 196.019 61.5085 196.374 61.5085ZM203.617 58.5852V63H201.499V55.3636H203.518V56.7109H203.607C203.776 56.2668 204.06 55.9155 204.458 55.657C204.855 55.3951 205.338 55.2642 205.904 55.2642C206.435 55.2642 206.897 55.3802 207.291 55.6122C207.686 55.8442 207.992 56.1757 208.211 56.6065C208.43 57.0341 208.539 57.5445 208.539 58.1378V63H206.421V58.5156C206.425 58.0483 206.305 57.6837 206.063 57.4219C205.821 57.1567 205.488 57.0241 205.064 57.0241C204.779 57.0241 204.527 57.0855 204.308 57.2081C204.093 57.3307 203.924 57.5097 203.801 57.745C203.682 57.977 203.621 58.2571 203.617 58.5852Z" fill="#585858"/>
<path d="M172.531 68.8594V68H178.531V68.8594H176.016V76H175.047V68.8594H172.531ZM181.469 76.125C180.927 76.125 180.452 75.9961 180.043 75.7383C179.637 75.4805 179.319 75.1198 179.09 74.6562C178.863 74.1927 178.75 73.651 178.75 73.0312C178.75 72.4062 178.863 71.8607 179.09 71.3945C179.319 70.9284 179.637 70.5664 180.043 70.3086C180.452 70.0508 180.927 69.9219 181.469 69.9219C182.01 69.9219 182.484 70.0508 182.891 70.3086C183.299 70.5664 183.617 70.9284 183.844 71.3945C184.073 71.8607 184.188 72.4062 184.188 73.0312C184.188 73.651 184.073 74.1927 183.844 74.6562C183.617 75.1198 183.299 75.4805 182.891 75.7383C182.484 75.9961 182.01 76.125 181.469 76.125ZM181.469 75.2969C181.88 75.2969 182.219 75.1914 182.484 74.9805C182.75 74.7695 182.947 74.4922 183.074 74.1484C183.202 73.8047 183.266 73.4323 183.266 73.0312C183.266 72.6302 183.202 72.2565 183.074 71.9102C182.947 71.5638 182.75 71.2839 182.484 71.0703C182.219 70.8568 181.88 70.75 181.469 70.75C181.057 70.75 180.719 70.8568 180.453 71.0703C180.188 71.2839 179.991 71.5638 179.863 71.9102C179.736 72.2565 179.672 72.6302 179.672 73.0312C179.672 73.4323 179.736 73.8047 179.863 74.1484C179.991 74.4922 180.188 74.7695 180.453 74.9805C180.719 75.1914 181.057 75.2969 181.469 75.2969ZM188.204 70V70.7812H185.095V70H188.204ZM186.001 68.5625H186.923V74.2812C186.923 74.5417 186.961 74.737 187.036 74.8672C187.114 74.9948 187.213 75.0807 187.333 75.125C187.455 75.1667 187.584 75.1875 187.72 75.1875C187.821 75.1875 187.905 75.1823 187.97 75.1719C188.035 75.1589 188.087 75.1484 188.126 75.1406L188.313 75.9687C188.251 75.9922 188.164 76.0156 188.052 76.0391C187.94 76.0651 187.798 76.0781 187.626 76.0781C187.366 76.0781 187.11 76.0221 186.86 75.9102C186.613 75.7982 186.407 75.6276 186.243 75.3984C186.082 75.1693 186.001 74.8802 186.001 74.5312V68.5625ZM191.356 76.1406C190.976 76.1406 190.631 76.069 190.321 75.9258C190.011 75.7799 189.765 75.5703 189.583 75.2969C189.401 75.0208 189.31 74.6875 189.31 74.2969C189.31 73.9531 189.377 73.6745 189.513 73.4609C189.648 73.2448 189.829 73.0755 190.056 72.9531C190.282 72.8307 190.532 72.7396 190.806 72.6797C191.082 72.6172 191.359 72.5677 191.638 72.5313C192.002 72.4844 192.298 72.4492 192.524 72.4258C192.754 72.3997 192.92 72.3568 193.024 72.2969C193.131 72.237 193.185 72.1328 193.185 71.9844V71.9531C193.185 71.5677 193.079 71.2682 192.868 71.0547C192.66 70.8411 192.343 70.7344 191.919 70.7344C191.479 70.7344 191.134 70.8307 190.884 71.0234C190.634 71.2161 190.458 71.4219 190.356 71.6406L189.481 71.3281C189.638 70.9635 189.846 70.6797 190.106 70.4766C190.369 70.2708 190.656 70.1276 190.966 70.0469C191.278 69.9635 191.586 69.9219 191.888 69.9219C192.08 69.9219 192.302 69.9453 192.552 69.9922C192.804 70.0365 193.048 70.1289 193.282 70.2695C193.519 70.4102 193.716 70.6224 193.872 70.9062C194.028 71.1901 194.106 71.5703 194.106 72.0469V76H193.185V75.1875H193.138C193.075 75.3177 192.971 75.457 192.825 75.6055C192.679 75.7539 192.485 75.8802 192.243 75.9844C192.001 76.0885 191.705 76.1406 191.356 76.1406ZM191.497 75.3125C191.862 75.3125 192.169 75.2409 192.419 75.0977C192.672 74.9544 192.862 74.7695 192.989 74.543C193.119 74.3164 193.185 74.0781 193.185 73.8281V72.9844C193.146 73.0312 193.06 73.0742 192.927 73.1133C192.797 73.1497 192.646 73.1823 192.474 73.2109C192.304 73.237 192.139 73.2604 191.978 73.2812C191.819 73.2995 191.69 73.3151 191.591 73.3281C191.351 73.3594 191.127 73.4102 190.919 73.4805C190.713 73.5482 190.547 73.651 190.419 73.7891C190.294 73.9245 190.231 74.1094 190.231 74.3437C190.231 74.6641 190.35 74.9062 190.587 75.0703C190.826 75.2318 191.13 75.3125 191.497 75.3125ZM196.711 68V76H195.789V68H196.711Z" fill="#585858"/>
<rect x="91" y="121" width="12" height="12" fill="#8F82FF"/>
<path d="M111.969 131.5V123.5H114.766C115.323 123.5 115.783 123.596 116.145 123.789C116.507 123.979 116.776 124.236 116.953 124.559C117.13 124.879 117.219 125.234 117.219 125.625C117.219 125.969 117.158 126.253 117.035 126.477C116.915 126.701 116.757 126.878 116.559 127.008C116.363 127.138 116.151 127.234 115.922 127.297V127.375C116.167 127.391 116.413 127.477 116.66 127.633C116.908 127.789 117.115 128.013 117.281 128.305C117.448 128.596 117.531 128.953 117.531 129.375C117.531 129.776 117.44 130.137 117.258 130.457C117.076 130.777 116.788 131.031 116.395 131.219C116.001 131.406 115.49 131.5 114.859 131.5H111.969ZM112.938 130.641H114.859C115.492 130.641 115.941 130.518 116.207 130.273C116.475 130.026 116.609 129.727 116.609 129.375C116.609 129.104 116.54 128.854 116.402 128.625C116.264 128.393 116.068 128.208 115.812 128.07C115.557 127.93 115.255 127.859 114.906 127.859H112.938V130.641ZM112.938 127.016H114.734C115.026 127.016 115.289 126.958 115.523 126.844C115.76 126.729 115.948 126.568 116.086 126.359C116.227 126.151 116.297 125.906 116.297 125.625C116.297 125.273 116.174 124.975 115.93 124.73C115.685 124.483 115.297 124.359 114.766 124.359H112.938V127.016ZM118.998 131.5V125.5H119.889V126.406H119.951C120.061 126.109 120.258 125.868 120.545 125.684C120.831 125.499 121.154 125.406 121.514 125.406C121.581 125.406 121.666 125.408 121.768 125.41C121.869 125.413 121.946 125.417 121.998 125.422V126.359C121.967 126.352 121.895 126.34 121.783 126.324C121.674 126.306 121.558 126.297 121.436 126.297C121.144 126.297 120.883 126.358 120.654 126.48C120.428 126.6 120.248 126.767 120.115 126.98C119.985 127.191 119.92 127.432 119.92 127.703V131.5H118.998ZM125.346 131.625C124.804 131.625 124.329 131.496 123.92 131.238C123.514 130.98 123.196 130.62 122.967 130.156C122.74 129.693 122.627 129.151 122.627 128.531C122.627 127.906 122.74 127.361 122.967 126.895C123.196 126.428 123.514 126.066 123.92 125.809C124.329 125.551 124.804 125.422 125.346 125.422C125.887 125.422 126.361 125.551 126.768 125.809C127.176 126.066 127.494 126.428 127.721 126.895C127.95 127.361 128.064 127.906 128.064 128.531C128.064 129.151 127.95 129.693 127.721 130.156C127.494 130.62 127.176 130.98 126.768 131.238C126.361 131.496 125.887 131.625 125.346 131.625ZM125.346 130.797C125.757 130.797 126.096 130.691 126.361 130.48C126.627 130.27 126.824 129.992 126.951 129.648C127.079 129.305 127.143 128.932 127.143 128.531C127.143 128.13 127.079 127.757 126.951 127.41C126.824 127.064 126.627 126.784 126.361 126.57C126.096 126.357 125.757 126.25 125.346 126.25C124.934 126.25 124.596 126.357 124.33 126.57C124.064 126.784 123.868 127.064 123.74 127.41C123.613 127.757 123.549 128.13 123.549 128.531C123.549 128.932 123.613 129.305 123.74 129.648C123.868 129.992 124.064 130.27 124.33 130.48C124.596 130.691 124.934 130.797 125.346 130.797ZM131.237 131.641C130.857 131.641 130.512 131.569 130.202 131.426C129.892 131.28 129.646 131.07 129.464 130.797C129.282 130.521 129.19 130.187 129.19 129.797C129.19 129.453 129.258 129.174 129.394 128.961C129.529 128.745 129.71 128.576 129.937 128.453C130.163 128.331 130.413 128.24 130.687 128.18C130.963 128.117 131.24 128.068 131.519 128.031C131.883 127.984 132.179 127.949 132.405 127.926C132.634 127.9 132.801 127.857 132.905 127.797C133.012 127.737 133.065 127.633 133.065 127.484V127.453C133.065 127.068 132.96 126.768 132.749 126.555C132.541 126.341 132.224 126.234 131.8 126.234C131.36 126.234 131.015 126.331 130.765 126.523C130.515 126.716 130.339 126.922 130.237 127.141L129.362 126.828C129.519 126.464 129.727 126.18 129.987 125.977C130.25 125.771 130.537 125.628 130.847 125.547C131.159 125.464 131.466 125.422 131.769 125.422C131.961 125.422 132.183 125.445 132.433 125.492C132.685 125.536 132.929 125.629 133.163 125.77C133.4 125.91 133.597 126.122 133.753 126.406C133.909 126.69 133.987 127.07 133.987 127.547V131.5H133.065V130.687H133.019C132.956 130.818 132.852 130.957 132.706 131.105C132.56 131.254 132.366 131.38 132.124 131.484C131.882 131.589 131.586 131.641 131.237 131.641ZM131.378 130.812C131.743 130.812 132.05 130.741 132.3 130.598C132.552 130.454 132.743 130.27 132.87 130.043C133 129.816 133.065 129.578 133.065 129.328V128.484C133.026 128.531 132.94 128.574 132.808 128.613C132.677 128.65 132.526 128.682 132.354 128.711C132.185 128.737 132.02 128.76 131.858 128.781C131.7 128.799 131.571 128.815 131.472 128.828C131.232 128.859 131.008 128.91 130.8 128.98C130.594 129.048 130.427 129.151 130.3 129.289C130.175 129.424 130.112 129.609 130.112 129.844C130.112 130.164 130.231 130.406 130.468 130.57C130.707 130.732 131.011 130.812 131.378 130.812ZM137.936 131.625C137.436 131.625 136.994 131.499 136.611 131.246C136.229 130.991 135.929 130.632 135.713 130.168C135.497 129.702 135.389 129.151 135.389 128.516C135.389 127.885 135.497 127.339 135.713 126.875C135.929 126.411 136.23 126.053 136.615 125.801C137.001 125.548 137.446 125.422 137.951 125.422C138.342 125.422 138.65 125.487 138.877 125.617C139.106 125.745 139.281 125.891 139.4 126.055C139.523 126.216 139.618 126.349 139.686 126.453H139.764V123.5H140.686V131.5H139.795V130.578H139.686C139.618 130.687 139.521 130.826 139.396 130.992C139.271 131.156 139.093 131.303 138.861 131.434C138.63 131.561 138.321 131.625 137.936 131.625ZM138.061 130.797C138.43 130.797 138.743 130.701 138.998 130.508C139.253 130.312 139.447 130.043 139.58 129.699C139.713 129.353 139.779 128.953 139.779 128.5C139.779 128.052 139.714 127.66 139.584 127.324C139.454 126.986 139.261 126.723 139.006 126.535C138.751 126.345 138.436 126.25 138.061 126.25C137.67 126.25 137.344 126.35 137.084 126.551C136.826 126.749 136.632 127.018 136.502 127.359C136.374 127.698 136.311 128.078 136.311 128.5C136.311 128.927 136.376 129.315 136.506 129.664C136.639 130.01 136.834 130.286 137.092 130.492C137.352 130.695 137.675 130.797 138.061 130.797ZM144.939 131.625C144.377 131.625 143.893 131.492 143.486 131.227C143.08 130.961 142.768 130.595 142.549 130.129C142.33 129.663 142.221 129.13 142.221 128.531C142.221 127.922 142.333 127.384 142.557 126.918C142.783 126.449 143.098 126.083 143.502 125.82C143.908 125.555 144.382 125.422 144.924 125.422C145.346 125.422 145.726 125.5 146.064 125.656C146.403 125.812 146.68 126.031 146.896 126.312C147.113 126.594 147.247 126.922 147.299 127.297H146.377C146.307 127.023 146.15 126.781 145.908 126.57C145.669 126.357 145.346 126.25 144.939 126.25C144.58 126.25 144.265 126.344 143.994 126.531C143.726 126.716 143.516 126.978 143.365 127.316C143.217 127.652 143.143 128.047 143.143 128.5C143.143 128.964 143.215 129.367 143.361 129.711C143.51 130.055 143.718 130.322 143.986 130.512C144.257 130.702 144.575 130.797 144.939 130.797C145.179 130.797 145.396 130.755 145.592 130.672C145.787 130.589 145.952 130.469 146.088 130.312C146.223 130.156 146.32 129.969 146.377 129.75H147.299C147.247 130.104 147.118 130.423 146.912 130.707C146.709 130.988 146.439 131.212 146.104 131.379C145.77 131.543 145.382 131.625 144.939 131.625ZM150.412 131.641C150.032 131.641 149.687 131.569 149.377 131.426C149.067 131.28 148.821 131.07 148.639 130.797C148.456 130.521 148.365 130.187 148.365 129.797C148.365 129.453 148.433 129.174 148.568 128.961C148.704 128.745 148.885 128.576 149.111 128.453C149.338 128.331 149.588 128.24 149.861 128.18C150.137 128.117 150.415 128.068 150.693 128.031C151.058 127.984 151.354 127.949 151.58 127.926C151.809 127.9 151.976 127.857 152.08 127.797C152.187 127.737 152.24 127.633 152.24 127.484V127.453C152.24 127.068 152.135 126.768 151.924 126.555C151.715 126.341 151.399 126.234 150.975 126.234C150.535 126.234 150.189 126.331 149.939 126.523C149.689 126.716 149.514 126.922 149.412 127.141L148.537 126.828C148.693 126.464 148.902 126.18 149.162 125.977C149.425 125.771 149.712 125.628 150.021 125.547C150.334 125.464 150.641 125.422 150.943 125.422C151.136 125.422 151.357 125.445 151.607 125.492C151.86 125.536 152.104 125.629 152.338 125.77C152.575 125.91 152.771 126.122 152.928 126.406C153.084 126.69 153.162 127.07 153.162 127.547V131.5H152.24V130.687H152.193C152.131 130.818 152.027 130.957 151.881 131.105C151.735 131.254 151.541 131.38 151.299 131.484C151.057 131.589 150.761 131.641 150.412 131.641ZM150.553 130.812C150.917 130.812 151.225 130.741 151.475 130.598C151.727 130.454 151.917 130.27 152.045 130.043C152.175 129.816 152.24 129.578 152.24 129.328V128.484C152.201 128.531 152.115 128.574 151.982 128.613C151.852 128.65 151.701 128.682 151.529 128.711C151.36 128.737 151.195 128.76 151.033 128.781C150.874 128.799 150.745 128.815 150.646 128.828C150.407 128.859 150.183 128.91 149.975 128.98C149.769 129.048 149.602 129.151 149.475 129.289C149.35 129.424 149.287 129.609 149.287 129.844C149.287 130.164 149.406 130.406 149.643 130.57C149.882 130.732 150.186 130.812 150.553 130.812ZM159.095 126.844L158.267 127.078C158.215 126.94 158.138 126.806 158.036 126.676C157.937 126.543 157.802 126.434 157.63 126.348C157.458 126.262 157.238 126.219 156.97 126.219C156.603 126.219 156.297 126.303 156.052 126.473C155.81 126.639 155.688 126.852 155.688 127.109C155.688 127.339 155.772 127.52 155.938 127.652C156.105 127.785 156.366 127.896 156.72 127.984L157.61 128.203C158.147 128.333 158.547 128.533 158.81 128.801C159.073 129.066 159.204 129.409 159.204 129.828C159.204 130.172 159.105 130.479 158.907 130.75C158.712 131.021 158.438 131.234 158.087 131.391C157.735 131.547 157.326 131.625 156.86 131.625C156.248 131.625 155.742 131.492 155.341 131.227C154.94 130.961 154.686 130.573 154.579 130.062L155.454 129.844C155.537 130.167 155.695 130.409 155.927 130.57C156.161 130.732 156.467 130.812 156.845 130.812C157.274 130.812 157.616 130.721 157.868 130.539C158.123 130.354 158.251 130.133 158.251 129.875C158.251 129.667 158.178 129.492 158.032 129.352C157.886 129.208 157.662 129.102 157.36 129.031L156.36 128.797C155.811 128.667 155.407 128.465 155.149 128.191C154.894 127.915 154.767 127.57 154.767 127.156C154.767 126.818 154.862 126.518 155.052 126.258C155.244 125.997 155.506 125.793 155.837 125.645C156.17 125.496 156.548 125.422 156.97 125.422C157.563 125.422 158.03 125.552 158.368 125.812C158.709 126.073 158.951 126.417 159.095 126.844ZM163.201 125.5V126.281H160.092V125.5H163.201ZM160.998 124.062H161.92V129.781C161.92 130.042 161.958 130.237 162.033 130.367C162.111 130.495 162.21 130.581 162.33 130.625C162.452 130.667 162.581 130.687 162.717 130.687C162.818 130.687 162.902 130.682 162.967 130.672C163.032 130.659 163.084 130.648 163.123 130.641L163.311 131.469C163.248 131.492 163.161 131.516 163.049 131.539C162.937 131.565 162.795 131.578 162.623 131.578C162.363 131.578 162.107 131.522 161.857 131.41C161.61 131.298 161.404 131.128 161.24 130.898C161.079 130.669 160.998 130.38 160.998 130.031V124.062Z" fill="#585858"/>
<rect x="180" y="121" width="12" height="12" fill="#FF6888"/>
<path d="M200.969 131.5V123.5H203.672C204.299 123.5 204.813 123.613 205.211 123.84C205.612 124.064 205.909 124.367 206.102 124.75C206.294 125.133 206.391 125.56 206.391 126.031C206.391 126.503 206.294 126.931 206.102 127.316C205.911 127.702 205.617 128.009 205.219 128.238C204.82 128.465 204.31 128.578 203.688 128.578H201.75V127.719H203.656C204.086 127.719 204.431 127.645 204.691 127.496C204.952 127.348 205.141 127.147 205.258 126.895C205.378 126.639 205.438 126.352 205.438 126.031C205.438 125.711 205.378 125.424 205.258 125.172C205.141 124.919 204.951 124.721 204.688 124.578C204.424 124.432 204.076 124.359 203.641 124.359H201.938V131.5H200.969ZM207.826 131.5V125.5H208.717V126.406H208.779C208.889 126.109 209.087 125.868 209.373 125.684C209.66 125.499 209.982 125.406 210.342 125.406C210.41 125.406 210.494 125.408 210.596 125.41C210.697 125.413 210.774 125.417 210.826 125.422V126.359C210.795 126.352 210.723 126.34 210.611 126.324C210.502 126.306 210.386 126.297 210.264 126.297C209.972 126.297 209.712 126.358 209.482 126.48C209.256 126.6 209.076 126.767 208.943 126.98C208.813 127.191 208.748 127.432 208.748 127.703V131.5H207.826ZM211.919 131.5V125.5H212.841V131.5H211.919ZM212.388 124.5C212.208 124.5 212.053 124.439 211.923 124.316C211.795 124.194 211.731 124.047 211.731 123.875C211.731 123.703 211.795 123.556 211.923 123.434C212.053 123.311 212.208 123.25 212.388 123.25C212.567 123.25 212.721 123.311 212.849 123.434C212.979 123.556 213.044 123.703 213.044 123.875C213.044 124.047 212.979 124.194 212.849 124.316C212.721 124.439 212.567 124.5 212.388 124.5ZM215.451 127.891V131.5H214.529V125.5H215.42V126.437H215.498C215.639 126.133 215.852 125.888 216.139 125.703C216.425 125.516 216.795 125.422 217.248 125.422C217.654 125.422 218.01 125.505 218.314 125.672C218.619 125.836 218.856 126.086 219.025 126.422C219.195 126.755 219.279 127.177 219.279 127.688V131.5H218.357V127.75C218.357 127.279 218.235 126.911 217.99 126.648C217.745 126.383 217.41 126.25 216.982 126.25C216.688 126.25 216.425 126.314 216.193 126.441C215.964 126.569 215.783 126.755 215.65 127C215.518 127.245 215.451 127.542 215.451 127.891ZM223.573 125.5V126.281H220.464V125.5H223.573ZM221.37 124.062H222.292V129.781C222.292 130.042 222.33 130.237 222.405 130.367C222.483 130.495 222.582 130.581 222.702 130.625C222.825 130.667 222.953 130.687 223.089 130.687C223.19 130.687 223.274 130.682 223.339 130.672C223.404 130.659 223.456 130.648 223.495 130.641L223.683 131.469C223.62 131.492 223.533 131.516 223.421 131.539C223.309 131.565 223.167 131.578 222.995 131.578C222.735 131.578 222.479 131.522 222.229 131.41C221.982 131.298 221.776 131.128 221.612 130.898C221.451 130.669 221.37 130.38 221.37 130.031V124.062Z" fill="#585858"/>
<rect x="241" y="121" width="12" height="12" fill="#FFBE6A"/>
<path d="M268.719 127.5C268.719 128.344 268.566 129.073 268.262 129.687C267.957 130.302 267.539 130.776 267.008 131.109C266.477 131.443 265.87 131.609 265.188 131.609C264.505 131.609 263.898 131.443 263.367 131.109C262.836 130.776 262.418 130.302 262.113 129.687C261.809 129.073 261.656 128.344 261.656 127.5C261.656 126.656 261.809 125.927 262.113 125.312C262.418 124.698 262.836 124.224 263.367 123.891C263.898 123.557 264.505 123.391 265.188 123.391C265.87 123.391 266.477 123.557 267.008 123.891C267.539 124.224 267.957 124.698 268.262 125.312C268.566 125.927 268.719 126.656 268.719 127.5ZM267.781 127.5C267.781 126.807 267.665 126.223 267.434 125.746C267.204 125.27 266.893 124.909 266.5 124.664C266.109 124.419 265.672 124.297 265.188 124.297C264.703 124.297 264.264 124.419 263.871 124.664C263.48 124.909 263.169 125.27 262.938 125.746C262.708 126.223 262.594 126.807 262.594 127.5C262.594 128.193 262.708 128.777 262.938 129.254C263.169 129.73 263.48 130.091 263.871 130.336C264.264 130.581 264.703 130.703 265.188 130.703C265.672 130.703 266.109 130.581 266.5 130.336C266.893 130.091 267.204 129.73 267.434 129.254C267.665 128.777 267.781 128.193 267.781 127.5ZM271.145 127.891V131.5H270.223V125.5H271.113V126.437H271.191C271.332 126.133 271.546 125.888 271.832 125.703C272.118 125.516 272.488 125.422 272.941 125.422C273.348 125.422 273.703 125.505 274.008 125.672C274.313 125.836 274.549 126.086 274.719 126.422C274.888 126.755 274.973 127.177 274.973 127.688V131.5H274.051V127.75C274.051 127.279 273.928 126.911 273.684 126.648C273.439 126.383 273.103 126.25 272.676 126.25C272.382 126.25 272.118 126.314 271.887 126.441C271.658 126.569 271.477 126.755 271.344 127C271.211 127.245 271.145 127.542 271.145 127.891ZM277.579 123.5V131.5H276.657V123.5H277.579ZM279.268 131.5V125.5H280.189V131.5H279.268ZM279.736 124.5C279.557 124.5 279.402 124.439 279.271 124.316C279.144 124.194 279.08 124.047 279.08 123.875C279.08 123.703 279.144 123.556 279.271 123.434C279.402 123.311 279.557 123.25 279.736 123.25C279.916 123.25 280.07 123.311 280.197 123.434C280.327 123.556 280.393 123.703 280.393 123.875C280.393 124.047 280.327 124.194 280.197 124.316C280.07 124.439 279.916 124.5 279.736 124.5ZM282.8 127.891V131.5H281.878V125.5H282.769V126.437H282.847C282.987 126.133 283.201 125.888 283.487 125.703C283.774 125.516 284.144 125.422 284.597 125.422C285.003 125.422 285.358 125.505 285.663 125.672C285.968 125.836 286.205 126.086 286.374 126.422C286.543 126.755 286.628 127.177 286.628 127.688V131.5H285.706V127.75C285.706 127.279 285.584 126.911 285.339 126.648C285.094 126.383 284.758 126.25 284.331 126.25C284.037 126.25 283.774 126.314 283.542 126.441C283.313 126.569 283.132 126.755 282.999 127C282.866 127.245 282.8 127.542 282.8 127.891ZM290.828 131.625C290.25 131.625 289.751 131.497 289.332 131.242C288.915 130.984 288.594 130.625 288.367 130.164C288.143 129.701 288.031 129.161 288.031 128.547C288.031 127.932 288.143 127.391 288.367 126.922C288.594 126.451 288.909 126.083 289.313 125.82C289.719 125.555 290.193 125.422 290.734 125.422C291.047 125.422 291.355 125.474 291.66 125.578C291.965 125.682 292.242 125.852 292.492 126.086C292.742 126.318 292.941 126.625 293.09 127.008C293.238 127.391 293.312 127.862 293.312 128.422V128.812H288.688V128.016H292.375C292.375 127.677 292.307 127.375 292.172 127.109C292.039 126.844 291.849 126.634 291.602 126.48C291.357 126.327 291.068 126.25 290.734 126.25C290.367 126.25 290.049 126.341 289.781 126.523C289.516 126.703 289.311 126.937 289.168 127.227C289.025 127.516 288.953 127.826 288.953 128.156V128.688C288.953 129.141 289.031 129.525 289.188 129.84C289.346 130.152 289.566 130.391 289.848 130.555C290.129 130.716 290.456 130.797 290.828 130.797C291.07 130.797 291.289 130.763 291.484 130.695C291.682 130.625 291.853 130.521 291.996 130.383C292.139 130.242 292.25 130.068 292.328 129.859L293.219 130.109C293.125 130.411 292.967 130.677 292.746 130.906C292.525 131.133 292.251 131.31 291.926 131.437C291.6 131.563 291.234 131.625 290.828 131.625Z" fill="#585858"/>
</svg>
