<svg width="385" height="145" viewBox="0 0 385 145" fill="none" xmlns="http://www.w3.org/2000/svg">
<path d="M252.5 60C252.5 45.038 246.91 30.6158 236.826 19.5624C226.742 8.50891 212.892 1.62183 197.993 0.251994C183.094 -1.11784 168.221 3.12843 156.29 12.1579C144.36 21.1874 136.234 34.3485 133.506 49.0596C130.778 63.7708 133.644 78.9705 141.544 91.6774C149.443 104.384 161.805 113.681 176.204 117.745C190.604 121.808 206.002 120.345 219.379 113.642C232.756 106.94 243.145 95.481 248.51 81.5139L192.5 60H252.5Z" fill="#FF6888"/>
<path d="M252.5 60C252.5 47.0542 248.313 34.4557 240.564 24.0853C232.815 13.7149 221.919 6.12893 209.504 2.46001C197.089 -1.20891 183.821 -0.763996 171.679 3.72832C159.538 8.22064 149.175 16.5194 142.138 27.3856C135.101 38.2518 131.768 51.1025 132.635 64.0192C133.502 76.9359 138.524 89.2257 146.95 99.0537C155.376 108.882 166.755 115.721 179.388 118.55C192.021 121.379 205.23 120.046 217.043 114.751L192.5 60H252.5Z" fill="#8F82FF"/>
<path d="M248.543 81.4282C251.452 73.8213 252.781 65.7018 252.451 57.5644C252.12 49.4271 250.136 41.4422 246.62 34.0963C243.104 26.7503 238.129 20.197 231.999 14.8356C225.869 9.47423 218.711 5.41699 210.962 2.91104L192.5 60L248.543 81.4282Z" fill="#FFBE6A"/>
<rect x="91" y="132.5" width="12" height="12" fill="#8F82FF"/>
<path d="M111.969 143V135H114.766C115.323 135 115.783 135.096 116.145 135.289C116.507 135.479 116.776 135.736 116.953 136.059C117.13 136.379 117.219 136.734 117.219 137.125C117.219 137.469 117.158 137.753 117.035 137.977C116.915 138.201 116.757 138.378 116.559 138.508C116.363 138.638 116.151 138.734 115.922 138.797V138.875C116.167 138.891 116.413 138.977 116.66 139.133C116.908 139.289 117.115 139.513 117.281 139.805C117.448 140.096 117.531 140.453 117.531 140.875C117.531 141.276 117.44 141.637 117.258 141.957C117.076 142.277 116.788 142.531 116.395 142.719C116.001 142.906 115.49 143 114.859 143H111.969ZM112.938 142.141H114.859C115.492 142.141 115.941 142.018 116.207 141.773C116.475 141.526 116.609 141.227 116.609 140.875C116.609 140.604 116.54 140.354 116.402 140.125C116.264 139.893 116.068 139.708 115.812 139.57C115.557 139.43 115.255 139.359 114.906 139.359H112.938V142.141ZM112.938 138.516H114.734C115.026 138.516 115.289 138.458 115.523 138.344C115.76 138.229 115.948 138.068 116.086 137.859C116.227 137.651 116.297 137.406 116.297 137.125C116.297 136.773 116.174 136.475 115.93 136.23C115.685 135.983 115.297 135.859 114.766 135.859H112.938V138.516ZM118.998 143V137H119.889V137.906H119.951C120.061 137.609 120.258 137.368 120.545 137.184C120.831 136.999 121.154 136.906 121.514 136.906C121.581 136.906 121.666 136.908 121.768 136.91C121.869 136.913 121.946 136.917 121.998 136.922V137.859C121.967 137.852 121.895 137.84 121.783 137.824C121.674 137.806 121.558 137.797 121.436 137.797C121.144 137.797 120.883 137.858 120.654 137.98C120.428 138.1 120.248 138.267 120.115 138.48C119.985 138.691 119.92 138.932 119.92 139.203V143H118.998ZM125.346 143.125C124.804 143.125 124.329 142.996 123.92 142.738C123.514 142.48 123.196 142.12 122.967 141.656C122.74 141.193 122.627 140.651 122.627 140.031C122.627 139.406 122.74 138.861 122.967 138.395C123.196 137.928 123.514 137.566 123.92 137.309C124.329 137.051 124.804 136.922 125.346 136.922C125.887 136.922 126.361 137.051 126.768 137.309C127.176 137.566 127.494 137.928 127.721 138.395C127.95 138.861 128.064 139.406 128.064 140.031C128.064 140.651 127.95 141.193 127.721 141.656C127.494 142.12 127.176 142.48 126.768 142.738C126.361 142.996 125.887 143.125 125.346 143.125ZM125.346 142.297C125.757 142.297 126.096 142.191 126.361 141.98C126.627 141.77 126.824 141.492 126.951 141.148C127.079 140.805 127.143 140.432 127.143 140.031C127.143 139.63 127.079 139.257 126.951 138.91C126.824 138.564 126.627 138.284 126.361 138.07C126.096 137.857 125.757 137.75 125.346 137.75C124.934 137.75 124.596 137.857 124.33 138.07C124.064 138.284 123.868 138.564 123.74 138.91C123.613 139.257 123.549 139.63 123.549 140.031C123.549 140.432 123.613 140.805 123.74 141.148C123.868 141.492 124.064 141.77 124.33 141.98C124.596 142.191 124.934 142.297 125.346 142.297ZM131.237 143.141C130.857 143.141 130.512 143.069 130.202 142.926C129.892 142.78 129.646 142.57 129.464 142.297C129.282 142.021 129.19 141.687 129.19 141.297C129.19 140.953 129.258 140.674 129.394 140.461C129.529 140.245 129.71 140.076 129.937 139.953C130.163 139.831 130.413 139.74 130.687 139.68C130.963 139.617 131.24 139.568 131.519 139.531C131.883 139.484 132.179 139.449 132.405 139.426C132.634 139.4 132.801 139.357 132.905 139.297C133.012 139.237 133.065 139.133 133.065 138.984V138.953C133.065 138.568 132.96 138.268 132.749 138.055C132.541 137.841 132.224 137.734 131.8 137.734C131.36 137.734 131.015 137.831 130.765 138.023C130.515 138.216 130.339 138.422 130.237 138.641L129.362 138.328C129.519 137.964 129.727 137.68 129.987 137.477C130.25 137.271 130.537 137.128 130.847 137.047C131.159 136.964 131.466 136.922 131.769 136.922C131.961 136.922 132.183 136.945 132.433 136.992C132.685 137.036 132.929 137.129 133.163 137.27C133.4 137.41 133.597 137.622 133.753 137.906C133.909 138.19 133.987 138.57 133.987 139.047V143H133.065V142.187H133.019C132.956 142.318 132.852 142.457 132.706 142.605C132.56 142.754 132.366 142.88 132.124 142.984C131.882 143.089 131.586 143.141 131.237 143.141ZM131.378 142.312C131.743 142.312 132.05 142.241 132.3 142.098C132.552 141.954 132.743 141.77 132.87 141.543C133 141.316 133.065 141.078 133.065 140.828V139.984C133.026 140.031 132.94 140.074 132.808 140.113C132.677 140.15 132.526 140.182 132.354 140.211C132.185 140.237 132.02 140.26 131.858 140.281C131.7 140.299 131.571 140.315 131.472 140.328C131.232 140.359 131.008 140.41 130.8 140.48C130.594 140.548 130.427 140.651 130.3 140.789C130.175 140.924 130.112 141.109 130.112 141.344C130.112 141.664 130.231 141.906 130.468 142.07C130.707 142.232 131.011 142.312 131.378 142.312ZM137.936 143.125C137.436 143.125 136.994 142.999 136.611 142.746C136.229 142.491 135.929 142.132 135.713 141.668C135.497 141.202 135.389 140.651 135.389 140.016C135.389 139.385 135.497 138.839 135.713 138.375C135.929 137.911 136.23 137.553 136.615 137.301C137.001 137.048 137.446 136.922 137.951 136.922C138.342 136.922 138.65 136.987 138.877 137.117C139.106 137.245 139.281 137.391 139.4 137.555C139.523 137.716 139.618 137.849 139.686 137.953H139.764V135H140.686V143H139.795V142.078H139.686C139.618 142.187 139.521 142.326 139.396 142.492C139.271 142.656 139.093 142.803 138.861 142.934C138.63 143.061 138.321 143.125 137.936 143.125ZM138.061 142.297C138.43 142.297 138.743 142.201 138.998 142.008C139.253 141.812 139.447 141.543 139.58 141.199C139.713 140.853 139.779 140.453 139.779 140C139.779 139.552 139.714 139.16 139.584 138.824C139.454 138.486 139.261 138.223 139.006 138.035C138.751 137.845 138.436 137.75 138.061 137.75C137.67 137.75 137.344 137.85 137.084 138.051C136.826 138.249 136.632 138.518 136.502 138.859C136.374 139.198 136.311 139.578 136.311 140C136.311 140.427 136.376 140.815 136.506 141.164C136.639 141.51 136.834 141.786 137.092 141.992C137.352 142.195 137.675 142.297 138.061 142.297ZM144.939 143.125C144.377 143.125 143.893 142.992 143.486 142.727C143.08 142.461 142.768 142.095 142.549 141.629C142.33 141.163 142.221 140.63 142.221 140.031C142.221 139.422 142.333 138.884 142.557 138.418C142.783 137.949 143.098 137.583 143.502 137.32C143.908 137.055 144.382 136.922 144.924 136.922C145.346 136.922 145.726 137 146.064 137.156C146.403 137.312 146.68 137.531 146.896 137.812C147.113 138.094 147.247 138.422 147.299 138.797H146.377C146.307 138.523 146.15 138.281 145.908 138.07C145.669 137.857 145.346 137.75 144.939 137.75C144.58 137.75 144.265 137.844 143.994 138.031C143.726 138.216 143.516 138.478 143.365 138.816C143.217 139.152 143.143 139.547 143.143 140C143.143 140.464 143.215 140.867 143.361 141.211C143.51 141.555 143.718 141.822 143.986 142.012C144.257 142.202 144.575 142.297 144.939 142.297C145.179 142.297 145.396 142.255 145.592 142.172C145.787 142.089 145.952 141.969 146.088 141.812C146.223 141.656 146.32 141.469 146.377 141.25H147.299C147.247 141.604 147.118 141.923 146.912 142.207C146.709 142.488 146.439 142.712 146.104 142.879C145.77 143.043 145.382 143.125 144.939 143.125ZM150.412 143.141C150.032 143.141 149.687 143.069 149.377 142.926C149.067 142.78 148.821 142.57 148.639 142.297C148.456 142.021 148.365 141.687 148.365 141.297C148.365 140.953 148.433 140.674 148.568 140.461C148.704 140.245 148.885 140.076 149.111 139.953C149.338 139.831 149.588 139.74 149.861 139.68C150.137 139.617 150.415 139.568 150.693 139.531C151.058 139.484 151.354 139.449 151.58 139.426C151.809 139.4 151.976 139.357 152.08 139.297C152.187 139.237 152.24 139.133 152.24 138.984V138.953C152.24 138.568 152.135 138.268 151.924 138.055C151.715 137.841 151.399 137.734 150.975 137.734C150.535 137.734 150.189 137.831 149.939 138.023C149.689 138.216 149.514 138.422 149.412 138.641L148.537 138.328C148.693 137.964 148.902 137.68 149.162 137.477C149.425 137.271 149.712 137.128 150.021 137.047C150.334 136.964 150.641 136.922 150.943 136.922C151.136 136.922 151.357 136.945 151.607 136.992C151.86 137.036 152.104 137.129 152.338 137.27C152.575 137.41 152.771 137.622 152.928 137.906C153.084 138.19 153.162 138.57 153.162 139.047V143H152.24V142.187H152.193C152.131 142.318 152.027 142.457 151.881 142.605C151.735 142.754 151.541 142.88 151.299 142.984C151.057 143.089 150.761 143.141 150.412 143.141ZM150.553 142.312C150.917 142.312 151.225 142.241 151.475 142.098C151.727 141.954 151.917 141.77 152.045 141.543C152.175 141.316 152.24 141.078 152.24 140.828V139.984C152.201 140.031 152.115 140.074 151.982 140.113C151.852 140.15 151.701 140.182 151.529 140.211C151.36 140.237 151.195 140.26 151.033 140.281C150.874 140.299 150.745 140.315 150.646 140.328C150.407 140.359 150.183 140.41 149.975 140.48C149.769 140.548 149.602 140.651 149.475 140.789C149.35 140.924 149.287 141.109 149.287 141.344C149.287 141.664 149.406 141.906 149.643 142.07C149.882 142.232 150.186 142.312 150.553 142.312ZM159.095 138.344L158.267 138.578C158.215 138.44 158.138 138.306 158.036 138.176C157.937 138.043 157.802 137.934 157.63 137.848C157.458 137.762 157.238 137.719 156.97 137.719C156.603 137.719 156.297 137.803 156.052 137.973C155.81 138.139 155.688 138.352 155.688 138.609C155.688 138.839 155.772 139.02 155.938 139.152C156.105 139.285 156.366 139.396 156.72 139.484L157.61 139.703C158.147 139.833 158.547 140.033 158.81 140.301C159.073 140.566 159.204 140.909 159.204 141.328C159.204 141.672 159.105 141.979 158.907 142.25C158.712 142.521 158.438 142.734 158.087 142.891C157.735 143.047 157.326 143.125 156.86 143.125C156.248 143.125 155.742 142.992 155.341 142.727C154.94 142.461 154.686 142.073 154.579 141.562L155.454 141.344C155.537 141.667 155.695 141.909 155.927 142.07C156.161 142.232 156.467 142.312 156.845 142.312C157.274 142.312 157.616 142.221 157.868 142.039C158.123 141.854 158.251 141.633 158.251 141.375C158.251 141.167 158.178 140.992 158.032 140.852C157.886 140.708 157.662 140.602 157.36 140.531L156.36 140.297C155.811 140.167 155.407 139.965 155.149 139.691C154.894 139.415 154.767 139.07 154.767 138.656C154.767 138.318 154.862 138.018 155.052 137.758C155.244 137.497 155.506 137.293 155.837 137.145C156.17 136.996 156.548 136.922 156.97 136.922C157.563 136.922 158.03 137.052 158.368 137.312C158.709 137.573 158.951 137.917 159.095 138.344ZM163.201 137V137.781H160.092V137H163.201ZM160.998 135.562H161.92V141.281C161.92 141.542 161.958 141.737 162.033 141.867C162.111 141.995 162.21 142.081 162.33 142.125C162.452 142.167 162.581 142.187 162.717 142.187C162.818 142.187 162.902 142.182 162.967 142.172C163.032 142.159 163.084 142.148 163.123 142.141L163.311 142.969C163.248 142.992 163.161 143.016 163.049 143.039C162.937 143.065 162.795 143.078 162.623 143.078C162.363 143.078 162.107 143.022 161.857 142.91C161.61 142.798 161.404 142.628 161.24 142.398C161.079 142.169 160.998 141.88 160.998 141.531V135.562Z" fill="#585858"/>
<rect x="180" y="132.5" width="12" height="12" fill="#FF6888"/>
<path d="M200.969 143V135H203.672C204.299 135 204.813 135.113 205.211 135.34C205.612 135.564 205.909 135.867 206.102 136.25C206.294 136.633 206.391 137.06 206.391 137.531C206.391 138.003 206.294 138.431 206.102 138.816C205.911 139.202 205.617 139.509 205.219 139.738C204.82 139.965 204.31 140.078 203.688 140.078H201.75V139.219H203.656C204.086 139.219 204.431 139.145 204.691 138.996C204.952 138.848 205.141 138.647 205.258 138.395C205.378 138.139 205.438 137.852 205.438 137.531C205.438 137.211 205.378 136.924 205.258 136.672C205.141 136.419 204.951 136.221 204.688 136.078C204.424 135.932 204.076 135.859 203.641 135.859H201.938V143H200.969ZM207.826 143V137H208.717V137.906H208.779C208.889 137.609 209.087 137.368 209.373 137.184C209.66 136.999 209.982 136.906 210.342 136.906C210.41 136.906 210.494 136.908 210.596 136.91C210.697 136.913 210.774 136.917 210.826 136.922V137.859C210.795 137.852 210.723 137.84 210.611 137.824C210.502 137.806 210.386 137.797 210.264 137.797C209.972 137.797 209.712 137.858 209.482 137.98C209.256 138.1 209.076 138.267 208.943 138.48C208.813 138.691 208.748 138.932 208.748 139.203V143H207.826ZM211.919 143V137H212.841V143H211.919ZM212.388 136C212.208 136 212.053 135.939 211.923 135.816C211.795 135.694 211.731 135.547 211.731 135.375C211.731 135.203 211.795 135.056 211.923 134.934C212.053 134.811 212.208 134.75 212.388 134.75C212.567 134.75 212.721 134.811 212.849 134.934C212.979 135.056 213.044 135.203 213.044 135.375C213.044 135.547 212.979 135.694 212.849 135.816C212.721 135.939 212.567 136 212.388 136ZM215.451 139.391V143H214.529V137H215.42V137.937H215.498C215.639 137.633 215.852 137.388 216.139 137.203C216.425 137.016 216.795 136.922 217.248 136.922C217.654 136.922 218.01 137.005 218.314 137.172C218.619 137.336 218.856 137.586 219.025 137.922C219.195 138.255 219.279 138.677 219.279 139.188V143H218.357V139.25C218.357 138.779 218.235 138.411 217.99 138.148C217.745 137.883 217.41 137.75 216.982 137.75C216.688 137.75 216.425 137.814 216.193 137.941C215.964 138.069 215.783 138.255 215.65 138.5C215.518 138.745 215.451 139.042 215.451 139.391ZM223.573 137V137.781H220.464V137H223.573ZM221.37 135.562H222.292V141.281C222.292 141.542 222.33 141.737 222.405 141.867C222.483 141.995 222.582 142.081 222.702 142.125C222.825 142.167 222.953 142.187 223.089 142.187C223.19 142.187 223.274 142.182 223.339 142.172C223.404 142.159 223.456 142.148 223.495 142.141L223.683 142.969C223.62 142.992 223.533 143.016 223.421 143.039C223.309 143.065 223.167 143.078 222.995 143.078C222.735 143.078 222.479 143.022 222.229 142.91C221.982 142.798 221.776 142.628 221.612 142.398C221.451 142.169 221.37 141.88 221.37 141.531V135.562Z" fill="#585858"/>
<rect x="241" y="132.5" width="12" height="12" fill="#FFBE6A"/>
<path d="M268.719 139C268.719 139.844 268.566 140.573 268.262 141.187C267.957 141.802 267.539 142.276 267.008 142.609C266.477 142.943 265.87 143.109 265.188 143.109C264.505 143.109 263.898 142.943 263.367 142.609C262.836 142.276 262.418 141.802 262.113 141.187C261.809 140.573 261.656 139.844 261.656 139C261.656 138.156 261.809 137.427 262.113 136.812C262.418 136.198 262.836 135.724 263.367 135.391C263.898 135.057 264.505 134.891 265.188 134.891C265.87 134.891 266.477 135.057 267.008 135.391C267.539 135.724 267.957 136.198 268.262 136.812C268.566 137.427 268.719 138.156 268.719 139ZM267.781 139C267.781 138.307 267.665 137.723 267.434 137.246C267.204 136.77 266.893 136.409 266.5 136.164C266.109 135.919 265.672 135.797 265.188 135.797C264.703 135.797 264.264 135.919 263.871 136.164C263.48 136.409 263.169 136.77 262.938 137.246C262.708 137.723 262.594 138.307 262.594 139C262.594 139.693 262.708 140.277 262.938 140.754C263.169 141.23 263.48 141.591 263.871 141.836C264.264 142.081 264.703 142.203 265.188 142.203C265.672 142.203 266.109 142.081 266.5 141.836C266.893 141.591 267.204 141.23 267.434 140.754C267.665 140.277 267.781 139.693 267.781 139ZM271.145 139.391V143H270.223V137H271.113V137.937H271.191C271.332 137.633 271.546 137.388 271.832 137.203C272.118 137.016 272.488 136.922 272.941 136.922C273.348 136.922 273.703 137.005 274.008 137.172C274.313 137.336 274.549 137.586 274.719 137.922C274.888 138.255 274.973 138.677 274.973 139.188V143H274.051V139.25C274.051 138.779 273.928 138.411 273.684 138.148C273.439 137.883 273.103 137.75 272.676 137.75C272.382 137.75 272.118 137.814 271.887 137.941C271.658 138.069 271.477 138.255 271.344 138.5C271.211 138.745 271.145 139.042 271.145 139.391ZM277.579 135V143H276.657V135H277.579ZM279.268 143V137H280.189V143H279.268ZM279.736 136C279.557 136 279.402 135.939 279.271 135.816C279.144 135.694 279.08 135.547 279.08 135.375C279.08 135.203 279.144 135.056 279.271 134.934C279.402 134.811 279.557 134.75 279.736 134.75C279.916 134.75 280.07 134.811 280.197 134.934C280.327 135.056 280.393 135.203 280.393 135.375C280.393 135.547 280.327 135.694 280.197 135.816C280.07 135.939 279.916 136 279.736 136ZM282.8 139.391V143H281.878V137H282.769V137.937H282.847C282.987 137.633 283.201 137.388 283.487 137.203C283.774 137.016 284.144 136.922 284.597 136.922C285.003 136.922 285.358 137.005 285.663 137.172C285.968 137.336 286.205 137.586 286.374 137.922C286.543 138.255 286.628 138.677 286.628 139.188V143H285.706V139.25C285.706 138.779 285.584 138.411 285.339 138.148C285.094 137.883 284.758 137.75 284.331 137.75C284.037 137.75 283.774 137.814 283.542 137.941C283.313 138.069 283.132 138.255 282.999 138.5C282.866 138.745 282.8 139.042 282.8 139.391ZM290.828 143.125C290.25 143.125 289.751 142.997 289.332 142.742C288.915 142.484 288.594 142.125 288.367 141.664C288.143 141.201 288.031 140.661 288.031 140.047C288.031 139.432 288.143 138.891 288.367 138.422C288.594 137.951 288.909 137.583 289.313 137.32C289.719 137.055 290.193 136.922 290.734 136.922C291.047 136.922 291.355 136.974 291.66 137.078C291.965 137.182 292.242 137.352 292.492 137.586C292.742 137.818 292.941 138.125 293.09 138.508C293.238 138.891 293.312 139.362 293.312 139.922V140.312H288.688V139.516H292.375C292.375 139.177 292.307 138.875 292.172 138.609C292.039 138.344 291.849 138.134 291.602 137.98C291.357 137.827 291.068 137.75 290.734 137.75C290.367 137.75 290.049 137.841 289.781 138.023C289.516 138.203 289.311 138.437 289.168 138.727C289.025 139.016 288.953 139.326 288.953 139.656V140.188C288.953 140.641 289.031 141.025 289.188 141.34C289.346 141.652 289.566 141.891 289.848 142.055C290.129 142.216 290.456 142.297 290.828 142.297C291.07 142.297 291.289 142.263 291.484 142.195C291.682 142.125 291.853 142.021 291.996 141.883C292.139 141.742 292.25 141.568 292.328 141.359L293.219 141.609C293.125 141.911 292.967 142.177 292.746 142.406C292.525 142.633 292.251 142.81 291.926 142.937C291.6 143.063 291.234 143.125 290.828 143.125Z" fill="#585858"/>
</svg>
