<svg width="385" height="152" viewBox="0 0 385 152" fill="none" xmlns="http://www.w3.org/2000/svg">
<path d="M76.6456 149.684V143.138H77.8313V148.69H80.7141V149.684H76.6456ZM83.8654 149.779C83.3732 149.779 82.9482 149.677 82.5902 149.473C82.2344 149.266 81.9606 148.974 81.7688 148.597C81.5771 148.218 81.4812 147.771 81.4812 147.258C81.4812 146.753 81.5771 146.31 81.7688 145.928C81.9627 145.545 82.2333 145.246 82.5806 145.033C82.9279 144.818 83.3359 144.711 83.8047 144.711C84.1072 144.711 84.3928 144.76 84.6612 144.858C84.9318 144.953 85.1705 145.103 85.3771 145.305C85.5859 145.507 85.75 145.765 85.8693 146.078C85.9886 146.39 86.0483 146.76 86.0483 147.191V147.545H82.0245V146.766H84.9393C84.9371 146.544 84.8892 146.347 84.7955 146.174C84.7017 146 84.5707 145.862 84.4023 145.762C84.2362 145.662 84.0423 145.612 83.8207 145.612C83.5842 145.612 83.3764 145.669 83.1974 145.784C83.0185 145.897 82.8789 146.047 82.7788 146.232C82.6808 146.415 82.6307 146.616 82.6286 146.836V147.517C82.6286 147.802 82.6808 148.047 82.7852 148.252C82.8896 148.454 83.0355 148.61 83.223 148.718C83.4105 148.825 83.63 148.878 83.8814 148.878C84.0497 148.878 84.2021 148.855 84.3384 148.808C84.4748 148.759 84.593 148.688 84.6932 148.594C84.7933 148.5 84.869 148.384 84.9201 148.245L86.0004 148.367C85.9322 148.652 85.8022 148.902 85.6104 149.115C85.4208 149.326 85.1779 149.49 84.8817 149.607C84.5856 149.722 84.2468 149.779 83.8654 149.779ZM90.907 146.072L89.8524 146.187C89.8225 146.081 89.7703 145.98 89.6958 145.887C89.6233 145.793 89.5253 145.717 89.4017 145.66C89.2781 145.602 89.1269 145.574 88.9479 145.574C88.7071 145.574 88.5047 145.626 88.3406 145.73C88.1787 145.835 88.0988 145.97 88.1009 146.136C88.0988 146.279 88.151 146.395 88.2575 146.484C88.3662 146.574 88.5452 146.647 88.7945 146.705L89.6318 146.884C90.0963 146.984 90.4415 147.143 90.6673 147.36C90.8953 147.577 91.0104 147.862 91.0125 148.213C91.0104 148.522 90.9198 148.795 90.7409 149.032C90.564 149.266 90.3179 149.449 90.0026 149.581C89.6872 149.713 89.325 149.779 88.9159 149.779C88.3151 149.779 87.8314 149.654 87.4649 149.402C87.0985 149.149 86.8801 148.796 86.8097 148.344L87.9379 148.236C87.9891 148.457 88.0977 148.625 88.2639 148.738C88.4301 148.85 88.6464 148.907 88.9127 148.907C89.1876 148.907 89.4081 148.85 89.5743 148.738C89.7426 148.625 89.8268 148.485 89.8268 148.319C89.8268 148.178 89.7725 148.062 89.6638 147.971C89.5573 147.879 89.3911 147.809 89.1652 147.76L88.3279 147.584C87.857 147.486 87.5086 147.321 87.2828 147.088C87.0569 146.854 86.945 146.558 86.9472 146.2C86.945 145.897 87.0271 145.635 87.1933 145.414C87.3616 145.19 87.5949 145.017 87.8932 144.896C88.1936 144.772 88.5399 144.711 88.9319 144.711C89.5072 144.711 89.96 144.833 90.2902 145.078C90.6226 145.323 90.8282 145.654 90.907 146.072ZM95.8465 146.072L94.7918 146.187C94.762 146.081 94.7098 145.98 94.6352 145.887C94.5628 145.793 94.4648 145.717 94.3412 145.66C94.2176 145.602 94.0663 145.574 93.8873 145.574C93.6466 145.574 93.4442 145.626 93.2801 145.73C93.1182 145.835 93.0383 145.97 93.0404 146.136C93.0383 146.279 93.0905 146.395 93.197 146.484C93.3057 146.574 93.4846 146.647 93.7339 146.705L94.5713 146.884C95.0358 146.984 95.3809 147.143 95.6068 147.36C95.8348 147.577 95.9498 147.862 95.952 148.213C95.9498 148.522 95.8593 148.795 95.6803 149.032C95.5035 149.266 95.2574 149.449 94.942 149.581C94.6267 149.713 94.2645 149.779 93.8554 149.779C93.2545 149.779 92.7709 149.654 92.4044 149.402C92.0379 149.149 91.8195 148.796 91.7492 148.344L92.8774 148.236C92.9285 148.457 93.0372 148.625 93.2034 148.738C93.3696 148.85 93.5858 148.907 93.8522 148.907C94.127 148.907 94.3476 148.85 94.5138 148.738C94.6821 148.625 94.7662 148.485 94.7662 148.319C94.7662 148.178 94.7119 148.062 94.6032 147.971C94.4967 147.879 94.3305 147.809 94.1047 147.76L93.2673 147.584C92.7964 147.486 92.4481 147.321 92.2222 147.088C91.9964 146.854 91.8845 146.558 91.8866 146.2C91.8845 145.897 91.9665 145.635 92.1327 145.414C92.301 145.19 92.5344 145.017 92.8327 144.896C93.1331 144.772 93.4793 144.711 93.8714 144.711C94.4466 144.711 94.8994 144.833 95.2297 145.078C95.5621 145.323 95.7677 145.654 95.8465 146.072ZM101.59 144.775V145.669H98.7677V144.775H101.59ZM99.4644 143.598H100.621V148.207C100.621 148.363 100.645 148.482 100.692 148.565C100.741 148.646 100.805 148.701 100.883 148.731C100.962 148.761 101.05 148.776 101.146 148.776C101.218 148.776 101.284 148.771 101.344 148.76C101.405 148.749 101.452 148.74 101.484 148.731L101.679 149.636C101.617 149.657 101.529 149.68 101.414 149.706C101.301 149.732 101.163 149.746 100.998 149.751C100.709 149.759 100.448 149.716 100.215 149.62C99.9832 149.522 99.7989 149.37 99.6626 149.166C99.5283 148.961 99.4623 148.706 99.4644 148.399V143.598ZM103.82 146.807V149.684H102.663V143.138H103.794V145.609H103.852C103.967 145.332 104.145 145.113 104.385 144.953C104.628 144.792 104.937 144.711 105.312 144.711C105.653 144.711 105.95 144.782 106.204 144.925C106.458 145.067 106.654 145.276 106.792 145.551C106.933 145.826 107.003 146.162 107.003 146.558V149.684H105.846V146.737C105.846 146.407 105.761 146.15 105.59 145.967C105.422 145.781 105.186 145.689 104.881 145.689C104.676 145.689 104.493 145.733 104.331 145.823C104.171 145.91 104.046 146.037 103.954 146.203C103.865 146.369 103.82 146.571 103.82 146.807ZM109.595 149.783C109.284 149.783 109.004 149.727 108.754 149.616C108.507 149.504 108.311 149.337 108.166 149.118C108.024 148.898 107.952 148.628 107.952 148.306C107.952 148.029 108.003 147.8 108.106 147.619C108.208 147.438 108.347 147.293 108.524 147.184C108.701 147.076 108.9 146.994 109.122 146.938C109.346 146.881 109.577 146.839 109.816 146.814C110.103 146.784 110.336 146.757 110.515 146.734C110.694 146.708 110.824 146.67 110.905 146.619C110.988 146.565 111.03 146.483 111.03 146.373V146.353C111.03 146.113 110.959 145.926 110.816 145.794C110.673 145.662 110.468 145.596 110.199 145.596C109.916 145.596 109.691 145.658 109.525 145.781C109.361 145.905 109.25 146.051 109.192 146.219L108.112 146.066C108.197 145.767 108.338 145.518 108.534 145.318C108.73 145.115 108.97 144.964 109.253 144.864C109.536 144.762 109.85 144.711 110.193 144.711C110.429 144.711 110.665 144.738 110.899 144.794C111.133 144.849 111.347 144.941 111.541 145.069C111.735 145.194 111.891 145.366 112.008 145.583C112.127 145.8 112.187 146.072 112.187 146.398V149.684H111.075V149.009H111.036C110.966 149.146 110.867 149.273 110.739 149.393C110.613 149.51 110.455 149.605 110.263 149.677C110.073 149.748 109.851 149.783 109.595 149.783ZM109.895 148.933C110.128 148.933 110.329 148.887 110.499 148.795C110.67 148.701 110.801 148.578 110.893 148.424C110.986 148.271 111.033 148.104 111.033 147.923V147.344C110.997 147.374 110.935 147.402 110.848 147.427C110.763 147.453 110.667 147.475 110.56 147.494C110.454 147.513 110.348 147.531 110.244 147.545C110.139 147.56 110.049 147.573 109.972 147.584C109.8 147.607 109.645 147.646 109.509 147.699C109.372 147.752 109.265 147.827 109.186 147.923C109.107 148.016 109.068 148.138 109.068 148.287C109.068 148.5 109.145 148.661 109.301 148.77C109.456 148.878 109.655 148.933 109.895 148.933ZM114.507 146.807V149.684H113.35V144.775H114.456V145.609H114.514C114.627 145.334 114.807 145.115 115.054 144.953C115.303 144.792 115.611 144.711 115.977 144.711C116.316 144.711 116.611 144.783 116.863 144.928C117.116 145.073 117.312 145.283 117.451 145.558C117.591 145.832 117.661 146.166 117.659 146.558V149.684H116.502V146.737C116.502 146.409 116.416 146.152 116.246 145.967C116.078 145.781 115.844 145.689 115.546 145.689C115.344 145.689 115.164 145.733 115.006 145.823C114.85 145.91 114.728 146.037 114.638 146.203C114.551 146.369 114.507 146.571 114.507 146.807ZM123.474 149.808C122.947 149.808 122.496 149.675 122.119 149.409C121.744 149.14 121.455 148.754 121.252 148.249C121.052 147.741 120.952 147.131 120.952 146.417C120.954 145.703 121.055 145.096 121.256 144.596C121.458 144.093 121.747 143.709 122.122 143.445C122.499 143.181 122.95 143.049 123.474 143.049C123.998 143.049 124.449 143.181 124.826 143.445C125.203 143.709 125.491 144.093 125.692 144.596C125.894 145.098 125.995 145.706 125.995 146.417C125.995 147.133 125.894 147.745 125.692 148.252C125.491 148.757 125.203 149.142 124.826 149.409C124.451 149.675 124 149.808 123.474 149.808ZM123.474 148.808C123.883 148.808 124.206 148.607 124.442 148.204C124.681 147.799 124.8 147.203 124.8 146.417C124.8 145.897 124.746 145.461 124.637 145.107C124.528 144.753 124.375 144.487 124.177 144.308C123.979 144.127 123.744 144.036 123.474 144.036C123.067 144.036 122.745 144.239 122.509 144.643C122.272 145.046 122.153 145.637 122.151 146.417C122.148 146.939 122.201 147.378 122.307 147.734C122.416 148.09 122.569 148.358 122.767 148.539C122.966 148.718 123.201 148.808 123.474 148.808ZM130.557 148.456V148.111C130.557 147.858 130.61 147.624 130.717 147.411C130.825 147.198 130.983 147.027 131.19 146.897C131.396 146.767 131.647 146.702 131.941 146.702C132.243 146.702 132.497 146.767 132.701 146.897C132.906 147.025 133.06 147.195 133.165 147.408C133.271 147.621 133.325 147.855 133.325 148.111V148.456C133.325 148.71 133.271 148.943 133.165 149.156C133.058 149.369 132.902 149.541 132.695 149.671C132.491 149.801 132.239 149.866 131.941 149.866C131.642 149.866 131.39 149.801 131.183 149.671C130.977 149.541 130.82 149.369 130.714 149.156C130.609 148.943 130.557 148.71 130.557 148.456ZM131.391 148.111V148.456C131.391 148.625 131.432 148.779 131.513 148.92C131.593 149.06 131.736 149.131 131.941 149.131C132.147 149.131 132.289 149.061 132.366 148.923C132.445 148.782 132.484 148.627 132.484 148.456V148.111C132.484 147.941 132.447 147.785 132.372 147.645C132.298 147.502 132.154 147.43 131.941 147.43C131.741 147.43 131.599 147.502 131.516 147.645C131.433 147.785 131.391 147.941 131.391 148.111ZM127.23 144.711V144.365C127.23 144.11 127.284 143.875 127.393 143.662C127.502 143.449 127.659 143.279 127.866 143.151C128.073 143.021 128.323 142.956 128.617 142.956C128.917 142.956 129.17 143.021 129.374 143.151C129.581 143.279 129.737 143.449 129.841 143.662C129.945 143.875 129.998 144.11 129.998 144.365V144.711C129.998 144.966 129.944 145.201 129.838 145.414C129.733 145.625 129.578 145.794 129.371 145.922C129.165 146.05 128.913 146.114 128.617 146.114C128.316 146.114 128.063 146.05 127.856 145.922C127.652 145.794 127.496 145.624 127.39 145.411C127.283 145.197 127.23 144.964 127.23 144.711ZM128.07 144.365V144.711C128.07 144.881 128.11 145.037 128.189 145.177C128.27 145.316 128.412 145.385 128.617 145.385C128.821 145.385 128.962 145.316 129.039 145.177C129.118 145.037 129.157 144.881 129.157 144.711V144.365C129.157 144.195 129.12 144.039 129.045 143.899C128.971 143.756 128.828 143.685 128.617 143.685C128.415 143.685 128.273 143.756 128.192 143.899C128.111 144.042 128.07 144.197 128.07 144.365ZM127.594 149.684L132.094 143.138H132.893L128.393 149.684H127.594Z" fill="#585858"/>
<path d="M152.146 149.684V143.138H154.651C155.124 143.138 155.517 143.213 155.831 143.362C156.146 143.509 156.381 143.71 156.537 143.966C156.695 144.222 156.773 144.511 156.773 144.835C156.773 145.102 156.722 145.33 156.62 145.519C156.518 145.707 156.38 145.859 156.208 145.976C156.035 146.093 155.842 146.178 155.629 146.229V146.293C155.862 146.305 156.084 146.377 156.297 146.507C156.512 146.635 156.688 146.816 156.825 147.05C156.961 147.284 157.029 147.568 157.029 147.9C157.029 148.239 156.947 148.544 156.783 148.814C156.619 149.083 156.372 149.295 156.042 149.45C155.711 149.606 155.296 149.684 154.795 149.684H152.146ZM153.331 148.693H154.607C155.037 148.693 155.347 148.611 155.537 148.447C155.728 148.281 155.824 148.067 155.824 147.808C155.824 147.614 155.776 147.439 155.68 147.283C155.585 147.126 155.448 147.002 155.271 146.913C155.094 146.821 154.884 146.775 154.638 146.775H153.331V148.693ZM153.331 145.922H154.504C154.709 145.922 154.893 145.885 155.057 145.81C155.221 145.733 155.35 145.626 155.444 145.487C155.54 145.347 155.588 145.18 155.588 144.989C155.588 144.735 155.498 144.526 155.319 144.362C155.142 144.198 154.879 144.116 154.53 144.116H153.331V145.922ZM160.183 149.779C159.691 149.779 159.266 149.677 158.908 149.473C158.552 149.266 158.278 148.974 158.086 148.597C157.894 148.218 157.799 147.771 157.799 147.258C157.799 146.753 157.894 146.31 158.086 145.928C158.28 145.545 158.551 145.246 158.898 145.033C159.245 144.818 159.653 144.711 160.122 144.711C160.425 144.711 160.71 144.76 160.979 144.858C161.249 144.953 161.488 145.103 161.695 145.305C161.903 145.507 162.067 145.765 162.187 146.078C162.306 146.39 162.366 146.76 162.366 147.191V147.545H158.342V146.766H161.257C161.255 146.544 161.207 146.347 161.113 146.174C161.019 146 160.888 145.862 160.72 145.762C160.554 145.662 160.36 145.612 160.138 145.612C159.902 145.612 159.694 145.669 159.515 145.784C159.336 145.897 159.196 146.047 159.096 146.232C158.998 146.415 158.948 146.616 158.946 146.836V147.517C158.946 147.802 158.998 148.047 159.103 148.252C159.207 148.454 159.353 148.61 159.54 148.718C159.728 148.825 159.947 148.878 160.199 148.878C160.367 148.878 160.519 148.855 160.656 148.808C160.792 148.759 160.91 148.688 161.011 148.594C161.111 148.5 161.186 148.384 161.237 148.245L162.318 148.367C162.25 148.652 162.12 148.902 161.928 149.115C161.738 149.326 161.495 149.49 161.199 149.607C160.903 149.722 160.564 149.779 160.183 149.779ZM165.796 144.775V145.669H162.974V144.775H165.796ZM163.67 143.598H164.827V148.207C164.827 148.363 164.851 148.482 164.898 148.565C164.947 148.646 165.011 148.701 165.089 148.731C165.168 148.761 165.256 148.776 165.352 148.776C165.424 148.776 165.49 148.771 165.55 148.76C165.612 148.749 165.658 148.74 165.69 148.731L165.885 149.636C165.824 149.657 165.735 149.68 165.62 149.706C165.507 149.732 165.369 149.746 165.205 149.751C164.915 149.759 164.654 149.716 164.422 149.62C164.189 149.522 164.005 149.37 163.869 149.166C163.734 148.961 163.668 148.706 163.67 148.399V143.598ZM167.777 149.684L166.389 144.775H167.569L168.432 148.226H168.476L169.359 144.775H170.525L171.407 148.207H171.455L172.305 144.775H173.488L172.098 149.684H170.893L169.972 146.366H169.905L168.985 149.684H167.777ZM176.328 149.779C175.836 149.779 175.411 149.677 175.053 149.473C174.697 149.266 174.423 148.974 174.232 148.597C174.04 148.218 173.944 147.771 173.944 147.258C173.944 146.753 174.04 146.31 174.232 145.928C174.426 145.545 174.696 145.246 175.044 145.033C175.391 144.818 175.799 144.711 176.268 144.711C176.57 144.711 176.856 144.76 177.124 144.858C177.395 144.953 177.633 145.103 177.84 145.305C178.049 145.507 178.213 145.765 178.332 146.078C178.452 146.39 178.511 146.76 178.511 147.191V147.545H174.487V146.766H177.402C177.4 146.544 177.352 146.347 177.258 146.174C177.165 146 177.034 145.862 176.865 145.762C176.699 145.662 176.505 145.612 176.284 145.612C176.047 145.612 175.839 145.669 175.66 145.784C175.481 145.897 175.342 146.047 175.242 146.232C175.144 146.415 175.094 146.616 175.091 146.836V147.517C175.091 147.802 175.144 148.047 175.248 148.252C175.352 148.454 175.498 148.61 175.686 148.718C175.873 148.825 176.093 148.878 176.344 148.878C176.513 148.878 176.665 148.855 176.801 148.808C176.938 148.759 177.056 148.688 177.156 148.594C177.256 148.5 177.332 148.384 177.383 148.245L178.463 148.367C178.395 148.652 178.265 148.902 178.073 149.115C177.884 149.326 177.641 149.49 177.345 149.607C177.048 149.722 176.71 149.779 176.328 149.779ZM181.663 149.779C181.171 149.779 180.746 149.677 180.388 149.473C180.032 149.266 179.758 148.974 179.567 148.597C179.375 148.218 179.279 147.771 179.279 147.258C179.279 146.753 179.375 146.31 179.567 145.928C179.761 145.545 180.031 145.246 180.378 145.033C180.726 144.818 181.134 144.711 181.603 144.711C181.905 144.711 182.191 144.76 182.459 144.858C182.73 144.953 182.968 145.103 183.175 145.305C183.384 145.507 183.548 145.765 183.667 146.078C183.786 146.39 183.846 146.76 183.846 147.191V147.545H179.822V146.766H182.737C182.735 146.544 182.687 146.347 182.593 146.174C182.5 146 182.369 145.862 182.2 145.762C182.034 145.662 181.84 145.612 181.619 145.612C181.382 145.612 181.174 145.669 180.995 145.784C180.816 145.897 180.677 146.047 180.577 146.232C180.479 146.415 180.429 146.616 180.426 146.836V147.517C180.426 147.802 180.479 148.047 180.583 148.252C180.687 148.454 180.833 148.61 181.021 148.718C181.208 148.825 181.428 148.878 181.679 148.878C181.848 148.878 182 148.855 182.136 148.808C182.273 148.759 182.391 148.688 182.491 148.594C182.591 148.5 182.667 148.384 182.718 148.245L183.798 148.367C183.73 148.652 183.6 148.902 183.408 149.115C183.219 149.326 182.976 149.49 182.68 149.607C182.383 149.722 182.045 149.779 181.663 149.779ZM185.982 146.807V149.684H184.825V144.775H185.931V145.609H185.988C186.101 145.334 186.281 145.115 186.528 144.953C186.778 144.792 187.086 144.711 187.452 144.711C187.791 144.711 188.086 144.783 188.337 144.928C188.591 145.073 188.787 145.283 188.925 145.558C189.066 145.832 189.135 146.166 189.133 146.558V149.684H187.976V146.737C187.976 146.409 187.891 146.152 187.721 145.967C187.552 145.781 187.319 145.689 187.021 145.689C186.818 145.689 186.638 145.733 186.48 145.823C186.325 145.91 186.202 146.037 186.113 146.203C186.026 146.369 185.982 146.571 185.982 146.807ZM194.948 149.808C194.422 149.808 193.97 149.675 193.593 149.409C193.218 149.14 192.93 148.754 192.727 148.249C192.527 147.741 192.427 147.131 192.427 146.417C192.429 145.703 192.53 145.096 192.73 144.596C192.933 144.093 193.221 143.709 193.596 143.445C193.974 143.181 194.424 143.049 194.948 143.049C195.472 143.049 195.923 143.181 196.3 143.445C196.677 143.709 196.966 144.093 197.166 144.596C197.369 145.098 197.47 145.706 197.47 146.417C197.47 147.133 197.369 147.745 197.166 148.252C196.966 148.757 196.677 149.142 196.3 149.409C195.925 149.675 195.475 149.808 194.948 149.808ZM194.948 148.808C195.357 148.808 195.68 148.607 195.917 148.204C196.155 147.799 196.275 147.203 196.275 146.417C196.275 145.897 196.22 145.461 196.112 145.107C196.003 144.753 195.85 144.487 195.651 144.308C195.453 144.127 195.219 144.036 194.948 144.036C194.541 144.036 194.22 144.239 193.983 144.643C193.747 145.046 193.627 145.637 193.625 146.417C193.623 146.939 193.675 147.378 193.782 147.734C193.89 148.09 194.044 148.358 194.242 148.539C194.44 148.718 194.676 148.808 194.948 148.808ZM201.52 145.935V146.887H198.573V145.935H201.52ZM202.606 148.469V147.526L205.383 143.138H206.17V144.48H205.69L203.82 147.443V147.494H207.697V148.469H202.606ZM205.729 149.684V148.181L205.741 147.76V143.138H206.86V149.684H205.729ZM211.138 149.808C210.612 149.808 210.16 149.675 209.783 149.409C209.408 149.14 209.119 148.754 208.917 148.249C208.716 147.741 208.616 147.131 208.616 146.417C208.618 145.703 208.719 145.096 208.92 144.596C209.122 144.093 209.411 143.709 209.786 143.445C210.163 143.181 210.614 143.049 211.138 143.049C211.662 143.049 212.113 143.181 212.49 143.445C212.867 143.709 213.156 144.093 213.356 144.596C213.558 145.098 213.659 145.706 213.659 146.417C213.659 147.133 213.558 147.745 213.356 148.252C213.156 148.757 212.867 149.142 212.49 149.409C212.115 149.675 211.664 149.808 211.138 149.808ZM211.138 148.808C211.547 148.808 211.87 148.607 212.106 148.204C212.345 147.799 212.464 147.203 212.464 146.417C212.464 145.897 212.41 145.461 212.301 145.107C212.192 144.753 212.039 144.487 211.841 144.308C211.643 144.127 211.408 144.036 211.138 144.036C210.731 144.036 210.409 144.239 210.173 144.643C209.936 145.046 209.817 145.637 209.815 146.417C209.813 146.939 209.865 147.378 209.971 147.734C210.08 148.09 210.233 148.358 210.431 148.539C210.63 148.718 210.865 148.808 211.138 148.808ZM218.221 148.456V148.111C218.221 147.858 218.274 147.624 218.381 147.411C218.489 147.198 218.647 147.027 218.854 146.897C219.06 146.767 219.311 146.702 219.605 146.702C219.907 146.702 220.161 146.767 220.366 146.897C220.57 147.025 220.725 147.195 220.829 147.408C220.935 147.621 220.989 147.855 220.989 148.111V148.456C220.989 148.71 220.935 148.943 220.829 149.156C220.722 149.369 220.566 149.541 220.359 149.671C220.155 149.801 219.903 149.866 219.605 149.866C219.307 149.866 219.054 149.801 218.847 149.671C218.641 149.541 218.484 149.369 218.378 149.156C218.273 148.943 218.221 148.71 218.221 148.456ZM219.055 148.111V148.456C219.055 148.625 219.096 148.779 219.177 148.92C219.258 149.06 219.4 149.131 219.605 149.131C219.812 149.131 219.953 149.061 220.03 148.923C220.109 148.782 220.148 148.627 220.148 148.456V148.111C220.148 147.941 220.111 147.785 220.036 147.645C219.962 147.502 219.818 147.43 219.605 147.43C219.405 147.43 219.263 147.502 219.18 147.645C219.097 147.785 219.055 147.941 219.055 148.111ZM214.894 144.711V144.365C214.894 144.11 214.948 143.875 215.057 143.662C215.166 143.449 215.323 143.279 215.53 143.151C215.737 143.021 215.987 142.956 216.281 142.956C216.581 142.956 216.834 143.021 217.038 143.151C217.245 143.279 217.401 143.449 217.505 143.662C217.609 143.875 217.662 144.11 217.662 144.365V144.711C217.662 144.966 217.608 145.201 217.502 145.414C217.397 145.625 217.242 145.794 217.035 145.922C216.829 146.05 216.577 146.114 216.281 146.114C215.981 146.114 215.727 146.05 215.52 145.922C215.316 145.794 215.16 145.624 215.054 145.411C214.947 145.197 214.894 144.964 214.894 144.711ZM215.734 144.365V144.711C215.734 144.881 215.774 145.037 215.853 145.177C215.934 145.316 216.076 145.385 216.281 145.385C216.486 145.385 216.626 145.316 216.703 145.177C216.782 145.037 216.821 144.881 216.821 144.711V144.365C216.821 144.195 216.784 144.039 216.709 143.899C216.635 143.756 216.492 143.685 216.281 143.685C216.079 143.685 215.937 143.756 215.856 143.899C215.775 144.042 215.734 144.197 215.734 144.365ZM215.258 149.684L219.758 143.138H220.557L216.057 149.684H215.258Z" fill="#585858"/>
<path d="M227.486 149.684H226.221L228.525 143.138H229.989L232.296 149.684H231.031L229.282 144.48H229.231L227.486 149.684ZM227.528 147.117H230.979V148.07H227.528V147.117ZM233.158 149.684V143.138H234.315V145.586H234.363C234.423 145.467 234.507 145.34 234.616 145.206C234.724 145.07 234.871 144.953 235.057 144.858C235.242 144.76 235.479 144.711 235.766 144.711C236.146 144.711 236.487 144.808 236.792 145.001C237.099 145.193 237.342 145.478 237.521 145.855C237.702 146.23 237.793 146.69 237.793 147.235C237.793 147.775 237.704 148.233 237.527 148.61C237.35 148.987 237.11 149.275 236.805 149.473C236.5 149.671 236.155 149.77 235.769 149.77C235.488 149.77 235.255 149.723 235.07 149.629C234.884 149.536 234.735 149.423 234.622 149.29C234.511 149.156 234.425 149.029 234.363 148.91H234.296V149.684H233.158ZM234.293 147.229C234.293 147.547 234.338 147.825 234.427 148.063C234.519 148.302 234.65 148.488 234.82 148.623C234.993 148.755 235.202 148.821 235.447 148.821C235.702 148.821 235.916 148.752 236.089 148.616C236.262 148.478 236.392 148.289 236.479 148.05C236.568 147.81 236.613 147.536 236.613 147.229C236.613 146.924 236.57 146.654 236.482 146.417C236.395 146.181 236.265 145.995 236.092 145.861C235.92 145.727 235.704 145.66 235.447 145.66C235.199 145.66 234.99 145.725 234.817 145.855C234.644 145.985 234.513 146.167 234.424 146.401C234.337 146.636 234.293 146.912 234.293 147.229ZM240.917 149.779C240.438 149.779 240.023 149.674 239.671 149.463C239.319 149.252 239.047 148.957 238.853 148.578C238.661 148.199 238.565 147.755 238.565 147.248C238.565 146.741 238.661 146.297 238.853 145.915C239.047 145.534 239.319 145.238 239.671 145.027C240.023 144.816 240.438 144.711 240.917 144.711C241.397 144.711 241.812 144.816 242.164 145.027C242.515 145.238 242.787 145.534 242.979 145.915C243.173 146.297 243.27 146.741 243.27 147.248C243.27 147.755 243.173 148.199 242.979 148.578C242.787 148.957 242.515 149.252 242.164 149.463C241.812 149.674 241.397 149.779 240.917 149.779ZM240.924 148.853C241.184 148.853 241.401 148.781 241.576 148.638C241.751 148.494 241.881 148.3 241.966 148.057C242.053 147.814 242.097 147.543 242.097 147.245C242.097 146.945 242.053 146.673 241.966 146.43C241.881 146.185 241.751 145.99 241.576 145.845C241.401 145.7 241.184 145.628 240.924 145.628C240.657 145.628 240.436 145.7 240.259 145.845C240.084 145.99 239.953 146.185 239.866 146.43C239.781 146.673 239.738 146.945 239.738 147.245C239.738 147.543 239.781 147.814 239.866 148.057C239.953 148.3 240.084 148.494 240.259 148.638C240.436 148.781 240.657 148.853 240.924 148.853ZM248.47 144.775L246.721 149.684H245.443L243.695 144.775H244.928L246.057 148.421H246.108L247.239 144.775H248.47ZM251.277 149.779C250.784 149.779 250.359 149.677 250.001 149.473C249.646 149.266 249.372 148.974 249.18 148.597C248.988 148.218 248.892 147.771 248.892 147.258C248.892 146.753 248.988 146.31 249.18 145.928C249.374 145.545 249.644 145.246 249.992 145.033C250.339 144.818 250.747 144.711 251.216 144.711C251.518 144.711 251.804 144.76 252.072 144.858C252.343 144.953 252.582 145.103 252.788 145.305C252.997 145.507 253.161 145.765 253.28 146.078C253.4 146.39 253.459 146.76 253.459 147.191V147.545H249.436V146.766H252.35C252.348 146.544 252.3 146.347 252.207 146.174C252.113 146 251.982 145.862 251.813 145.762C251.647 145.662 251.453 145.612 251.232 145.612C250.995 145.612 250.788 145.669 250.609 145.784C250.43 145.897 250.29 146.047 250.19 146.232C250.092 146.415 250.042 146.616 250.04 146.836V147.517C250.04 147.802 250.092 148.047 250.196 148.252C250.301 148.454 250.447 148.61 250.634 148.718C250.822 148.825 251.041 148.878 251.293 148.878C251.461 148.878 251.613 148.855 251.75 148.808C251.886 148.759 252.004 148.688 252.104 148.594C252.204 148.5 252.28 148.384 252.331 148.245L253.411 148.367C253.343 148.652 253.213 148.902 253.022 149.115C252.832 149.326 252.589 149.49 252.293 149.607C251.997 149.722 251.658 149.779 251.277 149.779ZM256.54 148.469V147.526L259.317 143.138H260.103V144.48H259.624L257.754 147.443V147.494H261.631V148.469H256.54ZM259.662 149.684V148.181L259.675 147.76V143.138H260.794V149.684H259.662ZM265.071 149.808C264.545 149.808 264.093 149.675 263.716 149.409C263.341 149.14 263.053 148.754 262.85 148.249C262.65 147.741 262.55 147.131 262.55 146.417C262.552 145.703 262.653 145.096 262.853 144.596C263.056 144.093 263.344 143.709 263.719 143.445C264.097 143.181 264.547 143.049 265.071 143.049C265.596 143.049 266.046 143.181 266.423 143.445C266.8 143.709 267.089 144.093 267.289 144.596C267.492 145.098 267.593 145.706 267.593 146.417C267.593 147.133 267.492 147.745 267.289 148.252C267.089 148.757 266.8 149.142 266.423 149.409C266.048 149.675 265.598 149.808 265.071 149.808ZM265.071 148.808C265.48 148.808 265.803 148.607 266.04 148.204C266.278 147.799 266.398 147.203 266.398 146.417C266.398 145.897 266.343 145.461 266.235 145.107C266.126 144.753 265.973 144.487 265.775 144.308C265.576 144.127 265.342 144.036 265.071 144.036C264.664 144.036 264.343 144.239 264.106 144.643C263.87 145.046 263.75 145.637 263.748 146.417C263.746 146.939 263.798 147.378 263.905 147.734C264.013 148.09 264.167 148.358 264.365 148.539C264.563 148.718 264.799 148.808 265.071 148.808ZM272.155 148.456V148.111C272.155 147.858 272.208 147.624 272.314 147.411C272.423 147.198 272.581 147.027 272.787 146.897C272.994 146.767 273.244 146.702 273.538 146.702C273.841 146.702 274.095 146.767 274.299 146.897C274.504 147.025 274.658 147.195 274.763 147.408C274.869 147.621 274.922 147.855 274.922 148.111V148.456C274.922 148.71 274.869 148.943 274.763 149.156C274.656 149.369 274.499 149.541 274.293 149.671C274.088 149.801 273.837 149.866 273.538 149.866C273.24 149.866 272.988 149.801 272.781 149.671C272.574 149.541 272.418 149.369 272.311 149.156C272.207 148.943 272.155 148.71 272.155 148.456ZM272.989 148.111V148.456C272.989 148.625 273.029 148.779 273.11 148.92C273.191 149.06 273.334 149.131 273.538 149.131C273.745 149.131 273.887 149.061 273.964 148.923C274.042 148.782 274.082 148.627 274.082 148.456V148.111C274.082 147.941 274.044 147.785 273.97 147.645C273.895 147.502 273.752 147.43 273.538 147.43C273.338 147.43 273.196 147.502 273.113 147.645C273.03 147.785 272.989 147.941 272.989 148.111ZM268.828 144.711V144.365C268.828 144.11 268.882 143.875 268.991 143.662C269.099 143.449 269.257 143.279 269.464 143.151C269.67 143.021 269.921 142.956 270.215 142.956C270.515 142.956 270.767 143.021 270.972 143.151C271.179 143.279 271.334 143.449 271.439 143.662C271.543 143.875 271.595 144.11 271.595 144.365V144.711C271.595 144.966 271.542 145.201 271.435 145.414C271.331 145.625 271.176 145.794 270.969 145.922C270.762 146.05 270.511 146.114 270.215 146.114C269.914 146.114 269.661 146.05 269.454 145.922C269.249 145.794 269.094 145.624 268.987 145.411C268.881 145.197 268.828 144.964 268.828 144.711ZM269.668 144.365V144.711C269.668 144.881 269.707 145.037 269.786 145.177C269.867 145.316 270.01 145.385 270.215 145.385C270.419 145.385 270.56 145.316 270.636 145.177C270.715 145.037 270.755 144.881 270.755 144.711V144.365C270.755 144.195 270.717 144.039 270.643 143.899C270.568 143.756 270.426 143.685 270.215 143.685C270.012 143.685 269.87 143.756 269.79 143.899C269.709 144.042 269.668 144.197 269.668 144.365ZM269.192 149.684L273.692 143.138H274.491L269.991 149.684H269.192Z" fill="#585858"/>
<rect x="76" y="120.184" width="12" height="12" fill="#ED3F47"/>
<path d="M96.7891 130.684V122.684H99.7891C100.404 122.684 100.919 122.798 101.336 123.027C101.755 123.257 102.072 123.572 102.285 123.973C102.501 124.371 102.609 124.824 102.609 125.332C102.609 125.845 102.501 126.301 102.285 126.699C102.069 127.098 101.75 127.411 101.328 127.641C100.906 127.867 100.387 127.98 99.7695 127.98H97.7813V126.789H99.5742C99.9336 126.789 100.228 126.727 100.457 126.602C100.686 126.477 100.855 126.305 100.965 126.086C101.077 125.867 101.133 125.616 101.133 125.332C101.133 125.048 101.077 124.798 100.965 124.582C100.855 124.366 100.685 124.198 100.453 124.078C100.224 123.956 99.9284 123.895 99.5664 123.895H98.2383V130.684H96.7891ZM111.017 126.684C111.017 127.546 110.855 128.284 110.532 128.898C110.212 129.51 109.774 129.979 109.22 130.305C108.668 130.63 108.041 130.793 107.341 130.793C106.64 130.793 106.013 130.63 105.458 130.305C104.906 129.977 104.468 129.507 104.146 128.895C103.825 128.28 103.665 127.543 103.665 126.684C103.665 125.822 103.825 125.085 104.146 124.473C104.468 123.858 104.906 123.388 105.458 123.062C106.013 122.737 106.64 122.574 107.341 122.574C108.041 122.574 108.668 122.737 109.22 123.062C109.774 123.388 110.212 123.858 110.532 124.473C110.855 125.085 111.017 125.822 111.017 126.684ZM109.56 126.684C109.56 126.077 109.465 125.565 109.274 125.148C109.087 124.729 108.826 124.413 108.493 124.199C108.16 123.983 107.776 123.875 107.341 123.875C106.906 123.875 106.522 123.983 106.188 124.199C105.855 124.413 105.593 124.729 105.403 125.148C105.216 125.565 105.122 126.077 105.122 126.684C105.122 127.29 105.216 127.803 105.403 128.223C105.593 128.639 105.855 128.956 106.188 129.172C106.522 129.385 106.906 129.492 107.341 129.492C107.776 129.492 108.16 129.385 108.493 129.172C108.826 128.956 109.087 128.639 109.274 128.223C109.465 127.803 109.56 127.29 109.56 126.684ZM119.535 126.684C119.535 127.546 119.374 128.284 119.051 128.898C118.73 129.51 118.293 129.979 117.738 130.305C117.186 130.63 116.56 130.793 115.859 130.793C115.159 130.793 114.531 130.63 113.977 130.305C113.424 129.977 112.987 129.507 112.664 128.895C112.344 128.28 112.184 127.543 112.184 126.684C112.184 125.822 112.344 125.085 112.664 124.473C112.987 123.858 113.424 123.388 113.977 123.062C114.531 122.737 115.159 122.574 115.859 122.574C116.56 122.574 117.186 122.737 117.738 123.062C118.293 123.388 118.73 123.858 119.051 124.473C119.374 125.085 119.535 125.822 119.535 126.684ZM118.078 126.684C118.078 126.077 117.983 125.565 117.793 125.148C117.605 124.729 117.345 124.413 117.012 124.199C116.678 123.983 116.294 123.875 115.859 123.875C115.424 123.875 115.04 123.983 114.707 124.199C114.374 124.413 114.112 124.729 113.922 125.148C113.734 125.565 113.641 126.077 113.641 126.684C113.641 127.29 113.734 127.803 113.922 128.223C114.112 128.639 114.374 128.956 114.707 129.172C115.04 129.385 115.424 129.492 115.859 129.492C116.294 129.492 116.678 129.385 117.012 129.172C117.345 128.956 117.605 128.639 117.793 128.223C117.983 127.803 118.078 127.29 118.078 126.684ZM120.905 130.684V122.684H123.905C124.52 122.684 125.035 122.79 125.452 123.004C125.871 123.217 126.188 123.517 126.401 123.902C126.618 124.285 126.726 124.732 126.726 125.242C126.726 125.755 126.616 126.201 126.397 126.578C126.181 126.953 125.862 127.243 125.44 127.449C125.019 127.652 124.5 127.754 123.886 127.754H121.749V126.551H123.69C124.05 126.551 124.344 126.501 124.573 126.402C124.802 126.301 124.972 126.154 125.081 125.961C125.193 125.766 125.249 125.526 125.249 125.242C125.249 124.958 125.193 124.716 125.081 124.516C124.969 124.312 124.799 124.159 124.569 124.055C124.34 123.948 124.045 123.895 123.683 123.895H122.354V130.684H120.905ZM125.038 127.059L127.019 130.684H125.401L123.456 127.059H125.038Z" fill="#585858"/>
<rect x="151" y="120.184" width="12" height="12" fill="#FF8C00"/>
<path d="M177.148 125.238C177.083 125.027 176.993 124.839 176.879 124.672C176.767 124.503 176.632 124.358 176.473 124.238C176.316 124.118 176.137 124.029 175.934 123.969C175.73 123.906 175.509 123.875 175.27 123.875C174.84 123.875 174.457 123.983 174.121 124.199C173.785 124.415 173.521 124.733 173.328 125.152C173.138 125.569 173.043 126.077 173.043 126.676C173.043 127.28 173.138 127.792 173.328 128.211C173.518 128.63 173.783 128.949 174.121 129.168C174.46 129.384 174.853 129.492 175.301 129.492C175.707 129.492 176.059 129.414 176.355 129.258C176.655 129.102 176.885 128.88 177.047 128.594C177.208 128.305 177.289 127.966 177.289 127.578L177.617 127.629H175.445V126.496H178.691V127.457C178.691 128.142 178.546 128.734 178.254 129.234C177.962 129.734 177.561 130.12 177.051 130.391C176.54 130.659 175.954 130.793 175.293 130.793C174.556 130.793 173.909 130.628 173.352 130.297C172.797 129.964 172.363 129.491 172.051 128.879C171.741 128.264 171.586 127.535 171.586 126.691C171.586 126.046 171.677 125.469 171.859 124.961C172.044 124.453 172.302 124.022 172.633 123.668C172.964 123.311 173.352 123.04 173.797 122.855C174.242 122.668 174.727 122.574 175.25 122.574C175.693 122.574 176.105 122.639 176.488 122.77C176.871 122.897 177.211 123.079 177.508 123.316C177.807 123.553 178.053 123.835 178.246 124.16C178.439 124.486 178.565 124.845 178.625 125.238H177.148ZM187.241 126.684C187.241 127.546 187.08 128.284 186.757 128.898C186.437 129.51 185.999 129.979 185.444 130.305C184.892 130.63 184.266 130.793 183.565 130.793C182.865 130.793 182.237 130.63 181.683 130.305C181.131 129.977 180.693 129.507 180.37 128.895C180.05 128.28 179.89 127.543 179.89 126.684C179.89 125.822 180.05 125.085 180.37 124.473C180.693 123.858 181.131 123.388 181.683 123.062C182.237 122.737 182.865 122.574 183.565 122.574C184.266 122.574 184.892 122.737 185.444 123.062C185.999 123.388 186.437 123.858 186.757 124.473C187.08 125.085 187.241 125.822 187.241 126.684ZM185.784 126.684C185.784 126.077 185.689 125.565 185.499 125.148C185.312 124.729 185.051 124.413 184.718 124.199C184.384 123.983 184 123.875 183.565 123.875C183.131 123.875 182.746 123.983 182.413 124.199C182.08 124.413 181.818 124.729 181.628 125.148C181.44 125.565 181.347 126.077 181.347 126.684C181.347 127.29 181.44 127.803 181.628 128.223C181.818 128.639 182.08 128.956 182.413 129.172C182.746 129.385 183.131 129.492 183.565 129.492C184 129.492 184.384 129.385 184.718 129.172C185.051 128.956 185.312 128.639 185.499 128.223C185.689 127.803 185.784 127.29 185.784 126.684ZM195.76 126.684C195.76 127.546 195.598 128.284 195.275 128.898C194.955 129.51 194.518 129.979 193.963 130.305C193.411 130.63 192.785 130.793 192.084 130.793C191.383 130.793 190.756 130.63 190.201 130.305C189.649 129.977 189.212 129.507 188.889 128.895C188.568 128.28 188.408 127.543 188.408 126.684C188.408 125.822 188.568 125.085 188.889 124.473C189.212 123.858 189.649 123.388 190.201 123.062C190.756 122.737 191.383 122.574 192.084 122.574C192.785 122.574 193.411 122.737 193.963 123.062C194.518 123.388 194.955 123.858 195.275 124.473C195.598 125.085 195.76 125.822 195.76 126.684ZM194.303 126.684C194.303 126.077 194.208 125.565 194.018 125.148C193.83 124.729 193.57 124.413 193.236 124.199C192.903 123.983 192.519 123.875 192.084 123.875C191.649 123.875 191.265 123.983 190.932 124.199C190.598 124.413 190.337 124.729 190.146 125.148C189.959 125.565 189.865 126.077 189.865 126.684C189.865 127.29 189.959 127.803 190.146 128.223C190.337 128.639 190.598 128.956 190.932 129.172C191.265 129.385 191.649 129.492 192.084 129.492C192.519 129.492 192.903 129.385 193.236 129.172C193.57 128.956 193.83 128.639 194.018 128.223C194.208 127.803 194.303 127.29 194.303 126.684ZM199.841 130.684H197.13V122.684H199.896C200.69 122.684 201.372 122.844 201.942 123.164C202.515 123.482 202.955 123.939 203.263 124.535C203.57 125.132 203.724 125.845 203.724 126.676C203.724 127.509 203.569 128.225 203.259 128.824C202.951 129.423 202.507 129.883 201.927 130.203C201.349 130.523 200.653 130.684 199.841 130.684ZM198.579 129.43H199.771C200.328 129.43 200.793 129.328 201.165 129.125C201.537 128.919 201.817 128.613 202.005 128.207C202.192 127.798 202.286 127.288 202.286 126.676C202.286 126.064 202.192 125.556 202.005 125.152C201.817 124.746 201.54 124.443 201.173 124.242C200.808 124.039 200.355 123.938 199.813 123.938H198.579V129.43Z" fill="#585858"/>
<rect x="226" y="120.184" width="12" height="12" fill="#00CE75"/>
<path d="M246.789 130.684V122.684H251.992V123.898H248.238V126.07H251.723V127.285H248.238V129.469H252.023V130.684H246.789ZM254.682 122.684L256.443 125.613H256.506L258.275 122.684H259.928L257.463 126.684L259.967 130.684H258.287L256.506 127.773H256.443L254.662 130.684H252.99L255.518 126.684L253.021 122.684H254.682ZM267.623 125.383H266.162C266.12 125.143 266.044 124.931 265.932 124.746C265.82 124.559 265.68 124.4 265.514 124.27C265.347 124.139 265.157 124.042 264.943 123.977C264.732 123.909 264.505 123.875 264.26 123.875C263.825 123.875 263.439 123.984 263.104 124.203C262.768 124.419 262.505 124.737 262.314 125.156C262.124 125.573 262.029 126.082 262.029 126.684C262.029 127.296 262.124 127.811 262.314 128.23C262.507 128.647 262.77 128.962 263.104 129.176C263.439 129.387 263.824 129.492 264.256 129.492C264.495 129.492 264.719 129.461 264.928 129.398C265.139 129.333 265.327 129.238 265.494 129.113C265.663 128.988 265.805 128.835 265.92 128.652C266.037 128.47 266.118 128.262 266.162 128.027L267.623 128.035C267.568 128.415 267.45 128.772 267.268 129.105C267.088 129.439 266.852 129.733 266.561 129.988C266.269 130.241 265.928 130.439 265.537 130.582C265.146 130.723 264.713 130.793 264.236 130.793C263.533 130.793 262.906 130.63 262.354 130.305C261.801 129.979 261.367 129.509 261.049 128.895C260.731 128.28 260.572 127.543 260.572 126.684C260.572 125.822 260.732 125.085 261.053 124.473C261.373 123.858 261.809 123.388 262.361 123.062C262.913 122.737 263.538 122.574 264.236 122.574C264.682 122.574 265.096 122.637 265.479 122.762C265.861 122.887 266.202 123.07 266.502 123.312C266.801 123.552 267.048 123.846 267.24 124.195C267.436 124.542 267.563 124.938 267.623 125.383ZM268.95 130.684V122.684H274.153V123.898H270.399V126.07H273.884V127.285H270.399V129.469H274.185V130.684H268.95ZM275.632 130.684V122.684H277.081V129.469H280.604V130.684H275.632ZM281.862 130.684V122.684H283.312V129.469H286.835V130.684H281.862ZM288.093 130.684V122.684H293.296V123.898H289.542V126.07H293.026V127.285H289.542V129.469H293.327V130.684H288.093ZM301.349 122.684V130.684H300.06L296.29 125.234H296.224V130.684H294.774V122.684H296.071L299.837 128.137H299.907V122.684H301.349ZM302.576 123.898V122.684H308.959V123.898H306.486V130.684H305.049V123.898H302.576Z" fill="#585858"/>
<path d="M117.119 75.3804C117.119 65.4813 119.069 55.6791 122.857 46.5335C126.645 37.388 132.198 29.0781 139.198 22.0784C146.197 15.0787 154.507 9.5262 163.653 5.73799C172.798 1.94977 182.6 -1.29811e-06 192.5 0C202.399 1.29811e-06 212.201 1.94977 221.346 5.73799C230.492 9.52621 238.802 15.0787 245.801 22.0784C252.801 29.0781 258.354 37.388 262.142 46.5336C265.93 55.6791 267.88 65.4813 267.88 75.3804L253.05 75.3804C253.05 67.4287 251.484 59.5549 248.441 52.2086C245.398 44.8622 240.938 38.1871 235.315 32.5645C229.693 26.9418 223.018 22.4817 215.671 19.4387C208.325 16.3957 200.451 14.8295 192.5 14.8295C184.548 14.8295 176.674 16.3957 169.328 19.4387C161.981 22.4817 155.306 26.9418 149.684 32.5645C144.061 38.1871 139.601 44.8622 136.558 52.2086C133.515 59.5549 131.949 67.4287 131.949 75.3804H117.119Z" fill="#00CE75"/>
<line x1="191.344" y1="71.137" x2="159.339" y2="32.3938" stroke="url(#paint0_linear_3061_118463)" stroke-width="3"/>
<path d="M135.139 94.3691V89.2129H136.014V94.3691H135.139ZM132.999 92.2285V91.3535H138.155V92.2285H132.999ZM139.655 95.7754V95.0723L142.295 92.1816C142.605 91.8431 142.861 91.5488 143.061 91.2988C143.262 91.0462 143.41 90.8092 143.506 90.5879C143.605 90.3639 143.655 90.1296 143.655 89.8848C143.655 89.6035 143.587 89.36 143.452 89.1543C143.319 88.9486 143.137 88.7897 142.905 88.6777C142.673 88.5658 142.413 88.5098 142.124 88.5098C141.816 88.5098 141.548 88.5736 141.319 88.7012C141.092 88.8262 140.917 89.002 140.792 89.2285C140.669 89.4551 140.608 89.7207 140.608 90.0254H139.686C139.686 89.5566 139.794 89.1452 140.01 88.791C140.226 88.4368 140.521 88.1608 140.893 87.9629C141.268 87.765 141.689 87.666 142.155 87.666C142.624 87.666 143.039 87.765 143.401 87.9629C143.763 88.1608 144.047 88.4277 144.252 88.7637C144.458 89.0996 144.561 89.4733 144.561 89.8848C144.561 90.179 144.508 90.4668 144.401 90.748C144.297 91.0267 144.114 91.3379 143.854 91.6816C143.596 92.0228 143.238 92.4395 142.78 92.9316L140.983 94.8535V94.916H144.702V95.7754H139.655ZM150.393 94.2754V93.8535C150.393 93.5618 150.453 93.2949 150.573 93.0527C150.695 92.8079 150.872 92.6126 151.104 92.4668C151.338 92.3184 151.622 92.2441 151.956 92.2441C152.294 92.2441 152.578 92.3184 152.807 92.4668C153.036 92.6126 153.209 92.8079 153.327 93.0527C153.444 93.2949 153.502 93.5618 153.502 93.8535V94.2754C153.502 94.5671 153.443 94.8353 153.323 95.0801C153.206 95.3223 153.031 95.5176 152.799 95.666C152.57 95.8118 152.289 95.8848 151.956 95.8848C151.617 95.8848 151.332 95.8118 151.1 95.666C150.868 95.5176 150.693 95.3223 150.573 95.0801C150.453 94.8353 150.393 94.5671 150.393 94.2754ZM151.19 93.8535V94.2754C151.19 94.5176 151.247 94.735 151.362 94.9277C151.476 95.1178 151.674 95.2129 151.956 95.2129C152.229 95.2129 152.422 95.1178 152.534 94.9277C152.648 94.735 152.706 94.5176 152.706 94.2754V93.8535C152.706 93.6113 152.651 93.3952 152.542 93.2051C152.432 93.0124 152.237 92.916 151.956 92.916C151.682 92.916 151.486 93.0124 151.366 93.2051C151.249 93.3952 151.19 93.6113 151.19 93.8535ZM146.409 89.6973V89.2754C146.409 88.9837 146.469 88.7168 146.588 88.4746C146.711 88.2298 146.888 88.0345 147.12 87.8887C147.354 87.7402 147.638 87.666 147.971 87.666C148.31 87.666 148.594 87.7402 148.823 87.8887C149.052 88.0345 149.225 88.2298 149.342 88.4746C149.459 88.7168 149.518 88.9837 149.518 89.2754V89.6973C149.518 89.9889 149.458 90.2572 149.338 90.502C149.221 90.7441 149.047 90.9395 148.815 91.0879C148.586 91.2337 148.305 91.3066 147.971 91.3066C147.633 91.3066 147.347 91.2337 147.116 91.0879C146.884 90.9395 146.708 90.7441 146.588 90.502C146.469 90.2572 146.409 89.9889 146.409 89.6973ZM147.206 89.2754V89.6973C147.206 89.9395 147.263 90.1569 147.377 90.3496C147.492 90.5397 147.69 90.6348 147.971 90.6348C148.245 90.6348 148.437 90.5397 148.549 90.3496C148.664 90.1569 148.721 89.9395 148.721 89.6973V89.2754C148.721 89.0332 148.667 88.8171 148.557 88.627C148.448 88.4342 148.252 88.3379 147.971 88.3379C147.698 88.3379 147.501 88.4342 147.381 88.627C147.264 88.8171 147.206 89.0332 147.206 89.2754ZM146.706 95.7754L152.206 87.7754H153.096L147.596 95.7754H146.706ZM163.268 89.7754L161.049 95.7754H160.112L157.893 89.7754H158.893L160.549 94.5566H160.612L162.268 89.7754H163.268ZM168.735 91.1191L167.907 91.3535C167.855 91.2155 167.778 91.0814 167.676 90.9512C167.577 90.8184 167.442 90.709 167.27 90.623C167.098 90.5371 166.878 90.4941 166.61 90.4941C166.243 90.4941 165.937 90.5788 165.692 90.748C165.45 90.9147 165.329 91.127 165.329 91.3848C165.329 91.6139 165.412 91.7949 165.579 91.9277C165.745 92.0605 166.006 92.1712 166.36 92.2598L167.25 92.4785C167.787 92.6087 168.187 92.8079 168.45 93.0762C168.713 93.3418 168.844 93.6842 168.844 94.1035C168.844 94.4473 168.745 94.7546 168.547 95.0254C168.352 95.2962 168.079 95.5098 167.727 95.666C167.375 95.8223 166.967 95.9004 166.5 95.9004C165.889 95.9004 165.382 95.7676 164.981 95.502C164.58 95.2363 164.326 94.8483 164.219 94.3379L165.094 94.1191C165.178 94.4421 165.335 94.6842 165.567 94.8457C165.801 95.0072 166.107 95.0879 166.485 95.0879C166.915 95.0879 167.256 94.9967 167.508 94.8145C167.764 94.6296 167.891 94.4082 167.891 94.1504C167.891 93.9421 167.818 93.7676 167.672 93.627C167.527 93.4837 167.303 93.377 167 93.3066L166 93.0723C165.451 92.9421 165.047 92.7402 164.79 92.4668C164.534 92.1908 164.407 91.8457 164.407 91.4316C164.407 91.0931 164.502 90.7936 164.692 90.5332C164.885 90.2728 165.146 90.0684 165.477 89.9199C165.81 89.7715 166.188 89.6973 166.61 89.6973C167.204 89.6973 167.67 89.8275 168.008 90.0879C168.349 90.3483 168.592 90.6921 168.735 91.1191ZM173.326 98.0254V89.7754H174.216V90.7285H174.326C174.393 90.6243 174.487 90.4915 174.607 90.3301C174.729 90.166 174.904 90.0202 175.13 89.8926C175.36 89.7624 175.669 89.6973 176.06 89.6973C176.565 89.6973 177.011 89.8236 177.396 90.0762C177.781 90.3288 178.082 90.6868 178.298 91.1504C178.514 91.6139 178.623 92.1608 178.623 92.791C178.623 93.4264 178.514 93.9772 178.298 94.4434C178.082 94.9069 177.783 95.2663 177.4 95.5215C177.017 95.7741 176.576 95.9004 176.076 95.9004C175.69 95.9004 175.382 95.8366 175.15 95.709C174.918 95.5788 174.74 95.4316 174.615 95.2676C174.49 95.1009 174.393 94.9629 174.326 94.8535H174.248V98.0254H173.326ZM174.232 92.7754C174.232 93.2285 174.298 93.6283 174.431 93.9746C174.564 94.3184 174.758 94.5879 175.013 94.7832C175.268 94.9759 175.581 95.0723 175.951 95.0723C176.336 95.0723 176.658 94.9707 176.916 94.7676C177.176 94.5618 177.371 94.2858 177.501 93.9395C177.634 93.5905 177.701 93.2025 177.701 92.7754C177.701 92.3535 177.636 91.9733 177.505 91.6348C177.378 91.2936 177.184 91.0241 176.923 90.8262C176.666 90.6257 176.341 90.5254 175.951 90.5254C175.576 90.5254 175.261 90.6204 175.005 90.8105C174.75 90.998 174.557 91.2611 174.427 91.5996C174.297 91.9355 174.232 92.3275 174.232 92.7754ZM180.029 95.7754V89.7754H180.919V90.6816H180.982C181.091 90.3848 181.289 90.1439 181.576 89.959C181.862 89.7741 182.185 89.6816 182.544 89.6816C182.612 89.6816 182.697 89.6829 182.798 89.6855C182.9 89.6882 182.977 89.6921 183.029 89.6973V90.6348C182.998 90.627 182.926 90.6152 182.814 90.5996C182.705 90.5814 182.589 90.5723 182.466 90.5723C182.175 90.5723 181.914 90.6335 181.685 90.7559C181.458 90.8757 181.279 91.0423 181.146 91.2559C181.016 91.4668 180.951 91.7077 180.951 91.9785V95.7754H180.029ZM186.455 95.9004C185.876 95.9004 185.378 95.7728 184.958 95.5176C184.542 95.2598 184.22 94.9004 183.994 94.4395C183.77 93.9759 183.658 93.4368 183.658 92.8223C183.658 92.2077 183.77 91.666 183.994 91.1973C184.22 90.7259 184.535 90.3587 184.939 90.0957C185.345 89.8301 185.819 89.6973 186.361 89.6973C186.673 89.6973 186.982 89.7493 187.287 89.8535C187.591 89.9577 187.869 90.127 188.119 90.3613C188.369 90.5931 188.568 90.9004 188.716 91.2832C188.865 91.666 188.939 92.1374 188.939 92.6973V93.0879H184.314V92.291H188.001C188.001 91.9525 187.934 91.6504 187.798 91.3848C187.666 91.1191 187.475 90.9095 187.228 90.7559C186.983 90.6022 186.694 90.5254 186.361 90.5254C185.994 90.5254 185.676 90.6165 185.408 90.7988C185.142 90.9785 184.938 91.2129 184.794 91.502C184.651 91.791 184.58 92.1009 184.58 92.4316V92.9629C184.58 93.416 184.658 93.8001 184.814 94.1152C184.973 94.4277 185.193 94.666 185.474 94.8301C185.755 94.9915 186.082 95.0723 186.455 95.0723C186.697 95.0723 186.916 95.0384 187.111 94.9707C187.309 94.9004 187.479 94.7962 187.623 94.6582C187.766 94.5176 187.876 94.3431 187.955 94.1348L188.845 94.3848C188.751 94.6868 188.594 94.9525 188.373 95.1816C188.151 95.4082 187.878 95.5853 187.552 95.7129C187.227 95.8379 186.861 95.9004 186.455 95.9004ZM195.065 89.7754L192.846 95.7754H191.909L189.69 89.7754H190.69L192.346 94.5566H192.409L194.065 89.7754H195.065ZM196.282 95.7754V89.7754H197.204V95.7754H196.282ZM196.75 88.7754C196.571 88.7754 196.416 88.7142 196.286 88.5918C196.158 88.4694 196.094 88.3223 196.094 88.1504C196.094 87.9785 196.158 87.8314 196.286 87.709C196.416 87.5866 196.571 87.5254 196.75 87.5254C196.93 87.5254 197.084 87.5866 197.211 87.709C197.342 87.8314 197.407 87.9785 197.407 88.1504C197.407 88.3223 197.342 88.4694 197.211 88.5918C197.084 88.7142 196.93 88.7754 196.75 88.7754ZM201.33 95.9004C200.788 95.9004 200.313 95.7715 199.904 95.5137C199.498 95.2559 199.18 94.8952 198.951 94.4316C198.724 93.9681 198.611 93.4264 198.611 92.8066C198.611 92.1816 198.724 91.6361 198.951 91.1699C199.18 90.7038 199.498 90.3418 199.904 90.084C200.313 89.8262 200.788 89.6973 201.33 89.6973C201.871 89.6973 202.345 89.8262 202.751 90.084C203.16 90.3418 203.478 90.7038 203.705 91.1699C203.934 91.6361 204.048 92.1816 204.048 92.8066C204.048 93.4264 203.934 93.9681 203.705 94.4316C203.478 94.8952 203.16 95.2559 202.751 95.5137C202.345 95.7715 201.871 95.9004 201.33 95.9004ZM201.33 95.0723C201.741 95.0723 202.08 94.9668 202.345 94.7559C202.611 94.5449 202.807 94.2676 202.935 93.9238C203.063 93.5801 203.126 93.2077 203.126 92.8066C203.126 92.4056 203.063 92.0319 202.935 91.6855C202.807 91.3392 202.611 91.0592 202.345 90.8457C202.08 90.6322 201.741 90.5254 201.33 90.5254C200.918 90.5254 200.58 90.6322 200.314 90.8457C200.048 91.0592 199.852 91.3392 199.724 91.6855C199.597 92.0319 199.533 92.4056 199.533 92.8066C199.533 93.2077 199.597 93.5801 199.724 93.9238C199.852 94.2676 200.048 94.5449 200.314 94.7559C200.58 94.9668 200.918 95.0723 201.33 95.0723ZM209.237 93.3223V89.7754H210.159V95.7754H209.237V94.7598H209.174C209.034 95.0645 208.815 95.3236 208.518 95.5371C208.221 95.748 207.846 95.8535 207.393 95.8535C207.018 95.8535 206.685 95.7715 206.393 95.6074C206.101 95.4408 205.872 95.1908 205.706 94.8574C205.539 94.5215 205.456 94.0983 205.456 93.5879V89.7754H206.377V93.5254C206.377 93.9629 206.5 94.3118 206.745 94.5723C206.992 94.8327 207.307 94.9629 207.69 94.9629C207.919 94.9629 208.152 94.9043 208.389 94.7871C208.629 94.6699 208.829 94.4902 208.991 94.248C209.155 94.0059 209.237 93.6973 209.237 93.3223ZM216.097 91.1191L215.269 91.3535C215.217 91.2155 215.14 91.0814 215.039 90.9512C214.94 90.8184 214.804 90.709 214.632 90.623C214.46 90.5371 214.24 90.4941 213.972 90.4941C213.605 90.4941 213.299 90.5788 213.054 90.748C212.812 90.9147 212.691 91.127 212.691 91.3848C212.691 91.6139 212.774 91.7949 212.941 91.9277C213.108 92.0605 213.368 92.1712 213.722 92.2598L214.613 92.4785C215.149 92.6087 215.549 92.8079 215.812 93.0762C216.075 93.3418 216.207 93.6842 216.207 94.1035C216.207 94.4473 216.108 94.7546 215.91 95.0254C215.714 95.2962 215.441 95.5098 215.089 95.666C214.738 95.8223 214.329 95.9004 213.863 95.9004C213.251 95.9004 212.744 95.7676 212.343 95.502C211.942 95.2363 211.688 94.8483 211.582 94.3379L212.457 94.1191C212.54 94.4421 212.697 94.6842 212.929 94.8457C213.164 95.0072 213.47 95.0879 213.847 95.0879C214.277 95.0879 214.618 94.9967 214.871 94.8145C215.126 94.6296 215.253 94.4082 215.253 94.1504C215.253 93.9421 215.181 93.7676 215.035 93.627C214.889 93.4837 214.665 93.377 214.363 93.3066L213.363 93.0723C212.813 92.9421 212.41 92.7402 212.152 92.4668C211.897 92.1908 211.769 91.8457 211.769 91.4316C211.769 91.0931 211.864 90.7936 212.054 90.5332C212.247 90.2728 212.509 90.0684 212.839 89.9199C213.173 89.7715 213.55 89.6973 213.972 89.6973C214.566 89.6973 215.032 89.8275 215.371 90.0879C215.712 90.3483 215.954 90.6921 216.097 91.1191ZM220.688 98.0254V89.7754H221.579V90.7285H221.688C221.756 90.6243 221.849 90.4915 221.969 90.3301C222.092 90.166 222.266 90.0202 222.493 89.8926C222.722 89.7624 223.032 89.6973 223.422 89.6973C223.928 89.6973 224.373 89.8236 224.758 90.0762C225.144 90.3288 225.444 90.6868 225.661 91.1504C225.877 91.6139 225.985 92.1608 225.985 92.791C225.985 93.4264 225.877 93.9772 225.661 94.4434C225.444 94.9069 225.145 95.2663 224.762 95.5215C224.379 95.7741 223.938 95.9004 223.438 95.9004C223.053 95.9004 222.744 95.8366 222.512 95.709C222.28 95.5788 222.102 95.4316 221.977 95.2676C221.852 95.1009 221.756 94.9629 221.688 94.8535H221.61V98.0254H220.688ZM221.594 92.7754C221.594 93.2285 221.661 93.6283 221.793 93.9746C221.926 94.3184 222.12 94.5879 222.375 94.7832C222.631 94.9759 222.943 95.0723 223.313 95.0723C223.698 95.0723 224.02 94.9707 224.278 94.7676C224.538 94.5618 224.734 94.2858 224.864 93.9395C224.997 93.5905 225.063 93.2025 225.063 92.7754C225.063 92.3535 224.998 91.9733 224.868 91.6348C224.74 91.2936 224.546 91.0241 224.286 90.8262C224.028 90.6257 223.704 90.5254 223.313 90.5254C222.938 90.5254 222.623 90.6204 222.368 90.8105C222.112 90.998 221.92 91.2611 221.79 91.5996C221.659 91.9355 221.594 92.3275 221.594 92.7754ZM229.907 95.9004C229.329 95.9004 228.83 95.7728 228.411 95.5176C227.994 95.2598 227.672 94.9004 227.446 94.4395C227.222 93.9759 227.11 93.4368 227.11 92.8223C227.11 92.2077 227.222 91.666 227.446 91.1973C227.672 90.7259 227.987 90.3587 228.391 90.0957C228.797 89.8301 229.271 89.6973 229.813 89.6973C230.125 89.6973 230.434 89.7493 230.739 89.8535C231.043 89.9577 231.321 90.127 231.571 90.3613C231.821 90.5931 232.02 90.9004 232.168 91.2832C232.317 91.666 232.391 92.1374 232.391 92.6973V93.0879H227.766V92.291H231.454C231.454 91.9525 231.386 91.6504 231.25 91.3848C231.118 91.1191 230.928 90.9095 230.68 90.7559C230.435 90.6022 230.146 90.5254 229.813 90.5254C229.446 90.5254 229.128 90.6165 228.86 90.7988C228.594 90.9785 228.39 91.2129 228.247 91.502C228.103 91.791 228.032 92.1009 228.032 92.4316V92.9629C228.032 93.416 228.11 93.8001 228.266 94.1152C228.425 94.4277 228.645 94.666 228.926 94.8301C229.208 94.9915 229.534 95.0723 229.907 95.0723C230.149 95.0723 230.368 95.0384 230.563 94.9707C230.761 94.9004 230.931 94.7962 231.075 94.6582C231.218 94.5176 231.329 94.3431 231.407 94.1348L232.297 94.3848C232.204 94.6868 232.046 94.9525 231.825 95.1816C231.603 95.4082 231.33 95.5853 231.004 95.7129C230.679 95.8379 230.313 95.9004 229.907 95.9004ZM233.793 95.7754V89.7754H234.684V90.6816H234.747C234.856 90.3848 235.054 90.1439 235.34 89.959C235.627 89.7741 235.95 89.6816 236.309 89.6816C236.377 89.6816 236.461 89.6829 236.563 89.6855C236.665 89.6882 236.741 89.6921 236.793 89.6973V90.6348C236.762 90.627 236.691 90.6152 236.579 90.5996C236.469 90.5814 236.353 90.5723 236.231 90.5723C235.939 90.5723 235.679 90.6335 235.45 90.7559C235.223 90.8757 235.043 91.0423 234.911 91.2559C234.78 91.4668 234.715 91.7077 234.715 91.9785V95.7754H233.793ZM237.886 95.7754V89.7754H238.808V95.7754H237.886ZM238.355 88.7754C238.175 88.7754 238.02 88.7142 237.89 88.5918C237.763 88.4694 237.699 88.3223 237.699 88.1504C237.699 87.9785 237.763 87.8314 237.89 87.709C238.02 87.5866 238.175 87.5254 238.355 87.5254C238.535 87.5254 238.688 87.5866 238.816 87.709C238.946 87.8314 239.011 87.9785 239.011 88.1504C239.011 88.3223 238.946 88.4694 238.816 88.5918C238.688 88.7142 238.535 88.7754 238.355 88.7754ZM242.934 95.9004C242.392 95.9004 241.917 95.7715 241.508 95.5137C241.102 95.2559 240.784 94.8952 240.555 94.4316C240.329 93.9681 240.215 93.4264 240.215 92.8066C240.215 92.1816 240.329 91.6361 240.555 91.1699C240.784 90.7038 241.102 90.3418 241.508 90.084C241.917 89.8262 242.392 89.6973 242.934 89.6973C243.476 89.6973 243.95 89.8262 244.356 90.084C244.765 90.3418 245.083 90.7038 245.309 91.1699C245.538 91.6361 245.653 92.1816 245.653 92.8066C245.653 93.4264 245.538 93.9681 245.309 94.4316C245.083 94.8952 244.765 95.2559 244.356 95.5137C243.95 95.7715 243.476 95.9004 242.934 95.9004ZM242.934 95.0723C243.346 95.0723 243.684 94.9668 243.95 94.7559C244.215 94.5449 244.412 94.2676 244.54 93.9238C244.667 93.5801 244.731 93.2077 244.731 92.8066C244.731 92.4056 244.667 92.0319 244.54 91.6855C244.412 91.3392 244.215 91.0592 243.95 90.8457C243.684 90.6322 243.346 90.5254 242.934 90.5254C242.523 90.5254 242.184 90.6322 241.918 90.8457C241.653 91.0592 241.456 91.3392 241.329 91.6855C241.201 92.0319 241.137 92.4056 241.137 92.8066C241.137 93.2077 241.201 93.5801 241.329 93.9238C241.456 94.2676 241.653 94.5449 241.918 94.7559C242.184 94.9668 242.523 95.0723 242.934 95.0723ZM249.326 95.9004C248.826 95.9004 248.384 95.7741 248.001 95.5215C247.619 95.2663 247.319 94.9069 247.103 94.4434C246.887 93.9772 246.779 93.4264 246.779 92.791C246.779 92.1608 246.887 91.6139 247.103 91.1504C247.319 90.6868 247.62 90.3288 248.005 90.0762C248.391 89.8236 248.836 89.6973 249.341 89.6973C249.732 89.6973 250.041 89.7624 250.267 89.8926C250.496 90.0202 250.671 90.166 250.791 90.3301C250.913 90.4915 251.008 90.6243 251.076 90.7285H251.154V87.7754H252.076V95.7754H251.185V94.8535H251.076C251.008 94.9629 250.912 95.1009 250.787 95.2676C250.662 95.4316 250.483 95.5788 250.251 95.709C250.02 95.8366 249.711 95.9004 249.326 95.9004ZM249.451 95.0723C249.82 95.0723 250.133 94.9759 250.388 94.7832C250.643 94.5879 250.837 94.3184 250.97 93.9746C251.103 93.6283 251.169 93.2285 251.169 92.7754C251.169 92.3275 251.104 91.9355 250.974 91.5996C250.844 91.2611 250.651 90.998 250.396 90.8105C250.141 90.6204 249.826 90.5254 249.451 90.5254C249.06 90.5254 248.735 90.6257 248.474 90.8262C248.216 91.0241 248.022 91.2936 247.892 91.6348C247.764 91.9733 247.701 92.3535 247.701 92.7754C247.701 93.2025 247.766 93.5905 247.896 93.9395C248.029 94.2858 248.224 94.5618 248.482 94.7676C248.742 94.9707 249.065 95.0723 249.451 95.0723Z" fill="black"/>
<path d="M109.044 103.635V102.775H115.044V103.635H112.528V110.775H111.56V103.635H109.044ZM117.981 110.9C117.44 110.9 116.965 110.771 116.556 110.514C116.149 110.256 115.832 109.895 115.603 109.432C115.376 108.968 115.263 108.426 115.263 107.807C115.263 107.182 115.376 106.636 115.603 106.17C115.832 105.704 116.149 105.342 116.556 105.084C116.965 104.826 117.44 104.697 117.981 104.697C118.523 104.697 118.997 104.826 119.403 105.084C119.812 105.342 120.13 105.704 120.356 106.17C120.586 106.636 120.7 107.182 120.7 107.807C120.7 108.426 120.586 108.968 120.356 109.432C120.13 109.895 119.812 110.256 119.403 110.514C118.997 110.771 118.523 110.9 117.981 110.9ZM117.981 110.072C118.393 110.072 118.731 109.967 118.997 109.756C119.263 109.545 119.459 109.268 119.587 108.924C119.715 108.58 119.778 108.208 119.778 107.807C119.778 107.406 119.715 107.032 119.587 106.686C119.459 106.339 119.263 106.059 118.997 105.846C118.731 105.632 118.393 105.525 117.981 105.525C117.57 105.525 117.231 105.632 116.966 105.846C116.7 106.059 116.504 106.339 116.376 106.686C116.248 107.032 116.185 107.406 116.185 107.807C116.185 108.208 116.248 108.58 116.376 108.924C116.504 109.268 116.7 109.545 116.966 109.756C117.231 109.967 117.57 110.072 117.981 110.072ZM124.717 104.775V105.557H121.607V104.775H124.717ZM122.514 103.338H123.436V109.057C123.436 109.317 123.473 109.512 123.549 109.643C123.627 109.77 123.726 109.856 123.846 109.9C123.968 109.942 124.097 109.963 124.232 109.963C124.334 109.963 124.417 109.958 124.482 109.947C124.548 109.934 124.6 109.924 124.639 109.916L124.826 110.744C124.764 110.768 124.676 110.791 124.564 110.814C124.452 110.84 124.311 110.854 124.139 110.854C123.878 110.854 123.623 110.798 123.373 110.686C123.126 110.574 122.92 110.403 122.756 110.174C122.594 109.945 122.514 109.656 122.514 109.307V103.338ZM127.869 110.916C127.489 110.916 127.144 110.844 126.834 110.701C126.524 110.555 126.278 110.346 126.096 110.072C125.913 109.796 125.822 109.463 125.822 109.072C125.822 108.729 125.89 108.45 126.025 108.236C126.161 108.02 126.342 107.851 126.568 107.729C126.795 107.606 127.045 107.515 127.318 107.455C127.594 107.393 127.872 107.343 128.15 107.307C128.515 107.26 128.811 107.225 129.037 107.201C129.266 107.175 129.433 107.132 129.537 107.072C129.644 107.012 129.697 106.908 129.697 106.76V106.729C129.697 106.343 129.592 106.044 129.381 105.83C129.173 105.617 128.856 105.51 128.432 105.51C127.992 105.51 127.646 105.606 127.396 105.799C127.146 105.992 126.971 106.197 126.869 106.416L125.994 106.104C126.15 105.739 126.359 105.455 126.619 105.252C126.882 105.046 127.169 104.903 127.479 104.822C127.791 104.739 128.098 104.697 128.4 104.697C128.593 104.697 128.814 104.721 129.064 104.768C129.317 104.812 129.561 104.904 129.795 105.045C130.032 105.186 130.229 105.398 130.385 105.682C130.541 105.965 130.619 106.346 130.619 106.822V110.775H129.697V109.963H129.65C129.588 110.093 129.484 110.232 129.338 110.381C129.192 110.529 128.998 110.656 128.756 110.76C128.514 110.864 128.218 110.916 127.869 110.916ZM128.01 110.088C128.374 110.088 128.682 110.016 128.932 109.873C129.184 109.73 129.374 109.545 129.502 109.318C129.632 109.092 129.697 108.854 129.697 108.604V107.76C129.658 107.807 129.572 107.85 129.439 107.889C129.309 107.925 129.158 107.958 128.986 107.986C128.817 108.012 128.652 108.036 128.49 108.057C128.331 108.075 128.202 108.09 128.104 108.104C127.864 108.135 127.64 108.186 127.432 108.256C127.226 108.324 127.059 108.426 126.932 108.564C126.807 108.7 126.744 108.885 126.744 109.119C126.744 109.439 126.863 109.682 127.1 109.846C127.339 110.007 127.643 110.088 128.01 110.088ZM133.224 102.775V110.775H132.302V102.775H133.224ZM138.006 110.775V104.775H138.928V110.775H138.006ZM138.475 103.775C138.295 103.775 138.14 103.714 138.01 103.592C137.882 103.469 137.818 103.322 137.818 103.15C137.818 102.979 137.882 102.831 138.01 102.709C138.14 102.587 138.295 102.525 138.475 102.525C138.654 102.525 138.808 102.587 138.936 102.709C139.066 102.831 139.131 102.979 139.131 103.15C139.131 103.322 139.066 103.469 138.936 103.592C138.808 103.714 138.654 103.775 138.475 103.775ZM140.616 110.775V104.775H141.507V105.713H141.585C141.71 105.393 141.912 105.144 142.19 104.967C142.469 104.787 142.804 104.697 143.194 104.697C143.59 104.697 143.92 104.787 144.183 104.967C144.448 105.144 144.655 105.393 144.804 105.713H144.866C145.02 105.403 145.25 105.157 145.558 104.975C145.865 104.79 146.233 104.697 146.663 104.697C147.2 104.697 147.638 104.865 147.979 105.201C148.321 105.535 148.491 106.054 148.491 106.76V110.775H147.569V106.76C147.569 106.317 147.448 106.001 147.206 105.811C146.964 105.62 146.679 105.525 146.351 105.525C145.929 105.525 145.602 105.653 145.37 105.908C145.138 106.161 145.022 106.481 145.022 106.869V110.775H144.085V106.666C144.085 106.325 143.974 106.05 143.753 105.842C143.532 105.631 143.246 105.525 142.897 105.525C142.658 105.525 142.434 105.589 142.226 105.717C142.02 105.844 141.853 106.021 141.726 106.248C141.601 106.472 141.538 106.731 141.538 107.025V110.775H140.616ZM150.177 113.025V104.775H151.067V105.729H151.177C151.244 105.624 151.338 105.492 151.458 105.33C151.58 105.166 151.755 105.02 151.981 104.893C152.211 104.762 152.521 104.697 152.911 104.697C153.416 104.697 153.862 104.824 154.247 105.076C154.632 105.329 154.933 105.687 155.149 106.15C155.366 106.614 155.474 107.161 155.474 107.791C155.474 108.426 155.366 108.977 155.149 109.443C154.933 109.907 154.634 110.266 154.251 110.521C153.868 110.774 153.427 110.9 152.927 110.9C152.541 110.9 152.233 110.837 152.001 110.709C151.769 110.579 151.591 110.432 151.466 110.268C151.341 110.101 151.244 109.963 151.177 109.854H151.099V113.025H150.177ZM151.083 107.775C151.083 108.229 151.149 108.628 151.282 108.975C151.415 109.318 151.609 109.588 151.864 109.783C152.119 109.976 152.432 110.072 152.802 110.072C153.187 110.072 153.509 109.971 153.767 109.768C154.027 109.562 154.222 109.286 154.353 108.939C154.485 108.59 154.552 108.202 154.552 107.775C154.552 107.354 154.487 106.973 154.356 106.635C154.229 106.294 154.035 106.024 153.774 105.826C153.517 105.626 153.192 105.525 152.802 105.525C152.427 105.525 152.112 105.62 151.856 105.811C151.601 105.998 151.409 106.261 151.278 106.6C151.148 106.936 151.083 107.327 151.083 107.775ZM158.646 110.916C158.265 110.916 157.92 110.844 157.61 110.701C157.3 110.555 157.054 110.346 156.872 110.072C156.69 109.796 156.599 109.463 156.599 109.072C156.599 108.729 156.666 108.45 156.802 108.236C156.937 108.02 157.118 107.851 157.345 107.729C157.571 107.606 157.821 107.515 158.095 107.455C158.371 107.393 158.648 107.343 158.927 107.307C159.291 107.26 159.587 107.225 159.813 107.201C160.043 107.175 160.209 107.132 160.313 107.072C160.42 107.012 160.474 106.908 160.474 106.76V106.729C160.474 106.343 160.368 106.044 160.157 105.83C159.949 105.617 159.632 105.51 159.208 105.51C158.768 105.51 158.423 105.606 158.173 105.799C157.923 105.992 157.747 106.197 157.646 106.416L156.771 106.104C156.927 105.739 157.135 105.455 157.396 105.252C157.659 105.046 157.945 104.903 158.255 104.822C158.567 104.739 158.875 104.697 159.177 104.697C159.369 104.697 159.591 104.721 159.841 104.768C160.093 104.812 160.337 104.904 160.571 105.045C160.808 105.186 161.005 105.398 161.161 105.682C161.317 105.965 161.396 106.346 161.396 106.822V110.775H160.474V109.963H160.427C160.364 110.093 160.26 110.232 160.114 110.381C159.968 110.529 159.774 110.656 159.532 110.76C159.29 110.864 158.994 110.916 158.646 110.916ZM158.786 110.088C159.151 110.088 159.458 110.016 159.708 109.873C159.961 109.73 160.151 109.545 160.278 109.318C160.409 109.092 160.474 108.854 160.474 108.604V107.76C160.435 107.807 160.349 107.85 160.216 107.889C160.086 107.925 159.935 107.958 159.763 107.986C159.593 108.012 159.428 108.036 159.267 108.057C159.108 108.075 158.979 108.09 158.88 108.104C158.64 108.135 158.416 108.186 158.208 108.256C158.002 108.324 157.836 108.426 157.708 108.564C157.583 108.7 157.521 108.885 157.521 109.119C157.521 109.439 157.639 109.682 157.876 109.846C158.116 110.007 158.419 110.088 158.786 110.088ZM165.516 110.9C164.953 110.9 164.469 110.768 164.063 110.502C163.656 110.236 163.344 109.87 163.125 109.404C162.906 108.938 162.797 108.406 162.797 107.807C162.797 107.197 162.909 106.66 163.133 106.193C163.359 105.725 163.674 105.359 164.078 105.096C164.484 104.83 164.958 104.697 165.5 104.697C165.922 104.697 166.302 104.775 166.641 104.932C166.979 105.088 167.257 105.307 167.473 105.588C167.689 105.869 167.823 106.197 167.875 106.572H166.953C166.883 106.299 166.727 106.057 166.484 105.846C166.245 105.632 165.922 105.525 165.516 105.525C165.156 105.525 164.841 105.619 164.57 105.807C164.302 105.992 164.092 106.253 163.941 106.592C163.793 106.928 163.719 107.322 163.719 107.775C163.719 108.239 163.792 108.643 163.938 108.986C164.086 109.33 164.294 109.597 164.563 109.787C164.833 109.977 165.151 110.072 165.516 110.072C165.755 110.072 165.973 110.031 166.168 109.947C166.363 109.864 166.529 109.744 166.664 109.588C166.799 109.432 166.896 109.244 166.953 109.025H167.875C167.823 109.38 167.694 109.699 167.488 109.982C167.285 110.264 167.016 110.488 166.68 110.654C166.346 110.818 165.958 110.9 165.516 110.9ZM171.832 104.775V105.557H168.723V104.775H171.832ZM169.629 103.338H170.551V109.057C170.551 109.317 170.589 109.512 170.664 109.643C170.742 109.77 170.841 109.856 170.961 109.9C171.083 109.942 171.212 109.963 171.348 109.963C171.449 109.963 171.533 109.958 171.598 109.947C171.663 109.934 171.715 109.924 171.754 109.916L171.941 110.744C171.879 110.768 171.792 110.791 171.68 110.814C171.568 110.84 171.426 110.854 171.254 110.854C170.993 110.854 170.738 110.798 170.488 110.686C170.241 110.574 170.035 110.403 169.871 110.174C169.71 109.945 169.629 109.656 169.629 109.307V103.338ZM178.984 104.775V105.557H175.75V104.775H178.984ZM176.719 110.775V103.947C176.719 103.604 176.799 103.317 176.961 103.088C177.122 102.859 177.332 102.687 177.59 102.572C177.848 102.458 178.12 102.4 178.406 102.4C178.633 102.4 178.818 102.419 178.961 102.455C179.104 102.492 179.211 102.525 179.281 102.557L179.016 103.354C178.969 103.338 178.904 103.318 178.82 103.295C178.74 103.271 178.633 103.26 178.5 103.26C178.195 103.26 177.975 103.337 177.84 103.49C177.707 103.644 177.641 103.869 177.641 104.166V110.775H176.719ZM182.467 110.9C181.925 110.9 181.45 110.771 181.041 110.514C180.635 110.256 180.317 109.895 180.088 109.432C179.861 108.968 179.748 108.426 179.748 107.807C179.748 107.182 179.861 106.636 180.088 106.17C180.317 105.704 180.635 105.342 181.041 105.084C181.45 104.826 181.925 104.697 182.467 104.697C183.008 104.697 183.482 104.826 183.889 105.084C184.298 105.342 184.615 105.704 184.842 106.17C185.071 106.636 185.186 107.182 185.186 107.807C185.186 108.426 185.071 108.968 184.842 109.432C184.615 109.895 184.298 110.256 183.889 110.514C183.482 110.771 183.008 110.9 182.467 110.9ZM182.467 110.072C182.878 110.072 183.217 109.967 183.482 109.756C183.748 109.545 183.945 109.268 184.072 108.924C184.2 108.58 184.264 108.208 184.264 107.807C184.264 107.406 184.2 107.032 184.072 106.686C183.945 106.339 183.748 106.059 183.482 105.846C183.217 105.632 182.878 105.525 182.467 105.525C182.055 105.525 181.717 105.632 181.451 105.846C181.186 106.059 180.989 106.339 180.861 106.686C180.734 107.032 180.67 107.406 180.67 107.807C180.67 108.208 180.734 108.58 180.861 108.924C180.989 109.268 181.186 109.545 181.451 109.756C181.717 109.967 182.055 110.072 182.467 110.072ZM186.593 110.775V104.775H187.483V105.682H187.546C187.655 105.385 187.853 105.144 188.14 104.959C188.426 104.774 188.749 104.682 189.108 104.682C189.176 104.682 189.261 104.683 189.362 104.686C189.464 104.688 189.541 104.692 189.593 104.697V105.635C189.562 105.627 189.49 105.615 189.378 105.6C189.269 105.581 189.153 105.572 189.03 105.572C188.739 105.572 188.478 105.633 188.249 105.756C188.022 105.876 187.843 106.042 187.71 106.256C187.58 106.467 187.515 106.708 187.515 106.979V110.775H186.593ZM196.967 102.775H197.936V108.494C197.936 109.005 197.842 109.438 197.654 109.795C197.467 110.152 197.202 110.423 196.861 110.607C196.52 110.792 196.118 110.885 195.654 110.885C195.217 110.885 194.827 110.805 194.486 110.646C194.145 110.485 193.877 110.256 193.682 109.959C193.486 109.662 193.389 109.309 193.389 108.9H194.342C194.342 109.127 194.398 109.325 194.51 109.494C194.624 109.661 194.781 109.791 194.979 109.885C195.176 109.979 195.402 110.025 195.654 110.025C195.933 110.025 196.17 109.967 196.365 109.85C196.561 109.732 196.709 109.561 196.811 109.334C196.915 109.105 196.967 108.825 196.967 108.494V102.775ZM200.205 110.775H199.189L202.127 102.775H203.127L206.064 110.775H205.049L202.658 104.041H202.596L200.205 110.775ZM200.58 107.65H204.674V108.51H200.58V107.65ZM213.654 102.775V110.775H212.717L208.357 104.494H208.279V110.775H207.311V102.775H208.248L212.623 109.072H212.701V102.775H213.654ZM221.999 106.346V107.205H218.499V106.346H221.999ZM231.215 104.775C231.168 104.38 230.978 104.072 230.645 103.854C230.311 103.635 229.902 103.525 229.418 103.525C229.064 103.525 228.754 103.583 228.488 103.697C228.225 103.812 228.02 103.969 227.871 104.17C227.725 104.37 227.652 104.598 227.652 104.854C227.652 105.067 227.703 105.251 227.805 105.404C227.909 105.555 228.042 105.682 228.203 105.783C228.365 105.882 228.534 105.964 228.711 106.029C228.888 106.092 229.051 106.143 229.199 106.182L230.012 106.4C230.22 106.455 230.452 106.531 230.707 106.627C230.965 106.723 231.211 106.855 231.445 107.021C231.682 107.186 231.878 107.396 232.031 107.654C232.185 107.912 232.262 108.229 232.262 108.604C232.262 109.036 232.148 109.426 231.922 109.775C231.698 110.124 231.37 110.402 230.938 110.607C230.508 110.813 229.986 110.916 229.371 110.916C228.798 110.916 228.302 110.824 227.883 110.639C227.466 110.454 227.138 110.196 226.898 109.865C226.661 109.535 226.527 109.15 226.496 108.713H227.496C227.522 109.015 227.624 109.265 227.801 109.463C227.98 109.658 228.207 109.804 228.48 109.9C228.757 109.994 229.053 110.041 229.371 110.041C229.741 110.041 230.073 109.981 230.367 109.861C230.661 109.739 230.895 109.57 231.066 109.354C231.238 109.135 231.324 108.88 231.324 108.588C231.324 108.322 231.25 108.106 231.102 107.939C230.953 107.773 230.758 107.637 230.516 107.533C230.273 107.429 230.012 107.338 229.73 107.26L228.746 106.979C228.121 106.799 227.626 106.542 227.262 106.209C226.897 105.876 226.715 105.439 226.715 104.9C226.715 104.452 226.836 104.062 227.078 103.729C227.323 103.393 227.651 103.132 228.062 102.947C228.477 102.76 228.939 102.666 229.449 102.666C229.965 102.666 230.423 102.758 230.824 102.943C231.225 103.126 231.543 103.376 231.777 103.693C232.014 104.011 232.139 104.372 232.152 104.775H231.215ZM233.854 110.775V102.775H238.683V103.635H234.823V106.338H238.433V107.197H234.823V109.916H238.745V110.775H233.854ZM240.429 110.775V102.775H243.132C243.759 102.775 244.272 102.889 244.671 103.115C245.072 103.339 245.369 103.643 245.562 104.025C245.754 104.408 245.851 104.835 245.851 105.307C245.851 105.778 245.754 106.206 245.562 106.592C245.371 106.977 245.077 107.285 244.679 107.514C244.28 107.74 243.77 107.854 243.147 107.854H241.21V106.994H243.116C243.546 106.994 243.891 106.92 244.151 106.771C244.412 106.623 244.601 106.423 244.718 106.17C244.838 105.915 244.897 105.627 244.897 105.307C244.897 104.986 244.838 104.7 244.718 104.447C244.601 104.195 244.41 103.997 244.147 103.854C243.884 103.708 243.535 103.635 243.101 103.635H241.397V110.775H240.429ZM248.221 109.682L248.158 110.104C248.114 110.4 248.046 110.718 247.955 111.057C247.867 111.395 247.774 111.714 247.678 112.014C247.581 112.313 247.502 112.551 247.439 112.729H246.736C246.77 112.562 246.814 112.342 246.869 112.068C246.924 111.795 246.979 111.489 247.033 111.15C247.09 110.814 247.137 110.471 247.174 110.119L247.221 109.682H248.221ZM253.007 110.775V110.072L255.647 107.182C255.957 106.843 256.213 106.549 256.413 106.299C256.614 106.046 256.762 105.809 256.858 105.588C256.957 105.364 257.007 105.13 257.007 104.885C257.007 104.604 256.939 104.36 256.804 104.154C256.671 103.949 256.489 103.79 256.257 103.678C256.025 103.566 255.765 103.51 255.476 103.51C255.168 103.51 254.9 103.574 254.671 103.701C254.444 103.826 254.269 104.002 254.144 104.229C254.021 104.455 253.96 104.721 253.96 105.025H253.038C253.038 104.557 253.146 104.145 253.362 103.791C253.578 103.437 253.873 103.161 254.245 102.963C254.62 102.765 255.041 102.666 255.507 102.666C255.976 102.666 256.391 102.765 256.753 102.963C257.115 103.161 257.399 103.428 257.604 103.764C257.81 104.1 257.913 104.473 257.913 104.885C257.913 105.179 257.86 105.467 257.753 105.748C257.649 106.027 257.466 106.338 257.206 106.682C256.948 107.023 256.59 107.439 256.132 107.932L254.335 109.854V109.916H258.054V110.775H253.007ZM262.276 110.885C261.688 110.885 261.187 110.725 260.772 110.404C260.358 110.081 260.042 109.614 259.823 109.002C259.604 108.387 259.495 107.645 259.495 106.775C259.495 105.911 259.604 105.173 259.823 104.561C260.045 103.946 260.362 103.477 260.776 103.154C261.193 102.829 261.693 102.666 262.276 102.666C262.86 102.666 263.358 102.829 263.772 103.154C264.189 103.477 264.507 103.946 264.726 104.561C264.947 105.173 265.058 105.911 265.058 106.775C265.058 107.645 264.948 108.387 264.729 109.002C264.511 109.614 264.194 110.081 263.78 110.404C263.366 110.725 262.865 110.885 262.276 110.885ZM262.276 110.025C262.86 110.025 263.313 109.744 263.636 109.182C263.959 108.619 264.12 107.817 264.12 106.775C264.12 106.083 264.046 105.493 263.897 105.006C263.752 104.519 263.541 104.148 263.265 103.893C262.991 103.637 262.662 103.51 262.276 103.51C261.698 103.51 261.246 103.795 260.921 104.365C260.595 104.933 260.433 105.736 260.433 106.775C260.433 107.468 260.506 108.057 260.651 108.541C260.797 109.025 261.007 109.394 261.28 109.646C261.556 109.899 261.888 110.025 262.276 110.025ZM266.542 110.775V110.072L269.183 107.182C269.493 106.843 269.748 106.549 269.948 106.299C270.149 106.046 270.297 105.809 270.394 105.588C270.493 105.364 270.542 105.13 270.542 104.885C270.542 104.604 270.474 104.36 270.339 104.154C270.206 103.949 270.024 103.79 269.792 103.678C269.56 103.566 269.3 103.51 269.011 103.51C268.703 103.51 268.435 103.574 268.206 103.701C267.979 103.826 267.804 104.002 267.679 104.229C267.556 104.455 267.495 104.721 267.495 105.025H266.573C266.573 104.557 266.681 104.145 266.897 103.791C267.114 103.437 267.408 103.161 267.78 102.963C268.155 102.765 268.576 102.666 269.042 102.666C269.511 102.666 269.926 102.765 270.288 102.963C270.65 103.161 270.934 103.428 271.14 103.764C271.345 104.1 271.448 104.473 271.448 104.885C271.448 105.179 271.395 105.467 271.288 105.748C271.184 106.027 271.002 106.338 270.741 106.682C270.483 107.023 270.125 107.439 269.667 107.932L267.87 109.854V109.916H271.589V110.775H266.542ZM276.015 102.775V110.775H275.046V103.791H274.999L273.046 105.088V104.104L275.046 102.775H276.015Z" fill="#585858"/>
<path d="M180.003 75.5797C178.942 75.5797 177.997 75.3974 177.169 75.0328C176.345 74.6635 175.694 74.1569 175.216 73.513C174.742 72.8643 174.498 72.1162 174.484 71.2686H177.581C177.6 71.6238 177.716 71.9363 177.929 72.2061C178.147 72.4713 178.435 72.6773 178.795 72.824C179.155 72.9708 179.56 73.0442 180.01 73.0442C180.479 73.0442 180.893 72.9614 181.253 72.7956C181.613 72.6299 181.894 72.4003 182.098 72.1067C182.301 71.8132 182.403 71.4746 182.403 71.0911C182.403 70.7028 182.294 70.3596 182.077 70.0613C181.863 69.7582 181.556 69.5215 181.153 69.351C180.756 69.1806 180.282 69.0953 179.733 69.0953H178.376V66.8368H179.733C180.197 66.8368 180.606 66.7563 180.961 66.5953C181.321 66.4344 181.601 66.2118 181.8 65.9277C181.998 65.6389 182.098 65.3027 182.098 64.9192C182.098 64.5546 182.01 64.235 181.835 63.9604C181.665 63.681 181.423 63.4632 181.111 63.307C180.803 63.1507 180.443 63.0726 180.031 63.0726C179.614 63.0726 179.233 63.1484 178.888 63.2999C178.542 63.4467 178.265 63.6574 178.057 63.932C177.848 64.2066 177.737 64.5286 177.723 64.8979H174.775C174.79 64.0598 175.029 63.3212 175.493 62.682C175.957 62.0428 176.582 61.5433 177.368 61.1834C178.158 60.8188 179.051 60.6365 180.045 60.6365C181.049 60.6365 181.927 60.8188 182.68 61.1834C183.433 61.548 184.018 62.0404 184.434 62.6607C184.856 63.2762 185.064 63.9675 185.059 64.7346C185.064 65.5489 184.811 66.2284 184.3 66.7729C183.793 67.3174 183.132 67.6631 182.318 67.8098V67.9235C183.388 68.0608 184.202 68.4325 184.761 69.0385C185.325 69.6399 185.604 70.3927 185.599 71.2971C185.604 72.1257 185.365 72.8619 184.882 73.5059C184.404 74.1498 183.743 74.6564 182.9 75.0257C182.058 75.3951 181.092 75.5797 180.003 75.5797ZM193.122 75.5797C192.119 75.5797 191.224 75.3951 190.438 75.0257C189.656 74.6564 189.036 74.1474 188.577 73.4988C188.118 72.8501 187.878 72.1067 187.86 71.2686H190.843C190.876 71.8321 191.112 72.289 191.553 72.6394C191.993 72.9898 192.516 73.165 193.122 73.165C193.605 73.165 194.031 73.0584 194.401 72.8453C194.775 72.6275 195.066 72.3269 195.274 71.9434C195.487 71.5551 195.594 71.11 195.594 70.6081C195.594 70.0968 195.485 69.647 195.267 69.2587C195.054 68.8704 194.758 68.5674 194.379 68.3496C194.001 68.1318 193.567 68.0205 193.08 68.0158C192.654 68.0158 192.239 68.1034 191.837 68.2786C191.439 68.4538 191.129 68.6929 190.906 68.9959L188.172 68.5059L188.861 60.8354H197.753V63.3496H191.396L191.02 66.9931H191.105C191.361 66.6332 191.747 66.3349 192.263 66.0982C192.779 65.8614 193.357 65.7431 193.996 65.7431C194.872 65.7431 195.653 65.949 196.34 66.361C197.026 66.7729 197.568 67.3387 197.966 68.0584C198.364 68.7734 198.56 69.5972 198.556 70.53C198.56 71.5101 198.333 72.3813 197.874 73.1436C197.419 73.9012 196.782 74.4978 195.963 74.9334C195.149 75.3643 194.202 75.5797 193.122 75.5797ZM205.92 73.4718V72.9348C205.92 72.5272 206.006 72.1526 206.178 71.8113C206.354 71.4666 206.608 71.1915 206.939 70.986C207.274 70.7772 207.682 70.6728 208.162 70.6728C208.649 70.6728 209.059 70.7755 209.39 70.981C209.725 71.1865 209.977 71.4616 210.146 71.8063C210.318 72.1477 210.404 72.5239 210.404 72.9348V73.4718C210.404 73.8794 210.318 74.2556 210.146 74.6003C209.973 74.9417 209.72 75.2151 209.385 75.4206C209.05 75.6294 208.643 75.7338 208.162 75.7338C207.675 75.7338 207.266 75.6294 206.934 75.4206C206.603 75.2151 206.351 74.9417 206.178 74.6003C206.006 74.2556 205.92 73.8794 205.92 73.4718ZM207.367 72.9348V73.4718C207.367 73.7071 207.423 73.9292 207.536 74.138C207.652 74.3468 207.86 74.4512 208.162 74.4512C208.464 74.4512 208.669 74.3484 208.779 74.1429C208.891 73.9374 208.948 73.7137 208.948 73.4718V72.9348C208.948 72.6929 208.895 72.4675 208.789 72.2587C208.682 72.0499 208.474 71.9455 208.162 71.9455C207.864 71.9455 207.657 72.0499 207.541 72.2587C207.425 72.4675 207.367 72.6929 207.367 72.9348ZM200.695 67.6451V67.1081C200.695 66.6971 200.783 66.321 200.958 65.9796C201.134 65.6349 201.387 65.3598 201.719 65.1543C202.054 64.9488 202.458 64.8461 202.932 64.8461C203.423 64.8461 203.834 64.9488 204.165 65.1543C204.496 65.3598 204.748 65.6349 204.921 65.9796C205.093 66.321 205.179 66.6971 205.179 67.1081V67.6451C205.179 68.056 205.091 68.4322 204.916 68.7736C204.743 69.115 204.49 69.3884 204.155 69.5939C203.824 69.7961 203.416 69.8972 202.932 69.8972C202.448 69.8972 202.039 69.7944 201.704 69.589C201.373 69.3801 201.121 69.1067 200.948 68.7686C200.779 68.4273 200.695 68.0527 200.695 67.6451ZM202.151 67.1081V67.6451C202.151 67.887 202.208 68.1107 202.32 68.3162C202.436 68.5217 202.64 68.6245 202.932 68.6245C203.237 68.6245 203.444 68.5217 203.553 68.3162C203.666 68.1107 203.722 67.887 203.722 67.6451V67.1081C203.722 66.8662 203.669 66.6408 203.563 66.432C203.457 66.2232 203.247 66.1188 202.932 66.1188C202.637 66.1188 202.433 66.2248 202.32 66.437C202.208 66.6491 202.151 66.8728 202.151 67.1081ZM201.351 75.3809L208.351 65.199H209.654L202.654 75.3809H201.351Z" fill="black"/>
<path d="M117.119 75.3804C117.119 60.0126 121.816 45.012 130.581 32.3887C139.346 19.7654 151.759 10.1225 166.158 4.75229C180.557 -0.617931 196.253 -1.45893 211.143 2.34201C226.034 6.14294 239.407 14.4042 249.47 26.0187L238.262 35.7296C230.179 26.4 219.437 19.764 207.476 16.7108C195.515 13.6576 182.906 14.3332 171.34 18.6469C159.774 22.9607 149.803 30.7065 142.762 40.8464C135.722 50.9863 131.949 63.0359 131.949 75.3804H117.119Z" fill="#63EB82"/>
<path d="M117.119 75.3804C117.119 63.4238 119.963 51.6387 125.417 40.9983C130.87 30.3579 138.777 21.1674 148.483 14.1857C158.19 7.20405 169.418 2.63148 181.24 0.845597C193.063 -0.940286 205.141 0.111753 216.476 3.91484L211.759 17.9742C202.654 14.9193 192.952 14.0742 183.455 15.5088C173.959 16.9433 164.94 20.6163 157.143 26.2245C149.346 31.8327 142.995 39.2151 138.614 47.7623C134.233 56.3094 131.949 65.776 131.949 75.3804H117.119Z" fill="#FF8C00"/>
<path d="M117.119 75.3804C117.119 59.8409 121.922 44.6812 130.869 31.9763C139.817 19.2714 152.472 9.64229 167.103 4.40693L172.099 18.3695C160.347 22.5749 150.181 30.3097 142.994 40.5152C135.806 50.7206 131.949 62.898 131.949 75.3804H117.119Z" fill="#FFAD4F"/>
<path d="M117.119 75.3804C117.119 58.2359 122.963 41.6035 133.688 28.2274L145.258 37.5038C136.643 48.2484 131.949 61.6087 131.949 75.3804H117.119Z" fill="#ED3F47"/>
<defs>
<linearGradient id="paint0_linear_3061_118463" x1="163.608" y1="31.4385" x2="183.148" y2="56.5066" gradientUnits="userSpaceOnUse">
<stop/>
<stop offset="1" stop-color="white"/>
</linearGradient>
</defs>
</svg>
