<svg width="835" height="308" viewBox="0 0 835 308" fill="none" xmlns="http://www.w3.org/2000/svg">
<path d="M3.75133 37.5895C3.37633 37.5895 3.03862 37.5149 2.73819 37.3658C2.43777 37.2166 2.197 37.0121 2.01589 36.7521C1.83478 36.4922 1.73571 36.196 1.71866 35.8636H2.48571C2.51554 36.1598 2.64977 36.4048 2.88841 36.5987C3.12917 36.7905 3.41681 36.8864 3.75133 36.8864C4.0198 36.8864 4.25843 36.8235 4.46724 36.6978C4.67818 36.5721 4.84331 36.3995 4.96262 36.18C5.08407 35.9585 5.1448 35.7081 5.1448 35.429C5.1448 35.1435 5.08194 34.8888 4.95623 34.6651C4.83265 34.4393 4.6622 34.2614 4.44487 34.1314C4.22754 34.0014 3.97931 33.9354 3.7002 33.9332C3.49991 33.9311 3.2943 33.962 3.08336 34.0259C2.87243 34.0877 2.69877 34.1676 2.56241 34.2656L1.82093 34.1761L2.21724 30.9545H5.61781V31.6577H2.88201L2.6519 33.5881H2.69025C2.82449 33.4815 2.99281 33.3931 3.19522 33.3228C3.39764 33.2525 3.60858 33.2173 3.82804 33.2173C4.2286 33.2173 4.58549 33.3132 4.8987 33.505C5.21404 33.6946 5.4612 33.9545 5.64018 34.2848C5.82129 34.6151 5.91184 34.9922 5.91184 35.4162C5.91184 35.8338 5.81809 36.2067 5.63059 36.5348C5.44522 36.8608 5.18954 37.1186 4.86355 37.3082C4.53755 37.4957 4.16681 37.5895 3.75133 37.5895ZM9.31641 37.5895C8.83487 37.5895 8.42472 37.4585 8.08594 37.1964C7.74716 36.9322 7.48828 36.5497 7.3093 36.049C7.13033 35.5462 7.04084 34.9389 7.04084 34.2273C7.04084 33.5199 7.13033 32.9158 7.3093 32.4151C7.49041 31.9123 7.75036 31.5288 8.08913 31.2646C8.43004 30.9982 8.83913 30.8651 9.31641 30.8651C9.79368 30.8651 10.2017 30.9982 10.5405 31.2646C10.8814 31.5288 11.1413 31.9123 11.3203 32.4151C11.5014 32.9158 11.592 33.5199 11.592 34.2273C11.592 34.9389 11.5025 35.5462 11.3235 36.049C11.1445 36.5497 10.8857 36.9322 10.5469 37.1964C10.2081 37.4585 9.79794 37.5895 9.31641 37.5895ZM9.31641 36.8864C9.79368 36.8864 10.1644 36.6562 10.4286 36.196C10.6928 35.7358 10.8249 35.0795 10.8249 34.2273C10.8249 33.6605 10.7642 33.1779 10.6428 32.7795C10.5234 32.381 10.3509 32.0774 10.125 31.8686C9.90128 31.6598 9.63175 31.5554 9.31641 31.5554C8.84339 31.5554 8.47372 31.7887 8.20739 32.2553C7.94105 32.7198 7.80788 33.3771 7.80788 34.2273C7.80788 34.794 7.86754 35.2756 7.98686 35.6719C8.10618 36.0682 8.2777 36.3697 8.50142 36.5763C8.72727 36.783 8.99893 36.8864 9.31641 36.8864ZM12.9215 37.5V30.9545H13.7141V34.2017H13.7908L16.7312 30.9545H17.7667L15.0181 33.9077L17.7667 37.5H16.8079L14.5323 34.4574L13.7141 35.3778V37.5H12.9215ZM1.25364 84.1577V83.5057L4.13006 78.9545H4.60307V79.9645H4.28347L2.11017 83.4034V83.4545H5.98375V84.1577H1.25364ZM4.33461 85.5V83.9595V83.6559V78.9545H5.08887V85.5H4.33461ZM9.31641 85.5895C8.83487 85.5895 8.42472 85.4585 8.08594 85.1964C7.74716 84.9322 7.48828 84.5497 7.3093 84.049C7.13033 83.5462 7.04084 82.9389 7.04084 82.2273C7.04084 81.5199 7.13033 80.9158 7.3093 80.4151C7.49041 79.9123 7.75036 79.5288 8.08913 79.2646C8.43004 78.9982 8.83913 78.8651 9.31641 78.8651C9.79368 78.8651 10.2017 78.9982 10.5405 79.2646C10.8814 79.5288 11.1413 79.9123 11.3203 80.4151C11.5014 80.9158 11.592 81.5199 11.592 82.2273C11.592 82.9389 11.5025 83.5462 11.3235 84.049C11.1445 84.5497 10.8857 84.9322 10.5469 85.1964C10.2081 85.4585 9.79794 85.5895 9.31641 85.5895ZM9.31641 84.8864C9.79368 84.8864 10.1644 84.6562 10.4286 84.196C10.6928 83.7358 10.8249 83.0795 10.8249 82.2273C10.8249 81.6605 10.7642 81.1779 10.6428 80.7795C10.5234 80.381 10.3509 80.0774 10.125 79.8686C9.90128 79.6598 9.63175 79.5554 9.31641 79.5554C8.84339 79.5554 8.47372 79.7887 8.20739 80.2553C7.94105 80.7198 7.80788 81.3771 7.80788 82.2273C7.80788 82.794 7.86754 83.2756 7.98686 83.6719C8.10618 84.0682 8.2777 84.3697 8.50142 84.5763C8.72727 84.783 8.99893 84.8864 9.31641 84.8864ZM12.9215 85.5V78.9545H13.7141V82.2017H13.7908L16.7312 78.9545H17.7667L15.0181 81.9077L17.7667 85.5H16.8079L14.5323 82.4574L13.7141 83.3778V85.5H12.9215ZM3.66264 133.589C3.24077 133.589 2.8647 133.517 2.53445 133.372C2.20632 133.227 1.94531 133.026 1.75142 132.768C1.55966 132.508 1.45526 132.207 1.43821 131.864H2.24361C2.26065 132.075 2.3331 132.257 2.46094 132.41C2.58878 132.561 2.75604 132.679 2.96271 132.762C3.16939 132.845 3.39844 132.886 3.64986 132.886C3.93111 132.886 4.1804 132.837 4.39773 132.739C4.61506 132.641 4.78551 132.505 4.90909 132.33C5.03267 132.156 5.09446 131.953 5.09446 131.723C5.09446 131.482 5.0348 131.27 4.91548 131.087C4.79616 130.902 4.62145 130.757 4.39134 130.652C4.16122 130.548 3.87997 130.496 3.54759 130.496H3.02344V129.793H3.54759C3.80753 129.793 4.03551 129.746 4.23153 129.652C4.42969 129.558 4.58416 129.426 4.69496 129.256C4.80788 129.085 4.86435 128.885 4.86435 128.655C4.86435 128.433 4.81534 128.24 4.71733 128.076C4.61932 127.912 4.48082 127.784 4.30185 127.693C4.125 127.601 3.91619 127.555 3.67543 127.555C3.44957 127.555 3.23651 127.597 3.03622 127.68C2.83807 127.761 2.67614 127.879 2.55043 128.035C2.42472 128.188 2.35653 128.374 2.34588 128.591H1.57884C1.59162 128.248 1.69496 127.947 1.88885 127.69C2.08274 127.43 2.33629 127.227 2.6495 127.082C2.96484 126.937 3.31108 126.865 3.68821 126.865C4.09304 126.865 4.44034 126.947 4.73011 127.111C5.01989 127.273 5.24254 127.487 5.39808 127.754C5.55362 128.02 5.63139 128.308 5.63139 128.616C5.63139 128.985 5.53445 129.299 5.34055 129.559C5.14879 129.819 4.88778 129.999 4.55753 130.099V130.151C4.97088 130.219 5.29368 130.395 5.52592 130.678C5.75817 130.959 5.87429 131.308 5.87429 131.723C5.87429 132.079 5.77734 132.398 5.58345 132.682C5.39169 132.963 5.12962 133.185 4.79723 133.347C4.46484 133.509 4.08665 133.589 3.66264 133.589ZM9.31641 133.589C8.83487 133.589 8.42472 133.458 8.08594 133.196C7.74716 132.932 7.48828 132.55 7.3093 132.049C7.13033 131.546 7.04084 130.939 7.04084 130.227C7.04084 129.52 7.13033 128.916 7.3093 128.415C7.49041 127.912 7.75036 127.529 8.08913 127.265C8.43004 126.998 8.83913 126.865 9.31641 126.865C9.79368 126.865 10.2017 126.998 10.5405 127.265C10.8814 127.529 11.1413 127.912 11.3203 128.415C11.5014 128.916 11.592 129.52 11.592 130.227C11.592 130.939 11.5025 131.546 11.3235 132.049C11.1445 132.55 10.8857 132.932 10.5469 133.196C10.2081 133.458 9.79794 133.589 9.31641 133.589ZM9.31641 132.886C9.79368 132.886 10.1644 132.656 10.4286 132.196C10.6928 131.736 10.8249 131.08 10.8249 130.227C10.8249 129.661 10.7642 129.178 10.6428 128.779C10.5234 128.381 10.3509 128.077 10.125 127.869C9.90128 127.66 9.63175 127.555 9.31641 127.555C8.84339 127.555 8.47372 127.789 8.20739 128.255C7.94105 128.72 7.80788 129.377 7.80788 130.227C7.80788 130.794 7.86754 131.276 7.98686 131.672C8.10618 132.068 8.2777 132.37 8.50142 132.576C8.72727 132.783 8.99893 132.886 9.31641 132.886ZM12.9215 133.5V126.955H13.7141V130.202H13.7908L16.7312 126.955H17.7667L15.0181 129.908L17.7667 133.5H16.8079L14.5323 130.457L13.7141 131.378V133.5H12.9215ZM1.73224 181.5V180.925L3.89276 178.56C4.14631 178.283 4.35511 178.042 4.51918 177.837C4.68324 177.631 4.80469 177.437 4.88352 177.256C4.96449 177.072 5.00497 176.881 5.00497 176.68C5.00497 176.45 4.94957 176.251 4.83878 176.083C4.73011 175.914 4.58097 175.784 4.39134 175.693C4.2017 175.601 3.98864 175.555 3.75213 175.555C3.50071 175.555 3.28125 175.608 3.09375 175.712C2.90838 175.814 2.76456 175.958 2.66229 176.143C2.56214 176.329 2.51207 176.546 2.51207 176.795H1.75781C1.75781 176.412 1.84624 176.075 2.02308 175.786C2.19993 175.496 2.4407 175.27 2.74538 175.108C3.0522 174.946 3.39631 174.865 3.7777 174.865C4.16122 174.865 4.50107 174.946 4.79723 175.108C5.0934 175.27 5.32564 175.488 5.49396 175.763C5.66229 176.038 5.74645 176.344 5.74645 176.68C5.74645 176.921 5.70277 177.157 5.61541 177.387C5.53018 177.615 5.38104 177.869 5.16797 178.151C4.95703 178.43 4.66406 178.771 4.28906 179.173L2.81889 180.746V180.797H5.86151V181.5H1.73224ZM9.31641 181.589C8.83487 181.589 8.42472 181.458 8.08594 181.196C7.74716 180.932 7.48828 180.55 7.3093 180.049C7.13033 179.546 7.04084 178.939 7.04084 178.227C7.04084 177.52 7.13033 176.916 7.3093 176.415C7.49041 175.912 7.75036 175.529 8.08913 175.265C8.43004 174.998 8.83913 174.865 9.31641 174.865C9.79368 174.865 10.2017 174.998 10.5405 175.265C10.8814 175.529 11.1413 175.912 11.3203 176.415C11.5014 176.916 11.592 177.52 11.592 178.227C11.592 178.939 11.5025 179.546 11.3235 180.049C11.1445 180.55 10.8857 180.932 10.5469 181.196C10.2081 181.458 9.79794 181.589 9.31641 181.589ZM9.31641 180.886C9.79368 180.886 10.1644 180.656 10.4286 180.196C10.6928 179.736 10.8249 179.08 10.8249 178.227C10.8249 177.661 10.7642 177.178 10.6428 176.779C10.5234 176.381 10.3509 176.077 10.125 175.869C9.90128 175.66 9.63175 175.555 9.31641 175.555C8.84339 175.555 8.47372 175.789 8.20739 176.255C7.94105 176.72 7.80788 177.377 7.80788 178.227C7.80788 178.794 7.86754 179.276 7.98686 179.672C8.10618 180.068 8.2777 180.37 8.50142 180.576C8.72727 180.783 8.99893 180.886 9.31641 180.886ZM12.9215 181.5V174.955H13.7141V178.202H13.7908L16.7312 174.955H17.7667L15.0181 177.908L17.7667 181.5H16.8079L14.5323 178.457L13.7141 179.378V181.5H12.9215ZM5.29901 222.955V229.5H4.50639V223.786H4.46804L2.87003 224.847V224.041L4.50639 222.955H5.29901ZM9.31641 229.589C8.83487 229.589 8.42472 229.458 8.08594 229.196C7.74716 228.932 7.48828 228.55 7.3093 228.049C7.13033 227.546 7.04084 226.939 7.04084 226.227C7.04084 225.52 7.13033 224.916 7.3093 224.415C7.49041 223.912 7.75036 223.529 8.08913 223.265C8.43004 222.998 8.83913 222.865 9.31641 222.865C9.79368 222.865 10.2017 222.998 10.5405 223.265C10.8814 223.529 11.1413 223.912 11.3203 224.415C11.5014 224.916 11.592 225.52 11.592 226.227C11.592 226.939 11.5025 227.546 11.3235 228.049C11.1445 228.55 10.8857 228.932 10.5469 229.196C10.2081 229.458 9.79794 229.589 9.31641 229.589ZM9.31641 228.886C9.79368 228.886 10.1644 228.656 10.4286 228.196C10.6928 227.736 10.8249 227.08 10.8249 226.227C10.8249 225.661 10.7642 225.178 10.6428 224.779C10.5234 224.381 10.3509 224.077 10.125 223.869C9.90128 223.66 9.63175 223.555 9.31641 223.555C8.84339 223.555 8.47372 223.789 8.20739 224.255C7.94105 224.72 7.80788 225.377 7.80788 226.227C7.80788 226.794 7.86754 227.276 7.98686 227.672C8.10618 228.068 8.2777 228.37 8.50142 228.576C8.72727 228.783 8.99893 228.886 9.31641 228.886ZM12.9215 229.5V222.955H13.7141V226.202H13.7908L16.7312 222.955H17.7667L15.0181 225.908L17.7667 229.5H16.8079L14.5323 226.457L13.7141 227.378V229.5H12.9215ZM15.1875 277.589C14.706 277.589 14.2958 277.458 13.957 277.196C13.6183 276.932 13.3594 276.55 13.1804 276.049C13.0014 275.546 12.9119 274.939 12.9119 274.227C12.9119 273.52 13.0014 272.916 13.1804 272.415C13.3615 271.912 13.6214 271.529 13.9602 271.265C14.3011 270.998 14.7102 270.865 15.1875 270.865C15.6648 270.865 16.0728 270.998 16.4116 271.265C16.7525 271.529 17.0124 271.912 17.1914 272.415C17.3725 272.916 17.4631 273.52 17.4631 274.227C17.4631 274.939 17.3736 275.546 17.1946 276.049C17.0156 276.55 16.7567 276.932 16.418 277.196C16.0792 277.458 15.669 277.589 15.1875 277.589ZM15.1875 276.886C15.6648 276.886 16.0355 276.656 16.2997 276.196C16.5639 275.736 16.696 275.08 16.696 274.227C16.696 273.661 16.6353 273.178 16.5138 272.779C16.3945 272.381 16.2219 272.077 15.9961 271.869C15.7724 271.66 15.5028 271.555 15.1875 271.555C14.7145 271.555 14.3448 271.789 14.0785 272.255C13.8121 272.72 13.679 273.377 13.679 274.227C13.679 274.794 13.7386 275.276 13.858 275.672C13.9773 276.068 14.1488 276.37 14.3725 276.576C14.5984 276.783 14.87 276.886 15.1875 276.886Z" fill="#585858"/>
<line x1="23" y1="33.5" x2="835" y2="33.5" stroke="#EBEBEB" stroke-dasharray="4 4"/>
<line x1="23" y1="73.5" x2="835" y2="73.5" stroke="#EBEBEB" stroke-dasharray="4 4"/>
<line x1="23" y1="113.5" x2="835" y2="113.5" stroke="#EBEBEB" stroke-dasharray="4 4"/>
<line x1="23" y1="153.5" x2="835" y2="153.5" stroke="#EBEBEB" stroke-dasharray="4 4"/>
<line x1="23" y1="193.5" x2="835" y2="193.5" stroke="#EBEBEB" stroke-dasharray="4 4"/>
<line x1="23" y1="233.5" x2="835" y2="233.5" stroke="#EBEBEB" stroke-dasharray="4 4"/>
<line x1="23" y1="273.5" x2="835" y2="273.5" stroke="#EBEBEB" stroke-dasharray="4 4"/>
<path d="M26 264C26 264 55.8089 246.316 80.7312 248.412C100.468 250.072 103.21 212.141 124.223 212.141C148.961 212.141 152.566 227.127 179.931 225.63C207.297 224.134 210.718 189.656 237.106 186.061C263.494 182.466 283.53 200.451 308.452 200.45C347.038 200.448 353.917 139 392.503 139C442.836 139.001 492.681 198.953 533.729 200.451C584.551 203.75 642.534 190.56 668.114 176.771C700.366 159.385 732.618 190.86 750.699 195.956C783.417 205.177 803.15 193.558 824 189.361" stroke="#7EBDC2" stroke-width="3"/>
<path d="M26 194C26 194 55.8089 176.316 80.7312 178.412C100.468 180.072 103.21 142.141 124.223 142.141C148.961 142.141 152.566 157.127 179.931 155.63C207.297 154.134 210.718 119.656 237.106 116.061C263.494 112.466 283.53 130.451 308.452 130.45C347.038 130.448 353.917 68.9996 392.503 69C442.836 69.0006 492.681 128.953 533.729 130.451C584.551 133.75 642.534 120.56 668.114 106.771C700.366 89.3846 732.618 120.86 750.699 125.956C783.417 135.177 803.15 123.558 824 119.361" stroke="#FFBE6A" stroke-width="3"/>
<path d="M26 105C26 105 55.8089 128.851 80.7312 130.947C100.468 132.607 106.987 197.5 128 197.5C152.738 197.5 154.634 164.996 182 163.5C209.366 162.003 205.5 87.035 235 97.535C264.5 108.035 286.078 152.001 311 152C349.586 151.998 354.914 130.497 393.5 130.497C443.833 130.498 489.452 69.9999 530.5 71.4977C581.322 74.7961 655.921 176.287 681.5 162.498C713.752 145.111 719 78.4984 751 71.8959C784.291 65.027 804.65 103.197 825.5 98.9999" stroke="#C1E382" stroke-width="3"/>
<path d="M33.0756 290.455H33.8683V295.134C33.8683 295.551 33.7915 295.906 33.6381 296.198C33.4847 296.49 33.2685 296.711 32.9893 296.863C32.7102 297.014 32.381 297.089 32.0018 297.089C31.6438 297.089 31.3253 297.025 31.0462 296.895C30.767 296.762 30.5476 296.575 30.3878 296.332C30.228 296.089 30.1481 295.8 30.1481 295.466H30.9279C30.9279 295.651 30.9737 295.813 31.0653 295.952C31.1591 296.088 31.2869 296.195 31.4489 296.271C31.6108 296.348 31.7951 296.386 32.0018 296.386C32.2298 296.386 32.4237 296.338 32.5835 296.243C32.7433 296.147 32.8647 296.006 32.9478 295.821C33.033 295.633 33.0756 295.404 33.0756 295.134V290.455ZM36.799 297.115C36.4879 297.115 36.2056 297.056 35.9521 296.939C35.6985 296.82 35.4972 296.648 35.348 296.425C35.1989 296.199 35.1243 295.926 35.1243 295.607C35.1243 295.325 35.1797 295.097 35.2905 294.923C35.4013 294.746 35.5494 294.607 35.7347 294.507C35.9201 294.407 36.1246 294.332 36.3484 294.283C36.5742 294.232 36.8011 294.192 37.0291 294.162C37.3274 294.124 37.5692 294.095 37.7546 294.076C37.9421 294.054 38.0785 294.019 38.1637 293.97C38.2511 293.921 38.2947 293.836 38.2947 293.714V293.689C38.2947 293.374 38.2085 293.129 38.0359 292.954C37.8654 292.779 37.6065 292.692 37.2592 292.692C36.8991 292.692 36.6168 292.771 36.4123 292.928C36.2077 293.086 36.0639 293.254 35.9808 293.433L35.2649 293.178C35.3928 292.879 35.5632 292.647 35.7763 292.481C35.9915 292.312 36.2259 292.195 36.4794 292.129C36.7351 292.061 36.9865 292.027 37.2337 292.027C37.3913 292.027 37.5724 292.046 37.777 292.085C37.9837 292.121 38.1829 292.196 38.3746 292.311C38.5685 292.426 38.7294 292.6 38.8572 292.832C38.9851 293.065 39.049 293.376 39.049 293.766V297H38.2947V296.335H38.2564C38.2053 296.442 38.12 296.556 38.0007 296.677C37.8814 296.799 37.7227 296.902 37.5245 296.987C37.3263 297.072 37.0845 297.115 36.799 297.115ZM36.9141 296.438C37.2124 296.438 37.4638 296.379 37.6683 296.262C37.875 296.145 38.0305 295.993 38.1349 295.808C38.2415 295.623 38.2947 295.428 38.2947 295.223V294.533C38.2628 294.571 38.1925 294.606 38.0838 294.638C37.9773 294.668 37.8537 294.695 37.7131 294.718C37.5746 294.739 37.4393 294.759 37.3072 294.776C37.1772 294.79 37.0717 294.803 36.9908 294.814C36.7947 294.839 36.6115 294.881 36.4411 294.939C36.2727 294.994 36.1364 295.078 36.032 295.191C35.9297 295.302 35.8786 295.453 35.8786 295.645C35.8786 295.907 35.9755 296.105 36.1694 296.239C36.3654 296.371 36.6136 296.438 36.9141 296.438ZM41.18 294.047V297H40.4257V292.091H41.1544V292.858H41.2183C41.3334 292.609 41.5081 292.408 41.7425 292.257C41.9768 292.104 42.2794 292.027 42.6501 292.027C42.9825 292.027 43.2733 292.095 43.5226 292.232C43.7719 292.366 43.9658 292.57 44.1043 292.845C44.2428 293.118 44.3121 293.463 44.3121 293.881V297H43.5578V293.932C43.5578 293.546 43.4577 293.246 43.2574 293.031C43.0571 292.813 42.7822 292.705 42.4328 292.705C42.192 292.705 41.9768 292.757 41.7872 292.861C41.5997 292.966 41.4516 293.118 41.343 293.318C41.2343 293.518 41.18 293.761 41.18 294.047Z" fill="#585858"/>
<path d="M101.224 297V290.455H105.149V291.158H102.017V293.369H104.855V294.072H102.017V297H101.224ZM108.102 297.102C107.629 297.102 107.221 296.998 106.878 296.789C106.537 296.578 106.274 296.284 106.089 295.907C105.905 295.528 105.814 295.087 105.814 294.584C105.814 294.081 105.905 293.638 106.089 293.254C106.274 292.869 106.532 292.568 106.862 292.353C107.194 292.136 107.582 292.027 108.025 292.027C108.281 292.027 108.534 292.07 108.783 292.155C109.032 292.24 109.259 292.379 109.464 292.57C109.668 292.76 109.831 293.011 109.953 293.325C110.074 293.638 110.135 294.023 110.135 294.482V294.801H106.351V294.149H109.368C109.368 293.872 109.312 293.625 109.202 293.408C109.093 293.19 108.937 293.019 108.735 292.893C108.535 292.767 108.298 292.705 108.025 292.705C107.725 292.705 107.465 292.779 107.246 292.928C107.028 293.075 106.861 293.267 106.744 293.504C106.627 293.74 106.568 293.994 106.568 294.264V294.699C106.568 295.07 106.632 295.384 106.76 295.642C106.89 295.897 107.07 296.092 107.3 296.227C107.53 296.359 107.797 296.425 108.102 296.425C108.3 296.425 108.479 296.397 108.639 296.342C108.801 296.284 108.941 296.199 109.058 296.086C109.175 295.971 109.265 295.828 109.329 295.658L110.058 295.862C109.981 296.109 109.852 296.327 109.671 296.514C109.49 296.7 109.267 296.844 109 296.949C108.734 297.051 108.434 297.102 108.102 297.102ZM111.384 297V290.455H112.139V292.871H112.203C112.258 292.786 112.335 292.677 112.433 292.545C112.533 292.411 112.676 292.291 112.861 292.187C113.048 292.08 113.302 292.027 113.622 292.027C114.035 292.027 114.399 292.13 114.715 292.337C115.03 292.544 115.276 292.837 115.453 293.216C115.63 293.595 115.718 294.043 115.718 294.558C115.718 295.078 115.63 295.529 115.453 295.91C115.276 296.289 115.031 296.583 114.718 296.792C114.405 296.999 114.044 297.102 113.634 297.102C113.319 297.102 113.067 297.05 112.877 296.946C112.687 296.839 112.541 296.719 112.439 296.585C112.337 296.448 112.258 296.335 112.203 296.246H112.113V297H111.384ZM112.126 294.545C112.126 294.916 112.18 295.243 112.289 295.527C112.398 295.808 112.556 296.028 112.765 296.188C112.974 296.346 113.23 296.425 113.532 296.425C113.847 296.425 114.111 296.342 114.322 296.175C114.535 296.007 114.694 295.781 114.801 295.498C114.91 295.212 114.964 294.895 114.964 294.545C114.964 294.2 114.911 293.889 114.804 293.612C114.7 293.333 114.541 293.113 114.328 292.951C114.117 292.787 113.852 292.705 113.532 292.705C113.225 292.705 112.968 292.782 112.759 292.938C112.55 293.091 112.392 293.306 112.286 293.583C112.179 293.858 112.126 294.179 112.126 294.545Z" fill="#585858"/>
<path d="M172.729 290.455H173.675L175.9 295.888H175.976L178.201 290.455H179.147V297H178.405V292.027H178.341L176.296 297H175.58L173.535 292.027H173.471V297H172.729V290.455ZM182.078 297.115C181.767 297.115 181.485 297.056 181.231 296.939C180.978 296.82 180.776 296.648 180.627 296.425C180.478 296.199 180.404 295.926 180.404 295.607C180.404 295.325 180.459 295.097 180.57 294.923C180.681 294.746 180.829 294.607 181.014 294.507C181.199 294.407 181.404 294.332 181.628 294.283C181.854 294.232 182.08 294.192 182.308 294.162C182.607 294.124 182.849 294.095 183.034 294.076C183.221 294.054 183.358 294.019 183.443 293.97C183.53 293.921 183.574 293.836 183.574 293.714V293.689C183.574 293.374 183.488 293.129 183.315 292.954C183.145 292.779 182.886 292.692 182.539 292.692C182.178 292.692 181.896 292.771 181.692 292.928C181.487 293.086 181.343 293.254 181.26 293.433L180.544 293.178C180.672 292.879 180.843 292.647 181.056 292.481C181.271 292.312 181.505 292.195 181.759 292.129C182.014 292.061 182.266 292.027 182.513 292.027C182.671 292.027 182.852 292.046 183.056 292.085C183.263 292.121 183.462 292.196 183.654 292.311C183.848 292.426 184.009 292.6 184.137 292.832C184.264 293.065 184.328 293.376 184.328 293.766V297H183.574V296.335H183.536C183.485 296.442 183.399 296.556 183.28 296.677C183.161 296.799 183.002 296.902 182.804 296.987C182.606 297.072 182.364 297.115 182.078 297.115ZM182.193 296.438C182.492 296.438 182.743 296.379 182.948 296.262C183.154 296.145 183.31 295.993 183.414 295.808C183.521 295.623 183.574 295.428 183.574 295.223V294.533C183.542 294.571 183.472 294.606 183.363 294.638C183.257 294.668 183.133 294.695 182.992 294.718C182.854 294.739 182.719 294.759 182.586 294.776C182.456 294.79 182.351 294.803 182.27 294.814C182.074 294.839 181.891 294.881 181.72 294.939C181.552 294.994 181.416 295.078 181.311 295.191C181.209 295.302 181.158 295.453 181.158 295.645C181.158 295.907 181.255 296.105 181.449 296.239C181.645 296.371 181.893 296.438 182.193 296.438ZM185.705 297V292.091H186.434V292.832H186.485C186.574 292.589 186.736 292.392 186.971 292.241C187.205 292.09 187.469 292.014 187.763 292.014C187.819 292.014 187.888 292.015 187.971 292.017C188.054 292.02 188.117 292.023 188.16 292.027V292.794C188.134 292.788 188.075 292.778 187.984 292.765C187.894 292.75 187.799 292.743 187.699 292.743C187.461 292.743 187.248 292.793 187.06 292.893C186.875 292.991 186.728 293.127 186.619 293.302C186.513 293.475 186.459 293.672 186.459 293.893V297H185.705Z" fill="#585858"/>
<path d="M244.692 297H243.861L246.264 290.455H247.083L249.486 297H248.655L246.699 291.49H246.648L244.692 297ZM244.999 294.443H248.348V295.146H244.999V294.443ZM250.403 298.841V292.091H251.132V292.871H251.221C251.277 292.786 251.354 292.677 251.452 292.545C251.552 292.411 251.694 292.291 251.88 292.187C252.067 292.08 252.321 292.027 252.64 292.027C253.054 292.027 253.418 292.13 253.733 292.337C254.049 292.544 254.295 292.837 254.472 293.216C254.649 293.595 254.737 294.043 254.737 294.558C254.737 295.078 254.649 295.529 254.472 295.91C254.295 296.289 254.05 296.583 253.737 296.792C253.423 296.999 253.062 297.102 252.653 297.102C252.338 297.102 252.085 297.05 251.896 296.946C251.706 296.839 251.56 296.719 251.458 296.585C251.356 296.448 251.277 296.335 251.221 296.246H251.157V298.841H250.403ZM251.145 294.545C251.145 294.916 251.199 295.243 251.308 295.527C251.416 295.808 251.575 296.028 251.784 296.188C251.993 296.346 252.248 296.425 252.551 296.425C252.866 296.425 253.129 296.342 253.34 296.175C253.553 296.007 253.713 295.781 253.82 295.498C253.928 295.212 253.983 294.895 253.983 294.545C253.983 294.2 253.93 293.889 253.823 293.612C253.719 293.333 253.56 293.113 253.347 292.951C253.136 292.787 252.871 292.705 252.551 292.705C252.244 292.705 251.986 292.782 251.778 292.938C251.569 293.091 251.411 293.306 251.305 293.583C251.198 293.858 251.145 294.179 251.145 294.545ZM255.888 297V292.091H256.616V292.832H256.667C256.757 292.589 256.919 292.392 257.153 292.241C257.388 292.09 257.652 292.014 257.946 292.014C258.001 292.014 258.07 292.015 258.154 292.017C258.237 292.02 258.3 292.023 258.342 292.027V292.794C258.317 292.788 258.258 292.778 258.166 292.765C258.077 292.75 257.982 292.743 257.882 292.743C257.643 292.743 257.43 292.793 257.243 292.893C257.057 292.991 256.91 293.127 256.802 293.302C256.695 293.475 256.642 293.672 256.642 293.893V297H255.888Z" fill="#585858"/>
<path d="M314.608 290.455H315.554L317.778 295.888H317.855L320.08 290.455H321.026V297H320.284V292.027H320.22L318.175 297H317.459L315.413 292.027H315.35V297H314.608V290.455ZM323.957 297.115C323.646 297.115 323.364 297.056 323.11 296.939C322.857 296.82 322.655 296.648 322.506 296.425C322.357 296.199 322.282 295.926 322.282 295.607C322.282 295.325 322.338 295.097 322.449 294.923C322.559 294.746 322.708 294.607 322.893 294.507C323.078 294.407 323.283 294.332 323.507 294.283C323.732 294.232 323.959 294.192 324.187 294.162C324.486 294.124 324.727 294.095 324.913 294.076C325.1 294.054 325.237 294.019 325.322 293.97C325.409 293.921 325.453 293.836 325.453 293.714V293.689C325.453 293.374 325.367 293.129 325.194 292.954C325.024 292.779 324.765 292.692 324.417 292.692C324.057 292.692 323.775 292.771 323.57 292.928C323.366 293.086 323.222 293.254 323.139 293.433L322.423 293.178C322.551 292.879 322.721 292.647 322.934 292.481C323.15 292.312 323.384 292.195 323.638 292.129C323.893 292.061 324.145 292.027 324.392 292.027C324.55 292.027 324.731 292.046 324.935 292.085C325.142 292.121 325.341 292.196 325.533 292.311C325.727 292.426 325.888 292.6 326.015 292.832C326.143 293.065 326.207 293.376 326.207 293.766V297H325.453V296.335H325.415C325.363 296.442 325.278 296.556 325.159 296.677C325.04 296.799 324.881 296.902 324.683 296.987C324.485 297.072 324.243 297.115 323.957 297.115ZM324.072 296.438C324.371 296.438 324.622 296.379 324.827 296.262C325.033 296.145 325.189 295.993 325.293 295.808C325.4 295.623 325.453 295.428 325.453 295.223V294.533C325.421 294.571 325.351 294.606 325.242 294.638C325.135 294.668 325.012 294.695 324.871 294.718C324.733 294.739 324.597 294.759 324.465 294.776C324.335 294.79 324.23 294.803 324.149 294.814C323.953 294.839 323.77 294.881 323.599 294.939C323.431 294.994 323.295 295.078 323.19 295.191C323.088 295.302 323.037 295.453 323.037 295.645C323.037 295.907 323.134 296.105 323.328 296.239C323.524 296.371 323.772 296.438 324.072 296.438ZM327.894 298.841C327.766 298.841 327.652 298.83 327.552 298.809C327.452 298.79 327.383 298.771 327.344 298.751L327.536 298.087C327.719 298.134 327.881 298.151 328.022 298.138C328.162 298.125 328.287 298.062 328.396 297.949C328.506 297.838 328.608 297.658 328.699 297.409L328.84 297.026L327.025 292.091H327.843L329.198 296.003H329.249L330.604 292.091H331.422L329.339 297.716C329.245 297.969 329.129 298.179 328.99 298.346C328.852 298.514 328.691 298.638 328.508 298.719C328.326 298.8 328.122 298.841 327.894 298.841Z" fill="#585858"/>
<path d="M390.827 290.455H391.619V295.134C391.619 295.551 391.543 295.906 391.389 296.198C391.236 296.49 391.019 296.711 390.74 296.863C390.461 297.014 390.132 297.089 389.753 297.089C389.395 297.089 389.076 297.025 388.797 296.895C388.518 296.762 388.299 296.575 388.139 296.332C387.979 296.089 387.899 295.8 387.899 295.466H388.679C388.679 295.651 388.725 295.813 388.816 295.952C388.91 296.088 389.038 296.195 389.2 296.271C389.362 296.348 389.546 296.386 389.753 296.386C389.981 296.386 390.175 296.338 390.334 296.243C390.494 296.147 390.616 296.006 390.699 295.821C390.784 295.633 390.827 295.404 390.827 295.134V290.455ZM396.199 294.993V292.091H396.953V297H396.199V296.169H396.148C396.033 296.418 395.854 296.63 395.611 296.805C395.368 296.978 395.061 297.064 394.691 297.064C394.384 297.064 394.111 296.997 393.872 296.863C393.634 296.726 393.446 296.522 393.31 296.249C393.174 295.974 393.105 295.628 393.105 295.21V292.091H393.86V295.159C393.86 295.517 393.96 295.803 394.16 296.016C394.362 296.229 394.62 296.335 394.934 296.335C395.121 296.335 395.312 296.287 395.506 296.191C395.702 296.096 395.866 295.949 395.998 295.75C396.132 295.552 396.199 295.3 396.199 294.993ZM399.089 294.047V297H398.335V292.091H399.064V292.858H399.127C399.243 292.609 399.417 292.408 399.652 292.257C399.886 292.104 400.189 292.027 400.559 292.027C400.892 292.027 401.183 292.095 401.432 292.232C401.681 292.366 401.875 292.57 402.013 292.845C402.152 293.118 402.221 293.463 402.221 293.881V297H401.467V293.932C401.467 293.546 401.367 293.246 401.167 293.031C400.966 292.813 400.691 292.705 400.342 292.705C400.101 292.705 399.886 292.757 399.696 292.861C399.509 292.966 399.361 293.118 399.252 293.318C399.143 293.518 399.089 293.761 399.089 294.047Z" fill="#585858"/>
<path d="M462.137 290.455H462.93V295.134C462.93 295.551 462.853 295.906 462.7 296.198C462.546 296.49 462.33 296.711 462.051 296.863C461.772 297.014 461.443 297.089 461.063 297.089C460.705 297.089 460.387 297.025 460.108 296.895C459.829 296.762 459.609 296.575 459.449 296.332C459.29 296.089 459.21 295.8 459.21 295.466H459.989C459.989 295.651 460.035 295.813 460.127 295.952C460.221 296.088 460.348 296.195 460.51 296.271C460.672 296.348 460.857 296.386 461.063 296.386C461.291 296.386 461.485 296.338 461.645 296.243C461.805 296.147 461.926 296.006 462.009 295.821C462.095 295.633 462.137 295.404 462.137 295.134V290.455ZM467.51 294.993V292.091H468.264V297H467.51V296.169H467.459C467.343 296.418 467.165 296.63 466.922 296.805C466.679 296.978 466.372 297.064 466.001 297.064C465.694 297.064 465.422 296.997 465.183 296.863C464.944 296.726 464.757 296.522 464.62 296.249C464.484 295.974 464.416 295.628 464.416 295.21V292.091H465.17V295.159C465.17 295.517 465.27 295.803 465.471 296.016C465.673 296.229 465.931 296.335 466.244 296.335C466.432 296.335 466.622 296.287 466.816 296.191C467.012 296.096 467.176 295.949 467.308 295.75C467.443 295.552 467.51 295.3 467.51 294.993ZM470.4 290.455V297H469.645V290.455H470.4Z" fill="#585858"/>
<path d="M527.538 297H526.707L529.11 290.455H529.928L532.332 297H531.501L529.545 291.49H529.494L527.538 297ZM527.844 294.443H531.194V295.146H527.844V294.443ZM536.343 294.993V292.091H537.097V297H536.343V296.169H536.292C536.176 296.418 535.998 296.63 535.755 296.805C535.512 296.978 535.205 297.064 534.834 297.064C534.527 297.064 534.255 296.997 534.016 296.863C533.777 296.726 533.59 296.522 533.453 296.249C533.317 295.974 533.249 295.628 533.249 295.21V292.091H534.003V295.159C534.003 295.517 534.103 295.803 534.304 296.016C534.506 296.229 534.764 296.335 535.077 296.335C535.265 296.335 535.455 296.287 535.649 296.191C535.845 296.096 536.009 295.949 536.141 295.75C536.276 295.552 536.343 295.3 536.343 294.993ZM540.46 298.943C540.096 298.943 539.782 298.896 539.52 298.803C539.258 298.711 539.04 298.589 538.865 298.438C538.693 298.289 538.555 298.129 538.453 297.959L539.054 297.537C539.122 297.626 539.208 297.729 539.313 297.844C539.417 297.961 539.56 298.062 539.741 298.147C539.924 298.235 540.164 298.278 540.46 298.278C540.856 298.278 541.183 298.183 541.441 297.991C541.699 297.799 541.828 297.499 541.828 297.089V296.092H541.764C541.709 296.182 541.63 296.293 541.527 296.425C541.427 296.555 541.282 296.671 541.093 296.773C540.905 296.873 540.652 296.923 540.332 296.923C539.936 296.923 539.58 296.83 539.265 296.642C538.951 296.455 538.703 296.182 538.52 295.824C538.339 295.466 538.248 295.031 538.248 294.52C538.248 294.017 538.337 293.579 538.514 293.206C538.69 292.831 538.937 292.542 539.252 292.337C539.567 292.13 539.932 292.027 540.345 292.027C540.665 292.027 540.918 292.08 541.106 292.187C541.295 292.291 541.44 292.411 541.54 292.545C541.642 292.677 541.721 292.786 541.777 292.871H541.853V292.091H542.582V297.141C542.582 297.562 542.486 297.906 542.294 298.17C542.105 298.436 541.849 298.631 541.527 298.755C541.208 298.88 540.852 298.943 540.46 298.943ZM540.434 296.246C540.737 296.246 540.993 296.176 541.201 296.038C541.41 295.9 541.569 295.7 541.678 295.44C541.786 295.18 541.841 294.869 541.841 294.507C541.841 294.153 541.787 293.841 541.681 293.571C541.574 293.3 541.417 293.088 541.208 292.935C540.999 292.781 540.741 292.705 540.434 292.705C540.115 292.705 539.848 292.786 539.635 292.947C539.424 293.109 539.266 293.327 539.159 293.599C539.055 293.872 539.003 294.175 539.003 294.507C539.003 294.848 539.056 295.15 539.162 295.412C539.271 295.672 539.431 295.876 539.642 296.025C539.855 296.172 540.119 296.246 540.434 296.246Z" fill="#585858"/>
<path d="M603.365 292.091C603.327 291.767 603.171 291.516 602.899 291.337C602.626 291.158 602.291 291.068 601.895 291.068C601.605 291.068 601.352 291.115 601.134 291.209C600.919 291.303 600.751 291.431 600.63 291.596C600.51 291.76 600.451 291.946 600.451 292.155C600.451 292.33 600.492 292.48 600.575 292.605C600.66 292.729 600.769 292.832 600.901 292.915C601.033 292.996 601.172 293.064 601.317 293.117C601.462 293.168 601.595 293.21 601.716 293.241L602.381 293.42C602.551 293.465 602.741 293.527 602.95 293.606C603.161 293.685 603.362 293.792 603.554 293.929C603.748 294.063 603.908 294.235 604.033 294.446C604.159 294.657 604.222 294.916 604.222 295.223C604.222 295.577 604.129 295.896 603.944 296.182C603.761 296.467 603.492 296.694 603.138 296.863C602.787 297.031 602.36 297.115 601.857 297.115C601.388 297.115 600.982 297.039 600.639 296.888C600.298 296.737 600.03 296.526 599.834 296.255C599.64 295.985 599.53 295.67 599.505 295.312H600.323C600.344 295.56 600.427 295.764 600.572 295.926C600.719 296.086 600.904 296.205 601.128 296.284C601.354 296.361 601.597 296.399 601.857 296.399C602.159 296.399 602.431 296.35 602.672 296.252C602.913 296.152 603.103 296.013 603.244 295.837C603.384 295.658 603.455 295.449 603.455 295.21C603.455 294.993 603.394 294.816 603.273 294.68C603.151 294.543 602.991 294.433 602.793 294.347C602.595 294.262 602.381 294.187 602.151 294.124L601.345 293.893C600.834 293.746 600.429 293.537 600.131 293.264C599.833 292.991 599.684 292.634 599.684 292.193C599.684 291.827 599.783 291.507 599.981 291.234C600.181 290.96 600.449 290.746 600.786 290.595C601.125 290.442 601.503 290.365 601.921 290.365C602.343 290.365 602.718 290.441 603.046 290.592C603.374 290.741 603.634 290.946 603.826 291.206C604.019 291.466 604.122 291.761 604.132 292.091H603.365ZM607.481 297.102C607.008 297.102 606.6 296.998 606.257 296.789C605.916 296.578 605.653 296.284 605.468 295.907C605.284 295.528 605.193 295.087 605.193 294.584C605.193 294.081 605.284 293.638 605.468 293.254C605.653 292.869 605.911 292.568 606.241 292.353C606.573 292.136 606.961 292.027 607.404 292.027C607.66 292.027 607.912 292.07 608.162 292.155C608.411 292.24 608.638 292.379 608.843 292.57C609.047 292.76 609.21 293.011 609.331 293.325C609.453 293.638 609.514 294.023 609.514 294.482V294.801H605.73V294.149H608.747C608.747 293.872 608.691 293.625 608.58 293.408C608.472 293.19 608.316 293.019 608.114 292.893C607.914 292.767 607.677 292.705 607.404 292.705C607.104 292.705 606.844 292.779 606.624 292.928C606.407 293.075 606.24 293.267 606.123 293.504C606.006 293.74 605.947 293.994 605.947 294.264V294.699C605.947 295.07 606.011 295.384 606.139 295.642C606.269 295.897 606.449 296.092 606.679 296.227C606.909 296.359 607.176 296.425 607.481 296.425C607.679 296.425 607.858 296.397 608.018 296.342C608.18 296.284 608.319 296.199 608.437 296.086C608.554 295.971 608.644 295.828 608.708 295.658L609.437 295.862C609.36 296.109 609.231 296.327 609.05 296.514C608.869 296.7 608.645 296.844 608.379 296.949C608.113 297.051 607.813 297.102 607.481 297.102ZM610.661 298.841V292.091H611.39V292.871H611.479C611.535 292.786 611.611 292.677 611.709 292.545C611.809 292.411 611.952 292.291 612.138 292.187C612.325 292.08 612.579 292.027 612.898 292.027C613.312 292.027 613.676 292.13 613.991 292.337C614.307 292.544 614.553 292.837 614.73 293.216C614.906 293.595 614.995 294.043 614.995 294.558C614.995 295.078 614.906 295.529 614.73 295.91C614.553 296.289 614.308 296.583 613.994 296.792C613.681 296.999 613.32 297.102 612.911 297.102C612.596 297.102 612.343 297.05 612.154 296.946C611.964 296.839 611.818 296.719 611.716 296.585C611.613 296.448 611.535 296.335 611.479 296.246H611.415V298.841H610.661ZM611.403 294.545C611.403 294.916 611.457 295.243 611.566 295.527C611.674 295.808 611.833 296.028 612.042 296.188C612.251 296.346 612.506 296.425 612.809 296.425C613.124 296.425 613.387 296.342 613.598 296.175C613.811 296.007 613.971 295.781 614.078 295.498C614.186 295.212 614.241 294.895 614.241 294.545C614.241 294.2 614.187 293.889 614.081 293.612C613.976 293.333 613.818 293.113 613.605 292.951C613.394 292.787 613.128 292.705 612.809 292.705C612.502 292.705 612.244 292.782 612.035 292.938C611.827 293.091 611.669 293.306 611.562 293.583C611.456 293.858 611.403 294.179 611.403 294.545Z" fill="#585858"/>
<path d="M677.8 293.727C677.8 294.418 677.675 295.014 677.426 295.517C677.176 296.02 676.835 296.408 676.4 296.68C675.965 296.953 675.469 297.089 674.911 297.089C674.352 297.089 673.856 296.953 673.421 296.68C672.987 296.408 672.645 296.02 672.395 295.517C672.146 295.014 672.021 294.418 672.021 293.727C672.021 293.037 672.146 292.44 672.395 291.938C672.645 291.435 672.987 291.047 673.421 290.774C673.856 290.501 674.352 290.365 674.911 290.365C675.469 290.365 675.965 290.501 676.4 290.774C676.835 291.047 677.176 291.435 677.426 291.938C677.675 292.44 677.8 293.037 677.8 293.727ZM677.033 293.727C677.033 293.161 676.938 292.682 676.748 292.292C676.561 291.902 676.306 291.607 675.984 291.407C675.665 291.207 675.307 291.107 674.911 291.107C674.514 291.107 674.155 291.207 673.833 291.407C673.514 291.607 673.259 291.902 673.07 292.292C672.882 292.682 672.788 293.161 672.788 293.727C672.788 294.294 672.882 294.772 673.07 295.162C673.259 295.552 673.514 295.847 673.833 296.048C674.155 296.248 674.514 296.348 674.911 296.348C675.307 296.348 675.665 296.248 675.984 296.048C676.306 295.847 676.561 295.552 676.748 295.162C676.938 294.772 677.033 294.294 677.033 293.727ZM681.025 297.102C680.564 297.102 680.168 296.994 679.836 296.776C679.503 296.559 679.248 296.26 679.069 295.878C678.89 295.497 678.8 295.061 678.8 294.571C678.8 294.072 678.892 293.632 679.075 293.251C679.26 292.868 679.518 292.568 679.848 292.353C680.181 292.136 680.569 292.027 681.012 292.027C681.357 292.027 681.668 292.091 681.945 292.219C682.222 292.347 682.449 292.526 682.626 292.756C682.803 292.986 682.912 293.254 682.955 293.561H682.201C682.143 293.337 682.015 293.139 681.817 292.967C681.621 292.792 681.357 292.705 681.025 292.705C680.73 292.705 680.473 292.781 680.251 292.935C680.032 293.086 679.86 293.3 679.737 293.577C679.615 293.852 679.554 294.175 679.554 294.545C679.554 294.925 679.614 295.255 679.733 295.536C679.855 295.817 680.025 296.036 680.245 296.191C680.466 296.347 680.726 296.425 681.025 296.425C681.221 296.425 681.398 296.391 681.558 296.322C681.718 296.254 681.853 296.156 681.964 296.028C682.075 295.901 682.154 295.747 682.201 295.568H682.955C682.912 295.858 682.807 296.119 682.638 296.351C682.472 296.581 682.252 296.765 681.977 296.901C681.704 297.035 681.387 297.102 681.025 297.102ZM686.192 292.091V292.73H683.648V292.091H686.192ZM684.39 290.915H685.144V295.594C685.144 295.807 685.175 295.967 685.237 296.073C685.301 296.178 685.382 296.248 685.48 296.284C685.58 296.318 685.685 296.335 685.796 296.335C685.879 296.335 685.947 296.331 686.001 296.322C686.054 296.312 686.097 296.303 686.129 296.297L686.282 296.974C686.231 296.994 686.159 297.013 686.068 297.032C685.976 297.053 685.86 297.064 685.719 297.064C685.506 297.064 685.298 297.018 685.093 296.926C684.891 296.835 684.722 296.695 684.588 296.508C684.456 296.32 684.39 296.084 684.39 295.798V290.915Z" fill="#585858"/>
<path d="M747.821 290.455V297H747.054L743.487 291.861H743.423V297H742.631V290.455H743.398L746.977 295.607H747.041V290.455H747.821ZM751.299 297.102C750.856 297.102 750.467 296.997 750.132 296.786C749.8 296.575 749.54 296.28 749.353 295.901C749.167 295.521 749.074 295.078 749.074 294.571C749.074 294.06 749.167 293.613 749.353 293.232C749.54 292.85 749.8 292.554 750.132 292.343C750.467 292.132 750.856 292.027 751.299 292.027C751.742 292.027 752.13 292.132 752.462 292.343C752.797 292.554 753.057 292.85 753.242 293.232C753.43 293.613 753.523 294.06 753.523 294.571C753.523 295.078 753.43 295.521 753.242 295.901C753.057 296.28 752.797 296.575 752.462 296.786C752.13 296.997 751.742 297.102 751.299 297.102ZM751.299 296.425C751.636 296.425 751.913 296.338 752.13 296.166C752.347 295.993 752.508 295.766 752.612 295.485C752.717 295.204 752.769 294.899 752.769 294.571C752.769 294.243 752.717 293.937 752.612 293.654C752.508 293.37 752.347 293.141 752.13 292.967C751.913 292.792 751.636 292.705 751.299 292.705C750.962 292.705 750.685 292.792 750.468 292.967C750.251 293.141 750.09 293.37 749.985 293.654C749.881 293.937 749.829 294.243 749.829 294.571C749.829 294.899 749.881 295.204 749.985 295.485C750.09 295.766 750.251 295.993 750.468 296.166C750.685 296.338 750.962 296.425 751.299 296.425ZM758.513 292.091L756.698 297H755.931L754.115 292.091H754.934L756.289 296.003H756.34L757.695 292.091H758.513Z" fill="#585858"/>
<path d="M817.078 297H815.058V290.455H817.168C817.803 290.455 818.346 290.586 818.798 290.848C819.249 291.108 819.596 291.482 819.836 291.969C820.077 292.455 820.197 293.037 820.197 293.714C820.197 294.396 820.076 294.983 819.833 295.475C819.59 295.966 819.237 296.343 818.772 296.607C818.308 296.869 817.743 297 817.078 297ZM815.851 296.297H817.027C817.568 296.297 818.017 296.192 818.373 295.984C818.728 295.775 818.994 295.478 819.168 295.092C819.343 294.706 819.43 294.247 819.43 293.714C819.43 293.186 819.344 292.731 819.172 292.35C818.999 291.966 818.741 291.672 818.398 291.468C818.055 291.261 817.628 291.158 817.116 291.158H815.851V296.297ZM823.483 297.102C823.01 297.102 822.602 296.998 822.259 296.789C821.918 296.578 821.655 296.284 821.469 295.907C821.286 295.528 821.195 295.087 821.195 294.584C821.195 294.081 821.286 293.638 821.469 293.254C821.655 292.869 821.913 292.568 822.243 292.353C822.575 292.136 822.963 292.027 823.406 292.027C823.662 292.027 823.914 292.07 824.164 292.155C824.413 292.24 824.64 292.379 824.844 292.57C825.049 292.76 825.212 293.011 825.333 293.325C825.455 293.638 825.516 294.023 825.516 294.482V294.801H821.732V294.149H824.749C824.749 293.872 824.693 293.625 824.582 293.408C824.474 293.19 824.318 293.019 824.116 292.893C823.915 292.767 823.679 292.705 823.406 292.705C823.106 292.705 822.846 292.779 822.626 292.928C822.409 293.075 822.242 293.267 822.125 293.504C822.007 293.74 821.949 293.994 821.949 294.264V294.699C821.949 295.07 822.013 295.384 822.141 295.642C822.271 295.897 822.451 296.092 822.681 296.227C822.911 296.359 823.178 296.425 823.483 296.425C823.681 296.425 823.86 296.397 824.02 296.342C824.182 296.284 824.321 296.199 824.439 296.086C824.556 295.971 824.646 295.828 824.71 295.658L825.439 295.862C825.362 296.109 825.233 296.327 825.052 296.514C824.871 296.7 824.647 296.844 824.381 296.949C824.115 297.051 823.815 297.102 823.483 297.102ZM828.657 297.102C828.197 297.102 827.801 296.994 827.468 296.776C827.136 296.559 826.88 296.26 826.701 295.878C826.522 295.497 826.433 295.061 826.433 294.571C826.433 294.072 826.525 293.632 826.708 293.251C826.893 292.868 827.151 292.568 827.481 292.353C827.814 292.136 828.201 292.027 828.645 292.027C828.99 292.027 829.301 292.091 829.578 292.219C829.855 292.347 830.082 292.526 830.259 292.756C830.435 292.986 830.545 293.254 830.588 293.561H829.833C829.776 293.337 829.648 293.139 829.45 292.967C829.254 292.792 828.99 292.705 828.657 292.705C828.363 292.705 828.105 292.781 827.884 292.935C827.664 293.086 827.493 293.3 827.369 293.577C827.248 293.852 827.187 294.175 827.187 294.545C827.187 294.925 827.247 295.255 827.366 295.536C827.488 295.817 827.658 296.036 827.877 296.191C828.099 296.347 828.359 296.425 828.657 296.425C828.853 296.425 829.031 296.391 829.191 296.322C829.351 296.254 829.486 296.156 829.597 296.028C829.708 295.901 829.787 295.747 829.833 295.568H830.588C830.545 295.858 830.44 296.119 830.271 296.351C830.105 296.581 829.885 296.765 829.61 296.901C829.337 297.035 829.02 297.102 828.657 297.102Z" fill="#585858"/>
</svg>
