<svg width="208" height="101" viewBox="0 0 208 101" fill="none" xmlns="http://www.w3.org/2000/svg">
<path d="M7.3125 34.3516V42.3516H6.375L2.01563 36.0703H1.9375V42.3516H0.96875V34.3516H1.90625L6.28125 40.6484H6.35938V34.3516H7.3125ZM11.6416 42.4766C11.0635 42.4766 10.5648 42.349 10.1455 42.0938C9.72884 41.8359 9.40723 41.4766 9.18066 41.0156C8.95671 40.5521 8.84473 40.013 8.84473 39.3984C8.84473 38.7839 8.95671 38.2422 9.18066 37.7734C9.40723 37.3021 9.72233 36.9349 10.126 36.6719C10.5322 36.4062 11.0062 36.2734 11.5479 36.2734C11.8604 36.2734 12.1689 36.3255 12.4736 36.4297C12.7783 36.5339 13.0557 36.7031 13.3057 36.9375C13.5557 37.1693 13.7549 37.4766 13.9033 37.8594C14.0518 38.2422 14.126 38.7135 14.126 39.2734V39.6641H9.50098V38.8672H13.1885C13.1885 38.5286 13.1208 38.2266 12.9854 37.9609C12.8525 37.6953 12.6624 37.4857 12.415 37.332C12.1702 37.1784 11.8812 37.1016 11.5479 37.1016C11.1807 37.1016 10.863 37.1927 10.5947 37.375C10.3291 37.5547 10.1247 37.7891 9.98145 38.0781C9.83822 38.3672 9.7666 38.6771 9.7666 39.0078V39.5391C9.7666 39.9922 9.84473 40.3763 10.001 40.6914C10.1598 41.0039 10.3799 41.2422 10.6611 41.4062C10.9424 41.5677 11.2692 41.6484 11.6416 41.6484C11.8838 41.6484 12.1025 41.6146 12.2979 41.5469C12.4958 41.4766 12.6663 41.3724 12.8096 41.2344C12.9528 41.0937 13.0635 40.9193 13.1416 40.7109L14.0322 40.9609C13.9385 41.263 13.7809 41.5286 13.5596 41.7578C13.3382 41.9844 13.0648 42.1615 12.7393 42.2891C12.4137 42.4141 12.0479 42.4766 11.6416 42.4766ZM17.9502 44.7266C17.5049 44.7266 17.1221 44.6693 16.8018 44.5547C16.4814 44.4427 16.2145 44.2943 16.001 44.1094C15.79 43.9271 15.6221 43.7318 15.4971 43.5234L16.2314 43.0078C16.3148 43.1172 16.4202 43.2422 16.5479 43.3828C16.6755 43.526 16.8499 43.6497 17.0713 43.7539C17.2952 43.8607 17.5882 43.9141 17.9502 43.9141C18.4346 43.9141 18.8343 43.7969 19.1494 43.5625C19.4645 43.3281 19.6221 42.9609 19.6221 42.4609V41.2422H19.5439C19.4762 41.3516 19.3799 41.487 19.2549 41.6484C19.1325 41.8073 18.9554 41.9492 18.7236 42.0742C18.4945 42.1966 18.1846 42.2578 17.7939 42.2578C17.3096 42.2578 16.8747 42.1432 16.4893 41.9141C16.1064 41.6849 15.8031 41.3516 15.5791 40.9141C15.3577 40.4766 15.2471 39.9453 15.2471 39.3203C15.2471 38.7057 15.3551 38.1706 15.5713 37.7148C15.7874 37.2565 16.0882 36.9023 16.4736 36.6523C16.859 36.3997 17.3044 36.2734 17.8096 36.2734C18.2002 36.2734 18.5101 36.3385 18.7393 36.4688C18.971 36.5964 19.1481 36.7422 19.2705 36.9062C19.3955 37.0677 19.4919 37.2005 19.5596 37.3047H19.6533V36.3516H20.5439V42.5234C20.5439 43.0391 20.4268 43.4583 20.1924 43.7813C19.9606 44.1068 19.6481 44.3451 19.2549 44.4961C18.8643 44.6497 18.4294 44.7266 17.9502 44.7266ZM17.9189 41.4297C18.2887 41.4297 18.6012 41.3451 18.8564 41.1758C19.1117 41.0065 19.3057 40.763 19.4385 40.4453C19.5713 40.1276 19.6377 39.7474 19.6377 39.3047C19.6377 38.8724 19.5726 38.4909 19.4424 38.1602C19.3122 37.8294 19.1195 37.5703 18.8643 37.3828C18.609 37.1953 18.2939 37.1016 17.9189 37.1016C17.5283 37.1016 17.2028 37.2005 16.9424 37.3984C16.6846 37.5964 16.4906 37.862 16.3604 38.1953C16.2327 38.5286 16.1689 38.8984 16.1689 39.3047C16.1689 39.7214 16.234 40.0898 16.3643 40.4102C16.4971 40.7279 16.6924 40.9779 16.9502 41.1602C17.2106 41.3398 17.5335 41.4297 17.9189 41.4297ZM23.9971 42.4922C23.6169 42.4922 23.2718 42.4206 22.9619 42.2773C22.652 42.1315 22.4059 41.9219 22.2236 41.6484C22.0413 41.3724 21.9502 41.0391 21.9502 40.6484C21.9502 40.3047 22.0179 40.026 22.1533 39.8125C22.2887 39.5964 22.4697 39.4271 22.6963 39.3047C22.9229 39.1823 23.1729 39.0911 23.4463 39.0312C23.7223 38.9688 23.9997 38.9193 24.2783 38.8828C24.6429 38.8359 24.9385 38.8008 25.165 38.7773C25.3942 38.7513 25.5609 38.7083 25.665 38.6484C25.7718 38.5885 25.8252 38.4844 25.8252 38.3359V38.3047C25.8252 37.9193 25.7197 37.6198 25.5088 37.4062C25.3005 37.1927 24.984 37.0859 24.5596 37.0859C24.1195 37.0859 23.7744 37.1823 23.5244 37.375C23.2744 37.5677 23.0986 37.7734 22.9971 37.9922L22.1221 37.6797C22.2783 37.3151 22.4867 37.0312 22.7471 36.8281C23.0101 36.6224 23.2965 36.4792 23.6064 36.3984C23.9189 36.3151 24.2262 36.2734 24.5283 36.2734C24.721 36.2734 24.9424 36.2969 25.1924 36.3437C25.445 36.388 25.6885 36.4805 25.9229 36.6211C26.1598 36.7617 26.3564 36.974 26.5127 37.2578C26.6689 37.5417 26.7471 37.9219 26.7471 38.3984V42.3516H25.8252V41.5391H25.7783C25.7158 41.6693 25.6117 41.8086 25.4658 41.957C25.32 42.1055 25.126 42.2318 24.8838 42.3359C24.6416 42.4401 24.346 42.4922 23.9971 42.4922ZM24.1377 41.6641C24.5023 41.6641 24.8096 41.5924 25.0596 41.4492C25.3122 41.306 25.5023 41.1211 25.6299 40.8945C25.7601 40.668 25.8252 40.4297 25.8252 40.1797V39.3359C25.7861 39.3828 25.7002 39.4258 25.5674 39.4648C25.4372 39.5013 25.2861 39.5339 25.1143 39.5625C24.945 39.5885 24.7796 39.612 24.6182 39.6328C24.4593 39.651 24.3304 39.6667 24.2314 39.6797C23.9919 39.7109 23.7679 39.7617 23.5596 39.832C23.3538 39.8997 23.1872 40.0026 23.0596 40.1406C22.9346 40.276 22.8721 40.4609 22.8721 40.6953C22.8721 41.0156 22.9906 41.2578 23.2275 41.4219C23.4671 41.5833 23.7705 41.6641 24.1377 41.6641ZM31.0391 36.3516V37.1328H27.9297V36.3516H31.0391ZM28.8359 34.9141H29.7578V40.6328C29.7578 40.8932 29.7956 41.0885 29.8711 41.2187C29.9492 41.3464 30.0482 41.4323 30.168 41.4766C30.2904 41.5182 30.4193 41.5391 30.5547 41.5391C30.6563 41.5391 30.7396 41.5339 30.8047 41.5234C30.8698 41.5104 30.9219 41.5 30.9609 41.4922L31.1484 42.3203C31.0859 42.3437 30.9987 42.3672 30.8867 42.3906C30.7747 42.4167 30.6328 42.4297 30.4609 42.4297C30.2005 42.4297 29.9453 42.3737 29.6953 42.2617C29.4479 42.1497 29.2422 41.9792 29.0781 41.75C28.9167 41.5208 28.8359 41.2318 28.8359 40.8828V34.9141ZM32.4258 42.3516V36.3516H33.3477V42.3516H32.4258ZM32.8945 35.3516C32.7148 35.3516 32.5599 35.2904 32.4297 35.168C32.3021 35.0456 32.2383 34.8984 32.2383 34.7266C32.2383 34.5547 32.3021 34.4076 32.4297 34.2852C32.5599 34.1628 32.7148 34.1016 32.8945 34.1016C33.0742 34.1016 33.2279 34.1628 33.3555 34.2852C33.4857 34.4076 33.5508 34.5547 33.5508 34.7266C33.5508 34.8984 33.4857 35.0456 33.3555 35.168C33.2279 35.2904 33.0742 35.3516 32.8945 35.3516ZM39.9424 36.3516L37.7236 42.3516H36.7861L34.5674 36.3516H35.5674L37.2236 41.1328H37.2861L38.9424 36.3516H39.9424ZM43.46 42.4766C42.8818 42.4766 42.3831 42.349 41.9639 42.0938C41.5472 41.8359 41.2256 41.4766 40.999 41.0156C40.7751 40.5521 40.6631 40.013 40.6631 39.3984C40.6631 38.7839 40.7751 38.2422 40.999 37.7734C41.2256 37.3021 41.5407 36.9349 41.9443 36.6719C42.3506 36.4062 42.8245 36.2734 43.3662 36.2734C43.6787 36.2734 43.9873 36.3255 44.292 36.4297C44.5967 36.5339 44.874 36.7031 45.124 36.9375C45.374 37.1693 45.5732 37.4766 45.7217 37.8594C45.8701 38.2422 45.9443 38.7135 45.9443 39.2734V39.6641H41.3193V38.8672H45.0068C45.0068 38.5286 44.9391 38.2266 44.8037 37.9609C44.6709 37.6953 44.4808 37.4857 44.2334 37.332C43.9886 37.1784 43.6995 37.1016 43.3662 37.1016C42.999 37.1016 42.6813 37.1927 42.4131 37.375C42.1475 37.5547 41.943 37.7891 41.7998 38.0781C41.6566 38.3672 41.585 38.6771 41.585 39.0078V39.5391C41.585 39.9922 41.6631 40.3763 41.8193 40.6914C41.9782 41.0039 42.1982 41.2422 42.4795 41.4062C42.7607 41.5677 43.0876 41.6484 43.46 41.6484C43.7021 41.6484 43.9209 41.6146 44.1162 41.5469C44.3141 41.4766 44.4847 41.3724 44.6279 41.2344C44.7712 41.0937 44.8818 40.9193 44.96 40.7109L45.8506 40.9609C45.7568 41.263 45.5993 41.5286 45.3779 41.7578C45.1566 41.9844 44.8831 42.1615 44.5576 42.2891C44.2321 42.4141 43.8662 42.4766 43.46 42.4766Z" fill="#585858"/>
<path d="M10.5554 65.5504C9.49479 65.5504 8.55019 65.3681 7.72159 65.0036C6.89773 64.6342 6.24669 64.1276 5.76847 63.4837C5.29498 62.835 5.05114 62.0869 5.03693 61.2393H8.13352C8.15246 61.5945 8.26847 61.907 8.48153 62.1768C8.69934 62.442 8.98816 62.648 9.34801 62.7947C9.70786 62.9415 10.1127 63.0149 10.5625 63.0149C11.0312 63.0149 11.4455 62.9321 11.8054 62.7663C12.1652 62.6006 12.447 62.371 12.6506 62.0774C12.8542 61.7839 12.956 61.4453 12.956 61.0618C12.956 60.6735 12.8471 60.3303 12.6293 60.032C12.4162 59.7289 12.1084 59.4922 11.706 59.3217C11.3082 59.1513 10.8348 59.0661 10.2855 59.0661H8.92898V56.8075H10.2855C10.7495 56.8075 11.1591 56.727 11.5142 56.5661C11.8741 56.4051 12.1534 56.1825 12.3523 55.8984C12.5511 55.6096 12.6506 55.2734 12.6506 54.8899C12.6506 54.5253 12.563 54.2057 12.3878 53.9311C12.2173 53.6518 11.9759 53.4339 11.6634 53.2777C11.3556 53.1214 10.9957 53.0433 10.5838 53.0433C10.1671 53.0433 9.78598 53.1191 9.44034 53.2706C9.0947 53.4174 8.81771 53.6281 8.60938 53.9027C8.40104 54.1773 8.28977 54.4993 8.27557 54.8686H5.32812C5.34233 54.0305 5.58144 53.2919 6.04545 52.6527C6.50947 52.0135 7.13447 51.514 7.92045 51.1541C8.71117 50.7895 9.60369 50.6072 10.598 50.6072C11.6018 50.6072 12.4801 50.7895 13.233 51.1541C13.9858 51.5187 14.5705 52.0111 14.9872 52.6314C15.4086 53.2469 15.617 53.9382 15.6122 54.7053C15.617 55.5196 15.3636 56.1991 14.8523 56.7436C14.3456 57.2881 13.6851 57.6338 12.8707 57.7805V57.8942C13.9408 58.0315 14.7552 58.4032 15.3139 59.0092C15.8774 59.6106 16.1567 60.3634 16.152 61.2678C16.1567 62.0964 15.9176 62.8326 15.4347 63.4766C14.9564 64.1205 14.2959 64.6271 13.4531 64.9964C12.6103 65.3658 11.6444 65.5504 10.5554 65.5504ZM23.7887 65.5504C22.695 65.5504 21.7219 65.3729 20.8697 65.0178C20.0221 64.6579 19.3569 64.1679 18.8739 63.5476C18.391 62.9273 18.1495 62.2242 18.1495 61.4382C18.1495 60.8321 18.2868 60.2758 18.5614 59.7692C18.8408 59.2578 19.2196 58.834 19.6978 58.4979C20.176 58.157 20.7111 57.9392 21.3029 57.8445V57.745C20.5264 57.5888 19.8967 57.2124 19.4137 56.6158C18.9308 56.0144 18.6893 55.3161 18.6893 54.5206C18.6893 53.7678 18.9094 53.0978 19.3498 52.5107C19.7901 51.9188 20.3938 51.4548 21.1609 51.1186C21.9326 50.7777 22.8086 50.6072 23.7887 50.6072C24.7688 50.6072 25.6424 50.7777 26.4094 51.1186C27.1812 51.4595 27.7873 51.9259 28.2276 52.5178C28.668 53.1049 28.8905 53.7725 28.8952 54.5206C28.8905 55.3208 28.6443 56.0192 28.1566 56.6158C27.6689 57.2124 27.0439 57.5888 26.2816 57.745V57.8445C26.864 57.9392 27.3919 58.157 27.8654 58.4979C28.3436 58.834 28.7224 59.2578 29.0018 59.7692C29.2859 60.2758 29.4303 60.8321 29.435 61.4382C29.4303 62.2242 29.1864 62.9273 28.7035 63.5476C28.2205 64.1679 27.5529 64.6579 26.7006 65.0178C25.8531 65.3729 24.8825 65.5504 23.7887 65.5504ZM23.7887 63.2919C24.2764 63.2919 24.7025 63.2043 25.0671 63.0291C25.4317 62.8492 25.7158 62.603 25.9194 62.2905C26.1277 61.9732 26.2319 61.6087 26.2319 61.1967C26.2319 60.7753 26.1254 60.4036 25.9123 60.0817C25.6992 59.755 25.4104 59.4993 25.0458 59.3146C24.6812 59.1252 24.2622 59.0305 23.7887 59.0305C23.32 59.0305 22.9009 59.1252 22.5316 59.3146C22.1623 59.4993 21.8711 59.755 21.658 60.0817C21.4497 60.4036 21.3455 60.7753 21.3455 61.1967C21.3455 61.6087 21.4473 61.9732 21.6509 62.2905C21.8545 62.603 22.141 62.8492 22.5103 63.0291C22.8796 63.2043 23.3058 63.2919 23.7887 63.2919ZM23.7887 56.7933C24.1959 56.7933 24.5581 56.7105 24.8754 56.5447C25.1926 56.379 25.4412 56.1494 25.6211 55.8558C25.801 55.5623 25.891 55.2237 25.891 54.8402C25.891 54.4614 25.801 54.13 25.6211 53.8459C25.4412 53.5571 25.195 53.3321 24.8825 53.1712C24.57 53.0054 24.2054 52.9226 23.7887 52.9226C23.3768 52.9226 23.0122 53.0054 22.695 53.1712C22.3777 53.3321 22.1291 53.5571 21.9492 53.8459C21.774 54.13 21.6864 54.4614 21.6864 54.8402C21.6864 55.2237 21.7764 55.5623 21.9563 55.8558C22.1362 56.1494 22.3848 56.379 22.7021 56.5447C23.0193 56.7105 23.3815 56.7933 23.7887 56.7933ZM36.8047 63.4425V62.9055C36.8047 62.4979 36.8909 62.1233 37.0632 61.782C37.2389 61.4373 37.4924 61.1622 37.8239 60.9567C38.1586 60.7479 38.5663 60.6435 39.0469 60.6435C39.5341 60.6435 39.9434 60.7462 40.2749 60.9517C40.6096 61.1572 40.8615 61.4323 41.0305 61.777C41.2029 62.1184 41.2891 62.4946 41.2891 62.9055V63.4425C41.2891 63.8501 41.2029 64.2263 41.0305 64.571C40.8582 64.9124 40.6046 65.1858 40.2699 65.3913C39.9351 65.6001 39.5275 65.7045 39.0469 65.7045C38.5597 65.7045 38.1503 65.6001 37.8189 65.3913C37.4875 65.1858 37.2356 64.9124 37.0632 64.571C36.8909 64.2263 36.8047 63.8501 36.8047 63.4425ZM38.2514 62.9055V63.4425C38.2514 63.6778 38.3078 63.8999 38.4205 64.1087C38.5365 64.3175 38.7453 64.4219 39.0469 64.4219C39.3485 64.4219 39.554 64.3191 39.6634 64.1136C39.776 63.9081 39.8324 63.6844 39.8324 63.4425V62.9055C39.8324 62.6636 39.7794 62.4382 39.6733 62.2294C39.5672 62.0206 39.3584 61.9162 39.0469 61.9162C38.7486 61.9162 38.5414 62.0206 38.4254 62.2294C38.3094 62.4382 38.2514 62.6636 38.2514 62.9055ZM31.5795 57.6158V57.0788C31.5795 56.6679 31.6674 56.2917 31.843 55.9503C32.0187 55.6056 32.2723 55.3305 32.6037 55.125C32.9384 54.9195 33.3428 54.8168 33.8168 54.8168C34.3073 54.8168 34.7183 54.9195 35.0497 55.125C35.3812 55.3305 35.633 55.6056 35.8054 55.9503C35.9777 56.2917 36.0639 56.6679 36.0639 57.0788V57.6158C36.0639 58.0268 35.9761 58.4029 35.8004 58.7443C35.6281 59.0857 35.3745 59.3591 35.0398 59.5646C34.7083 59.7668 34.3007 59.8679 33.8168 59.8679C33.3329 59.8679 32.9235 59.7652 32.5888 59.5597C32.2573 59.3509 32.0054 59.0774 31.8331 58.7393C31.6641 58.398 31.5795 58.0234 31.5795 57.6158ZM33.0362 57.0788V57.6158C33.0362 57.8577 33.0926 58.0814 33.2053 58.2869C33.3213 58.4924 33.5251 58.5952 33.8168 58.5952C34.1217 58.5952 34.3288 58.4924 34.4382 58.2869C34.5509 58.0814 34.6072 57.8577 34.6072 57.6158V57.0788C34.6072 56.8369 34.5542 56.6115 34.4482 56.4027C34.3421 56.1939 34.1316 56.0895 33.8168 56.0895C33.5218 56.0895 33.3179 56.1955 33.2053 56.4077C33.0926 56.6198 33.0362 56.8435 33.0362 57.0788ZM32.2358 65.3516L39.2358 55.1697H40.5384L33.5384 65.3516H32.2358Z" fill="black"/>
<path d="M107 100.852C120.261 100.852 132.979 95.5837 142.355 86.2069C151.732 76.8301 157 64.1124 157 50.8516C157 37.5907 151.732 24.873 142.355 15.4962C132.979 6.11941 120.261 0.851563 107 0.85156L107 50.8515L107 100.852Z" fill="#78D161"/>
<path d="M103.438 19.9527C95.0943 19.9527 87.0922 23.2673 81.1922 29.1673C75.2921 35.0673 71.9775 43.0695 71.9775 51.4134C71.9775 59.7572 75.2921 67.7594 81.1922 73.6594C87.0922 79.5594 95.0943 82.874 103.438 82.874L103.438 51.4134L103.438 19.9527Z" fill="#FF6888"/>
<path d="M167.969 42.3516V34.3516H170.672C171.299 34.3516 171.813 34.4648 172.211 34.6914C172.612 34.9154 172.909 35.2188 173.102 35.6016C173.294 35.9844 173.391 36.4115 173.391 36.8828C173.391 37.3542 173.294 37.7826 173.102 38.168C172.911 38.5534 172.617 38.8607 172.219 39.0898C171.82 39.3164 171.31 39.4297 170.688 39.4297H168.75V38.5703H170.656C171.086 38.5703 171.431 38.4961 171.691 38.3477C171.952 38.1992 172.141 37.9987 172.258 37.7461C172.378 37.4909 172.438 37.2031 172.438 36.8828C172.438 36.5625 172.378 36.276 172.258 36.0234C172.141 35.7708 171.951 35.5729 171.688 35.4297C171.424 35.2839 171.076 35.2109 170.641 35.2109H168.938V42.3516H167.969ZM177.199 42.4766C176.658 42.4766 176.182 42.3477 175.773 42.0898C175.367 41.832 175.049 41.4714 174.82 41.0078C174.594 40.5443 174.48 40.0026 174.48 39.3828C174.48 38.7578 174.594 38.2122 174.82 37.7461C175.049 37.2799 175.367 36.918 175.773 36.6602C176.182 36.4023 176.658 36.2734 177.199 36.2734C177.741 36.2734 178.215 36.4023 178.621 36.6602C179.03 36.918 179.348 37.2799 179.574 37.7461C179.803 38.2122 179.918 38.7578 179.918 39.3828C179.918 40.0026 179.803 40.5443 179.574 41.0078C179.348 41.4714 179.03 41.832 178.621 42.0898C178.215 42.3477 177.741 42.4766 177.199 42.4766ZM177.199 41.6484C177.611 41.6484 177.949 41.543 178.215 41.332C178.48 41.1211 178.677 40.8437 178.805 40.5C178.932 40.1562 178.996 39.7839 178.996 39.3828C178.996 38.9818 178.932 38.6081 178.805 38.2617C178.677 37.9154 178.48 37.6354 178.215 37.4219C177.949 37.2083 177.611 37.1016 177.199 37.1016C176.788 37.1016 176.449 37.2083 176.184 37.4219C175.918 37.6354 175.721 37.9154 175.594 38.2617C175.466 38.6081 175.402 38.9818 175.402 39.3828C175.402 39.7839 175.466 40.1562 175.594 40.5C175.721 40.8437 175.918 41.1211 176.184 41.332C176.449 41.543 176.788 41.6484 177.199 41.6484ZM185.575 37.6953L184.747 37.9297C184.695 37.7917 184.618 37.6576 184.517 37.5273C184.418 37.3945 184.282 37.2852 184.11 37.1992C183.938 37.1133 183.718 37.0703 183.45 37.0703C183.083 37.0703 182.777 37.1549 182.532 37.3242C182.29 37.4909 182.169 37.7031 182.169 37.9609C182.169 38.1901 182.252 38.3711 182.419 38.5039C182.586 38.6367 182.846 38.7474 183.2 38.8359L184.091 39.0547C184.627 39.1849 185.027 39.3841 185.29 39.6523C185.553 39.918 185.685 40.2604 185.685 40.6797C185.685 41.0234 185.586 41.3307 185.388 41.6016C185.192 41.8724 184.919 42.0859 184.567 42.2422C184.216 42.3984 183.807 42.4766 183.341 42.4766C182.729 42.4766 182.222 42.3438 181.821 42.0781C181.42 41.8125 181.166 41.4245 181.06 40.9141L181.935 40.6953C182.018 41.0182 182.175 41.2604 182.407 41.4219C182.642 41.5833 182.948 41.6641 183.325 41.6641C183.755 41.6641 184.096 41.5729 184.349 41.3906C184.604 41.2057 184.731 40.9844 184.731 40.7266C184.731 40.5182 184.659 40.3437 184.513 40.2031C184.367 40.0599 184.143 39.9531 183.841 39.8828L182.841 39.6484C182.291 39.5182 181.888 39.3164 181.63 39.043C181.375 38.7669 181.247 38.4219 181.247 38.0078C181.247 37.6693 181.342 37.3698 181.532 37.1094C181.725 36.849 181.987 36.6445 182.317 36.4961C182.651 36.3477 183.028 36.2734 183.45 36.2734C184.044 36.2734 184.51 36.4036 184.849 36.6641C185.19 36.9245 185.432 37.2682 185.575 37.6953ZM187.072 42.3516V36.3516H187.994V42.3516H187.072ZM187.541 35.3516C187.361 35.3516 187.206 35.2904 187.076 35.168C186.949 35.0456 186.885 34.8984 186.885 34.7266C186.885 34.5547 186.949 34.4076 187.076 34.2852C187.206 34.1628 187.361 34.1016 187.541 34.1016C187.721 34.1016 187.874 34.1628 188.002 34.2852C188.132 34.4076 188.197 34.5547 188.197 34.7266C188.197 34.8984 188.132 35.0456 188.002 35.168C187.874 35.2904 187.721 35.3516 187.541 35.3516ZM192.292 36.3516V37.1328H189.183V36.3516H192.292ZM190.089 34.9141H191.011V40.6328C191.011 40.8932 191.049 41.0885 191.124 41.2187C191.202 41.3464 191.301 41.4323 191.421 41.4766C191.543 41.5182 191.672 41.5391 191.808 41.5391C191.909 41.5391 191.993 41.5339 192.058 41.5234C192.123 41.5104 192.175 41.5 192.214 41.4922L192.401 42.3203C192.339 42.3437 192.252 42.3672 192.14 42.3906C192.028 42.4167 191.886 42.4297 191.714 42.4297C191.453 42.4297 191.198 42.3737 190.948 42.2617C190.701 42.1497 190.495 41.9792 190.331 41.75C190.17 41.5208 190.089 41.2318 190.089 40.8828V34.9141ZM193.679 42.3516V36.3516H194.601V42.3516H193.679ZM194.147 35.3516C193.968 35.3516 193.813 35.2904 193.683 35.168C193.555 35.0456 193.491 34.8984 193.491 34.7266C193.491 34.5547 193.555 34.4076 193.683 34.2852C193.813 34.1628 193.968 34.1016 194.147 34.1016C194.327 34.1016 194.481 34.1628 194.608 34.2852C194.739 34.4076 194.804 34.5547 194.804 34.7266C194.804 34.8984 194.739 35.0456 194.608 35.168C194.481 35.2904 194.327 35.3516 194.147 35.3516ZM201.195 36.3516L198.977 42.3516H198.039L195.82 36.3516H196.82L198.477 41.1328H198.539L200.195 36.3516H201.195ZM204.713 42.4766C204.135 42.4766 203.636 42.349 203.217 42.0938C202.8 41.8359 202.479 41.4766 202.252 41.0156C202.028 40.5521 201.916 40.013 201.916 39.3984C201.916 38.7839 202.028 38.2422 202.252 37.7734C202.479 37.3021 202.794 36.9349 203.197 36.6719C203.604 36.4062 204.077 36.2734 204.619 36.2734C204.932 36.2734 205.24 36.3255 205.545 36.4297C205.85 36.5339 206.127 36.7031 206.377 36.9375C206.627 37.1693 206.826 37.4766 206.975 37.8594C207.123 38.2422 207.197 38.7135 207.197 39.2734V39.6641H202.572V38.8672H206.26C206.26 38.5286 206.192 38.2266 206.057 37.9609C205.924 37.6953 205.734 37.4857 205.486 37.332C205.242 37.1784 204.952 37.1016 204.619 37.1016C204.252 37.1016 203.934 37.1927 203.666 37.375C203.4 37.5547 203.196 37.7891 203.053 38.0781C202.91 38.3672 202.838 38.6771 202.838 39.0078V39.5391C202.838 39.9922 202.916 40.3763 203.072 40.6914C203.231 41.0039 203.451 41.2422 203.732 41.4062C204.014 41.5677 204.34 41.6484 204.713 41.6484C204.955 41.6484 205.174 41.6146 205.369 41.5469C205.567 41.4766 205.738 41.3724 205.881 41.2344C206.024 41.0937 206.135 40.9193 206.213 40.7109L207.104 40.9609C207.01 41.263 206.852 41.5286 206.631 41.7578C206.41 41.9844 206.136 42.1615 205.811 42.2891C205.485 42.4141 205.119 42.4766 204.713 42.4766Z" fill="#585858"/>
<path d="M173.761 65.5504C173.013 65.5457 172.291 65.4202 171.595 65.174C170.904 64.9278 170.284 64.5277 169.734 63.9737C169.185 63.4197 168.75 62.6858 168.428 61.772C168.11 60.8582 167.952 59.736 167.952 58.4055C167.956 57.1839 168.096 56.0926 168.371 55.1314C168.65 54.1655 169.048 53.3464 169.564 52.674C170.085 52.0017 170.707 51.4903 171.432 51.1399C172.156 50.7848 172.968 50.6072 173.868 50.6072C174.839 50.6072 175.696 50.7966 176.439 51.1754C177.182 51.5495 177.779 52.0585 178.229 52.7024C178.683 53.3464 178.958 54.0684 179.053 54.8686H176.02C175.902 54.362 175.653 53.9643 175.274 53.6754C174.895 53.3866 174.427 53.2422 173.868 53.2422C172.921 53.2422 172.201 53.6541 171.709 54.478C171.221 55.3018 170.973 56.4216 170.963 57.8374H171.062C171.28 57.4065 171.574 57.0395 171.943 56.7365C172.317 56.4287 172.741 56.1944 173.214 56.0334C173.693 55.8677 174.197 55.7848 174.727 55.7848C175.589 55.7848 176.356 55.9884 177.028 56.3956C177.701 56.7981 178.231 57.352 178.619 58.0575C179.008 58.763 179.202 59.5703 179.202 60.4794C179.202 61.4643 178.972 62.3402 178.513 63.1072C178.058 63.8743 177.421 64.4756 176.602 64.9112C175.788 65.3421 174.841 65.5552 173.761 65.5504ZM173.747 63.1357C174.221 63.1357 174.644 63.022 175.018 62.7947C175.393 62.5675 175.686 62.2597 175.899 61.8714C176.112 61.4832 176.219 61.0476 176.219 60.5646C176.219 60.0817 176.112 59.6484 175.899 59.2649C175.691 58.8814 175.402 58.576 175.033 58.3487C174.663 58.1214 174.242 58.0078 173.768 58.0078C173.413 58.0078 173.084 58.0741 172.781 58.2067C172.483 58.3393 172.22 58.5239 171.993 58.7607C171.77 58.9974 171.595 59.272 171.467 59.5845C171.339 59.8923 171.276 60.2214 171.276 60.5717C171.276 61.0405 171.382 61.469 171.595 61.8572C171.813 62.2455 172.107 62.5556 172.476 62.7876C172.85 63.0196 173.274 63.1357 173.747 63.1357ZM181.382 65.3516V63.1357L186.56 58.3416C187 57.9155 187.369 57.532 187.668 57.1911C187.971 56.8501 188.2 56.5163 188.357 56.1896C188.513 55.8582 188.591 55.5007 188.591 55.1172C188.591 54.6911 188.494 54.3241 188.3 54.0163C188.106 53.7038 187.84 53.4647 187.504 53.299C187.168 53.1286 186.787 53.0433 186.361 53.0433C185.916 53.0433 185.527 53.1333 185.196 53.3132C184.865 53.4931 184.609 53.7512 184.429 54.0874C184.249 54.4235 184.159 54.8236 184.159 55.2876H181.24C181.24 54.3359 181.455 53.5097 181.886 52.8089C182.317 52.1082 182.921 51.5661 183.697 51.1825C184.474 50.799 185.369 50.6072 186.382 50.6072C187.424 50.6072 188.33 50.7919 189.102 51.1612C189.879 51.5258 190.482 52.0324 190.913 52.6811C191.344 53.3298 191.56 54.0732 191.56 54.9112C191.56 55.4605 191.451 56.0026 191.233 56.5376C191.02 57.0727 190.639 57.6669 190.089 58.3203C189.54 58.969 188.766 59.7479 187.767 60.657L185.643 62.7379V62.8374H191.751V65.3516H181.382ZM199.199 63.4425V62.9055C199.199 62.4979 199.285 62.1233 199.458 61.782C199.633 61.4373 199.887 61.1622 200.218 60.9567C200.553 60.7479 200.961 60.6435 201.441 60.6435C201.929 60.6435 202.338 60.7462 202.669 60.9517C203.004 61.1572 203.256 61.4323 203.425 61.777C203.597 62.1184 203.684 62.4946 203.684 62.9055V63.4425C203.684 63.8501 203.597 64.2263 203.425 64.571C203.253 64.9124 202.999 65.1858 202.664 65.3913C202.33 65.6001 201.922 65.7045 201.441 65.7045C200.954 65.7045 200.545 65.6001 200.213 65.3913C199.882 65.1858 199.63 64.9124 199.458 64.571C199.285 64.2263 199.199 63.8501 199.199 63.4425ZM200.646 62.9055V63.4425C200.646 63.6778 200.702 63.8999 200.815 64.1087C200.931 64.3175 201.14 64.4219 201.441 64.4219C201.743 64.4219 201.949 64.3191 202.058 64.1136C202.171 63.9081 202.227 63.6844 202.227 63.4425V62.9055C202.227 62.6636 202.174 62.4382 202.068 62.2294C201.962 62.0206 201.753 61.9162 201.441 61.9162C201.143 61.9162 200.936 62.0206 200.82 62.2294C200.704 62.4382 200.646 62.6636 200.646 62.9055ZM193.974 57.6158V57.0788C193.974 56.6679 194.062 56.2917 194.238 55.9503C194.413 55.6056 194.667 55.3305 194.998 55.125C195.333 54.9195 195.737 54.8168 196.211 54.8168C196.702 54.8168 197.113 54.9195 197.444 55.125C197.776 55.3305 198.028 55.6056 198.2 55.9503C198.372 56.2917 198.458 56.6679 198.458 57.0788V57.6158C198.458 58.0268 198.371 58.4029 198.195 58.7443C198.023 59.0857 197.769 59.3591 197.434 59.5646C197.103 59.7668 196.695 59.8679 196.211 59.8679C195.727 59.8679 195.318 59.7652 194.983 59.5597C194.652 59.3509 194.4 59.0774 194.228 58.7393C194.059 58.398 193.974 58.0234 193.974 57.6158ZM195.431 57.0788V57.6158C195.431 57.8577 195.487 58.0814 195.6 58.2869C195.716 58.4924 195.92 58.5952 196.211 58.5952C196.516 58.5952 196.723 58.4924 196.833 58.2869C196.945 58.0814 197.002 57.8577 197.002 57.6158V57.0788C197.002 56.8369 196.949 56.6115 196.843 56.4027C196.737 56.1939 196.526 56.0895 196.211 56.0895C195.916 56.0895 195.712 56.1955 195.6 56.4077C195.487 56.6198 195.431 56.8435 195.431 57.0788ZM194.63 65.3516L201.63 55.1697H202.933L195.933 65.3516H194.63Z" fill="black"/>
</svg>
