<svg width="726" height="263" viewBox="0 0 726 263" fill="none" xmlns="http://www.w3.org/2000/svg">
<ellipse cx="287.686" cy="49" rx="49.336" ry="49" fill="#FF6888"/>
<path d="M257.972 34.4012V32.855H266.095V34.4012H262.948V43.0369H261.119V34.4012H257.972ZM269.382 38.5624V43.0369H267.582V32.855H269.342V36.6981H269.431C269.61 36.2672 269.887 35.9275 270.262 35.6789C270.639 35.427 271.12 35.3011 271.703 35.3011C272.234 35.3011 272.696 35.4121 273.09 35.6342C273.485 35.8562 273.79 36.181 274.005 36.6086C274.224 37.0362 274.333 37.5582 274.333 38.1746V43.0369H272.534V38.4531C272.534 37.9393 272.401 37.5399 272.136 37.2549C271.874 36.9666 271.506 36.8224 271.032 36.8224C270.714 36.8224 270.429 36.892 270.177 37.0312C269.928 37.1671 269.733 37.3643 269.59 37.6228C269.451 37.8813 269.382 38.1945 269.382 38.5624ZM279.548 43.186C278.783 43.186 278.122 43.0269 277.565 42.7087C277.011 42.3872 276.585 41.9332 276.287 41.3465C275.989 40.7566 275.84 40.0622 275.84 39.2634C275.84 38.4779 275.989 37.7885 276.287 37.1952C276.589 36.5987 277.01 36.1346 277.55 35.8032C278.09 35.4684 278.725 35.3011 279.454 35.3011C279.925 35.3011 280.369 35.3773 280.786 35.5298C281.207 35.6789 281.579 35.9109 281.9 36.2258C282.225 36.5407 282.48 36.9417 282.666 37.4289C282.851 37.9128 282.944 38.4895 282.944 39.159V39.7109H276.685V38.4978H281.219C281.216 38.1531 281.141 37.8465 280.995 37.5781C280.849 37.3063 280.646 37.0925 280.384 36.9367C280.125 36.7809 279.824 36.7031 279.479 36.7031C279.111 36.7031 278.788 36.7925 278.509 36.9715C278.231 37.1472 278.014 37.3792 277.858 37.6675C277.706 37.9526 277.628 38.2658 277.624 38.6072V39.6661C277.624 40.1103 277.706 40.4914 277.868 40.8096C278.03 41.1245 278.258 41.3664 278.549 41.5354C278.841 41.7012 279.182 41.784 279.573 41.784C279.835 41.784 280.072 41.7476 280.284 41.6746C280.496 41.5984 280.68 41.4874 280.836 41.3416C280.992 41.1957 281.11 41.0151 281.189 40.7996L282.87 40.9886C282.763 41.4327 282.561 41.8205 282.263 42.1519C281.968 42.48 281.59 42.7353 281.129 42.9175C280.669 43.0965 280.142 43.186 279.548 43.186ZM284.467 43.0369V35.4005H286.187V36.6981H286.276C286.435 36.2606 286.699 35.9192 287.067 35.6739C287.435 35.4254 287.874 35.3011 288.384 35.3011C288.901 35.3011 289.337 35.427 289.692 35.6789C290.05 35.9275 290.302 36.2672 290.447 36.6981H290.527C290.696 36.2738 290.981 35.9358 291.382 35.6839C291.786 35.4287 292.265 35.3011 292.819 35.3011C293.522 35.3011 294.095 35.5231 294.539 35.9673C294.983 36.4114 295.205 37.0594 295.205 37.9112V43.0369H293.401V38.1896C293.401 37.7156 293.275 37.3693 293.023 37.1505C292.771 36.9284 292.463 36.8174 292.098 36.8174C291.664 36.8174 291.324 36.9533 291.079 37.2251C290.837 37.4935 290.716 37.8432 290.716 38.2741V43.0369H288.951V38.115C288.951 37.7206 288.832 37.4057 288.593 37.1704C288.358 36.9351 288.049 36.8174 287.668 36.8174C287.41 36.8174 287.174 36.8837 286.962 37.0163C286.75 37.1455 286.581 37.3295 286.455 37.5681C286.329 37.8034 286.266 38.0785 286.266 38.3934V43.0369H284.467ZM300.412 43.186C299.646 43.186 298.985 43.0269 298.428 42.7087C297.875 42.3872 297.449 41.9332 297.15 41.3465C296.852 40.7566 296.703 40.0622 296.703 39.2634C296.703 38.4779 296.852 37.7885 297.15 37.1952C297.452 36.5987 297.873 36.1346 298.413 35.8032C298.953 35.4684 299.588 35.3011 300.317 35.3011C300.788 35.3011 301.232 35.3773 301.65 35.5298C302.071 35.6789 302.442 35.9109 302.763 36.2258C303.088 36.5407 303.343 36.9417 303.529 37.4289C303.715 37.9128 303.807 38.4895 303.807 39.159V39.7109H297.548V38.4978H302.082C302.079 38.1531 302.004 37.8465 301.859 37.5781C301.713 37.3063 301.509 37.0925 301.247 36.9367C300.988 36.7809 300.687 36.7031 300.342 36.7031C299.974 36.7031 299.651 36.7925 299.373 36.9715C299.094 37.1472 298.877 37.3792 298.721 37.6675C298.569 37.9526 298.491 38.2658 298.488 38.6072V39.6661C298.488 40.1103 298.569 40.4914 298.731 40.8096C298.894 41.1245 299.121 41.3664 299.412 41.5354C299.704 41.7012 300.046 41.784 300.437 41.784C300.698 41.784 300.935 41.7476 301.148 41.6746C301.36 41.5984 301.544 41.4874 301.699 41.3416C301.855 41.1957 301.973 41.0151 302.052 40.7996L303.733 40.9886C303.627 41.4327 303.425 41.8205 303.126 42.1519C302.831 42.48 302.453 42.7353 301.993 42.9175C301.532 43.0965 301.005 43.186 300.412 43.186ZM312.322 43.1761C311.66 43.1761 311.066 43.0518 310.543 42.8032C310.019 42.5513 309.603 42.2066 309.295 41.7691C308.99 41.3316 308.827 40.8311 308.808 40.2677H310.597C310.63 40.6853 310.811 41.0267 311.139 41.2918C311.467 41.5537 311.862 41.6846 312.322 41.6846C312.684 41.6846 313.005 41.6017 313.287 41.436C313.569 41.2703 313.791 41.0399 313.953 40.745C314.116 40.45 314.195 40.1136 314.192 39.7357C314.195 39.3513 314.114 39.0099 313.948 38.7116C313.782 38.4133 313.555 38.1796 313.267 38.0106C312.979 37.8382 312.647 37.7521 312.273 37.7521C311.968 37.7487 311.668 37.8051 311.373 37.9211C311.078 38.0371 310.844 38.1896 310.672 38.3785L309.006 38.105L309.538 32.855H315.445V34.3962H311.065L310.771 37.0958H310.831C311.02 36.8737 311.287 36.6898 311.631 36.544C311.976 36.3948 312.354 36.3202 312.765 36.3202C313.381 36.3202 313.932 36.4661 314.415 36.7577C314.899 37.0461 315.281 37.4438 315.559 37.9509C315.837 38.458 315.977 39.038 315.977 39.691C315.977 40.3638 315.821 40.9637 315.509 41.4907C315.201 42.0144 314.772 42.427 314.222 42.7286C313.675 43.0269 313.042 43.1761 312.322 43.1761ZM273.576 49.855V60.0369H271.732V51.6498H271.672L269.291 53.1711V51.4808L271.821 49.855H273.576ZM280.303 49.855V60.0369H278.458V51.6498H278.399L276.017 53.1711V51.4808L278.548 49.855H280.303ZM283.456 60.1462C283.155 60.1462 282.896 60.0402 282.681 59.8281C282.465 59.6159 282.359 59.3574 282.362 59.0525C282.359 58.7542 282.465 58.499 282.681 58.2869C282.896 58.0747 283.155 57.9687 283.456 57.9687C283.748 57.9687 284.001 58.0747 284.217 58.2869C284.436 58.499 284.547 58.7542 284.55 59.0525C284.547 59.2547 284.494 59.4386 284.391 59.6043C284.291 59.7701 284.159 59.9026 283.993 60.0021C283.831 60.0982 283.652 60.1462 283.456 60.1462ZM286.388 60.0369V58.7045L289.923 55.2393C290.261 54.8979 290.543 54.5946 290.768 54.3295C290.994 54.0643 291.163 53.8075 291.275 53.5589C291.388 53.3103 291.444 53.0452 291.444 52.7634C291.444 52.4419 291.371 52.1668 291.226 51.9381C291.08 51.7061 290.879 51.5272 290.624 51.4012C290.369 51.2753 290.079 51.2123 289.754 51.2123C289.419 51.2123 289.126 51.2819 288.874 51.4211C288.622 51.557 288.427 51.7509 288.287 52.0028C288.151 52.2547 288.083 52.5546 288.083 52.9026H286.328C286.328 52.2563 286.476 51.6945 286.771 51.2173C287.066 50.74 287.472 50.3704 287.989 50.1086C288.509 49.8468 289.106 49.7158 289.779 49.7158C290.462 49.7158 291.061 49.8434 291.578 50.0987C292.096 50.3539 292.497 50.7035 292.782 51.1477C293.07 51.5918 293.214 52.0989 293.214 52.669C293.214 53.0501 293.141 53.4246 292.995 53.7925C292.85 54.1604 292.593 54.5681 292.225 55.0156C291.86 55.463 291.348 56.0049 290.689 56.6413L288.934 58.4261V58.4957H293.368V60.0369H286.388ZM300.217 57.6406L300.212 55.468H300.5L303.244 52.4005H305.347L301.972 56.159H301.599L300.217 57.6406ZM298.576 60.0369V49.855H300.376V60.0369H298.576ZM303.369 60.0369L300.883 56.5617L302.096 55.294L305.521 60.0369H303.369Z" fill="white"/>
<ellipse cx="522.45" cy="212.279" rx="50.3429" ry="50" fill="#FF6888"/>
<path d="M496.786 202.68V201.354H503.749V202.68H501.052V210.082H499.484V202.68H496.786ZM506.566 206.246V210.082H505.023V201.354H506.532V204.648H506.609C506.762 204.279 506.999 203.988 507.32 203.775C507.644 203.559 508.056 203.451 508.556 203.451C509.011 203.451 509.407 203.546 509.745 203.736C510.083 203.927 510.344 204.205 510.529 204.572C510.716 204.938 510.81 205.386 510.81 205.914V210.082H509.268V206.153C509.268 205.712 509.154 205.37 508.927 205.126C508.702 204.878 508.387 204.755 507.981 204.755C507.708 204.755 507.464 204.814 507.248 204.934C507.035 205.05 506.867 205.219 506.745 205.441C506.626 205.663 506.566 205.931 506.566 206.246ZM515.28 210.209C514.624 210.209 514.057 210.073 513.58 209.8C513.106 209.525 512.741 209.136 512.485 208.633C512.229 208.127 512.101 207.532 512.101 206.847C512.101 206.174 512.229 205.583 512.485 205.074C512.743 204.563 513.104 204.165 513.567 203.881C514.03 203.594 514.574 203.451 515.199 203.451C515.603 203.451 515.984 203.516 516.341 203.647C516.702 203.775 517.02 203.974 517.296 204.243C517.574 204.513 517.793 204.857 517.952 205.275C518.111 205.689 518.191 206.184 518.191 206.758V207.231H512.826V206.191H516.712C516.709 205.895 516.645 205.633 516.52 205.403C516.395 205.17 516.221 204.986 515.996 204.853C515.775 204.719 515.516 204.653 515.221 204.653C514.905 204.653 514.628 204.729 514.39 204.883C514.151 205.033 513.965 205.232 513.832 205.479C513.701 205.724 513.634 205.992 513.631 206.285V207.192C513.631 207.573 513.701 207.9 513.84 208.172C513.979 208.442 514.174 208.65 514.424 208.795C514.674 208.937 514.966 209.008 515.302 209.008C515.526 209.008 515.729 208.976 515.911 208.914C516.093 208.849 516.251 208.753 516.384 208.628C516.518 208.503 516.618 208.349 516.687 208.164L518.127 208.326C518.036 208.707 517.863 209.039 517.607 209.323C517.354 209.604 517.03 209.823 516.636 209.979C516.241 210.133 515.789 210.209 515.28 210.209ZM519.496 210.082V203.536H520.97V204.648H521.047C521.183 204.273 521.409 203.981 521.725 203.77C522.04 203.557 522.416 203.451 522.854 203.451C523.297 203.451 523.671 203.559 523.975 203.775C524.281 203.988 524.497 204.279 524.622 204.648H524.691C524.835 204.285 525.08 203.995 525.424 203.779C525.77 203.56 526.181 203.451 526.655 203.451C527.257 203.451 527.749 203.641 528.129 204.022C528.51 204.403 528.701 204.958 528.701 205.688V210.082H527.154V205.927C527.154 205.52 527.046 205.224 526.83 205.036C526.614 204.846 526.35 204.751 526.037 204.751C525.665 204.751 525.374 204.867 525.164 205.1C524.956 205.33 524.852 205.63 524.852 205.999V210.082H523.34V205.863C523.34 205.525 523.237 205.255 523.033 205.053C522.831 204.851 522.567 204.751 522.24 204.751C522.019 204.751 521.817 204.807 521.635 204.921C521.453 205.032 521.308 205.189 521.201 205.394C521.093 205.596 521.039 205.832 521.039 206.101V210.082H519.496ZM533.163 210.209C532.507 210.209 531.94 210.073 531.463 209.8C530.988 209.525 530.623 209.136 530.368 208.633C530.112 208.127 529.984 207.532 529.984 206.847C529.984 206.174 530.112 205.583 530.368 205.074C530.626 204.563 530.987 204.165 531.45 203.881C531.913 203.594 532.457 203.451 533.082 203.451C533.486 203.451 533.866 203.516 534.224 203.647C534.585 203.775 534.903 203.974 535.179 204.243C535.457 204.513 535.676 204.857 535.835 205.275C535.994 205.689 536.074 206.184 536.074 206.758V207.231H530.709V206.191H534.595C534.592 205.895 534.528 205.633 534.403 205.403C534.278 205.17 534.104 204.986 533.879 204.853C533.658 204.719 533.399 204.653 533.104 204.653C532.788 204.653 532.511 204.729 532.273 204.883C532.034 205.033 531.848 205.232 531.714 205.479C531.584 205.724 531.517 205.992 531.514 206.285V207.192C531.514 207.573 531.584 207.9 531.723 208.172C531.862 208.442 532.057 208.65 532.307 208.795C532.557 208.937 532.849 209.008 533.185 209.008C533.409 209.008 533.612 208.976 533.794 208.914C533.976 208.849 534.133 208.753 534.267 208.628C534.4 208.503 534.501 208.349 534.569 208.164L536.01 208.326C535.919 208.707 535.746 209.039 535.49 209.323C535.237 209.604 534.913 209.823 534.518 209.979C534.123 210.133 533.672 210.209 533.163 210.209ZM543.534 210.201C543.117 210.198 542.709 210.126 542.311 209.984C541.914 209.839 541.556 209.604 541.237 209.28C540.919 208.954 540.666 208.52 540.479 207.981C540.291 207.438 540.199 206.766 540.202 205.965C540.202 205.218 540.281 204.552 540.441 203.966C540.6 203.381 540.828 202.887 541.127 202.484C541.425 202.077 541.784 201.768 542.205 201.555C542.628 201.341 543.101 201.235 543.624 201.235C544.172 201.235 544.658 201.343 545.081 201.559C545.507 201.775 545.851 202.07 546.112 202.445C546.374 202.817 546.536 203.238 546.598 203.707H545.043C544.963 203.371 544.8 203.104 544.553 202.905C544.308 202.704 543.999 202.603 543.624 202.603C543.019 202.603 542.553 202.866 542.226 203.391C541.902 203.917 541.739 204.638 541.736 205.556H541.796C541.935 205.306 542.115 205.091 542.337 204.913C542.558 204.734 542.808 204.596 543.087 204.499C543.368 204.4 543.665 204.35 543.977 204.35C544.489 204.35 544.948 204.472 545.354 204.716C545.763 204.961 546.087 205.297 546.326 205.726C546.564 206.153 546.682 206.641 546.679 207.192C546.682 207.766 546.551 208.282 546.287 208.739C546.023 209.194 545.655 209.552 545.183 209.813C544.712 210.074 544.162 210.204 543.534 210.201ZM543.526 208.922C543.835 208.922 544.112 208.847 544.357 208.697C544.601 208.546 544.794 208.343 544.936 208.087C545.078 207.832 545.148 207.545 545.145 207.226C545.148 206.914 545.08 206.631 544.941 206.378C544.804 206.126 544.615 205.925 544.374 205.778C544.132 205.63 543.857 205.556 543.547 205.556C543.317 205.556 543.102 205.6 542.904 205.688C542.705 205.776 542.531 205.898 542.384 206.055C542.236 206.208 542.12 206.387 542.034 206.591C541.952 206.793 541.909 207.009 541.906 207.239C541.909 207.543 541.98 207.823 542.12 208.079C542.259 208.334 542.451 208.539 542.695 208.692C542.939 208.846 543.216 208.922 543.526 208.922ZM510.79 216.235C511.208 216.238 511.614 216.312 512.009 216.457C512.406 216.599 512.764 216.832 513.083 217.155C513.401 217.476 513.654 217.907 513.841 218.447C514.029 218.986 514.122 219.654 514.122 220.449C514.125 221.199 514.046 221.87 513.884 222.461C513.725 223.049 513.496 223.546 513.198 223.952C512.899 224.359 512.54 224.668 512.12 224.881C511.699 225.094 511.226 225.201 510.701 225.201C510.149 225.201 509.661 225.093 509.235 224.877C508.811 224.661 508.469 224.366 508.208 223.991C507.946 223.616 507.786 223.187 507.726 222.704H509.281C509.361 223.05 509.523 223.326 509.767 223.53C510.014 223.732 510.326 223.833 510.701 223.833C511.306 223.833 511.772 223.57 512.098 223.045C512.425 222.519 512.588 221.789 512.588 220.854H512.529C512.389 221.104 512.209 221.32 511.987 221.502C511.766 221.681 511.514 221.819 511.233 221.915C510.955 222.012 510.659 222.06 510.347 222.06C509.835 222.06 509.375 221.938 508.966 221.694C508.56 221.449 508.237 221.114 507.999 220.688C507.763 220.262 507.644 219.775 507.641 219.226C507.641 218.658 507.772 218.148 508.033 217.697C508.297 217.242 508.665 216.884 509.137 216.623C509.608 216.359 510.159 216.229 510.79 216.235ZM510.794 217.513C510.487 217.513 510.21 217.589 509.963 217.739C509.719 217.887 509.526 218.089 509.384 218.344C509.245 218.597 509.175 218.88 509.175 219.192C509.178 219.502 509.247 219.783 509.384 220.036C509.523 220.289 509.712 220.489 509.951 220.637C510.192 220.785 510.468 220.859 510.777 220.859C511.007 220.859 511.222 220.814 511.421 220.726C511.62 220.638 511.793 220.516 511.941 220.36C512.091 220.201 512.208 220.02 512.29 219.819C512.375 219.617 512.416 219.404 512.414 219.18C512.414 218.881 512.343 218.606 512.201 218.353C512.061 218.1 511.87 217.897 511.625 217.743C511.384 217.59 511.107 217.513 510.794 217.513ZM516.169 225.175C515.91 225.175 515.689 225.084 515.504 224.903C515.319 224.721 515.229 224.499 515.231 224.238C515.229 223.982 515.319 223.763 515.504 223.582C515.689 223.4 515.91 223.309 516.169 223.309C516.419 223.309 516.636 223.4 516.821 223.582C517.008 223.763 517.104 223.982 517.106 224.238C517.104 224.411 517.058 224.569 516.97 224.711C516.885 224.853 516.771 224.966 516.629 225.052C516.49 225.134 516.337 225.175 516.169 225.175ZM521.568 225.248C520.866 225.248 520.264 225.07 519.761 224.715C519.261 224.357 518.876 223.841 518.606 223.168C518.339 222.492 518.206 221.678 518.206 220.726C518.209 219.775 518.344 218.965 518.611 218.297C518.881 217.627 519.265 217.116 519.765 216.763C520.268 216.411 520.869 216.235 521.568 216.235C522.267 216.235 522.868 216.411 523.371 216.763C523.873 217.116 524.258 217.627 524.525 218.297C524.795 218.968 524.93 219.778 524.93 220.726C524.93 221.681 524.795 222.496 524.525 223.172C524.258 223.846 523.873 224.36 523.371 224.715C522.871 225.07 522.27 225.248 521.568 225.248ZM521.568 223.914C522.113 223.914 522.544 223.645 522.859 223.109C523.177 222.569 523.337 221.775 523.337 220.726C523.337 220.033 523.264 219.451 523.119 218.979C522.974 218.508 522.77 218.153 522.506 217.914C522.241 217.672 521.929 217.552 521.568 217.552C521.025 217.552 520.596 217.822 520.281 218.361C519.966 218.898 519.807 219.687 519.804 220.726C519.801 221.422 519.871 222.008 520.013 222.482C520.158 222.957 520.362 223.314 520.626 223.556C520.89 223.795 521.204 223.914 521.568 223.914ZM529.408 225.082V216.354H530.989V220.364H531.095L534.5 216.354H536.431L533.056 220.27L536.46 225.082H534.56L531.956 221.34L530.989 222.482V225.082H529.408Z" fill="white"/>
<ellipse cx="199.352" cy="131.394" rx="45.3086" ry="45" fill="#FF6888"/>
<path d="M175.308 120.992V119.667H182.271V120.992H179.574V128.394H178.006V120.992H175.308ZM185.088 124.559V128.394H183.545V119.667H185.054V122.961H185.131C185.284 122.591 185.521 122.3 185.842 122.087C186.166 121.871 186.578 121.763 187.078 121.763C187.533 121.763 187.929 121.859 188.267 122.049C188.605 122.239 188.866 122.518 189.051 122.884C189.239 123.251 189.332 123.698 189.332 124.226V128.394H187.79V124.465C187.79 124.025 187.676 123.682 187.449 123.438C187.224 123.191 186.909 123.067 186.503 123.067C186.23 123.067 185.986 123.127 185.77 123.246C185.557 123.363 185.389 123.532 185.267 123.753C185.148 123.975 185.088 124.243 185.088 124.559ZM193.802 128.522C193.146 128.522 192.579 128.386 192.102 128.113C191.628 127.837 191.263 127.448 191.007 126.945C190.751 126.439 190.624 125.844 190.624 125.16C190.624 124.486 190.751 123.895 191.007 123.387C191.266 122.876 191.626 122.478 192.089 122.194C192.552 121.907 193.097 121.763 193.722 121.763C194.125 121.763 194.506 121.829 194.864 121.959C195.224 122.087 195.543 122.286 195.818 122.556C196.097 122.826 196.315 123.17 196.474 123.587C196.633 124.002 196.713 124.496 196.713 125.07V125.543H191.348V124.503H195.234C195.231 124.208 195.168 123.945 195.043 123.715C194.918 123.482 194.743 123.299 194.518 123.165C194.297 123.032 194.038 122.965 193.743 122.965C193.427 122.965 193.151 123.042 192.912 123.195C192.673 123.346 192.487 123.545 192.354 123.792C192.223 124.036 192.156 124.305 192.153 124.597V125.505C192.153 125.886 192.223 126.212 192.362 126.485C192.501 126.755 192.696 126.962 192.946 127.107C193.196 127.249 193.489 127.32 193.824 127.32C194.048 127.32 194.251 127.289 194.433 127.226C194.615 127.161 194.773 127.066 194.906 126.941C195.04 126.816 195.141 126.661 195.209 126.476L196.649 126.638C196.558 127.019 196.385 127.351 196.129 127.636C195.876 127.917 195.552 128.136 195.158 128.292C194.763 128.445 194.311 128.522 193.802 128.522ZM198.018 128.394V121.849H199.492V122.961H199.569C199.706 122.586 199.931 122.293 200.247 122.083C200.562 121.87 200.939 121.763 201.376 121.763C201.819 121.763 202.193 121.871 202.497 122.087C202.804 122.3 203.019 122.591 203.144 122.961H203.213C203.358 122.597 203.602 122.307 203.946 122.091C204.292 121.873 204.703 121.763 205.177 121.763C205.779 121.763 206.271 121.954 206.652 122.334C207.032 122.715 207.223 123.27 207.223 124.001V128.394H205.676V124.239C205.676 123.833 205.568 123.536 205.352 123.349C205.136 123.158 204.872 123.063 204.559 123.063C204.187 123.063 203.896 123.18 203.686 123.413C203.478 123.643 203.375 123.942 203.375 124.312V128.394H201.862V124.175C201.862 123.837 201.76 123.567 201.555 123.366C201.353 123.164 201.089 123.063 200.762 123.063C200.541 123.063 200.339 123.12 200.157 123.234C199.975 123.344 199.831 123.502 199.723 123.707C199.615 123.908 199.561 124.144 199.561 124.414V128.394H198.018ZM211.685 128.522C211.029 128.522 210.462 128.386 209.985 128.113C209.511 127.837 209.146 127.448 208.89 126.945C208.634 126.439 208.506 125.844 208.506 125.16C208.506 124.486 208.634 123.895 208.89 123.387C209.148 122.876 209.509 122.478 209.972 122.194C210.435 121.907 210.979 121.763 211.604 121.763C212.008 121.763 212.388 121.829 212.746 121.959C213.107 122.087 213.425 122.286 213.701 122.556C213.979 122.826 214.198 123.17 214.357 123.587C214.516 124.002 214.596 124.496 214.596 125.07V125.543H209.231V124.503H213.117C213.114 124.208 213.05 123.945 212.925 123.715C212.8 123.482 212.626 123.299 212.401 123.165C212.18 123.032 211.921 122.965 211.626 122.965C211.31 122.965 211.033 123.042 210.795 123.195C210.556 123.346 210.37 123.545 210.236 123.792C210.106 124.036 210.039 124.305 210.036 124.597V125.505C210.036 125.886 210.106 126.212 210.245 126.485C210.384 126.755 210.579 126.962 210.829 127.107C211.079 127.249 211.371 127.32 211.707 127.32C211.931 127.32 212.134 127.289 212.316 127.226C212.498 127.161 212.655 127.066 212.789 126.941C212.923 126.816 213.023 126.661 213.092 126.476L214.532 126.638C214.441 127.019 214.268 127.351 214.012 127.636C213.759 127.917 213.435 128.136 213.04 128.292C212.646 128.445 212.194 128.522 211.685 128.522ZM219.18 128.394L222.892 121.047V120.988H218.583V119.667H224.528V121.018L220.821 128.394H219.18ZM188.67 143.394L192.382 136.047V135.988H188.074V134.667H194.018V136.018L190.311 143.394H188.67ZM194.861 143.488C194.602 143.488 194.381 143.397 194.196 143.215C194.011 143.033 193.921 142.812 193.923 142.55C193.921 142.295 194.011 142.076 194.196 141.894C194.381 141.712 194.602 141.621 194.861 141.621C195.111 141.621 195.328 141.712 195.513 141.894C195.7 142.076 195.796 142.295 195.798 142.55C195.796 142.724 195.75 142.881 195.662 143.023C195.577 143.165 195.463 143.279 195.321 143.364C195.182 143.447 195.029 143.488 194.861 143.488ZM199.846 134.667V143.394H198.265V136.205H198.214L196.172 137.509V136.06L198.341 134.667H199.846ZM205.123 143.394V134.667H206.704V138.677H206.811L210.216 134.667H212.146L208.771 138.583L212.176 143.394H210.275L207.672 139.653L206.704 140.795V143.394H205.123Z" fill="white"/>
<ellipse cx="115.657" cy="204.45" rx="37.7572" ry="37.5" fill="#959595"/>
<path d="M95.2591 196.649V195.655H100.481V196.649H98.4583V202.2H97.2821V196.649H95.2591ZM102.594 199.324V202.2H101.437V195.655H102.568V198.126H102.626C102.741 197.849 102.919 197.63 103.16 197.47C103.403 197.308 103.711 197.227 104.086 197.227C104.427 197.227 104.725 197.299 104.978 197.442C105.232 197.584 105.428 197.793 105.566 198.068C105.707 198.343 105.777 198.678 105.777 199.075V202.2H104.62V199.254C104.62 198.923 104.535 198.667 104.365 198.483C104.196 198.298 103.96 198.205 103.655 198.205C103.45 198.205 103.267 198.25 103.105 198.34C102.945 198.427 102.82 198.554 102.728 198.72C102.639 198.886 102.594 199.088 102.594 199.324ZM109.13 202.296C108.638 202.296 108.213 202.194 107.855 201.99C107.499 201.783 107.225 201.491 107.033 201.114C106.841 200.735 106.746 200.288 106.746 199.775C106.746 199.27 106.841 198.827 107.033 198.445C107.227 198.062 107.498 197.763 107.845 197.55C108.192 197.335 108.6 197.227 109.069 197.227C109.372 197.227 109.657 197.276 109.926 197.374C110.196 197.47 110.435 197.619 110.642 197.822C110.85 198.024 111.014 198.282 111.134 198.595C111.253 198.906 111.313 199.277 111.313 199.708V200.062H107.289V199.282H110.204C110.202 199.061 110.154 198.864 110.06 198.691C109.966 198.516 109.835 198.379 109.667 198.279C109.501 198.179 109.307 198.129 109.085 198.129C108.849 198.129 108.641 198.186 108.462 198.301C108.283 198.414 108.143 198.563 108.043 198.749C107.945 198.932 107.895 199.133 107.893 199.353V200.034C107.893 200.319 107.945 200.564 108.05 200.769C108.154 200.971 108.3 201.127 108.487 201.235C108.675 201.342 108.894 201.395 109.146 201.395C109.314 201.395 109.466 201.372 109.603 201.325C109.739 201.276 109.857 201.204 109.958 201.111C110.058 201.017 110.133 200.901 110.184 200.762L111.265 200.884C111.197 201.169 111.067 201.418 110.875 201.632C110.685 201.842 110.442 202.007 110.146 202.124C109.85 202.239 109.511 202.296 109.13 202.296ZM112.291 202.2V197.291H113.397V198.126H113.455C113.557 197.844 113.726 197.625 113.963 197.467C114.199 197.307 114.482 197.227 114.81 197.227C115.142 197.227 115.423 197.308 115.65 197.47C115.881 197.63 116.043 197.849 116.136 198.126H116.187C116.296 197.853 116.479 197.635 116.737 197.474C116.997 197.309 117.305 197.227 117.661 197.227C118.112 197.227 118.481 197.37 118.767 197.656C119.052 197.941 119.195 198.358 119.195 198.905V202.2H118.035V199.084C118.035 198.78 117.954 198.557 117.792 198.416C117.63 198.274 117.432 198.202 117.197 198.202C116.918 198.202 116.7 198.29 116.542 198.464C116.387 198.637 116.309 198.862 116.309 199.139V202.2H115.174V199.036C115.174 198.783 115.098 198.58 114.944 198.429C114.793 198.278 114.595 198.202 114.35 198.202C114.184 198.202 114.032 198.245 113.896 198.33C113.76 198.413 113.651 198.531 113.57 198.685C113.489 198.836 113.448 199.013 113.448 199.215V202.2H112.291ZM122.542 202.296C122.05 202.296 121.625 202.194 121.267 201.99C120.911 201.783 120.637 201.491 120.445 201.114C120.254 200.735 120.158 200.288 120.158 199.775C120.158 199.27 120.254 198.827 120.445 198.445C120.639 198.062 120.91 197.763 121.257 197.55C121.604 197.335 122.012 197.227 122.481 197.227C122.784 197.227 123.069 197.276 123.338 197.374C123.608 197.47 123.847 197.619 124.054 197.822C124.262 198.024 124.426 198.282 124.546 198.595C124.665 198.906 124.725 199.277 124.725 199.708V200.062H120.701V199.282H123.616C123.614 199.061 123.566 198.864 123.472 198.691C123.378 198.516 123.247 198.379 123.079 198.279C122.913 198.179 122.719 198.129 122.497 198.129C122.261 198.129 122.053 198.186 121.874 198.301C121.695 198.414 121.555 198.563 121.455 198.749C121.357 198.932 121.307 199.133 121.305 199.353V200.034C121.305 200.319 121.357 200.564 121.462 200.769C121.566 200.971 121.712 201.127 121.9 201.235C122.087 201.342 122.306 201.395 122.558 201.395C122.726 201.395 122.879 201.372 123.015 201.325C123.151 201.276 123.27 201.204 123.37 201.111C123.47 201.017 123.545 200.901 123.597 200.762L124.677 200.884C124.609 201.169 124.479 201.418 124.287 201.632C124.097 201.842 123.854 202.007 123.558 202.124C123.262 202.239 122.923 202.296 122.542 202.296ZM130.586 195.655V202.2H129.4V196.809H129.361L127.831 197.787V196.7L129.457 195.655H130.586ZM134.667 202.325C134.141 202.325 133.689 202.192 133.312 201.926C132.937 201.657 132.648 201.27 132.446 200.765C132.245 200.258 132.145 199.648 132.145 198.934C132.147 198.22 132.248 197.613 132.449 197.112C132.651 196.61 132.94 196.226 133.315 195.962C133.692 195.698 134.143 195.565 134.667 195.565C135.191 195.565 135.642 195.698 136.019 195.962C136.396 196.226 136.685 196.61 136.885 197.112C137.087 197.615 137.188 198.222 137.188 198.934C137.188 199.65 137.087 200.262 136.885 200.769C136.685 201.274 136.396 201.659 136.019 201.926C135.644 202.192 135.193 202.325 134.667 202.325ZM134.667 201.325C135.076 201.325 135.399 201.123 135.635 200.721C135.874 200.316 135.993 199.72 135.993 198.934C135.993 198.414 135.939 197.977 135.83 197.624C135.722 197.27 135.568 197.004 135.37 196.825C135.172 196.644 134.937 196.553 134.667 196.553C134.26 196.553 133.938 196.755 133.702 197.16C133.465 197.563 133.346 198.154 133.344 198.934C133.342 199.456 133.394 199.895 133.5 200.251C133.609 200.607 133.762 200.875 133.961 201.056C134.159 201.235 134.394 201.325 134.667 201.325ZM105.507 211.986V211.043L108.284 206.655H109.071V207.997H108.591L106.722 210.96V211.011H110.598V211.986H105.507ZM108.63 213.2V211.698L108.642 211.276V206.655H109.761V213.2H108.63ZM112.16 213.271C111.967 213.271 111.8 213.203 111.662 213.066C111.523 212.93 111.455 212.764 111.457 212.568C111.455 212.376 111.523 212.212 111.662 212.075C111.8 211.939 111.967 211.871 112.16 211.871C112.348 211.871 112.511 211.939 112.649 212.075C112.79 212.212 112.861 212.376 112.864 212.568C112.861 212.698 112.827 212.816 112.761 212.922C112.697 213.029 112.612 213.114 112.506 213.178C112.401 213.24 112.286 213.271 112.16 213.271ZM116.221 206.565C116.534 206.568 116.839 206.623 117.135 206.732C117.433 206.838 117.702 207.013 117.94 207.256C118.179 207.497 118.369 207.819 118.509 208.224C118.65 208.629 118.72 209.13 118.72 209.726C118.722 210.289 118.663 210.792 118.541 211.235C118.422 211.676 118.25 212.049 118.027 212.353C117.803 212.658 117.533 212.89 117.218 213.05C116.903 213.21 116.548 213.29 116.154 213.29C115.741 213.29 115.374 213.209 115.054 213.047C114.737 212.885 114.48 212.664 114.284 212.382C114.088 212.101 113.968 211.779 113.923 211.417H115.09C115.149 211.677 115.271 211.884 115.454 212.037C115.639 212.188 115.873 212.264 116.154 212.264C116.608 212.264 116.957 212.067 117.202 211.673C117.447 211.279 117.57 210.731 117.57 210.03H117.525C117.421 210.217 117.285 210.379 117.119 210.516C116.953 210.65 116.764 210.753 116.553 210.826C116.345 210.898 116.123 210.934 115.889 210.934C115.505 210.934 115.16 210.843 114.853 210.66C114.548 210.476 114.307 210.225 114.128 209.905C113.951 209.586 113.861 209.22 113.859 208.809C113.859 208.383 113.957 208.001 114.153 207.662C114.351 207.321 114.627 207.052 114.981 206.856C115.335 206.658 115.748 206.561 116.221 206.565ZM116.224 207.524C115.994 207.524 115.786 207.581 115.601 207.694C115.418 207.804 115.273 207.956 115.166 208.148C115.062 208.337 115.01 208.549 115.01 208.784C115.012 209.016 115.064 209.227 115.166 209.416C115.271 209.606 115.412 209.756 115.591 209.867C115.772 209.978 115.979 210.033 116.211 210.033C116.384 210.033 116.545 210 116.694 209.934C116.843 209.868 116.973 209.776 117.084 209.659C117.197 209.54 117.284 209.405 117.346 209.253C117.41 209.102 117.441 208.942 117.439 208.774C117.439 208.55 117.385 208.344 117.279 208.154C117.174 207.964 117.031 207.812 116.847 207.697C116.666 207.582 116.459 207.524 116.224 207.524ZM122.081 213.2V206.655H123.267V209.662H123.347L125.9 206.655H127.348L124.817 209.592L127.37 213.2H125.945L123.992 210.394L123.267 211.251V213.2H122.081Z" fill="white"/>
<ellipse cx="437.053" cy="55.011" rx="37.7572" ry="37.5" fill="#959595"/>
<path d="M418.903 44.7097V43.7158H424.125V44.7097H422.102V50.2612H420.926V44.7097H418.903ZM426.237 47.3848V50.2612H425.08V43.7158H426.212V46.1863H426.269C426.384 45.9093 426.562 45.6909 426.803 45.5311C427.046 45.3692 427.355 45.2882 427.73 45.2882C428.071 45.2882 428.368 45.3596 428.622 45.5024C428.875 45.6451 429.071 45.8539 429.21 46.1288C429.35 46.4036 429.421 46.7392 429.421 47.1355V50.2612H428.264V47.3145C428.264 46.9842 428.178 46.7275 428.008 46.5443C427.84 46.3589 427.603 46.2662 427.299 46.2662C427.094 46.2662 426.911 46.3109 426.749 46.4004C426.589 46.4878 426.463 46.6146 426.372 46.7808C426.282 46.947 426.237 47.1483 426.237 47.3848ZM432.773 50.3571C432.281 50.3571 431.856 50.2548 431.498 50.0503C431.142 49.8436 430.868 49.5517 430.677 49.1746C430.485 48.7953 430.389 48.3489 430.389 47.8354C430.389 47.3305 430.485 46.8873 430.677 46.5059C430.871 46.1224 431.141 45.8241 431.488 45.611C431.836 45.3958 432.244 45.2882 432.713 45.2882C433.015 45.2882 433.301 45.3372 433.569 45.4352C433.84 45.5311 434.078 45.6803 434.285 45.8827C434.494 46.0851 434.658 46.3429 434.777 46.6561C434.897 46.9672 434.956 47.3379 434.956 47.7683V48.1231H430.932V47.3433H433.847C433.845 47.1217 433.797 46.9246 433.703 46.752C433.61 46.5773 433.479 46.4399 433.31 46.3397C433.144 46.2396 432.95 46.1895 432.729 46.1895C432.492 46.1895 432.284 46.247 432.105 46.3621C431.926 46.475 431.787 46.6242 431.687 46.8095C431.589 46.9928 431.539 47.1941 431.536 47.4136V48.0943C431.536 48.3798 431.589 48.6249 431.693 48.8294C431.797 49.0318 431.943 49.1874 432.131 49.296C432.318 49.4026 432.538 49.4558 432.789 49.4558C432.958 49.4558 433.11 49.4324 433.246 49.3855C433.383 49.3365 433.501 49.2651 433.601 49.1714C433.701 49.0776 433.777 48.9615 433.828 48.823L434.908 48.9445C434.84 49.23 434.71 49.4793 434.518 49.6923C434.329 49.9033 434.086 50.0673 433.79 50.1845C433.493 50.2996 433.155 50.3571 432.773 50.3571ZM435.935 50.2612V45.3521H437.041V46.1863H437.098C437.201 45.9051 437.37 45.6856 437.606 45.5279C437.843 45.3681 438.125 45.2882 438.453 45.2882C438.786 45.2882 439.066 45.3692 439.294 45.5311C439.524 45.6909 439.686 45.9093 439.78 46.1863H439.831C439.94 45.9136 440.123 45.6962 440.381 45.5343C440.641 45.3703 440.948 45.2882 441.304 45.2882C441.756 45.2882 442.125 45.431 442.41 45.7165C442.696 46.002 442.838 46.4185 442.838 46.9661V50.2612H441.678V47.1451C441.678 46.8404 441.597 46.6178 441.435 46.4771C441.273 46.3344 441.075 46.263 440.841 46.263C440.562 46.263 440.343 46.3504 440.186 46.5251C440.03 46.6977 439.952 46.9225 439.952 47.1994V50.2612H438.818V47.0972C438.818 46.8436 438.741 46.6412 438.588 46.4899C438.436 46.3386 438.238 46.263 437.993 46.263C437.827 46.263 437.676 46.3056 437.539 46.3908C437.403 46.4739 437.294 46.5922 437.213 46.7456C437.132 46.8969 437.092 47.0737 437.092 47.2761V50.2612H435.935ZM446.185 50.3571C445.693 50.3571 445.268 50.2548 444.91 50.0503C444.554 49.8436 444.281 49.5517 444.089 49.1746C443.897 48.7953 443.801 48.3489 443.801 47.8354C443.801 47.3305 443.897 46.8873 444.089 46.5059C444.283 46.1224 444.553 45.8241 444.901 45.611C445.248 45.3958 445.656 45.2882 446.125 45.2882C446.427 45.2882 446.713 45.3372 446.981 45.4352C447.252 45.5311 447.49 45.6803 447.697 45.8827C447.906 46.0851 448.07 46.3429 448.189 46.6561C448.309 46.9672 448.368 47.3379 448.368 47.7683V48.1231H444.344V47.3433H447.259C447.257 47.1217 447.209 46.9246 447.115 46.752C447.022 46.5773 446.891 46.4399 446.722 46.3397C446.556 46.2396 446.362 46.1895 446.141 46.1895C445.904 46.1895 445.696 46.247 445.517 46.3621C445.338 46.475 445.199 46.6242 445.099 46.8095C445.001 46.9928 444.951 47.1941 444.949 47.4136V48.0943C444.949 48.3798 445.001 48.6249 445.105 48.8294C445.21 49.0318 445.356 49.1874 445.543 49.296C445.731 49.4026 445.95 49.4558 446.201 49.4558C446.37 49.4558 446.522 49.4324 446.658 49.3855C446.795 49.3365 446.913 49.2651 447.013 49.1714C447.113 49.0776 447.189 48.9615 447.24 48.823L448.32 48.9445C448.252 49.23 448.122 49.4793 447.93 49.6923C447.741 49.9033 447.498 50.0673 447.202 50.1845C446.906 50.2996 446.567 50.3571 446.185 50.3571ZM453.839 43.6263C454.152 43.6284 454.457 43.6838 454.753 43.7925C455.051 43.899 455.32 44.0737 455.559 44.3166C455.797 44.5574 455.987 44.8802 456.127 45.285C456.268 45.6899 456.338 46.1906 456.338 46.7872C456.341 47.3497 456.281 47.8525 456.159 48.2957C456.04 48.7367 455.869 49.1096 455.645 49.4143C455.421 49.719 455.152 49.9512 454.836 50.111C454.521 50.2708 454.166 50.3507 453.772 50.3507C453.359 50.3507 452.992 50.2698 452.673 50.1078C452.355 49.9459 452.098 49.7243 451.902 49.443C451.706 49.1618 451.586 48.8401 451.541 48.4778H452.708C452.767 48.7378 452.889 48.9445 453.072 49.0979C453.257 49.2492 453.491 49.3248 453.772 49.3248C454.226 49.3248 454.575 49.1277 454.82 48.7335C455.065 48.3394 455.188 47.7918 455.188 47.0908H455.143C455.039 47.2783 454.903 47.4402 454.737 47.5766C454.571 47.7108 454.382 47.8141 454.171 47.8866C453.963 47.959 453.741 47.9953 453.507 47.9953C453.123 47.9953 452.778 47.9036 452.471 47.7204C452.166 47.5372 451.925 47.2857 451.746 46.9661C451.569 46.6465 451.479 46.2811 451.477 45.8699C451.477 45.4438 451.575 45.0613 451.771 44.7225C451.969 44.3816 452.245 44.1131 452.599 43.9171C452.953 43.719 453.366 43.622 453.839 43.6263ZM453.842 44.5851C453.612 44.5851 453.404 44.6416 453.219 44.7545C453.036 44.8653 452.891 45.0166 452.784 45.2083C452.68 45.3979 452.628 45.61 452.628 45.8443C452.63 46.0766 452.682 46.2875 452.784 46.4771C452.889 46.6668 453.03 46.817 453.209 46.9278C453.391 47.0386 453.597 47.094 453.829 47.094C454.002 47.094 454.163 47.0609 454.312 46.9949C454.461 46.9288 454.591 46.8372 454.702 46.72C454.815 46.6007 454.902 46.4654 454.964 46.3141C455.028 46.1629 455.059 46.0031 455.057 45.8347C455.057 45.611 455.004 45.4043 454.897 45.2147C454.793 45.0251 454.649 44.8727 454.466 44.7577C454.284 44.6426 454.077 44.5851 453.842 44.5851ZM429.541 61.3507C429.114 61.3507 428.733 61.2708 428.396 61.111C428.06 60.9491 427.792 60.7275 427.594 60.4462C427.398 60.165 427.294 59.8433 427.281 59.481H428.432C428.453 59.7495 428.569 59.969 428.78 60.1394C428.991 60.3078 429.244 60.3919 429.541 60.3919C429.773 60.3919 429.979 60.3386 430.161 60.2321C430.342 60.1256 430.484 59.9775 430.589 59.7879C430.693 59.5982 430.744 59.382 430.742 59.1391C430.744 58.8919 430.692 58.6725 430.586 58.4807C430.479 58.2889 430.333 58.1387 430.148 58.0301C429.962 57.9193 429.749 57.8639 429.509 57.8639C429.313 57.8617 429.12 57.8979 428.93 57.9725C428.74 58.0471 428.59 58.1451 428.479 58.2666L427.409 58.0908L427.751 54.7158H431.548V55.7065H428.732L428.543 57.442H428.582C428.703 57.2992 428.875 57.181 429.096 57.0872C429.318 56.9913 429.561 56.9434 429.825 56.9434C430.221 56.9434 430.575 57.0372 430.886 57.2247C431.197 57.41 431.442 57.6657 431.621 57.9917C431.8 58.3177 431.89 58.6906 431.89 59.1103C431.89 59.5428 431.789 59.9285 431.589 60.2673C431.391 60.6039 431.115 60.8692 430.761 61.0631C430.41 61.2548 430.003 61.3507 429.541 61.3507ZM433.466 61.3315C433.272 61.3315 433.106 61.2634 432.967 61.127C432.829 60.9906 432.761 60.8244 432.763 60.6284C432.761 60.4367 432.829 60.2726 432.967 60.1362C433.106 59.9999 433.272 59.9317 433.466 59.9317C433.654 59.9317 433.817 59.9999 433.955 60.1362C434.096 60.2726 434.167 60.4367 434.169 60.6284C434.167 60.7584 434.133 60.8766 434.067 60.9832C434.003 61.0897 433.918 61.1749 433.811 61.2389C433.707 61.3006 433.592 61.3315 433.466 61.3315ZM435.351 61.2612V60.4047L437.623 58.1771C437.841 57.9576 438.022 57.7627 438.167 57.5922C438.311 57.4217 438.42 57.2566 438.493 57.0968C438.565 56.937 438.601 56.7666 438.601 56.5854C438.601 56.3788 438.554 56.2019 438.461 56.0549C438.367 55.9058 438.238 55.7907 438.074 55.7097C437.91 55.6288 437.723 55.5883 437.515 55.5883C437.299 55.5883 437.111 55.633 436.949 55.7225C436.787 55.8099 436.661 55.9345 436.572 56.0965C436.484 56.2584 436.441 56.4512 436.441 56.6749H435.313C435.313 56.2595 435.407 55.8983 435.597 55.5915C435.787 55.2847 436.048 55.0471 436.38 54.8788C436.715 54.7104 437.098 54.6263 437.531 54.6263C437.969 54.6263 438.355 54.7083 438.688 54.8724C439.02 55.0364 439.278 55.2612 439.461 55.5467C439.646 55.8323 439.739 56.1582 439.739 56.5247C439.739 56.7698 439.692 57.0105 439.598 57.247C439.505 57.4835 439.34 57.7456 439.103 58.0332C438.869 58.3209 438.539 58.6693 438.115 59.0783L436.987 60.2257V60.2705H439.838V61.2612H435.351ZM443.237 61.2612V54.7158H444.423V57.7232H444.503L447.056 54.7158H448.504L445.973 57.6529L448.526 61.2612H447.101L445.148 58.4551L444.423 59.3117V61.2612H443.237Z" fill="white"/>
<ellipse cx="254.7" cy="200.95" rx="34.2332" ry="34" fill="#959595"/>
<path d="M238.018 191.422V190.539H242.66V191.422H240.862V196.357H239.816V191.422H238.018ZM244.538 193.8V196.357H243.509V190.539H244.515V192.735H244.566C244.668 192.489 244.827 192.294 245.041 192.152C245.257 192.008 245.531 191.936 245.864 191.936C246.168 191.936 246.432 192 246.657 192.127C246.882 192.254 247.057 192.439 247.18 192.684C247.305 192.928 247.367 193.226 247.367 193.579V196.357H246.339V193.738C246.339 193.444 246.263 193.216 246.112 193.053C245.962 192.888 245.752 192.806 245.481 192.806C245.299 192.806 245.136 192.846 244.992 192.925C244.85 193.003 244.739 193.115 244.657 193.263C244.578 193.411 244.538 193.59 244.538 193.8ZM250.347 196.442C249.91 196.442 249.532 196.351 249.214 196.169C248.898 195.986 248.654 195.726 248.484 195.391C248.313 195.054 248.228 194.657 248.228 194.201C248.228 193.752 248.313 193.358 248.484 193.019C248.656 192.678 248.897 192.413 249.205 192.223C249.514 192.032 249.877 191.936 250.293 191.936C250.562 191.936 250.816 191.98 251.055 192.067C251.295 192.152 251.507 192.285 251.691 192.465C251.877 192.645 252.023 192.874 252.129 193.152C252.235 193.429 252.288 193.758 252.288 194.141V194.456H248.711V193.763H251.302C251.3 193.566 251.257 193.391 251.174 193.238C251.091 193.082 250.974 192.96 250.825 192.871C250.677 192.782 250.505 192.738 250.308 192.738C250.097 192.738 249.913 192.789 249.754 192.891C249.595 192.991 249.471 193.124 249.382 193.289C249.294 193.452 249.25 193.631 249.248 193.826V194.431C249.248 194.685 249.294 194.902 249.387 195.084C249.48 195.264 249.61 195.402 249.776 195.499C249.943 195.594 250.138 195.641 250.362 195.641C250.511 195.641 250.647 195.62 250.768 195.579C250.889 195.535 250.994 195.472 251.083 195.388C251.172 195.305 251.239 195.202 251.285 195.079L252.245 195.186C252.185 195.44 252.069 195.662 251.899 195.851C251.73 196.039 251.514 196.185 251.251 196.289C250.988 196.391 250.686 196.442 250.347 196.442ZM253.158 196.357V191.993H254.141V192.735H254.192C254.283 192.485 254.433 192.29 254.644 192.15C254.854 192.008 255.105 191.936 255.396 191.936C255.692 191.936 255.941 192.008 256.144 192.152C256.348 192.294 256.492 192.489 256.575 192.735H256.621C256.717 192.492 256.88 192.299 257.11 192.155C257.341 192.009 257.614 191.936 257.931 191.936C258.332 191.936 258.66 192.063 258.914 192.317C259.167 192.571 259.294 192.941 259.294 193.428V196.357H258.263V193.587C258.263 193.316 258.191 193.118 258.047 192.993C257.903 192.866 257.727 192.803 257.519 192.803C257.271 192.803 257.076 192.881 256.936 193.036C256.798 193.189 256.729 193.389 256.729 193.635V196.357H255.72V193.544C255.72 193.319 255.652 193.139 255.516 193.005C255.381 192.87 255.205 192.803 254.987 192.803C254.84 192.803 254.705 192.841 254.584 192.917C254.463 192.99 254.366 193.096 254.294 193.232C254.222 193.366 254.186 193.524 254.186 193.704V196.357H253.158ZM262.269 196.442C261.832 196.442 261.454 196.351 261.136 196.169C260.82 195.986 260.576 195.726 260.406 195.391C260.235 195.054 260.15 194.657 260.15 194.201C260.15 193.752 260.235 193.358 260.406 193.019C260.578 192.678 260.819 192.413 261.127 192.223C261.436 192.032 261.799 191.936 262.215 191.936C262.484 191.936 262.738 191.98 262.977 192.067C263.217 192.152 263.429 192.285 263.613 192.465C263.799 192.645 263.945 192.874 264.051 193.152C264.157 193.429 264.21 193.758 264.21 194.141V194.456H260.633V193.763H263.224C263.222 193.566 263.179 193.391 263.096 193.238C263.013 193.082 262.896 192.96 262.747 192.871C262.599 192.782 262.427 192.738 262.23 192.738C262.019 192.738 261.835 192.789 261.676 192.891C261.516 192.991 261.392 193.124 261.303 193.289C261.216 193.452 261.172 193.631 261.17 193.826V194.431C261.17 194.685 261.216 194.902 261.309 195.084C261.402 195.264 261.532 195.402 261.698 195.499C261.865 195.594 262.06 195.641 262.284 195.641C262.433 195.641 262.569 195.62 262.69 195.579C262.811 195.535 262.916 195.472 263.005 195.388C263.094 195.305 263.161 195.202 263.207 195.079L264.167 195.186C264.106 195.44 263.991 195.662 263.82 195.851C263.652 196.039 263.436 196.185 263.173 196.289C262.909 196.391 262.608 196.442 262.269 196.442ZM269.121 196.436C268.699 196.436 268.324 196.365 267.996 196.223C267.67 196.081 267.414 195.887 267.229 195.641C267.045 195.393 266.954 195.112 266.956 194.797C266.954 194.553 267.007 194.329 267.115 194.124C267.223 193.919 267.369 193.749 267.553 193.613C267.738 193.474 267.945 193.386 268.172 193.348V193.309C267.873 193.242 267.63 193.09 267.445 192.851C267.261 192.611 267.17 192.333 267.172 192.019C267.17 191.72 267.253 191.453 267.422 191.218C267.591 190.983 267.822 190.798 268.115 190.664C268.409 190.527 268.744 190.459 269.121 190.459C269.494 190.459 269.826 190.527 270.118 190.664C270.412 190.798 270.643 190.983 270.811 191.218C270.982 191.453 271.067 191.72 271.067 192.019C271.067 192.333 270.973 192.611 270.786 192.851C270.6 193.09 270.36 193.242 270.067 193.309V193.348C270.294 193.386 270.499 193.474 270.681 193.613C270.864 193.749 271.01 193.919 271.118 194.124C271.228 194.329 271.283 194.553 271.283 194.797C271.283 195.112 271.19 195.393 271.004 195.641C270.819 195.887 270.563 196.081 270.237 196.223C269.914 196.365 269.541 196.436 269.121 196.436ZM269.121 195.624C269.339 195.624 269.528 195.587 269.689 195.513C269.85 195.437 269.975 195.331 270.064 195.195C270.153 195.059 270.199 194.901 270.2 194.723C270.199 194.538 270.15 194.374 270.056 194.232C269.963 194.088 269.835 193.975 269.672 193.894C269.511 193.812 269.327 193.772 269.121 193.772C268.913 193.772 268.727 193.812 268.564 193.894C268.401 193.975 268.272 194.088 268.178 194.232C268.085 194.374 268.039 194.538 268.041 194.723C268.039 194.901 268.083 195.059 268.172 195.195C268.261 195.329 268.386 195.435 268.547 195.51C268.71 195.586 268.901 195.624 269.121 195.624ZM269.121 192.973C269.299 192.973 269.456 192.937 269.592 192.865C269.731 192.793 269.84 192.693 269.919 192.564C269.999 192.436 270.039 192.287 270.041 192.118C270.039 191.952 270 191.806 269.922 191.681C269.844 191.554 269.736 191.456 269.598 191.388C269.46 191.318 269.301 191.283 269.121 191.283C268.937 191.283 268.775 191.318 268.635 191.388C268.497 191.456 268.389 191.554 268.311 191.681C268.235 191.806 268.199 191.952 268.2 192.118C268.199 192.287 268.236 192.436 268.314 192.564C268.394 192.691 268.503 192.792 268.641 192.865C268.781 192.937 268.941 192.973 269.121 192.973ZM247.466 206.436C247.087 206.436 246.748 206.365 246.449 206.223C246.15 206.079 245.912 205.883 245.736 205.633C245.562 205.383 245.469 205.097 245.458 204.775H246.48C246.499 205.013 246.602 205.208 246.79 205.36C246.977 205.509 247.203 205.584 247.466 205.584C247.672 205.584 247.856 205.537 248.017 205.442C248.178 205.347 248.305 205.216 248.398 205.047C248.491 204.879 248.536 204.686 248.534 204.471C248.536 204.251 248.49 204.056 248.395 203.885C248.3 203.715 248.171 203.581 248.006 203.485C247.841 203.386 247.652 203.337 247.438 203.337C247.263 203.335 247.092 203.367 246.923 203.434C246.755 203.5 246.621 203.587 246.523 203.695L245.571 203.539L245.875 200.539H249.25V201.419H246.747L246.58 202.962H246.614C246.722 202.835 246.874 202.73 247.071 202.647C247.268 202.561 247.484 202.519 247.719 202.519C248.071 202.519 248.386 202.602 248.662 202.769C248.939 202.934 249.156 203.161 249.315 203.451C249.475 203.74 249.554 204.072 249.554 204.445C249.554 204.829 249.465 205.172 249.287 205.473C249.111 205.773 248.866 206.008 248.551 206.181C248.239 206.351 247.877 206.436 247.466 206.436ZM250.955 206.419C250.783 206.419 250.635 206.359 250.512 206.238C250.389 206.116 250.329 205.969 250.33 205.794C250.329 205.624 250.389 205.478 250.512 205.357C250.635 205.236 250.783 205.175 250.955 205.175C251.122 205.175 251.267 205.236 251.39 205.357C251.515 205.478 251.579 205.624 251.58 205.794C251.579 205.91 251.548 206.015 251.489 206.11C251.433 206.204 251.357 206.28 251.262 206.337C251.169 206.392 251.067 206.419 250.955 206.419ZM254.535 206.436C254.257 206.435 253.985 206.386 253.72 206.292C253.454 206.195 253.216 206.039 253.004 205.823C252.792 205.605 252.623 205.316 252.498 204.956C252.373 204.595 252.311 204.147 252.313 203.613C252.313 203.115 252.366 202.67 252.472 202.28C252.579 201.89 252.731 201.561 252.93 201.292C253.129 201.021 253.368 200.814 253.649 200.672C253.931 200.53 254.246 200.459 254.595 200.459C254.96 200.459 255.284 200.531 255.566 200.675C255.85 200.819 256.079 201.016 256.254 201.266C256.428 201.514 256.536 201.794 256.578 202.107H255.541C255.488 201.883 255.379 201.705 255.214 201.573C255.051 201.438 254.845 201.371 254.595 201.371C254.191 201.371 253.881 201.546 253.663 201.897C253.447 202.247 253.338 202.728 253.336 203.34H253.376C253.469 203.173 253.589 203.03 253.737 202.911C253.884 202.792 254.051 202.7 254.237 202.635C254.424 202.569 254.622 202.536 254.83 202.536C255.171 202.536 255.477 202.617 255.748 202.78C256.021 202.943 256.237 203.168 256.396 203.454C256.555 203.738 256.633 204.063 256.632 204.431C256.633 204.813 256.546 205.157 256.37 205.462C256.194 205.765 255.949 206.004 255.634 206.178C255.32 206.352 254.954 206.438 254.535 206.436ZM254.529 205.584C254.736 205.584 254.92 205.534 255.083 205.434C255.246 205.333 255.375 205.198 255.47 205.027C255.564 204.857 255.611 204.666 255.609 204.454C255.611 204.245 255.565 204.057 255.472 203.888C255.382 203.72 255.256 203.586 255.095 203.488C254.934 203.389 254.75 203.34 254.543 203.34C254.39 203.34 254.247 203.369 254.114 203.428C253.982 203.487 253.866 203.568 253.768 203.672C253.669 203.775 253.592 203.894 253.535 204.03C253.48 204.165 253.452 204.309 253.45 204.462C253.452 204.665 253.499 204.851 253.592 205.022C253.685 205.192 253.812 205.329 253.975 205.431C254.138 205.533 254.323 205.584 254.529 205.584ZM259.633 206.357V200.539H260.687V203.212H260.758L263.028 200.539H264.315L262.065 203.15L264.335 206.357H263.068L261.332 203.863L260.687 204.624V206.357H259.633Z" fill="white"/>
<ellipse cx="550.4" cy="75.179" rx="60.4115" ry="60" fill="#78D161"/>
<path d="M516.99 57.421V55.6539H526.274V57.421H522.677V67.2903H520.587V57.421H516.99ZM530.03 62.1766V67.2903H527.973V55.6539H529.984V60.046H530.087C530.291 59.5535 530.607 59.1653 531.035 58.8812C531.467 58.5933 532.016 58.4494 532.683 58.4494C533.289 58.4494 533.818 58.5763 534.268 58.8301C534.719 59.0838 535.068 59.4551 535.314 59.9437C535.564 60.4323 535.689 61.0289 535.689 61.7335V67.2903H533.632V62.0516C533.632 61.4645 533.48 61.0081 533.177 60.6823C532.878 60.3528 532.458 60.188 531.916 60.188C531.552 60.188 531.227 60.2676 530.939 60.4266C530.655 60.5819 530.431 60.8073 530.268 61.1028C530.109 61.3982 530.03 61.7562 530.03 62.1766ZM541.649 67.4607C540.774 67.4607 540.018 67.2789 539.382 66.9153C538.749 66.5479 538.263 66.0289 537.922 65.3585C537.581 64.6842 537.41 63.8907 537.41 62.9778C537.41 62.0801 537.581 61.2922 537.922 60.6141C538.266 59.9323 538.747 59.402 539.365 59.0232C539.982 58.6407 540.708 58.4494 541.541 58.4494C542.079 58.4494 542.587 58.5365 543.064 58.7107C543.545 58.8812 543.969 59.1463 544.337 59.5062C544.708 59.866 544.999 60.3244 545.212 60.8812C545.424 61.4342 545.53 62.0933 545.53 62.8585V63.4891H538.376V62.1028H543.558C543.554 61.7088 543.469 61.3585 543.302 61.0516C543.136 60.741 542.903 60.4967 542.604 60.3187C542.308 60.1407 541.963 60.0516 541.569 60.0516C541.149 60.0516 540.78 60.1539 540.462 60.3585C540.143 60.5592 539.895 60.8244 539.717 61.1539C539.543 61.4797 539.454 61.8376 539.45 62.2278V63.438C539.45 63.9456 539.543 64.3812 539.729 64.7448C539.914 65.1047 540.174 65.3812 540.507 65.5744C540.84 65.7638 541.23 65.8585 541.677 65.8585C541.977 65.8585 542.247 65.8168 542.49 65.7335C542.732 65.6463 542.943 65.5194 543.121 65.3528C543.299 65.1861 543.433 64.9797 543.524 64.7335L545.444 64.9494C545.323 65.4569 545.092 65.9001 544.751 66.2789C544.414 66.6539 543.982 66.9456 543.456 67.1539C542.929 67.3585 542.327 67.4607 541.649 67.4607ZM547.27 67.2903V58.563H549.236V60.046H549.338C549.52 59.546 549.821 59.1558 550.241 58.8755C550.662 58.5914 551.164 58.4494 551.747 58.4494C552.338 58.4494 552.836 58.5933 553.241 58.8812C553.65 59.1653 553.938 59.5535 554.105 60.046H554.196C554.389 59.5611 554.715 59.1748 555.173 58.8869C555.635 58.5952 556.183 58.4494 556.815 58.4494C557.618 58.4494 558.274 58.7032 558.781 59.2107C559.289 59.7183 559.542 60.4588 559.542 61.4323V67.2903H557.48V61.7505C557.48 61.2088 557.336 60.813 557.048 60.563C556.76 60.3092 556.408 60.1823 555.991 60.1823C555.495 60.1823 555.107 60.3376 554.827 60.6482C554.55 60.9551 554.412 61.3547 554.412 61.8471V67.2903H552.395V61.6653C552.395 61.2145 552.258 60.8547 551.986 60.5857C551.717 60.3168 551.364 60.1823 550.929 60.1823C550.633 60.1823 550.364 60.2581 550.122 60.4096C549.88 60.5573 549.686 60.7676 549.542 61.0403C549.399 61.3092 549.327 61.6236 549.327 61.9835V67.2903H547.27ZM565.493 67.4607C564.618 67.4607 563.862 67.2789 563.226 66.9153C562.593 66.5479 562.106 66.0289 561.765 65.3585C561.425 64.6842 561.254 63.8907 561.254 62.9778C561.254 62.0801 561.425 61.2922 561.765 60.6141C562.11 59.9323 562.591 59.402 563.209 59.0232C563.826 58.6407 564.551 58.4494 565.385 58.4494C565.923 58.4494 566.43 58.5365 566.908 58.7107C567.389 58.8812 567.813 59.1463 568.18 59.5062C568.551 59.866 568.843 60.3244 569.055 60.8812C569.267 61.4342 569.373 62.0933 569.373 62.8585V63.4891H562.22V62.1028H567.402C567.398 61.7088 567.313 61.3585 567.146 61.0516C566.979 60.741 566.747 60.4967 566.447 60.3187C566.152 60.1407 565.807 60.0516 565.413 60.0516C564.993 60.0516 564.623 60.1539 564.305 60.3585C563.987 60.5592 563.739 60.8244 563.561 61.1539C563.387 61.4797 563.298 61.8376 563.294 62.2278V63.438C563.294 63.9456 563.387 64.3812 563.572 64.7448C563.758 65.1047 564.017 65.3812 564.351 65.5744C564.684 65.7638 565.074 65.8585 565.521 65.8585C565.82 65.8585 566.091 65.8168 566.334 65.7335C566.576 65.6463 566.786 65.5194 566.964 65.3528C567.142 65.1861 567.277 64.9797 567.368 64.7335L569.288 64.9494C569.167 65.4569 568.936 65.9001 568.595 66.2789C568.258 66.6539 567.826 66.9456 567.3 67.1539C566.773 67.3585 566.171 67.4607 565.493 67.4607ZM579.236 67.4494C578.417 67.4494 577.69 67.3092 577.054 67.0289C576.421 66.7486 575.921 66.3585 575.554 65.8585C575.186 65.3585 574.991 64.7808 574.969 64.1255H577.105C577.124 64.4399 577.228 64.7145 577.417 64.9494C577.607 65.1804 577.859 65.3604 578.173 65.4891C578.488 65.6179 578.84 65.6823 579.23 65.6823C579.647 65.6823 580.016 65.6104 580.338 65.4664C580.66 65.3187 580.912 65.1141 581.094 64.8528C581.275 64.5914 581.364 64.2903 581.361 63.9494C581.364 63.5971 581.274 63.2865 581.088 63.0176C580.902 62.7486 580.633 62.5384 580.281 62.3869C579.933 62.2354 579.512 62.1596 579.02 62.1596H577.991V60.5346H579.02C579.425 60.5346 579.779 60.4645 580.082 60.3244C580.389 60.1842 580.63 59.9873 580.804 59.7335C580.978 59.4759 581.063 59.1785 581.06 58.8414C581.063 58.5119 580.989 58.2259 580.838 57.9835C580.69 57.7373 580.48 57.546 580.207 57.4096C579.938 57.2732 579.622 57.2051 579.258 57.2051C578.902 57.2051 578.573 57.2694 578.27 57.3982C577.967 57.527 577.722 57.7107 577.537 57.9494C577.351 58.1842 577.253 58.4645 577.241 58.7903H575.213C575.228 58.1388 575.416 57.5668 575.775 57.0744C576.139 56.5782 576.624 56.1918 577.23 55.9153C577.836 55.635 578.516 55.4948 579.27 55.4948C580.046 55.4948 580.72 55.6407 581.292 55.9323C581.868 56.2202 582.313 56.6085 582.628 57.0971C582.942 57.5857 583.099 58.1255 583.099 58.7164C583.103 59.3717 582.91 59.921 582.52 60.3641C582.133 60.8073 581.626 61.0971 580.997 61.2335V61.3244C581.815 61.438 582.442 61.741 582.878 62.2335C583.317 62.7221 583.535 63.3301 583.531 64.0573C583.531 64.7088 583.345 65.2922 582.974 65.8073C582.607 66.3187 582.099 66.7202 581.452 67.0119C580.808 67.3035 580.069 67.4494 579.236 67.4494ZM532.667 74.6539V86.2903H530.56V76.7051H530.491L527.77 78.4437V76.5119L530.662 74.6539H532.667ZM535.622 86.2903V84.7676L539.662 80.8073C540.048 80.4172 540.37 80.0706 540.628 79.7676C540.885 79.4645 541.078 79.171 541.207 78.8869C541.336 78.6028 541.4 78.2998 541.4 77.9778C541.4 77.6104 541.317 77.296 541.15 77.0346C540.984 76.7694 540.755 76.5649 540.463 76.421C540.171 76.277 539.84 76.2051 539.469 76.2051C539.086 76.2051 538.751 76.2846 538.463 76.4437C538.175 76.599 537.952 76.8206 537.792 77.1085C537.637 77.3963 537.56 77.7391 537.56 78.1369H535.554C535.554 77.3982 535.722 76.7562 536.06 76.2107C536.397 75.6653 536.861 75.2429 537.452 74.9437C538.046 74.6444 538.728 74.4948 539.497 74.4948C540.277 74.4948 540.963 74.6407 541.554 74.9323C542.145 75.224 542.603 75.6236 542.929 76.1312C543.258 76.6388 543.423 77.2183 543.423 77.8698C543.423 78.3054 543.34 78.7335 543.173 79.1539C543.006 79.5744 542.713 80.0403 542.292 80.5516C541.876 81.063 541.291 81.6823 540.537 82.4096L538.531 84.4494V84.5289H543.599V86.2903H535.622ZM546.849 86.4153C546.505 86.4153 546.209 86.2941 545.963 86.0516C545.717 85.8092 545.595 85.5138 545.599 85.1653C545.595 84.8244 545.717 84.5327 545.963 84.2903C546.209 84.0479 546.505 83.9266 546.849 83.9266C547.183 83.9266 547.472 84.0479 547.719 84.2903C547.969 84.5327 548.095 84.8244 548.099 85.1653C548.095 85.3963 548.035 85.6066 547.917 85.796C547.804 85.9854 547.652 86.1369 547.463 86.2505C547.277 86.3604 547.073 86.4153 546.849 86.4153ZM550.2 86.2903V84.7676L554.24 80.8073C554.626 80.4172 554.948 80.0706 555.206 79.7676C555.463 79.4645 555.657 79.171 555.785 78.8869C555.914 78.6028 555.979 78.2998 555.979 77.9778C555.979 77.6104 555.895 77.296 555.729 77.0346C555.562 76.7694 555.333 76.5649 555.041 76.421C554.749 76.277 554.418 76.2051 554.047 76.2051C553.664 76.2051 553.329 76.2846 553.041 76.4437C552.753 76.599 552.53 76.8206 552.371 77.1085C552.215 77.3963 552.138 77.7391 552.138 78.1369H550.132C550.132 77.3982 550.301 76.7562 550.638 76.2107C550.975 75.6653 551.439 75.2429 552.03 74.9437C552.624 74.6444 553.306 74.4948 554.075 74.4948C554.855 74.4948 555.541 74.6407 556.132 74.9323C556.723 75.224 557.181 75.6236 557.507 76.1312C557.837 76.6388 558.001 77.2183 558.001 77.8698C558.001 78.3054 557.918 78.7335 557.751 79.1539C557.585 79.5744 557.291 80.0403 556.871 80.5516C556.454 81.063 555.869 81.6823 555.115 82.4096L553.109 84.4494V84.5289H558.177V86.2903H550.2ZM564.22 86.2903V74.6539H566.328V80.0005H566.47L571.01 74.6539H573.584L569.084 79.8755L573.623 86.2903H571.089L567.618 81.3016L566.328 82.8244V86.2903H564.22Z" fill="white"/>
<ellipse cx="665.365" cy="142.889" rx="60.4115" ry="60" fill="#FF6888"/>
<path d="M631.837 123.896V122.129H641.121V123.896H637.524V133.766H635.433V123.896H631.837ZM644.876 128.652V133.766H642.82V122.129H644.831V126.521H644.933C645.138 126.029 645.454 125.641 645.882 125.357C646.314 125.069 646.863 124.925 647.53 124.925C648.136 124.925 648.664 125.052 649.115 125.305C649.566 125.559 649.914 125.93 650.16 126.419C650.41 126.908 650.535 127.504 650.535 128.209V133.766H648.479V128.527C648.479 127.94 648.327 127.483 648.024 127.158C647.725 126.828 647.304 126.663 646.763 126.663C646.399 126.663 646.073 126.743 645.785 126.902C645.501 127.057 645.278 127.283 645.115 127.578C644.956 127.874 644.876 128.232 644.876 128.652ZM656.496 133.936C655.621 133.936 654.865 133.754 654.229 133.391C653.596 133.023 653.109 132.504 652.768 131.834C652.427 131.16 652.257 130.366 652.257 129.453C652.257 128.555 652.427 127.768 652.768 127.089C653.113 126.408 653.594 125.877 654.212 125.499C654.829 125.116 655.554 124.925 656.388 124.925C656.926 124.925 657.433 125.012 657.91 125.186C658.392 125.357 658.816 125.622 659.183 125.982C659.554 126.341 659.846 126.8 660.058 127.357C660.27 127.91 660.376 128.569 660.376 129.334V129.964H653.223V128.578H658.405C658.401 128.184 658.316 127.834 658.149 127.527C657.982 127.216 657.749 126.972 657.45 126.794C657.155 126.616 656.81 126.527 656.416 126.527C655.996 126.527 655.626 126.629 655.308 126.834C654.99 127.035 654.742 127.3 654.564 127.629C654.39 127.955 654.301 128.313 654.297 128.703V129.913C654.297 130.421 654.39 130.857 654.575 131.22C654.761 131.58 655.02 131.857 655.354 132.05C655.687 132.239 656.077 132.334 656.524 132.334C656.823 132.334 657.094 132.292 657.337 132.209C657.579 132.122 657.789 131.995 657.967 131.828C658.145 131.661 658.28 131.455 658.371 131.209L660.291 131.425C660.17 131.932 659.939 132.375 659.598 132.754C659.261 133.129 658.829 133.421 658.302 133.629C657.776 133.834 657.174 133.936 656.496 133.936ZM662.116 133.766V125.038H664.082V126.521H664.185C664.366 126.021 664.668 125.631 665.088 125.351C665.508 125.067 666.01 124.925 666.594 124.925C667.185 124.925 667.683 125.069 668.088 125.357C668.497 125.641 668.785 126.029 668.952 126.521H669.043C669.236 126.036 669.561 125.65 670.02 125.362C670.482 125.071 671.029 124.925 671.662 124.925C672.465 124.925 673.12 125.179 673.628 125.686C674.135 126.194 674.389 126.934 674.389 127.908V133.766H672.327V128.226C672.327 127.684 672.183 127.288 671.895 127.038C671.607 126.785 671.255 126.658 670.838 126.658C670.342 126.658 669.954 126.813 669.673 127.124C669.397 127.43 669.258 127.83 669.258 128.322V133.766H667.241V128.141C667.241 127.69 667.105 127.33 666.832 127.061C666.563 126.792 666.211 126.658 665.776 126.658C665.48 126.658 665.211 126.733 664.969 126.885C664.726 127.033 664.533 127.243 664.389 127.516C664.245 127.785 664.173 128.099 664.173 128.459V133.766H662.116ZM680.339 133.936C679.464 133.936 678.709 133.754 678.072 133.391C677.44 133.023 676.953 132.504 676.612 131.834C676.271 131.16 676.101 130.366 676.101 129.453C676.101 128.555 676.271 127.768 676.612 127.089C676.957 126.408 677.438 125.877 678.055 125.499C678.673 125.116 679.398 124.925 680.231 124.925C680.769 124.925 681.277 125.012 681.754 125.186C682.235 125.357 682.66 125.622 683.027 125.982C683.398 126.341 683.69 126.8 683.902 127.357C684.114 127.91 684.22 128.569 684.22 129.334V129.964H677.067V128.578H682.249C682.245 128.184 682.16 127.834 681.993 127.527C681.826 127.216 681.593 126.972 681.294 126.794C680.999 126.616 680.654 126.527 680.26 126.527C679.839 126.527 679.47 126.629 679.152 126.834C678.834 127.035 678.586 127.3 678.408 127.629C678.233 127.955 678.144 128.313 678.141 128.703V129.913C678.141 130.421 678.233 130.857 678.419 131.22C678.605 131.58 678.864 131.857 679.197 132.05C679.531 132.239 679.921 132.334 680.368 132.334C680.667 132.334 680.938 132.292 681.18 132.209C681.423 132.122 681.633 131.995 681.811 131.828C681.989 131.661 682.124 131.455 682.214 131.209L684.135 131.425C684.014 131.932 683.783 132.375 683.442 132.754C683.105 133.129 682.673 133.421 682.146 133.629C681.62 133.834 681.017 133.936 680.339 133.936ZM689.696 131.607V129.93L694.633 122.129H696.031V124.516H695.179L691.855 129.783V129.874H698.747V131.607H689.696ZM695.247 133.766V131.095L695.27 130.345V122.129H697.258V133.766H695.247ZM649.053 141.129V152.766H646.945V143.18H646.877L644.155 144.919V142.987L647.048 141.129H649.053ZM656.741 141.129V152.766H654.633V143.18H654.565L651.843 144.919V142.987L654.735 141.129H656.741ZM660.344 152.891C660 152.891 659.704 152.769 659.458 152.527C659.212 152.285 659.091 151.989 659.094 151.641C659.091 151.3 659.212 151.008 659.458 150.766C659.704 150.523 660 150.402 660.344 150.402C660.678 150.402 660.968 150.523 661.214 150.766C661.464 151.008 661.591 151.3 661.594 151.641C661.591 151.872 661.53 152.082 661.413 152.271C661.299 152.461 661.147 152.612 660.958 152.726C660.772 152.836 660.568 152.891 660.344 152.891ZM667.6 152.925C666.843 152.925 666.164 152.783 665.566 152.499C664.968 152.211 664.492 151.817 664.14 151.317C663.791 150.817 663.606 150.245 663.583 149.601H665.628C665.666 150.078 665.873 150.468 666.248 150.771C666.623 151.071 667.074 151.22 667.6 151.22C668.013 151.22 668.38 151.125 668.702 150.936C669.024 150.747 669.278 150.483 669.464 150.146C669.649 149.809 669.74 149.425 669.736 148.993C669.74 148.554 669.647 148.163 669.458 147.822C669.269 147.482 669.009 147.214 668.68 147.021C668.35 146.824 667.971 146.726 667.543 146.726C667.195 146.722 666.852 146.786 666.515 146.919C666.178 147.052 665.911 147.226 665.714 147.442L663.81 147.129L664.418 141.129H671.168V142.891H666.163L665.827 145.976H665.896C666.111 145.722 666.416 145.512 666.81 145.345C667.204 145.175 667.636 145.089 668.106 145.089C668.81 145.089 669.439 145.256 669.992 145.589C670.545 145.919 670.981 146.374 671.299 146.953C671.617 147.533 671.776 148.196 671.776 148.942C671.776 149.711 671.598 150.396 671.242 150.999C670.89 151.597 670.399 152.069 669.771 152.413C669.146 152.754 668.422 152.925 667.6 152.925ZM677.762 152.766V141.129H679.87V146.476H680.012L684.552 141.129H687.126L682.626 146.351L687.165 152.766H684.631L681.16 147.777L679.87 149.3V152.766H677.762Z" fill="white"/>
<ellipse cx="381.487" cy="167.562" rx="80.5486" ry="80" fill="#78D161"/>
<path d="M341.434 145.133V142.924H353.039V145.133H348.543V157.469H345.93V145.133H341.434ZM357.734 151.077V157.469H355.163V142.924H357.677V148.414H357.805C358.06 147.798 358.456 147.313 358.991 146.958C359.53 146.598 360.217 146.418 361.05 146.418C361.808 146.418 362.468 146.577 363.032 146.894C363.595 147.211 364.031 147.675 364.339 148.286C364.651 148.897 364.807 149.643 364.807 150.523V157.469H362.236V150.921C362.236 150.187 362.047 149.616 361.668 149.209C361.294 148.797 360.769 148.591 360.092 148.591C359.637 148.591 359.23 148.691 358.87 148.89C358.515 149.084 358.235 149.366 358.032 149.735C357.833 150.104 357.734 150.552 357.734 151.077ZM372.258 157.682C371.164 157.682 370.219 157.455 369.424 157C368.633 156.541 368.025 155.893 367.599 155.054C367.172 154.212 366.959 153.22 366.959 152.079C366.959 150.956 367.172 149.972 367.599 149.124C368.029 148.272 368.631 147.609 369.403 147.135C370.174 146.657 371.081 146.418 372.123 146.418C372.795 146.418 373.43 146.527 374.026 146.745C374.627 146.958 375.158 147.289 375.617 147.739C376.081 148.189 376.446 148.762 376.711 149.458C376.976 150.149 377.109 150.973 377.109 151.929V152.718H368.167V150.985H374.644C374.639 150.492 374.533 150.054 374.324 149.671C374.116 149.283 373.825 148.977 373.451 148.755C373.082 148.532 372.651 148.421 372.158 148.421C371.633 148.421 371.171 148.549 370.773 148.804C370.376 149.055 370.065 149.387 369.843 149.799C369.625 150.206 369.514 150.653 369.509 151.141V152.654C369.509 153.288 369.625 153.833 369.857 154.287C370.089 154.737 370.413 155.083 370.83 155.324C371.247 155.561 371.734 155.679 372.293 155.679C372.667 155.679 373.006 155.627 373.309 155.523C373.612 155.414 373.875 155.256 374.097 155.047C374.32 154.839 374.488 154.581 374.601 154.273L377.002 154.543C376.85 155.178 376.562 155.732 376.136 156.205C375.714 156.674 375.174 157.038 374.516 157.299C373.858 157.554 373.105 157.682 372.258 157.682ZM379.284 157.469V146.56H381.741V148.414H381.869C382.096 147.789 382.473 147.301 382.998 146.951C383.524 146.596 384.151 146.418 384.88 146.418C385.619 146.418 386.241 146.598 386.748 146.958C387.259 147.313 387.619 147.798 387.828 148.414H387.941C388.183 147.808 388.59 147.325 389.163 146.965C389.741 146.6 390.425 146.418 391.215 146.418C392.219 146.418 393.038 146.735 393.673 147.37C394.307 148.004 394.625 148.93 394.625 150.147V157.469H392.046V150.545C392.046 149.867 391.866 149.373 391.507 149.06C391.147 148.743 390.706 148.584 390.186 148.584C389.565 148.584 389.08 148.778 388.73 149.167C388.384 149.55 388.211 150.05 388.211 150.665V157.469H385.69V150.438C385.69 149.875 385.519 149.425 385.179 149.089C384.842 148.752 384.402 148.584 383.857 148.584C383.488 148.584 383.152 148.679 382.849 148.868C382.546 149.053 382.304 149.316 382.125 149.657C381.945 149.993 381.855 150.386 381.855 150.836V157.469H379.284ZM402.062 157.682C400.969 157.682 400.024 157.455 399.229 157C398.438 156.541 397.829 155.893 397.403 155.054C396.977 154.212 396.764 153.22 396.764 152.079C396.764 150.956 396.977 149.972 397.403 149.124C397.834 148.272 398.435 147.609 399.207 147.135C399.979 146.657 400.886 146.418 401.927 146.418C402.6 146.418 403.234 146.527 403.831 146.745C404.432 146.958 404.962 147.289 405.422 147.739C405.886 148.189 406.25 148.762 406.516 149.458C406.781 150.149 406.913 150.973 406.913 151.929V152.718H397.971V150.985H404.449C404.444 150.492 404.337 150.054 404.129 149.671C403.921 149.283 403.63 148.977 403.256 148.755C402.886 148.532 402.455 148.421 401.963 148.421C401.437 148.421 400.976 148.549 400.578 148.804C400.18 149.055 399.87 149.387 399.648 149.799C399.43 150.206 399.319 150.653 399.314 151.141V152.654C399.314 153.288 399.43 153.833 399.662 154.287C399.894 154.737 400.218 155.083 400.635 155.324C401.051 155.561 401.539 155.679 402.098 155.679C402.472 155.679 402.81 155.627 403.114 155.523C403.417 155.414 403.679 155.256 403.902 155.047C404.124 154.839 404.293 154.581 404.406 154.273L406.807 154.543C406.655 155.178 406.366 155.732 405.94 156.205C405.519 156.674 404.979 157.038 404.321 157.299C403.663 157.554 402.91 157.682 402.062 157.682ZM419.937 142.924V157.469H417.302V145.488H417.217L413.815 147.661V145.246L417.43 142.924H419.937ZM359 166.924V181.469H356.365V169.488H356.279L352.877 171.661V169.246L356.492 166.924H359ZM367.75 181.668C366.803 181.668 365.955 181.491 365.207 181.135C364.459 180.776 363.865 180.283 363.424 179.658C362.989 179.033 362.757 178.318 362.728 177.513H365.285C365.332 178.11 365.59 178.598 366.059 178.976C366.528 179.35 367.091 179.537 367.75 179.537C368.266 179.537 368.725 179.419 369.127 179.182C369.53 178.946 369.847 178.616 370.079 178.195C370.311 177.774 370.425 177.293 370.42 176.753C370.425 176.204 370.309 175.716 370.072 175.29C369.835 174.864 369.511 174.53 369.099 174.289C368.687 174.043 368.214 173.92 367.679 173.92C367.243 173.915 366.814 173.995 366.393 174.161C365.972 174.327 365.638 174.545 365.392 174.814L363.012 174.424L363.772 166.924H372.21V169.125H365.953L365.534 172.982H365.619C365.889 172.665 366.27 172.402 366.762 172.194C367.255 171.981 367.795 171.874 368.382 171.874C369.262 171.874 370.048 172.082 370.74 172.499C371.431 172.911 371.975 173.479 372.373 174.204C372.771 174.928 372.97 175.757 372.97 176.689C372.97 177.651 372.747 178.508 372.302 179.26C371.862 180.009 371.249 180.598 370.463 181.029C369.681 181.455 368.777 181.668 367.75 181.668ZM376.473 181.625C376.042 181.625 375.673 181.474 375.365 181.171C375.057 180.868 374.906 180.499 374.91 180.063C374.906 179.637 375.057 179.272 375.365 178.969C375.673 178.666 376.042 178.515 376.473 178.515C376.89 178.515 377.252 178.666 377.56 178.969C377.872 179.272 378.031 179.637 378.035 180.063C378.031 180.352 377.955 180.615 377.808 180.851C377.666 181.088 377.477 181.277 377.24 181.42C377.008 181.557 376.752 181.625 376.473 181.625ZM380.399 178.77V176.675L386.571 166.924H388.318V169.907H387.252L383.098 176.491V176.604H391.713V178.77H380.399ZM387.338 181.469V178.131L387.366 177.194V166.924H389.852V181.469H387.338ZM399.085 181.469V166.924H401.72V173.607H401.897L407.572 166.924H410.789L405.164 173.451L410.839 181.469H407.671L403.332 175.233L401.72 177.137V181.469H399.085Z" fill="white"/>
<ellipse cx="73.756" cy="87.6792" rx="72.9972" ry="72.5" fill="#78D161"/>
<path d="M37.0495 69.1993V67.2113H47.4941V69.1993H43.4479V80.3022H41.0956V69.1993H37.0495ZM51.7192 74.5494V80.3022H49.4053V67.2113H51.6681V72.1524H51.7831C52.0132 71.5984 52.3691 71.1616 52.8506 70.842C53.3364 70.5182 53.9543 70.3562 54.7043 70.3562C55.3861 70.3562 55.9806 70.499 56.4877 70.7845C56.9948 71.07 57.3868 71.4876 57.6638 72.0373C57.9451 72.587 58.0857 73.2582 58.0857 74.0508V80.3022H55.7718V74.4088C55.7718 73.7483 55.6013 73.2348 55.2604 72.8683C54.9237 72.4976 54.4507 72.3122 53.8414 72.3122C53.4323 72.3122 53.0658 72.4017 52.7419 72.5807C52.4223 72.7554 52.1709 73.0089 51.9877 73.3413C51.8087 73.6737 51.7192 74.0764 51.7192 74.5494ZM64.7909 80.494C63.8066 80.494 62.9564 80.2895 62.2405 79.8804C61.5289 79.467 60.9813 78.8832 60.5978 78.129C60.2142 77.3704 60.0225 76.4777 60.0225 75.4507C60.0225 74.4407 60.2142 73.5544 60.5978 72.7916C60.9855 72.0245 61.5267 71.428 62.2213 71.0018C62.9159 70.5714 63.732 70.3562 64.6695 70.3562C65.2746 70.3562 65.8456 70.4542 66.3826 70.6503C66.9237 70.842 67.401 71.1403 67.8144 71.5451C68.232 71.95 68.5601 72.4656 68.7987 73.092C69.0374 73.7142 69.1567 74.4557 69.1567 75.3165V76.026H61.1091V74.4663H66.9387C66.9344 74.0231 66.8385 73.629 66.651 73.2838C66.4635 72.9343 66.2014 72.6595 65.8648 72.4592C65.5324 72.2589 65.1446 72.1588 64.7014 72.1588C64.2284 72.1588 63.8129 72.2738 63.455 72.504C63.097 72.7298 62.8179 73.0281 62.6176 73.3988C62.4216 73.7653 62.3215 74.168 62.3172 74.6069V75.9684C62.3172 76.5395 62.4216 77.0295 62.6304 77.4386C62.8392 77.8434 63.1311 78.1545 63.5061 78.3718C63.8811 78.5849 64.3201 78.6915 64.8229 78.6915C65.1595 78.6915 65.4642 78.6446 65.737 78.5508C66.0097 78.4528 66.2462 78.3101 66.4465 78.1226C66.6468 77.9351 66.798 77.7028 66.9003 77.4258L69.0608 77.6687C68.9245 78.2397 68.6645 78.7383 68.281 79.1645C67.9017 79.5863 67.4159 79.9145 66.8236 80.1488C66.2313 80.379 65.5537 80.494 64.7909 80.494ZM71.1143 80.3022V70.4841H73.3259V72.1524H73.441C73.6455 71.5899 73.9843 71.151 74.4573 70.8356C74.9303 70.516 75.4949 70.3562 76.1512 70.3562C76.816 70.3562 77.3763 70.5182 77.8323 70.842C78.2925 71.1616 78.6164 71.5984 78.8039 72.1524H78.9062C79.1235 71.6069 79.49 71.1723 80.0056 70.8484C80.5255 70.5203 81.1413 70.3562 81.8529 70.3562C82.7563 70.3562 83.4935 70.6417 84.0645 71.2128C84.6356 71.7838 84.9211 72.6169 84.9211 73.712V80.3022H82.6008V74.07C82.6008 73.4606 82.4388 73.0153 82.115 72.7341C81.7911 72.4486 81.3948 72.3058 80.9261 72.3058C80.3678 72.3058 79.931 72.4805 79.6157 72.8299C79.3046 73.1751 79.1491 73.6247 79.1491 74.1787V80.3022H76.8799V73.9741C76.8799 73.467 76.7265 73.0622 76.4197 72.7596C76.1171 72.4571 75.7208 72.3058 75.2307 72.3058C74.8984 72.3058 74.5958 72.391 74.3231 72.5615C74.0503 72.7277 73.833 72.9642 73.6711 73.271C73.5091 73.5736 73.4282 73.9272 73.4282 74.3321V80.3022H71.1143ZM91.6152 80.494C90.6308 80.494 89.7806 80.2895 89.0647 79.8804C88.3531 79.467 87.8055 78.8832 87.422 78.129C87.0384 77.3704 86.8467 76.4777 86.8467 75.4507C86.8467 74.4407 87.0384 73.5544 87.422 72.7916C87.8098 72.0245 88.3509 71.428 89.0455 71.0018C89.7402 70.5714 90.5562 70.3562 91.4937 70.3562C92.0988 70.3562 92.6698 70.4542 93.2068 70.6503C93.748 70.842 94.2252 71.1403 94.6386 71.5451C95.0562 71.95 95.3843 72.4656 95.623 73.092C95.8616 73.7142 95.9809 74.4557 95.9809 75.3165V76.026H87.9333V74.4663H93.7629C93.7586 74.0231 93.6627 73.629 93.4752 73.2838C93.2877 72.9343 93.0257 72.6595 92.689 72.4592C92.3566 72.2589 91.9688 72.1588 91.5257 72.1588C91.0527 72.1588 90.6372 72.2738 90.2792 72.504C89.9213 72.7298 89.6421 73.0281 89.4419 73.3988C89.2458 73.7653 89.1457 74.168 89.1414 74.6069V75.9684C89.1414 76.5395 89.2458 77.0295 89.4546 77.4386C89.6634 77.8434 89.9553 78.1545 90.3303 78.3718C90.7053 78.5849 91.1443 78.6915 91.6471 78.6915C91.9838 78.6915 92.2884 78.6446 92.5612 78.5508C92.8339 78.4528 93.0704 78.3101 93.2707 78.1226C93.471 77.9351 93.6223 77.7028 93.7245 77.4258L95.885 77.6687C95.7487 78.2397 95.4887 78.7383 95.1052 79.1645C94.7259 79.5863 94.2402 79.9145 93.6478 80.1488C93.0555 80.379 92.3779 80.494 91.6152 80.494ZM102.378 80.3022V78.5892L106.922 74.1339C107.357 73.695 107.719 73.3051 108.009 72.9642C108.299 72.6233 108.516 72.293 108.661 71.9734C108.806 71.6538 108.878 71.3129 108.878 70.9507C108.878 70.5373 108.785 70.1836 108.597 69.8896C108.41 69.5913 108.152 69.3612 107.824 69.1993C107.496 69.0373 107.123 68.9564 106.705 68.9564C106.275 68.9564 105.898 69.0459 105.574 69.2248C105.25 69.3995 104.998 69.6488 104.82 69.9727C104.645 70.2966 104.557 70.6822 104.557 71.1297H102.301C102.301 70.2987 102.491 69.5764 102.87 68.9628C103.249 68.3491 103.771 67.874 104.436 67.5373C105.105 67.2007 105.872 67.0324 106.737 67.0324C107.615 67.0324 108.386 67.1964 109.051 67.5245C109.716 67.8527 110.231 68.3022 110.598 68.8733C110.969 69.4443 111.154 70.0963 111.154 70.8292C111.154 71.3193 111.06 71.8008 110.873 72.2738C110.685 72.7468 110.355 73.271 109.882 73.8463C109.413 74.4216 108.755 75.1183 107.907 75.9365L105.65 78.2312V78.3207H111.352V80.3022H102.378ZM54.1945 89.2113V102.302H51.8231V91.5189H51.7464L48.6846 93.4748V91.3015L51.9381 89.2113H54.1945ZM57.2819 99.8733V97.9876L62.8366 89.2113H64.409V91.896H63.4502L59.7109 97.8214V97.9237H67.4644V99.8733H57.2819ZM63.5269 102.302V99.298L63.5525 98.4542V89.2113H65.7897V102.302H63.5269ZM70.5885 102.443C70.2007 102.443 69.8683 102.307 69.5914 102.034C69.3144 101.761 69.178 101.429 69.1823 101.037C69.178 100.653 69.3144 100.325 69.5914 100.052C69.8683 99.7795 70.2007 99.6432 70.5885 99.6432C70.9635 99.6432 71.2895 99.7795 71.5665 100.052C71.8478 100.325 71.9905 100.653 71.9948 101.037C71.9905 101.297 71.9223 101.533 71.7902 101.746C71.6624 101.959 71.4919 102.13 71.2789 102.258C71.0701 102.381 70.8399 102.443 70.5885 102.443ZM74.3582 102.302V100.589L78.903 96.1339C79.3376 95.695 79.6998 95.3051 79.9896 94.9642C80.2794 94.6233 80.4967 94.293 80.6416 93.9734C80.7865 93.6538 80.8589 93.3129 80.8589 92.9507C80.8589 92.5373 80.7652 92.1836 80.5777 91.8896C80.3902 91.5913 80.1324 91.3612 79.8042 91.1993C79.4761 91.0373 79.1033 90.9564 78.6856 90.9564C78.2552 90.9564 77.8781 91.0459 77.5542 91.2248C77.2304 91.3995 76.979 91.6488 76.8 91.9727C76.6253 92.2966 76.5379 92.6822 76.5379 93.1297H74.2815C74.2815 92.2987 74.4712 91.5764 74.8504 90.9628C75.2297 90.3491 75.7517 89.874 76.4165 89.5373C77.0855 89.2007 77.8525 89.0324 78.7176 89.0324C79.5954 89.0324 80.3667 89.1964 81.0315 89.5245C81.6963 89.8527 82.2119 90.3022 82.5784 90.8733C82.9491 91.4443 83.1345 92.0963 83.1345 92.8292C83.1345 93.3193 83.0408 93.8008 82.8533 94.2738C82.6658 94.7468 82.3355 95.271 81.8625 95.8463C81.3937 96.4216 80.7354 97.1183 79.8873 97.9365L77.631 100.231V100.321H83.3327V102.302H74.3582ZM90.1306 102.302V89.2113H92.502V95.2263H92.6618L97.7691 89.2113H100.665L95.6022 95.0856L100.709 102.302H97.8586L93.953 96.69L92.502 98.4031V102.302H90.1306Z" fill="white"/>
</svg>
