<svg width="831" height="315" viewBox="0 0 831 315" fill="none" xmlns="http://www.w3.org/2000/svg">
<rect width="831" height="315" fill="white"/>
<path d="M547.652 142.202C547.728 122.733 543.431 103.496 535.077 85.9113C526.723 68.3261 514.526 52.8418 499.387 40.6015C484.247 28.3612 466.552 19.6776 447.607 15.1918C428.662 10.706 408.952 10.5324 389.931 14.6841L398.248 52.787C411.562 49.8809 425.36 50.0023 438.621 53.1424C451.882 56.2825 464.269 62.361 474.867 70.9292C485.464 79.4974 494.002 90.3364 499.85 102.646C505.698 114.956 508.706 128.422 508.653 142.049L547.652 142.202Z" fill="#FF6888"/>
<path d="M449.801 267.656C477.708 260.534 502.46 244.345 520.171 221.632C537.881 198.919 547.548 170.968 547.652 142.166L508.653 142.024C508.579 162.186 501.813 181.752 489.416 197.651C477.018 213.55 459.692 224.882 440.157 229.868L449.801 267.656Z" fill="#FFBE6A"/>
<path d="M296.174 187.984C307.563 217.872 329.571 242.513 357.987 257.193C386.404 271.872 419.235 275.561 450.201 267.554L440.436 229.796C418.76 235.401 395.779 232.819 375.887 222.543C355.995 212.267 340.59 195.019 332.618 174.097L296.174 187.984Z" fill="#C1E382"/>
<path d="M291.534 110.168C285.085 135.968 286.703 163.125 296.171 187.976L332.616 174.091C325.988 156.695 324.855 137.686 329.37 119.626L291.534 110.168Z" fill="#7EBDC2"/>
<path d="M389.909 14.6889C366.27 19.8529 344.541 31.5118 327.168 48.3537C309.795 65.1955 297.467 86.5517 291.571 110.019L329.396 119.521C333.523 103.094 342.152 88.145 354.314 76.3557C366.475 64.5664 381.685 56.4052 398.232 52.7904L389.909 14.6889Z" fill="#8F82FF"/>
<rect x="195.5" y="288.038" width="12" height="12" fill="#7EBDC2"/>
<path d="M217.922 298.538L215.734 290.538H216.719L218.391 297.053H218.469L220.172 290.538H221.266L222.969 297.053H223.047L224.719 290.538H225.703L223.516 298.538H222.516L220.75 292.163H220.688L218.922 298.538H217.922ZM231.285 292.538C231.238 292.142 231.048 291.834 230.715 291.616C230.382 291.397 229.973 291.288 229.488 291.288C229.134 291.288 228.824 291.345 228.559 291.459C228.296 291.574 228.09 291.732 227.941 291.932C227.796 292.133 227.723 292.361 227.723 292.616C227.723 292.829 227.773 293.013 227.875 293.167C227.979 293.318 228.112 293.444 228.273 293.545C228.435 293.644 228.604 293.726 228.781 293.792C228.958 293.854 229.121 293.905 229.27 293.944L230.082 294.163C230.29 294.217 230.522 294.293 230.777 294.389C231.035 294.486 231.281 294.617 231.516 294.784C231.753 294.948 231.948 295.159 232.102 295.417C232.255 295.674 232.332 295.991 232.332 296.366C232.332 296.798 232.219 297.189 231.992 297.538C231.768 297.887 231.44 298.164 231.008 298.37C230.578 298.575 230.056 298.678 229.441 298.678C228.868 298.678 228.372 298.586 227.953 298.401C227.536 298.216 227.208 297.958 226.969 297.627C226.732 297.297 226.598 296.913 226.566 296.475H227.566C227.592 296.777 227.694 297.027 227.871 297.225C228.051 297.42 228.277 297.566 228.551 297.663C228.827 297.756 229.124 297.803 229.441 297.803C229.811 297.803 230.143 297.743 230.438 297.624C230.732 297.501 230.965 297.332 231.137 297.116C231.309 296.897 231.395 296.642 231.395 296.35C231.395 296.084 231.32 295.868 231.172 295.702C231.023 295.535 230.828 295.4 230.586 295.295C230.344 295.191 230.082 295.1 229.801 295.022L228.816 294.741C228.191 294.561 227.697 294.305 227.332 293.971C226.967 293.638 226.785 293.202 226.785 292.663C226.785 292.215 226.906 291.824 227.148 291.491C227.393 291.155 227.721 290.894 228.133 290.709C228.547 290.522 229.009 290.428 229.52 290.428C230.035 290.428 230.493 290.521 230.895 290.706C231.296 290.888 231.613 291.138 231.848 291.456C232.085 291.773 232.21 292.134 232.223 292.538H231.285ZM233.925 298.538V290.538H234.894V297.678H238.612V298.538H233.925Z" fill="#585858"/>
<rect x="255.5" y="288.038" width="12" height="12" fill="#FFBE6A"/>
<path d="M276.469 298.538V290.538H277.438V294.1H281.703V290.538H282.672V298.538H281.703V294.959H277.438V298.538H276.469ZM288.268 296.084V292.538H289.189V298.538H288.268V297.522H288.205C288.064 297.827 287.846 298.086 287.549 298.299C287.252 298.51 286.877 298.616 286.424 298.616C286.049 298.616 285.715 298.534 285.424 298.37C285.132 298.203 284.903 297.953 284.736 297.62C284.57 297.284 284.486 296.861 284.486 296.35V292.538H285.408V296.288C285.408 296.725 285.531 297.074 285.775 297.334C286.023 297.595 286.338 297.725 286.721 297.725C286.95 297.725 287.183 297.667 287.42 297.549C287.66 297.432 287.86 297.252 288.021 297.01C288.186 296.768 288.268 296.459 288.268 296.084ZM293.55 292.538V293.319H290.315V292.538H293.55ZM291.284 298.538V291.709C291.284 291.366 291.365 291.079 291.526 290.85C291.688 290.621 291.897 290.449 292.155 290.334C292.413 290.22 292.685 290.163 292.972 290.163C293.198 290.163 293.383 290.181 293.526 290.217C293.67 290.254 293.776 290.288 293.847 290.319L293.581 291.116C293.534 291.1 293.469 291.081 293.386 291.057C293.305 291.034 293.198 291.022 293.065 291.022C292.761 291.022 292.541 291.099 292.405 291.252C292.272 291.406 292.206 291.631 292.206 291.928V298.538H291.284ZM297.514 292.538V293.319H294.279V292.538H297.514ZM295.248 298.538V291.709C295.248 291.366 295.329 291.079 295.49 290.85C295.652 290.621 295.861 290.449 296.119 290.334C296.377 290.22 296.649 290.163 296.936 290.163C297.162 290.163 297.347 290.181 297.49 290.217C297.633 290.254 297.74 290.288 297.811 290.319L297.545 291.116C297.498 291.1 297.433 291.081 297.35 291.057C297.269 291.034 297.162 291.022 297.029 291.022C296.725 291.022 296.505 291.099 296.369 291.252C296.236 291.406 296.17 291.631 296.17 291.928V298.538H295.248ZM298.806 298.538V292.538H299.728V298.538H298.806ZM299.274 291.538C299.095 291.538 298.94 291.476 298.81 291.354C298.682 291.232 298.618 291.084 298.618 290.913C298.618 290.741 298.682 290.594 298.81 290.471C298.94 290.349 299.095 290.288 299.274 290.288C299.454 290.288 299.608 290.349 299.735 290.471C299.866 290.594 299.931 290.741 299.931 290.913C299.931 291.084 299.866 291.232 299.735 291.354C299.608 291.476 299.454 291.538 299.274 291.538ZM302.338 294.928V298.538H301.416V292.538H302.307V293.475H302.385C302.525 293.17 302.739 292.926 303.025 292.741C303.312 292.553 303.682 292.459 304.135 292.459C304.541 292.459 304.896 292.543 305.201 292.709C305.506 292.874 305.743 293.124 305.912 293.459C306.081 293.793 306.166 294.215 306.166 294.725V298.538H305.244V294.788C305.244 294.316 305.122 293.949 304.877 293.686C304.632 293.42 304.296 293.288 303.869 293.288C303.575 293.288 303.312 293.351 303.08 293.479C302.851 293.607 302.67 293.793 302.537 294.038C302.404 294.282 302.338 294.579 302.338 294.928ZM310.272 300.913C309.827 300.913 309.444 300.855 309.124 300.741C308.804 300.629 308.537 300.48 308.323 300.295C308.112 300.113 307.944 299.918 307.819 299.709L308.554 299.194C308.637 299.303 308.743 299.428 308.87 299.569C308.998 299.712 309.172 299.836 309.394 299.94C309.618 300.047 309.91 300.1 310.272 300.1C310.757 300.1 311.157 299.983 311.472 299.749C311.787 299.514 311.944 299.147 311.944 298.647V297.428H311.866C311.799 297.538 311.702 297.673 311.577 297.834C311.455 297.993 311.278 298.135 311.046 298.26C310.817 298.383 310.507 298.444 310.116 298.444C309.632 298.444 309.197 298.329 308.812 298.1C308.429 297.871 308.125 297.538 307.901 297.1C307.68 296.663 307.569 296.131 307.569 295.506C307.569 294.892 307.677 294.357 307.894 293.901C308.11 293.443 308.41 293.088 308.796 292.838C309.181 292.586 309.627 292.459 310.132 292.459C310.522 292.459 310.832 292.525 311.062 292.655C311.293 292.782 311.47 292.928 311.593 293.092C311.718 293.254 311.814 293.387 311.882 293.491H311.976V292.538H312.866V298.709C312.866 299.225 312.749 299.644 312.515 299.967C312.283 300.293 311.97 300.531 311.577 300.682C311.187 300.836 310.752 300.913 310.272 300.913ZM310.241 297.616C310.611 297.616 310.924 297.531 311.179 297.362C311.434 297.193 311.628 296.949 311.761 296.631C311.894 296.314 311.96 295.933 311.96 295.491C311.96 295.058 311.895 294.677 311.765 294.346C311.634 294.015 311.442 293.756 311.187 293.569C310.931 293.381 310.616 293.288 310.241 293.288C309.851 293.288 309.525 293.387 309.265 293.584C309.007 293.782 308.813 294.048 308.683 294.381C308.555 294.715 308.491 295.084 308.491 295.491C308.491 295.907 308.556 296.276 308.687 296.596C308.819 296.914 309.015 297.164 309.272 297.346C309.533 297.526 309.856 297.616 310.241 297.616ZM317.163 292.538V293.319H314.054V292.538H317.163ZM314.96 291.1H315.882V296.819C315.882 297.079 315.92 297.275 315.995 297.405C316.073 297.532 316.172 297.618 316.292 297.663C316.414 297.704 316.543 297.725 316.679 297.725C316.78 297.725 316.864 297.72 316.929 297.709C316.994 297.696 317.046 297.686 317.085 297.678L317.272 298.506C317.21 298.53 317.123 298.553 317.011 298.577C316.899 298.603 316.757 298.616 316.585 298.616C316.325 298.616 316.069 298.56 315.819 298.448C315.572 298.336 315.366 298.165 315.202 297.936C315.041 297.707 314.96 297.418 314.96 297.069V291.1ZM320.923 298.663C320.381 298.663 319.906 298.534 319.497 298.276C319.091 298.018 318.773 297.657 318.544 297.194C318.317 296.73 318.204 296.189 318.204 295.569C318.204 294.944 318.317 294.398 318.544 293.932C318.773 293.466 319.091 293.104 319.497 292.846C319.906 292.588 320.381 292.459 320.923 292.459C321.465 292.459 321.938 292.588 322.345 292.846C322.754 293.104 323.071 293.466 323.298 293.932C323.527 294.398 323.642 294.944 323.642 295.569C323.642 296.189 323.527 296.73 323.298 297.194C323.071 297.657 322.754 298.018 322.345 298.276C321.938 298.534 321.465 298.663 320.923 298.663ZM320.923 297.834C321.334 297.834 321.673 297.729 321.938 297.518C322.204 297.307 322.401 297.03 322.528 296.686C322.656 296.342 322.72 295.97 322.72 295.569C322.72 295.168 322.656 294.794 322.528 294.448C322.401 294.101 322.204 293.821 321.938 293.608C321.673 293.394 321.334 293.288 320.923 293.288C320.511 293.288 320.173 293.394 319.907 293.608C319.642 293.821 319.445 294.101 319.317 294.448C319.19 294.794 319.126 295.168 319.126 295.569C319.126 295.97 319.19 296.342 319.317 296.686C319.445 297.03 319.642 297.307 319.907 297.518C320.173 297.729 320.511 297.834 320.923 297.834ZM325.971 294.928V298.538H325.049V292.538H325.939V293.475H326.018C326.158 293.17 326.372 292.926 326.658 292.741C326.945 292.553 327.314 292.459 327.768 292.459C328.174 292.459 328.529 292.543 328.834 292.709C329.139 292.874 329.376 293.124 329.545 293.459C329.714 293.793 329.799 294.215 329.799 294.725V298.538H328.877V294.788C328.877 294.316 328.755 293.949 328.51 293.686C328.265 293.42 327.929 293.288 327.502 293.288C327.208 293.288 326.945 293.351 326.713 293.479C326.484 293.607 326.303 293.793 326.17 294.038C326.037 294.282 325.971 294.579 325.971 294.928ZM334.702 298.538V290.538H337.405C338.033 290.538 338.546 290.651 338.944 290.877C339.345 291.101 339.642 291.405 339.835 291.788C340.028 292.17 340.124 292.597 340.124 293.069C340.124 293.54 340.028 293.969 339.835 294.354C339.645 294.739 339.351 295.047 338.952 295.276C338.554 295.502 338.043 295.616 337.421 295.616H335.483V294.756H337.39C337.819 294.756 338.164 294.682 338.425 294.534C338.685 294.385 338.874 294.185 338.991 293.932C339.111 293.677 339.171 293.389 339.171 293.069C339.171 292.749 339.111 292.462 338.991 292.209C338.874 291.957 338.684 291.759 338.421 291.616C338.158 291.47 337.809 291.397 337.374 291.397H335.671V298.538H334.702ZM343.933 298.663C343.391 298.663 342.916 298.534 342.507 298.276C342.101 298.018 341.783 297.657 341.554 297.194C341.327 296.73 341.214 296.189 341.214 295.569C341.214 294.944 341.327 294.398 341.554 293.932C341.783 293.466 342.101 293.104 342.507 292.846C342.916 292.588 343.391 292.459 343.933 292.459C344.474 292.459 344.948 292.588 345.354 292.846C345.763 293.104 346.081 293.466 346.308 293.932C346.537 294.398 346.651 294.944 346.651 295.569C346.651 296.189 346.537 296.73 346.308 297.194C346.081 297.657 345.763 298.018 345.354 298.276C344.948 298.534 344.474 298.663 343.933 298.663ZM343.933 297.834C344.344 297.834 344.683 297.729 344.948 297.518C345.214 297.307 345.41 297.03 345.538 296.686C345.666 296.342 345.729 295.97 345.729 295.569C345.729 295.168 345.666 294.794 345.538 294.448C345.41 294.101 345.214 293.821 344.948 293.608C344.683 293.394 344.344 293.288 343.933 293.288C343.521 293.288 343.183 293.394 342.917 293.608C342.651 293.821 342.455 294.101 342.327 294.448C342.2 294.794 342.136 295.168 342.136 295.569C342.136 295.97 342.2 296.342 342.327 296.686C342.455 297.03 342.651 297.307 342.917 297.518C343.183 297.729 343.521 297.834 343.933 297.834ZM352.309 293.881L351.48 294.116C351.428 293.978 351.352 293.844 351.25 293.713C351.151 293.581 351.016 293.471 350.844 293.385C350.672 293.299 350.452 293.256 350.184 293.256C349.816 293.256 349.51 293.341 349.266 293.51C349.023 293.677 348.902 293.889 348.902 294.147C348.902 294.376 348.986 294.557 349.152 294.69C349.319 294.823 349.579 294.933 349.934 295.022L350.824 295.241C351.361 295.371 351.76 295.57 352.023 295.838C352.286 296.104 352.418 296.446 352.418 296.866C352.418 297.209 352.319 297.517 352.121 297.788C351.926 298.058 351.652 298.272 351.301 298.428C350.949 298.584 350.54 298.663 350.074 298.663C349.462 298.663 348.956 298.53 348.555 298.264C348.154 297.999 347.9 297.611 347.793 297.1L348.668 296.881C348.751 297.204 348.909 297.446 349.141 297.608C349.375 297.769 349.681 297.85 350.059 297.85C350.488 297.85 350.829 297.759 351.082 297.577C351.337 297.392 351.465 297.17 351.465 296.913C351.465 296.704 351.392 296.53 351.246 296.389C351.1 296.246 350.876 296.139 350.574 296.069L349.574 295.834C349.025 295.704 348.621 295.502 348.363 295.229C348.108 294.953 347.98 294.608 347.98 294.194C347.98 293.855 348.076 293.556 348.266 293.295C348.458 293.035 348.72 292.831 349.051 292.682C349.384 292.534 349.762 292.459 350.184 292.459C350.777 292.459 351.243 292.59 351.582 292.85C351.923 293.111 352.165 293.454 352.309 293.881ZM356.415 292.538V293.319H353.306V292.538H356.415ZM354.212 291.1H355.134V296.819C355.134 297.079 355.172 297.275 355.247 297.405C355.325 297.532 355.424 297.618 355.544 297.663C355.666 297.704 355.795 297.725 355.931 297.725C356.032 297.725 356.116 297.72 356.181 297.709C356.246 297.696 356.298 297.686 356.337 297.678L356.524 298.506C356.462 298.53 356.375 298.553 356.263 298.577C356.151 298.603 356.009 298.616 355.837 298.616C355.576 298.616 355.321 298.56 355.071 298.448C354.824 298.336 354.618 298.165 354.454 297.936C354.293 297.707 354.212 297.418 354.212 297.069V291.1Z" fill="#585858"/>
<rect x="373.5" y="288.038" width="12" height="12" fill="#C1E382"/>
<path d="M394.469 298.538V290.538H397.266C397.823 290.538 398.283 290.634 398.645 290.827C399.007 291.017 399.276 291.273 399.453 291.596C399.63 291.917 399.719 292.272 399.719 292.663C399.719 293.006 399.658 293.29 399.535 293.514C399.415 293.738 399.257 293.915 399.059 294.045C398.863 294.176 398.651 294.272 398.422 294.334V294.413C398.667 294.428 398.913 294.514 399.16 294.67C399.408 294.827 399.615 295.051 399.781 295.342C399.948 295.634 400.031 295.991 400.031 296.413C400.031 296.814 399.94 297.174 399.758 297.495C399.576 297.815 399.288 298.069 398.895 298.256C398.501 298.444 397.99 298.538 397.359 298.538H394.469ZM395.438 297.678H397.359C397.992 297.678 398.441 297.556 398.707 297.311C398.975 297.064 399.109 296.764 399.109 296.413C399.109 296.142 399.04 295.892 398.902 295.663C398.764 295.431 398.568 295.246 398.312 295.108C398.057 294.967 397.755 294.897 397.406 294.897H395.438V297.678ZM395.438 294.053H397.234C397.526 294.053 397.789 293.996 398.023 293.881C398.26 293.767 398.448 293.605 398.586 293.397C398.727 293.189 398.797 292.944 398.797 292.663C398.797 292.311 398.674 292.013 398.43 291.768C398.185 291.521 397.797 291.397 397.266 291.397H395.438V294.053ZM402.42 290.538V298.538H401.498V290.538H402.42ZM406.546 298.663C406.004 298.663 405.529 298.534 405.12 298.276C404.714 298.018 404.396 297.657 404.167 297.194C403.94 296.73 403.827 296.189 403.827 295.569C403.827 294.944 403.94 294.398 404.167 293.932C404.396 293.466 404.714 293.104 405.12 292.846C405.529 292.588 406.004 292.459 406.546 292.459C407.088 292.459 407.562 292.588 407.968 292.846C408.377 293.104 408.694 293.466 408.921 293.932C409.15 294.398 409.265 294.944 409.265 295.569C409.265 296.189 409.15 296.73 408.921 297.194C408.694 297.657 408.377 298.018 407.968 298.276C407.562 298.534 407.088 298.663 406.546 298.663ZM406.546 297.834C406.957 297.834 407.296 297.729 407.562 297.518C407.827 297.307 408.024 297.03 408.151 296.686C408.279 296.342 408.343 295.97 408.343 295.569C408.343 295.168 408.279 294.794 408.151 294.448C408.024 294.101 407.827 293.821 407.562 293.608C407.296 293.394 406.957 293.288 406.546 293.288C406.134 293.288 405.796 293.394 405.53 293.608C405.265 293.821 405.068 294.101 404.94 294.448C404.813 294.794 404.749 295.168 404.749 295.569C404.749 295.97 404.813 296.342 404.94 296.686C405.068 297.03 405.265 297.307 405.53 297.518C405.796 297.729 406.134 297.834 406.546 297.834ZM413.109 298.663C412.568 298.663 412.092 298.534 411.684 298.276C411.277 298.018 410.96 297.657 410.73 297.194C410.504 296.73 410.391 296.189 410.391 295.569C410.391 294.944 410.504 294.398 410.73 293.932C410.96 293.466 411.277 293.104 411.684 292.846C412.092 292.588 412.568 292.459 413.109 292.459C413.651 292.459 414.125 292.588 414.531 292.846C414.94 293.104 415.258 293.466 415.484 293.932C415.714 294.398 415.828 294.944 415.828 295.569C415.828 296.189 415.714 296.73 415.484 297.194C415.258 297.657 414.94 298.018 414.531 298.276C414.125 298.534 413.651 298.663 413.109 298.663ZM413.109 297.834C413.521 297.834 413.859 297.729 414.125 297.518C414.391 297.307 414.587 297.03 414.715 296.686C414.842 296.342 414.906 295.97 414.906 295.569C414.906 295.168 414.842 294.794 414.715 294.448C414.587 294.101 414.391 293.821 414.125 293.608C413.859 293.394 413.521 293.288 413.109 293.288C412.698 293.288 412.359 293.394 412.094 293.608C411.828 293.821 411.632 294.101 411.504 294.448C411.376 294.794 411.313 295.168 411.313 295.569C411.313 295.97 411.376 296.342 411.504 296.686C411.632 297.03 411.828 297.307 412.094 297.518C412.359 297.729 412.698 297.834 413.109 297.834ZM417.235 298.538V292.538H418.126V293.475H418.204C418.329 293.155 418.531 292.906 418.81 292.729C419.088 292.549 419.423 292.459 419.813 292.459C420.209 292.459 420.539 292.549 420.802 292.729C421.067 292.906 421.274 293.155 421.423 293.475H421.485C421.639 293.165 421.869 292.919 422.177 292.737C422.484 292.552 422.853 292.459 423.282 292.459C423.819 292.459 424.257 292.627 424.599 292.963C424.94 293.297 425.11 293.816 425.11 294.522V298.538H424.188V294.522C424.188 294.079 424.067 293.763 423.825 293.573C423.583 293.383 423.298 293.288 422.97 293.288C422.548 293.288 422.221 293.415 421.989 293.67C421.757 293.923 421.642 294.243 421.642 294.631V298.538H420.704V294.428C420.704 294.087 420.593 293.812 420.372 293.604C420.151 293.393 419.866 293.288 419.517 293.288C419.277 293.288 419.053 293.351 418.845 293.479C418.639 293.607 418.472 293.784 418.345 294.01C418.22 294.234 418.157 294.493 418.157 294.788V298.538H417.235ZM426.921 298.538V290.538H427.843V293.491H427.921C427.989 293.387 428.082 293.254 428.202 293.092C428.325 292.928 428.499 292.782 428.726 292.655C428.955 292.525 429.265 292.459 429.655 292.459C430.16 292.459 430.606 292.586 430.991 292.838C431.377 293.091 431.677 293.449 431.894 293.913C432.11 294.376 432.218 294.923 432.218 295.553C432.218 296.189 432.11 296.739 431.894 297.206C431.677 297.669 431.378 298.028 430.995 298.284C430.612 298.536 430.171 298.663 429.671 298.663C429.285 298.663 428.977 298.599 428.745 298.471C428.513 298.341 428.335 298.194 428.21 298.03C428.085 297.863 427.989 297.725 427.921 297.616H427.812V298.538H426.921ZM427.827 295.538C427.827 295.991 427.894 296.39 428.026 296.737C428.159 297.081 428.353 297.35 428.608 297.545C428.864 297.738 429.176 297.834 429.546 297.834C429.931 297.834 430.253 297.733 430.511 297.53C430.771 297.324 430.966 297.048 431.097 296.702C431.229 296.353 431.296 295.965 431.296 295.538C431.296 295.116 431.231 294.736 431.101 294.397C430.973 294.056 430.779 293.786 430.519 293.588C430.261 293.388 429.937 293.288 429.546 293.288C429.171 293.288 428.856 293.383 428.601 293.573C428.345 293.76 428.153 294.023 428.022 294.362C427.892 294.698 427.827 295.09 427.827 295.538ZM436.144 298.663C435.565 298.663 435.067 298.535 434.647 298.28C434.231 298.022 433.909 297.663 433.683 297.202C433.459 296.738 433.347 296.199 433.347 295.584C433.347 294.97 433.459 294.428 433.683 293.959C433.909 293.488 434.224 293.121 434.628 292.858C435.034 292.592 435.508 292.459 436.05 292.459C436.362 292.459 436.671 292.512 436.976 292.616C437.28 292.72 437.558 292.889 437.808 293.124C438.058 293.355 438.257 293.663 438.405 294.045C438.554 294.428 438.628 294.9 438.628 295.459V295.85H434.003V295.053H437.69C437.69 294.715 437.623 294.413 437.487 294.147C437.354 293.881 437.164 293.672 436.917 293.518C436.672 293.364 436.383 293.288 436.05 293.288C435.683 293.288 435.365 293.379 435.097 293.561C434.831 293.741 434.627 293.975 434.483 294.264C434.34 294.553 434.269 294.863 434.269 295.194V295.725C434.269 296.178 434.347 296.562 434.503 296.877C434.662 297.19 434.882 297.428 435.163 297.592C435.444 297.754 435.771 297.834 436.144 297.834C436.386 297.834 436.604 297.801 436.8 297.733C436.998 297.663 437.168 297.558 437.312 297.42C437.455 297.28 437.565 297.105 437.644 296.897L438.534 297.147C438.44 297.449 438.283 297.715 438.062 297.944C437.84 298.17 437.567 298.347 437.241 298.475C436.916 298.6 436.55 298.663 436.144 298.663ZM440.03 298.538V292.538H440.921V293.444H440.983C441.093 293.147 441.291 292.906 441.577 292.721C441.864 292.536 442.187 292.444 442.546 292.444C442.614 292.444 442.698 292.445 442.8 292.448C442.901 292.45 442.978 292.454 443.03 292.459V293.397C442.999 293.389 442.927 293.377 442.815 293.362C442.706 293.344 442.59 293.334 442.468 293.334C442.176 293.334 441.916 293.396 441.687 293.518C441.46 293.638 441.28 293.805 441.147 294.018C441.017 294.229 440.952 294.47 440.952 294.741V298.538H440.03ZM446.362 300.913C445.917 300.913 445.534 300.855 445.214 300.741C444.894 300.629 444.627 300.48 444.413 300.295C444.202 300.113 444.034 299.918 443.909 299.709L444.644 299.194C444.727 299.303 444.832 299.428 444.96 299.569C445.088 299.712 445.262 299.836 445.483 299.94C445.707 300.047 446 300.1 446.362 300.1C446.847 300.1 447.246 299.983 447.562 299.749C447.877 299.514 448.034 299.147 448.034 298.647V297.428H447.956C447.888 297.538 447.792 297.673 447.667 297.834C447.545 297.993 447.368 298.135 447.136 298.26C446.907 298.383 446.597 298.444 446.206 298.444C445.722 298.444 445.287 298.329 444.901 298.1C444.519 297.871 444.215 297.538 443.991 297.1C443.77 296.663 443.659 296.131 443.659 295.506C443.659 294.892 443.767 294.357 443.983 293.901C444.2 293.443 444.5 293.088 444.886 292.838C445.271 292.586 445.716 292.459 446.222 292.459C446.612 292.459 446.922 292.525 447.151 292.655C447.383 292.782 447.56 292.928 447.683 293.092C447.808 293.254 447.904 293.387 447.972 293.491H448.065V292.538H448.956V298.709C448.956 299.225 448.839 299.644 448.604 299.967C448.373 300.293 448.06 300.531 447.667 300.682C447.276 300.836 446.841 300.913 446.362 300.913ZM446.331 297.616C446.701 297.616 447.013 297.531 447.269 297.362C447.524 297.193 447.718 296.949 447.851 296.631C447.983 296.314 448.05 295.933 448.05 295.491C448.05 295.058 447.985 294.677 447.854 294.346C447.724 294.015 447.532 293.756 447.276 293.569C447.021 293.381 446.706 293.288 446.331 293.288C445.94 293.288 445.615 293.387 445.354 293.584C445.097 293.782 444.903 294.048 444.772 294.381C444.645 294.715 444.581 295.084 444.581 295.491C444.581 295.907 444.646 296.276 444.776 296.596C444.909 296.914 445.104 297.164 445.362 297.346C445.623 297.526 445.946 297.616 446.331 297.616Z" fill="#585858"/>
<rect x="466.5" y="288.038" width="12" height="12" fill="#FF6888"/>
<path d="M493.813 290.538V298.538H492.875L488.516 292.256H488.438V298.538H487.469V290.538H488.406L492.781 296.834H492.859V290.538H493.813ZM495.063 290.538H496.173L498.392 294.272H498.485L500.704 290.538H501.813L498.923 295.241V298.538H497.954V295.241L495.063 290.538ZM505.723 291.397V290.538H511.723V291.397H509.207V298.538H508.238V291.397H505.723ZM513.093 298.538V292.538H514.015V298.538H513.093ZM513.562 291.538C513.382 291.538 513.227 291.476 513.097 291.354C512.969 291.232 512.905 291.084 512.905 290.913C512.905 290.741 512.969 290.594 513.097 290.471C513.227 290.349 513.382 290.288 513.562 290.288C513.741 290.288 513.895 290.349 514.022 290.471C514.153 290.594 514.218 290.741 514.218 290.913C514.218 291.084 514.153 291.232 514.022 291.354C513.895 291.476 513.741 291.538 513.562 291.538ZM515.703 298.538V292.538H516.594V293.475H516.672C516.797 293.155 516.999 292.906 517.277 292.729C517.556 292.549 517.891 292.459 518.281 292.459C518.677 292.459 519.007 292.549 519.27 292.729C519.535 292.906 519.742 293.155 519.891 293.475H519.953C520.107 293.165 520.337 292.919 520.645 292.737C520.952 292.552 521.32 292.459 521.75 292.459C522.286 292.459 522.725 292.627 523.066 292.963C523.408 293.297 523.578 293.816 523.578 294.522V298.538H522.656V294.522C522.656 294.079 522.535 293.763 522.293 293.573C522.051 293.383 521.766 293.288 521.438 293.288C521.016 293.288 520.689 293.415 520.457 293.67C520.225 293.923 520.109 294.243 520.109 294.631V298.538H519.172V294.428C519.172 294.087 519.061 293.812 518.84 293.604C518.618 293.393 518.333 293.288 517.984 293.288C517.745 293.288 517.521 293.351 517.313 293.479C517.107 293.607 516.94 293.784 516.813 294.01C516.688 294.234 516.625 294.493 516.625 294.788V298.538H515.703ZM527.779 298.663C527.201 298.663 526.702 298.535 526.283 298.28C525.867 298.022 525.545 297.663 525.318 297.202C525.094 296.738 524.982 296.199 524.982 295.584C524.982 294.97 525.094 294.428 525.318 293.959C525.545 293.488 525.86 293.121 526.264 292.858C526.67 292.592 527.144 292.459 527.686 292.459C527.998 292.459 528.307 292.512 528.611 292.616C528.916 292.72 529.193 292.889 529.443 293.124C529.693 293.355 529.893 293.663 530.041 294.045C530.189 294.428 530.264 294.9 530.264 295.459V295.85H525.639V295.053H529.326C529.326 294.715 529.258 294.413 529.123 294.147C528.99 293.881 528.8 293.672 528.553 293.518C528.308 293.364 528.019 293.288 527.686 293.288C527.318 293.288 527.001 293.379 526.732 293.561C526.467 293.741 526.262 293.975 526.119 294.264C525.976 294.553 525.904 294.863 525.904 295.194V295.725C525.904 296.178 525.982 296.562 526.139 296.877C526.298 297.19 526.518 297.428 526.799 297.592C527.08 297.754 527.407 297.834 527.779 297.834C528.021 297.834 528.24 297.801 528.436 297.733C528.633 297.663 528.804 297.558 528.947 297.42C529.09 297.28 529.201 297.105 529.279 296.897L530.17 297.147C530.076 297.449 529.919 297.715 529.697 297.944C529.476 298.17 529.202 298.347 528.877 298.475C528.551 298.6 528.186 298.663 527.779 298.663ZM535.916 293.881L535.088 294.116C535.036 293.978 534.959 293.844 534.857 293.713C534.758 293.581 534.623 293.471 534.451 293.385C534.279 293.299 534.059 293.256 533.791 293.256C533.424 293.256 533.118 293.341 532.873 293.51C532.631 293.677 532.51 293.889 532.51 294.147C532.51 294.376 532.593 294.557 532.76 294.69C532.926 294.823 533.187 294.933 533.541 295.022L534.432 295.241C534.968 295.371 535.368 295.57 535.631 295.838C535.894 296.104 536.025 296.446 536.025 296.866C536.025 297.209 535.926 297.517 535.729 297.788C535.533 298.058 535.26 298.272 534.908 298.428C534.557 298.584 534.148 298.663 533.682 298.663C533.07 298.663 532.563 298.53 532.162 298.264C531.761 297.999 531.507 297.611 531.4 297.1L532.275 296.881C532.359 297.204 532.516 297.446 532.748 297.608C532.982 297.769 533.288 297.85 533.666 297.85C534.096 297.85 534.437 297.759 534.689 297.577C534.945 297.392 535.072 297.17 535.072 296.913C535.072 296.704 534.999 296.53 534.854 296.389C534.708 296.246 534.484 296.139 534.182 296.069L533.182 295.834C532.632 295.704 532.229 295.502 531.971 295.229C531.715 294.953 531.588 294.608 531.588 294.194C531.588 293.855 531.683 293.556 531.873 293.295C532.066 293.035 532.327 292.831 532.658 292.682C532.992 292.534 533.369 292.459 533.791 292.459C534.385 292.459 534.851 292.59 535.189 292.85C535.531 293.111 535.773 293.454 535.916 293.881Z" fill="#585858"/>
<rect x="553.5" y="288.038" width="12" height="12" fill="#8F82FF"/>
<path d="M580.813 290.538V298.538H579.875L575.516 292.256H575.438V298.538H574.469V290.538H575.406L579.781 296.834H579.859V290.538H580.813ZM584.392 298.678C584.011 298.678 583.666 298.607 583.356 298.463C583.047 298.318 582.8 298.108 582.618 297.834C582.436 297.558 582.345 297.225 582.345 296.834C582.345 296.491 582.412 296.212 582.548 295.999C582.683 295.782 582.864 295.613 583.091 295.491C583.317 295.368 583.567 295.277 583.841 295.217C584.117 295.155 584.394 295.105 584.673 295.069C585.037 295.022 585.333 294.987 585.56 294.963C585.789 294.937 585.955 294.894 586.06 294.834C586.166 294.775 586.22 294.67 586.22 294.522V294.491C586.22 294.105 586.114 293.806 585.903 293.592C585.695 293.379 585.379 293.272 584.954 293.272C584.514 293.272 584.169 293.368 583.919 293.561C583.669 293.754 583.493 293.959 583.392 294.178L582.517 293.866C582.673 293.501 582.881 293.217 583.142 293.014C583.405 292.808 583.691 292.665 584.001 292.584C584.313 292.501 584.621 292.459 584.923 292.459C585.116 292.459 585.337 292.483 585.587 292.53C585.84 292.574 586.083 292.667 586.317 292.807C586.554 292.948 586.751 293.16 586.907 293.444C587.063 293.728 587.142 294.108 587.142 294.584V298.538H586.22V297.725H586.173C586.11 297.855 586.006 297.995 585.86 298.143C585.715 298.292 585.521 298.418 585.278 298.522C585.036 298.626 584.741 298.678 584.392 298.678ZM584.532 297.85C584.897 297.85 585.204 297.778 585.454 297.635C585.707 297.492 585.897 297.307 586.024 297.081C586.155 296.854 586.22 296.616 586.22 296.366V295.522C586.181 295.569 586.095 295.612 585.962 295.651C585.832 295.687 585.681 295.72 585.509 295.749C585.34 295.775 585.174 295.798 585.013 295.819C584.854 295.837 584.725 295.853 584.626 295.866C584.386 295.897 584.162 295.948 583.954 296.018C583.748 296.086 583.582 296.189 583.454 296.327C583.329 296.462 583.267 296.647 583.267 296.881C583.267 297.202 583.385 297.444 583.622 297.608C583.862 297.769 584.165 297.85 584.532 297.85ZM591.434 292.538V293.319H588.324V292.538H591.434ZM589.23 291.1H590.152V296.819C590.152 297.079 590.19 297.275 590.266 297.405C590.344 297.532 590.443 297.618 590.563 297.663C590.685 297.704 590.814 297.725 590.949 297.725C591.051 297.725 591.134 297.72 591.199 297.709C591.264 297.696 591.316 297.686 591.355 297.678L591.543 298.506C591.48 298.53 591.393 298.553 591.281 298.577C591.169 298.603 591.027 298.616 590.855 298.616C590.595 298.616 590.34 298.56 590.09 298.448C589.842 298.336 589.637 298.165 589.473 297.936C589.311 297.707 589.23 297.418 589.23 297.069V291.1ZM596.602 296.084V292.538H597.523V298.538H596.602V297.522H596.539C596.398 297.827 596.18 298.086 595.883 298.299C595.586 298.51 595.211 298.616 594.758 298.616C594.383 298.616 594.049 298.534 593.758 298.37C593.466 298.203 593.237 297.953 593.07 297.62C592.904 297.284 592.82 296.861 592.82 296.35V292.538H593.742V296.288C593.742 296.725 593.865 297.074 594.109 297.334C594.357 297.595 594.672 297.725 595.055 297.725C595.284 297.725 595.517 297.667 595.754 297.549C595.993 297.432 596.194 297.252 596.355 297.01C596.52 296.768 596.602 296.459 596.602 296.084ZM599.212 298.538V292.538H600.103V293.444H600.165C600.274 293.147 600.472 292.906 600.759 292.721C601.045 292.536 601.368 292.444 601.728 292.444C601.795 292.444 601.88 292.445 601.981 292.448C602.083 292.45 602.16 292.454 602.212 292.459V293.397C602.181 293.389 602.109 293.377 601.997 293.362C601.888 293.344 601.772 293.334 601.649 293.334C601.358 293.334 601.097 293.396 600.868 293.518C600.642 293.638 600.462 293.805 600.329 294.018C600.199 294.229 600.134 294.47 600.134 294.741V298.538H599.212ZM605.638 298.663C605.06 298.663 604.561 298.535 604.142 298.28C603.725 298.022 603.403 297.663 603.177 297.202C602.953 296.738 602.841 296.199 602.841 295.584C602.841 294.97 602.953 294.428 603.177 293.959C603.403 293.488 603.718 293.121 604.122 292.858C604.528 292.592 605.002 292.459 605.544 292.459C605.856 292.459 606.165 292.512 606.47 292.616C606.774 292.72 607.052 292.889 607.302 293.124C607.552 293.355 607.751 293.663 607.899 294.045C608.048 294.428 608.122 294.9 608.122 295.459V295.85H603.497V295.053H607.185C607.185 294.715 607.117 294.413 606.981 294.147C606.849 293.881 606.659 293.672 606.411 293.518C606.166 293.364 605.877 293.288 605.544 293.288C605.177 293.288 604.859 293.379 604.591 293.561C604.325 293.741 604.121 293.975 603.978 294.264C603.834 294.553 603.763 294.863 603.763 295.194V295.725C603.763 296.178 603.841 296.562 603.997 296.877C604.156 297.19 604.376 297.428 604.657 297.592C604.938 297.754 605.265 297.834 605.638 297.834C605.88 297.834 606.099 297.801 606.294 297.733C606.492 297.663 606.662 297.558 606.806 297.42C606.949 297.28 607.06 297.105 607.138 296.897L608.028 297.147C607.935 297.449 607.777 297.715 607.556 297.944C607.334 298.17 607.061 298.347 606.735 298.475C606.41 298.6 606.044 298.663 605.638 298.663ZM612.743 298.538V290.538H615.446C616.074 290.538 616.587 290.651 616.985 290.877C617.386 291.101 617.683 291.405 617.876 291.788C618.069 292.17 618.165 292.597 618.165 293.069C618.165 293.54 618.069 293.969 617.876 294.354C617.686 294.739 617.392 295.047 616.993 295.276C616.595 295.502 616.084 295.616 615.462 295.616H613.524V294.756H615.431C615.86 294.756 616.205 294.682 616.466 294.534C616.726 294.385 616.915 294.185 617.032 293.932C617.152 293.677 617.212 293.389 617.212 293.069C617.212 292.749 617.152 292.462 617.032 292.209C616.915 291.957 616.725 291.759 616.462 291.616C616.199 291.47 615.85 291.397 615.415 291.397H613.712V298.538H612.743ZM621.974 298.663C621.432 298.663 620.957 298.534 620.548 298.276C620.142 298.018 619.824 297.657 619.595 297.194C619.368 296.73 619.255 296.189 619.255 295.569C619.255 294.944 619.368 294.398 619.595 293.932C619.824 293.466 620.142 293.104 620.548 292.846C620.957 292.588 621.432 292.459 621.974 292.459C622.515 292.459 622.989 292.588 623.396 292.846C623.804 293.104 624.122 293.466 624.349 293.932C624.578 294.398 624.692 294.944 624.692 295.569C624.692 296.189 624.578 296.73 624.349 297.194C624.122 297.657 623.804 298.018 623.396 298.276C622.989 298.534 622.515 298.663 621.974 298.663ZM621.974 297.834C622.385 297.834 622.724 297.729 622.989 297.518C623.255 297.307 623.451 297.03 623.579 296.686C623.707 296.342 623.771 295.97 623.771 295.569C623.771 295.168 623.707 294.794 623.579 294.448C623.451 294.101 623.255 293.821 622.989 293.608C622.724 293.394 622.385 293.288 621.974 293.288C621.562 293.288 621.224 293.394 620.958 293.608C620.692 293.821 620.496 294.101 620.368 294.448C620.241 294.794 620.177 295.168 620.177 295.569C620.177 295.97 620.241 296.342 620.368 296.686C620.496 297.03 620.692 297.307 620.958 297.518C621.224 297.729 621.562 297.834 621.974 297.834ZM630.35 293.881L629.521 294.116C629.469 293.978 629.393 293.844 629.291 293.713C629.192 293.581 629.057 293.471 628.885 293.385C628.713 293.299 628.493 293.256 628.225 293.256C627.857 293.256 627.551 293.341 627.307 293.51C627.064 293.677 626.943 293.889 626.943 294.147C626.943 294.376 627.027 294.557 627.193 294.69C627.36 294.823 627.62 294.933 627.975 295.022L628.865 295.241C629.402 295.371 629.801 295.57 630.064 295.838C630.327 296.104 630.459 296.446 630.459 296.866C630.459 297.209 630.36 297.517 630.162 297.788C629.967 298.058 629.693 298.272 629.342 298.428C628.99 298.584 628.581 298.663 628.115 298.663C627.503 298.663 626.997 298.53 626.596 298.264C626.195 297.999 625.941 297.611 625.834 297.1L626.709 296.881C626.792 297.204 626.95 297.446 627.182 297.608C627.416 297.769 627.722 297.85 628.1 297.85C628.529 297.85 628.87 297.759 629.123 297.577C629.378 297.392 629.506 297.17 629.506 296.913C629.506 296.704 629.433 296.53 629.287 296.389C629.141 296.246 628.917 296.139 628.615 296.069L627.615 295.834C627.066 295.704 626.662 295.502 626.404 295.229C626.149 294.953 626.021 294.608 626.021 294.194C626.021 293.855 626.117 293.556 626.307 293.295C626.499 293.035 626.761 292.831 627.092 292.682C627.425 292.534 627.803 292.459 628.225 292.459C628.818 292.459 629.285 292.59 629.623 292.85C629.964 293.111 630.206 293.454 630.35 293.881ZM634.456 292.538V293.319H631.347V292.538H634.456ZM632.253 291.1H633.175V296.819C633.175 297.079 633.213 297.275 633.288 297.405C633.366 297.532 633.465 297.618 633.585 297.663C633.707 297.704 633.836 297.725 633.972 297.725C634.073 297.725 634.157 297.72 634.222 297.709C634.287 297.696 634.339 297.686 634.378 297.678L634.565 298.506C634.503 298.53 634.416 298.553 634.304 298.577C634.192 298.603 634.05 298.616 633.878 298.616C633.618 298.616 633.362 298.56 633.112 298.448C632.865 298.336 632.659 298.165 632.495 297.936C632.334 297.707 632.253 297.418 632.253 297.069V291.1Z" fill="#585858"/>
<g filter="url(#filter0_d_3065_116834)">
<rect x="201" y="158" width="133" height="97" rx="15" fill="white"/>
<rect x="226" y="179.5" width="12" height="12" fill="#C1E382"/>
<path d="M246.959 190V181.273H250.155C250.774 181.273 251.287 181.375 251.693 181.58C252.099 181.781 252.403 182.055 252.605 182.402C252.807 182.746 252.908 183.134 252.908 183.565C252.908 183.929 252.841 184.236 252.707 184.486C252.574 184.733 252.395 184.932 252.17 185.082C251.949 185.23 251.705 185.338 251.438 185.406V185.491C251.727 185.506 252.01 185.599 252.286 185.773C252.564 185.943 252.794 186.186 252.976 186.501C253.158 186.817 253.249 187.2 253.249 187.652C253.249 188.098 253.143 188.499 252.933 188.854C252.726 189.206 252.405 189.486 251.97 189.693C251.536 189.898 250.98 190 250.304 190H246.959ZM248.276 188.871H250.176C250.807 188.871 251.259 188.749 251.531 188.504C251.804 188.26 251.94 187.955 251.94 187.588C251.94 187.312 251.871 187.06 251.732 186.83C251.592 186.599 251.393 186.416 251.135 186.28C250.879 186.143 250.575 186.075 250.223 186.075H248.276V188.871ZM248.276 185.048H250.04C250.335 185.048 250.601 184.991 250.837 184.878C251.075 184.764 251.264 184.605 251.403 184.401C251.545 184.193 251.616 183.949 251.616 183.668C251.616 183.307 251.49 183.004 251.237 182.76C250.984 182.516 250.597 182.393 250.074 182.393H248.276V185.048ZM255.982 181.273V190H254.708V181.273H255.982ZM260.453 190.132C259.84 190.132 259.304 189.991 258.847 189.71C258.39 189.429 258.034 189.036 257.782 188.53C257.529 188.024 257.402 187.433 257.402 186.757C257.402 186.078 257.529 185.484 257.782 184.976C258.034 184.467 258.39 184.072 258.847 183.791C259.304 183.51 259.84 183.369 260.453 183.369C261.067 183.369 261.603 183.51 262.06 183.791C262.517 184.072 262.873 184.467 263.125 184.976C263.378 185.484 263.505 186.078 263.505 186.757C263.505 187.433 263.378 188.024 263.125 188.53C262.873 189.036 262.517 189.429 262.06 189.71C261.603 189.991 261.067 190.132 260.453 190.132ZM260.458 189.062C260.855 189.062 261.185 188.957 261.446 188.747C261.708 188.537 261.901 188.257 262.026 187.908C262.154 187.558 262.218 187.173 262.218 186.753C262.218 186.335 262.154 185.952 262.026 185.602C261.901 185.25 261.708 184.967 261.446 184.754C261.185 184.541 260.855 184.435 260.458 184.435C260.057 184.435 259.725 184.541 259.461 184.754C259.199 184.967 259.005 185.25 258.877 185.602C258.752 185.952 258.689 186.335 258.689 186.753C258.689 187.173 258.752 187.558 258.877 187.908C259.005 188.257 259.199 188.537 259.461 188.747C259.725 188.957 260.057 189.062 260.458 189.062ZM267.684 190.132C267.07 190.132 266.535 189.991 266.077 189.71C265.62 189.429 265.265 189.036 265.012 188.53C264.759 188.024 264.633 187.433 264.633 186.757C264.633 186.078 264.759 185.484 265.012 184.976C265.265 184.467 265.62 184.072 266.077 183.791C266.535 183.51 267.07 183.369 267.684 183.369C268.298 183.369 268.833 183.51 269.29 183.791C269.748 184.072 270.103 184.467 270.356 184.976C270.609 185.484 270.735 186.078 270.735 186.757C270.735 187.433 270.609 188.024 270.356 188.53C270.103 189.036 269.748 189.429 269.29 189.71C268.833 189.991 268.298 190.132 267.684 190.132ZM267.688 189.062C268.086 189.062 268.415 188.957 268.677 188.747C268.938 188.537 269.131 188.257 269.256 187.908C269.384 187.558 269.448 187.173 269.448 186.753C269.448 186.335 269.384 185.952 269.256 185.602C269.131 185.25 268.938 184.967 268.677 184.754C268.415 184.541 268.086 184.435 267.688 184.435C267.288 184.435 266.955 184.541 266.691 184.754C266.43 184.967 266.235 185.25 266.107 185.602C265.982 185.952 265.92 186.335 265.92 186.753C265.92 187.173 265.982 187.558 266.107 187.908C266.235 188.257 266.43 188.537 266.691 188.747C266.955 188.957 267.288 189.062 267.688 189.062ZM272.157 190V183.455H273.38V184.52H273.461C273.598 184.159 273.821 183.878 274.13 183.676C274.44 183.472 274.811 183.369 275.243 183.369C275.68 183.369 276.047 183.472 276.342 183.676C276.64 183.881 276.86 184.162 277.002 184.52H277.071C277.227 184.17 277.475 183.892 277.816 183.685C278.157 183.474 278.564 183.369 279.035 183.369C279.629 183.369 280.113 183.555 280.488 183.928C280.866 184.3 281.055 184.861 281.055 185.611V190H279.781V185.73C279.781 185.287 279.66 184.966 279.419 184.767C279.177 184.568 278.889 184.469 278.554 184.469C278.139 184.469 277.816 184.597 277.586 184.852C277.356 185.105 277.241 185.43 277.241 185.828V190H275.971V185.649C275.971 185.294 275.86 185.009 275.639 184.793C275.417 184.577 275.129 184.469 274.774 184.469C274.532 184.469 274.309 184.533 274.105 184.661C273.903 184.786 273.74 184.96 273.615 185.185C273.493 185.409 273.431 185.669 273.431 185.964V190H272.157ZM282.865 190V181.273H284.139V184.516H284.216C284.29 184.379 284.396 184.222 284.536 184.043C284.675 183.864 284.868 183.707 285.115 183.574C285.362 183.438 285.689 183.369 286.095 183.369C286.624 183.369 287.095 183.503 287.51 183.77C287.925 184.037 288.25 184.422 288.486 184.925C288.724 185.428 288.844 186.033 288.844 186.74C288.844 187.447 288.726 188.054 288.49 188.56C288.254 189.062 287.93 189.45 287.518 189.723C287.107 189.993 286.636 190.128 286.108 190.128C285.71 190.128 285.385 190.061 285.132 189.928C284.882 189.794 284.686 189.638 284.544 189.459C284.402 189.28 284.293 189.121 284.216 188.982H284.109V190H282.865ZM284.114 186.727C284.114 187.187 284.18 187.591 284.314 187.938C284.447 188.284 284.641 188.555 284.893 188.751C285.146 188.945 285.456 189.041 285.822 189.041C286.203 189.041 286.521 188.94 286.777 188.739C287.033 188.534 287.226 188.257 287.357 187.908C287.49 187.558 287.557 187.165 287.557 186.727C287.557 186.295 287.491 185.908 287.361 185.564C287.233 185.22 287.04 184.949 286.781 184.75C286.526 184.551 286.206 184.452 285.822 184.452C285.453 184.452 285.141 184.547 284.885 184.737C284.632 184.928 284.44 185.193 284.31 185.534C284.179 185.875 284.114 186.273 284.114 186.727ZM293.096 190.132C292.451 190.132 291.895 189.994 291.429 189.719C290.966 189.44 290.608 189.05 290.355 188.547C290.105 188.041 289.98 187.449 289.98 186.77C289.98 186.099 290.105 185.509 290.355 184.997C290.608 184.486 290.961 184.087 291.412 183.8C291.867 183.513 292.398 183.369 293.006 183.369C293.375 183.369 293.733 183.43 294.08 183.553C294.426 183.675 294.738 183.866 295.013 184.128C295.289 184.389 295.506 184.729 295.665 185.146C295.824 185.561 295.904 186.065 295.904 186.659V187.111H290.701V186.156H294.655C294.655 185.821 294.587 185.524 294.451 185.266C294.314 185.004 294.123 184.798 293.875 184.648C293.631 184.497 293.344 184.422 293.015 184.422C292.657 184.422 292.344 184.51 292.077 184.686C291.813 184.859 291.608 185.087 291.463 185.368C291.321 185.646 291.25 185.949 291.25 186.276V187.021C291.25 187.459 291.327 187.831 291.48 188.138C291.637 188.445 291.854 188.679 292.132 188.841C292.411 189 292.736 189.08 293.108 189.08C293.35 189.08 293.57 189.045 293.769 188.977C293.968 188.906 294.14 188.801 294.284 188.662C294.429 188.523 294.54 188.351 294.617 188.146L295.823 188.364C295.726 188.719 295.553 189.03 295.303 189.297C295.056 189.561 294.745 189.767 294.37 189.915C293.998 190.06 293.573 190.132 293.096 190.132ZM297.317 190V183.455H298.549V184.494H298.617C298.737 184.142 298.947 183.865 299.248 183.663C299.552 183.459 299.896 183.357 300.279 183.357C300.359 183.357 300.452 183.359 300.56 183.365C300.671 183.371 300.758 183.378 300.82 183.386V184.605C300.769 184.591 300.678 184.575 300.548 184.558C300.417 184.538 300.286 184.528 300.156 184.528C299.854 184.528 299.586 184.592 299.35 184.72C299.117 184.845 298.933 185.02 298.796 185.244C298.66 185.466 298.592 185.719 298.592 186.003V190H297.317ZM304.433 192.591C303.913 192.591 303.466 192.523 303.091 192.386C302.718 192.25 302.414 192.07 302.179 191.845C301.943 191.621 301.767 191.375 301.65 191.108L302.745 190.656C302.822 190.781 302.924 190.913 303.052 191.053C303.183 191.195 303.359 191.315 303.581 191.415C303.805 191.514 304.093 191.564 304.446 191.564C304.929 191.564 305.328 191.446 305.643 191.21C305.958 190.977 306.116 190.605 306.116 190.094V188.807H306.035C305.958 188.946 305.848 189.101 305.703 189.271C305.561 189.442 305.365 189.589 305.115 189.714C304.865 189.839 304.539 189.902 304.139 189.902C303.622 189.902 303.156 189.781 302.741 189.54C302.329 189.295 302.002 188.936 301.761 188.462C301.522 187.984 301.403 187.398 301.403 186.702C301.403 186.006 301.521 185.409 301.757 184.912C301.995 184.415 302.322 184.034 302.737 183.77C303.152 183.503 303.622 183.369 304.147 183.369C304.554 183.369 304.882 183.438 305.132 183.574C305.382 183.707 305.576 183.864 305.716 184.043C305.858 184.222 305.967 184.379 306.044 184.516H306.137V183.455H307.386V190.145C307.386 190.707 307.255 191.169 306.994 191.53C306.733 191.891 306.379 192.158 305.933 192.331C305.49 192.504 304.99 192.591 304.433 192.591ZM304.42 188.845C304.787 188.845 305.096 188.76 305.349 188.589C305.605 188.416 305.798 188.169 305.929 187.848C306.062 187.524 306.129 187.136 306.129 186.685C306.129 186.244 306.064 185.857 305.933 185.521C305.802 185.186 305.61 184.925 305.358 184.737C305.105 184.547 304.792 184.452 304.42 184.452C304.037 184.452 303.717 184.551 303.461 184.75C303.206 184.946 303.012 185.213 302.882 185.551C302.754 185.889 302.69 186.267 302.69 186.685C302.69 187.114 302.755 187.49 302.886 187.814C303.017 188.138 303.21 188.391 303.466 188.572C303.724 188.754 304.042 188.845 304.42 188.845Z" fill="#585858"/>
<path d="M226.531 204.859V204H232.531V204.859H230.016V212H229.047V204.859H226.531ZM235.469 212.125C234.927 212.125 234.452 211.996 234.043 211.738C233.637 211.48 233.319 211.12 233.09 210.656C232.863 210.193 232.75 209.651 232.75 209.031C232.75 208.406 232.863 207.861 233.09 207.395C233.319 206.928 233.637 206.566 234.043 206.309C234.452 206.051 234.927 205.922 235.469 205.922C236.01 205.922 236.484 206.051 236.891 206.309C237.299 206.566 237.617 206.928 237.844 207.395C238.073 207.861 238.188 208.406 238.188 209.031C238.188 209.651 238.073 210.193 237.844 210.656C237.617 211.12 237.299 211.48 236.891 211.738C236.484 211.996 236.01 212.125 235.469 212.125ZM235.469 211.297C235.88 211.297 236.219 211.191 236.484 210.98C236.75 210.77 236.947 210.492 237.074 210.148C237.202 209.805 237.266 209.432 237.266 209.031C237.266 208.63 237.202 208.257 237.074 207.91C236.947 207.564 236.75 207.284 236.484 207.07C236.219 206.857 235.88 206.75 235.469 206.75C235.057 206.75 234.719 206.857 234.453 207.07C234.188 207.284 233.991 207.564 233.863 207.91C233.736 208.257 233.672 208.63 233.672 209.031C233.672 209.432 233.736 209.805 233.863 210.148C233.991 210.492 234.188 210.77 234.453 210.98C234.719 211.191 235.057 211.297 235.469 211.297ZM242.204 206V206.781H239.095V206H242.204ZM240.001 204.562H240.923V210.281C240.923 210.542 240.961 210.737 241.036 210.867C241.114 210.995 241.213 211.081 241.333 211.125C241.455 211.167 241.584 211.187 241.72 211.187C241.821 211.187 241.905 211.182 241.97 211.172C242.035 211.159 242.087 211.148 242.126 211.141L242.313 211.969C242.251 211.992 242.164 212.016 242.052 212.039C241.94 212.065 241.798 212.078 241.626 212.078C241.366 212.078 241.11 212.022 240.86 211.91C240.613 211.798 240.407 211.628 240.243 211.398C240.082 211.169 240.001 210.88 240.001 210.531V204.562ZM245.356 212.141C244.976 212.141 244.631 212.069 244.321 211.926C244.011 211.78 243.765 211.57 243.583 211.297C243.401 211.021 243.31 210.687 243.31 210.297C243.31 209.953 243.377 209.674 243.513 209.461C243.648 209.245 243.829 209.076 244.056 208.953C244.282 208.831 244.532 208.74 244.806 208.68C245.082 208.617 245.359 208.568 245.638 208.531C246.002 208.484 246.298 208.449 246.524 208.426C246.754 208.4 246.92 208.357 247.024 208.297C247.131 208.237 247.185 208.133 247.185 207.984V207.953C247.185 207.568 247.079 207.268 246.868 207.055C246.66 206.841 246.343 206.734 245.919 206.734C245.479 206.734 245.134 206.831 244.884 207.023C244.634 207.216 244.458 207.422 244.356 207.641L243.481 207.328C243.638 206.964 243.846 206.68 244.106 206.477C244.369 206.271 244.656 206.128 244.966 206.047C245.278 205.964 245.586 205.922 245.888 205.922C246.08 205.922 246.302 205.945 246.552 205.992C246.804 206.036 247.048 206.129 247.282 206.27C247.519 206.41 247.716 206.622 247.872 206.906C248.028 207.19 248.106 207.57 248.106 208.047V212H247.185V211.187H247.138C247.075 211.318 246.971 211.457 246.825 211.605C246.679 211.754 246.485 211.88 246.243 211.984C246.001 212.089 245.705 212.141 245.356 212.141ZM245.497 211.312C245.862 211.312 246.169 211.241 246.419 211.098C246.672 210.954 246.862 210.77 246.989 210.543C247.119 210.316 247.185 210.078 247.185 209.828V208.984C247.146 209.031 247.06 209.074 246.927 209.113C246.797 209.15 246.646 209.182 246.474 209.211C246.304 209.237 246.139 209.26 245.978 209.281C245.819 209.299 245.69 209.315 245.591 209.328C245.351 209.359 245.127 209.41 244.919 209.48C244.713 209.548 244.547 209.651 244.419 209.789C244.294 209.924 244.231 210.109 244.231 210.344C244.231 210.664 244.35 210.906 244.587 211.07C244.826 211.232 245.13 211.312 245.497 211.312ZM250.711 204V212H249.789V204H250.711ZM255.946 212H254.931L257.868 204H258.868L261.806 212H260.79L258.399 205.266H258.337L255.946 212ZM256.321 208.875H260.415V209.734H256.321V208.875ZM262.927 212V206H263.817V206.906H263.88C263.989 206.609 264.187 206.368 264.474 206.184C264.76 205.999 265.083 205.906 265.442 205.906C265.51 205.906 265.595 205.908 265.696 205.91C265.798 205.913 265.875 205.917 265.927 205.922V206.859C265.896 206.852 265.824 206.84 265.712 206.824C265.603 206.806 265.487 206.797 265.364 206.797C265.073 206.797 264.812 206.858 264.583 206.98C264.356 207.1 264.177 207.267 264.044 207.48C263.914 207.691 263.849 207.932 263.849 208.203V212H262.927ZM270.005 206V206.781H266.896V206H270.005ZM267.802 204.562H268.724V210.281C268.724 210.542 268.761 210.737 268.837 210.867C268.915 210.995 269.014 211.081 269.134 211.125C269.256 211.167 269.385 211.187 269.521 211.187C269.622 211.187 269.705 211.182 269.771 211.172C269.836 211.159 269.888 211.148 269.927 211.141L270.114 211.969C270.052 211.992 269.965 212.016 269.853 212.039C269.741 212.065 269.599 212.078 269.427 212.078C269.166 212.078 268.911 212.022 268.661 211.91C268.414 211.798 268.208 211.628 268.044 211.398C267.882 211.169 267.802 210.88 267.802 210.531V204.562ZM271.392 212V206H272.313V212H271.392ZM271.86 205C271.681 205 271.526 204.939 271.396 204.816C271.268 204.694 271.204 204.547 271.204 204.375C271.204 204.203 271.268 204.056 271.396 203.934C271.526 203.811 271.681 203.75 271.86 203.75C272.04 203.75 272.194 203.811 272.321 203.934C272.451 204.056 272.517 204.203 272.517 204.375C272.517 204.547 272.451 204.694 272.321 204.816C272.194 204.939 272.04 205 271.86 205ZM276.439 212.125C275.877 212.125 275.393 211.992 274.986 211.727C274.58 211.461 274.268 211.095 274.049 210.629C273.83 210.163 273.721 209.63 273.721 209.031C273.721 208.422 273.833 207.884 274.057 207.418C274.283 206.949 274.598 206.583 275.002 206.32C275.408 206.055 275.882 205.922 276.424 205.922C276.846 205.922 277.226 206 277.564 206.156C277.903 206.312 278.18 206.531 278.396 206.812C278.613 207.094 278.747 207.422 278.799 207.797H277.877C277.807 207.523 277.65 207.281 277.408 207.07C277.169 206.857 276.846 206.75 276.439 206.75C276.08 206.75 275.765 206.844 275.494 207.031C275.226 207.216 275.016 207.478 274.865 207.816C274.717 208.152 274.643 208.547 274.643 209C274.643 209.464 274.715 209.867 274.861 210.211C275.01 210.555 275.218 210.822 275.486 211.012C275.757 211.202 276.075 211.297 276.439 211.297C276.679 211.297 276.896 211.255 277.092 211.172C277.287 211.089 277.452 210.969 277.588 210.812C277.723 210.656 277.82 210.469 277.877 210.25H278.799C278.747 210.604 278.618 210.923 278.412 211.207C278.209 211.488 277.939 211.712 277.604 211.879C277.27 212.043 276.882 212.125 276.439 212.125ZM281.068 204V212H280.146V204H281.068ZM285.272 212.125C284.694 212.125 284.196 211.997 283.776 211.742C283.36 211.484 283.038 211.125 282.812 210.664C282.588 210.201 282.476 209.661 282.476 209.047C282.476 208.432 282.588 207.891 282.812 207.422C283.038 206.951 283.353 206.583 283.757 206.32C284.163 206.055 284.637 205.922 285.179 205.922C285.491 205.922 285.8 205.974 286.104 206.078C286.409 206.182 286.687 206.352 286.937 206.586C287.187 206.818 287.386 207.125 287.534 207.508C287.683 207.891 287.757 208.362 287.757 208.922V209.312H283.132V208.516H286.819C286.819 208.177 286.752 207.875 286.616 207.609C286.483 207.344 286.293 207.134 286.046 206.98C285.801 206.827 285.512 206.75 285.179 206.75C284.812 206.75 284.494 206.841 284.226 207.023C283.96 207.203 283.756 207.437 283.612 207.727C283.469 208.016 283.397 208.326 283.397 208.656V209.188C283.397 209.641 283.476 210.025 283.632 210.34C283.791 210.652 284.011 210.891 284.292 211.055C284.573 211.216 284.9 211.297 285.272 211.297C285.515 211.297 285.733 211.263 285.929 211.195C286.127 211.125 286.297 211.021 286.44 210.883C286.584 210.742 286.694 210.568 286.772 210.359L287.663 210.609C287.569 210.911 287.412 211.177 287.19 211.406C286.969 211.633 286.696 211.81 286.37 211.937C286.045 212.063 285.679 212.125 285.272 212.125ZM293.409 207.344L292.581 207.578C292.529 207.44 292.452 207.306 292.351 207.176C292.252 207.043 292.116 206.934 291.944 206.848C291.772 206.762 291.552 206.719 291.284 206.719C290.917 206.719 290.611 206.803 290.366 206.973C290.124 207.139 290.003 207.352 290.003 207.609C290.003 207.839 290.086 208.02 290.253 208.152C290.42 208.285 290.68 208.396 291.034 208.484L291.925 208.703C292.461 208.833 292.861 209.033 293.124 209.301C293.387 209.566 293.519 209.909 293.519 210.328C293.519 210.672 293.42 210.979 293.222 211.25C293.026 211.521 292.753 211.734 292.401 211.891C292.05 212.047 291.641 212.125 291.175 212.125C290.563 212.125 290.056 211.992 289.655 211.727C289.254 211.461 289 211.073 288.894 210.562L289.769 210.344C289.852 210.667 290.009 210.909 290.241 211.07C290.476 211.232 290.782 211.312 291.159 211.312C291.589 211.312 291.93 211.221 292.183 211.039C292.438 210.854 292.565 210.633 292.565 210.375C292.565 210.167 292.493 209.992 292.347 209.852C292.201 209.708 291.977 209.602 291.675 209.531L290.675 209.297C290.125 209.167 289.722 208.965 289.464 208.691C289.209 208.415 289.081 208.07 289.081 207.656C289.081 207.318 289.176 207.018 289.366 206.758C289.559 206.497 289.821 206.293 290.151 206.145C290.485 205.996 290.862 205.922 291.284 205.922C291.878 205.922 292.344 206.052 292.683 206.312C293.024 206.573 293.266 206.917 293.409 207.344Z" fill="#585858"/>
<path d="M231.255 221.818V232H229.102V223.862H229.043L226.711 225.323V223.414L229.232 221.818H231.255ZM234.078 232L238.298 223.648V223.578H233.382V221.818H240.526V223.603L236.3 232H234.078ZM241.509 232.129C241.181 232.129 240.899 232.013 240.664 231.781C240.432 231.546 240.316 231.264 240.316 230.936C240.316 230.611 240.432 230.333 240.664 230.101C240.899 229.869 241.181 229.753 241.509 229.753C241.827 229.753 242.105 229.869 242.344 230.101C242.583 230.333 242.702 230.611 242.702 230.936C242.702 231.155 242.646 231.355 242.533 231.538C242.424 231.717 242.279 231.861 242.1 231.97C241.922 232.076 241.724 232.129 241.509 232.129ZM248.058 232.139C247.355 232.139 246.729 232.01 246.178 231.751C245.632 231.493 245.197 231.137 244.876 230.683C244.554 230.228 244.387 229.708 244.374 229.121H246.462C246.485 229.516 246.651 229.836 246.959 230.081C247.267 230.326 247.633 230.449 248.058 230.449C248.396 230.449 248.694 230.374 248.953 230.225C249.214 230.073 249.418 229.862 249.564 229.594C249.713 229.322 249.788 229.01 249.788 228.659C249.788 228.301 249.712 227.986 249.559 227.714C249.41 227.443 249.203 227.231 248.938 227.078C248.673 226.926 248.369 226.848 248.028 226.844C247.73 226.844 247.44 226.906 247.158 227.028C246.879 227.151 246.662 227.318 246.507 227.531L244.593 227.188L245.075 221.818H251.299V223.578H246.85L246.586 226.129H246.646C246.825 225.877 247.095 225.668 247.456 225.502C247.817 225.336 248.222 225.254 248.669 225.254C249.282 225.254 249.829 225.398 250.31 225.686C250.79 225.974 251.17 226.371 251.448 226.874C251.727 227.375 251.864 227.951 251.861 228.604C251.864 229.29 251.705 229.9 251.384 230.434C251.066 230.964 250.62 231.382 250.046 231.687C249.476 231.988 248.813 232.139 248.058 232.139ZM256.662 232V221.818H258.815V226.308H258.949L262.613 221.818H265.194L261.415 226.377L265.238 232H262.663L259.874 227.814L258.815 229.107V232H256.662Z" fill="black"/>
<path d="M278 234L284.928 222H271.072L278 234Z" fill="#ED3F47"/>
</g>
<defs>
<filter id="filter0_d_3065_116834" x="191" y="153" width="153" height="117" filterUnits="userSpaceOnUse" color-interpolation-filters="sRGB">
<feFlood flood-opacity="0" result="BackgroundImageFix"/>
<feColorMatrix in="SourceAlpha" type="matrix" values="0 0 0 0 0 0 0 0 0 0 0 0 0 0 0 0 0 0 127 0" result="hardAlpha"/>
<feOffset dy="5"/>
<feGaussianBlur stdDeviation="5"/>
<feComposite in2="hardAlpha" operator="out"/>
<feColorMatrix type="matrix" values="0 0 0 0 0.345098 0 0 0 0 0.345098 0 0 0 0 0.345098 0 0 0 0.3 0"/>
<feBlend mode="normal" in2="BackgroundImageFix" result="effect1_dropShadow_3065_116834"/>
<feBlend mode="normal" in="SourceGraphic" in2="effect1_dropShadow_3065_116834" result="shape"/>
</filter>
</defs>
</svg>
