<svg width="385" height="117" viewBox="0 0 385 117" fill="none" xmlns="http://www.w3.org/2000/svg">
<path d="M282.655 13.5813V22.3086H280.809V15.3327H280.758L278.76 16.5856V14.9492L280.92 13.5813H282.655ZM288.151 22.5004C287.418 22.4975 286.787 22.3171 286.259 21.9592C285.733 21.6012 285.328 21.0827 285.044 20.4038C284.763 19.7248 284.624 18.908 284.627 17.9535C284.627 17.0018 284.767 16.1907 285.048 15.5202C285.333 14.8498 285.737 14.3398 286.263 13.9904C286.791 13.6381 287.421 13.462 288.151 13.462C288.881 13.462 289.509 13.6381 290.034 13.9904C290.563 14.3427 290.969 14.854 291.253 15.5245C291.537 16.1921 291.678 17.0018 291.675 17.9535C291.675 18.9109 291.533 19.729 291.249 20.408C290.968 21.087 290.564 21.6055 290.039 21.9634C289.513 22.3214 288.884 22.5004 288.151 22.5004ZM288.151 20.9705C288.651 20.9705 289.05 20.7191 289.348 20.2163C289.646 19.7134 289.794 18.9592 289.791 17.9535C289.791 17.2915 289.723 16.7404 289.587 16.3001C289.453 15.8597 289.263 15.5288 289.016 15.3072C288.771 15.0856 288.483 14.9748 288.151 14.9748C287.654 14.9748 287.256 15.2234 286.958 15.7205C286.659 16.2177 286.509 16.962 286.506 17.9535C286.506 18.6239 286.573 19.1836 286.706 19.6325C286.843 20.0785 287.034 20.4137 287.281 20.6381C287.529 20.8597 287.818 20.9705 288.151 20.9705ZM293.717 22.4194C293.436 22.4194 293.194 22.32 292.993 22.1211C292.794 21.9194 292.694 21.6779 292.694 21.3967C292.694 21.1183 292.794 20.8796 292.993 20.6808C293.194 20.4819 293.436 20.3825 293.717 20.3825C293.99 20.3825 294.229 20.4819 294.433 20.6808C294.638 20.8796 294.74 21.1183 294.74 21.3967C294.74 21.5842 294.692 21.756 294.595 21.9123C294.501 22.0657 294.378 22.1893 294.224 22.283C294.071 22.3739 293.902 22.4194 293.717 22.4194ZM296.213 22.3086V20.979L299.32 18.1026C299.584 17.8469 299.806 17.6168 299.985 17.4123C300.166 17.2077 300.304 17.0075 300.398 16.8114C300.492 16.6126 300.539 16.3981 300.539 16.168C300.539 15.9123 300.48 15.6921 300.364 15.5075C300.247 15.32 300.088 15.1765 299.887 15.0771C299.685 14.9748 299.456 14.9237 299.2 14.9237C298.933 14.9237 298.7 14.9776 298.502 15.0856C298.303 15.1935 298.149 15.3484 298.041 15.5501C297.933 15.7518 297.879 15.9918 297.879 16.2702H296.128C296.128 15.6992 296.257 15.2035 296.516 14.783C296.774 14.3626 297.137 14.0373 297.602 13.8072C298.068 13.5771 298.605 13.462 299.213 13.462C299.838 13.462 300.382 13.5728 300.845 13.7944C301.311 14.0131 301.673 14.3171 301.932 14.7063C302.191 15.0955 302.32 15.5415 302.32 16.0444C302.32 16.3739 302.254 16.6992 302.124 17.0202C301.996 17.3413 301.767 17.6978 301.438 18.0898C301.108 18.479 300.644 18.9464 300.044 19.4918L298.77 20.7404V20.8001H302.435V22.3086H296.213ZM307.569 13.5813V22.3086H305.724V15.3327H305.672L303.674 16.5856V14.9492L305.834 13.5813H307.569ZM312.471 22.3086V13.5813H314.317V17.4293H314.432L317.572 13.5813H319.784L316.545 17.489L319.822 22.3086H317.615L315.224 18.7205L314.317 19.8285V22.3086H312.471ZM325.099 13.5813L327.208 20.212H327.289L329.403 13.5813H331.448L328.44 22.3086H326.062L323.049 13.5813H325.099ZM332.465 22.3086V15.7631H334.28V22.3086H332.465ZM333.377 14.9194C333.107 14.9194 332.875 14.8299 332.682 14.6509C332.492 14.4691 332.396 14.2518 332.396 13.9989C332.396 13.7489 332.492 13.5344 332.682 13.3555C332.875 13.1737 333.107 13.0827 333.377 13.0827C333.646 13.0827 333.877 13.1737 334.067 13.3555C334.26 13.5344 334.357 13.7489 334.357 13.9989C334.357 14.2518 334.26 14.4691 334.067 14.6509C333.877 14.8299 333.646 14.9194 333.377 14.9194ZM338.717 22.4364C338.044 22.4364 337.464 22.3001 336.979 22.0273C336.496 21.7518 336.123 21.3626 335.862 20.8597C335.601 20.354 335.47 19.756 335.47 19.0657C335.47 18.3924 335.601 17.8015 335.862 17.293C336.123 16.7844 336.491 16.3881 336.966 16.104C337.443 15.82 338.003 15.6779 338.645 15.6779C339.077 15.6779 339.479 15.7475 339.851 15.8867C340.226 16.0231 340.552 16.229 340.831 16.5046C341.112 16.7802 341.331 17.1268 341.487 17.5444C341.643 17.9592 341.721 18.445 341.721 19.0018V19.5004H336.194V18.3754H340.013C340.013 18.114 339.956 17.8825 339.842 17.6808C339.729 17.479 339.571 17.3214 339.369 17.2077C339.17 17.0913 338.939 17.033 338.675 17.033C338.399 17.033 338.155 17.0969 337.942 17.2248C337.731 17.3498 337.567 17.5188 337.447 17.7319C337.328 17.9421 337.267 18.1765 337.264 18.435V19.5046C337.264 19.8285 337.324 20.1083 337.443 20.3441C337.565 20.5799 337.737 20.7617 337.959 20.8896C338.18 21.0174 338.443 21.0813 338.747 21.0813C338.949 21.0813 339.133 21.0529 339.301 20.9961C339.469 20.9393 339.612 20.854 339.731 20.7404C339.851 20.6268 339.942 20.4876 340.004 20.3228L341.683 20.4336C341.598 20.837 341.423 21.1893 341.159 21.4904C340.898 21.7887 340.559 22.0217 340.145 22.1893C339.733 22.354 339.257 22.4364 338.717 22.4364ZM344.15 22.3086L342.369 15.7631H344.206L345.22 20.1609H345.28L346.336 15.7631H348.139L349.213 20.1353H349.268L350.265 15.7631H352.098L350.321 22.3086H348.399L347.274 18.1921H347.193L346.068 22.3086H344.15ZM358.512 17.6296L356.85 17.7319C356.822 17.5898 356.761 17.462 356.667 17.3484C356.573 17.2319 356.45 17.1396 356.296 17.0714C356.146 17.0004 355.965 16.9648 355.755 16.9648C355.474 16.9648 355.237 17.0245 355.044 17.1438C354.85 17.2603 354.754 17.4165 354.754 17.6126C354.754 17.7688 354.816 17.9009 354.941 18.0089C355.066 18.1168 355.281 18.2035 355.585 18.2688L356.769 18.5075C357.406 18.6381 357.88 18.8484 358.193 19.1381C358.505 19.4279 358.661 19.8086 358.661 20.2802C358.661 20.7092 358.535 21.0856 358.282 21.4094C358.032 21.7333 357.688 21.9862 357.251 22.168C356.816 22.3469 356.315 22.4364 355.747 22.4364C354.88 22.4364 354.19 22.256 353.676 21.8952C353.164 21.5316 352.865 21.0373 352.776 20.4123L354.562 20.3185C354.616 20.5827 354.747 20.7844 354.954 20.9237C355.161 21.06 355.427 21.1282 355.751 21.1282C356.069 21.1282 356.325 21.0671 356.518 20.945C356.714 20.82 356.813 20.6594 356.816 20.4634C356.813 20.2987 356.744 20.1637 356.607 20.0586C356.471 19.9506 356.261 19.8683 355.977 19.8114L354.843 19.5856C354.204 19.4577 353.728 19.2362 353.416 18.9208C353.106 18.6055 352.951 18.2035 352.951 17.7148C352.951 17.2944 353.065 16.9322 353.292 16.6282C353.522 16.3242 353.845 16.0898 354.259 15.9251C354.677 15.7603 355.166 15.6779 355.725 15.6779C356.552 15.6779 357.203 15.8526 357.677 16.2021C358.154 16.5515 358.433 17.0273 358.512 17.6296Z" fill="black"/>
<path d="M3.93555 11H2.91992L5.85742 3H6.85742L9.79492 11H8.7793L6.38867 4.26562H6.32617L3.93555 11ZM4.31055 7.875H8.4043V8.73437H4.31055V7.875ZM14.6973 8.54687V5H15.6191V11H14.6973V9.98437H14.6348C14.4941 10.2891 14.2754 10.5482 13.9785 10.7617C13.6816 10.9727 13.3066 11.0781 12.8535 11.0781C12.4785 11.0781 12.1452 10.9961 11.8535 10.832C11.5618 10.6654 11.3327 10.4154 11.166 10.082C10.9993 9.74609 10.916 9.32292 10.916 8.8125V5H11.8379V8.75C11.8379 9.1875 11.9603 9.53646 12.2051 9.79688C12.4525 10.0573 12.7676 10.1875 13.1504 10.1875C13.3796 10.1875 13.6126 10.1289 13.8496 10.0117C14.0892 9.89453 14.2897 9.71484 14.4512 9.47266C14.6152 9.23047 14.6973 8.92187 14.6973 8.54687ZM19.917 5V5.78125H16.8076V5H19.917ZM17.7139 3.5625H18.6357V9.28125C18.6357 9.54167 18.6735 9.73698 18.749 9.86719C18.8271 9.99479 18.9261 10.0807 19.0459 10.125C19.1683 10.1667 19.2972 10.1875 19.4326 10.1875C19.5342 10.1875 19.6175 10.1823 19.6826 10.1719C19.7477 10.1589 19.7998 10.1484 19.8389 10.1406L20.0264 10.9687C19.9639 10.9922 19.8766 11.0156 19.7646 11.0391C19.6527 11.0651 19.5107 11.0781 19.3389 11.0781C19.0785 11.0781 18.8232 11.0221 18.5732 10.9102C18.3258 10.7982 18.1201 10.6276 17.9561 10.3984C17.7946 10.1693 17.7139 9.88021 17.7139 9.53125V3.5625ZM22.3545 7.39062V11H21.4326V3H22.3545V5.9375H22.4326C22.5732 5.6276 22.7842 5.38151 23.0654 5.19922C23.3493 5.01432 23.7269 4.92188 24.1982 4.92188C24.6071 4.92188 24.9652 5.00391 25.2725 5.16797C25.5798 5.32943 25.818 5.57812 25.9873 5.91406C26.1592 6.2474 26.2451 6.67187 26.2451 7.1875V11H25.3232V7.25C25.3232 6.77344 25.1995 6.40495 24.9521 6.14453C24.7074 5.88151 24.3675 5.75 23.9326 5.75C23.6305 5.75 23.3597 5.8138 23.1201 5.94141C22.8831 6.06901 22.6956 6.25521 22.5576 6.5C22.4222 6.74479 22.3545 7.04167 22.3545 7.39062ZM30.3691 11.125C29.8275 11.125 29.3522 10.9961 28.9434 10.7383C28.5371 10.4805 28.2194 10.1198 27.9902 9.65625C27.7637 9.19271 27.6504 8.65104 27.6504 8.03125C27.6504 7.40625 27.7637 6.86068 27.9902 6.39453C28.2194 5.92839 28.5371 5.56641 28.9434 5.30859C29.3522 5.05078 29.8275 4.92188 30.3691 4.92188C30.9108 4.92188 31.3848 5.05078 31.791 5.30859C32.1999 5.56641 32.5176 5.92839 32.7441 6.39453C32.9733 6.86068 33.0879 7.40625 33.0879 8.03125C33.0879 8.65104 32.9733 9.19271 32.7441 9.65625C32.5176 10.1198 32.1999 10.4805 31.791 10.7383C31.3848 10.9961 30.9108 11.125 30.3691 11.125ZM30.3691 10.2969C30.7806 10.2969 31.1191 10.1914 31.3848 9.98047C31.6504 9.76953 31.847 9.49219 31.9746 9.14844C32.1022 8.80469 32.166 8.43229 32.166 8.03125C32.166 7.63021 32.1022 7.25651 31.9746 6.91016C31.847 6.5638 31.6504 6.28385 31.3848 6.07031C31.1191 5.85677 30.7806 5.75 30.3691 5.75C29.9577 5.75 29.6191 5.85677 29.3535 6.07031C29.0879 6.28385 28.8913 6.5638 28.7637 6.91016C28.6361 7.25651 28.5723 7.63021 28.5723 8.03125C28.5723 8.43229 28.6361 8.80469 28.7637 9.14844C28.8913 9.49219 29.0879 9.76953 29.3535 9.98047C29.6191 10.1914 29.9577 10.2969 30.3691 10.2969ZM34.4951 11V5H35.3857V5.90625H35.4482C35.5576 5.60938 35.7555 5.36849 36.042 5.18359C36.3285 4.9987 36.6514 4.90625 37.0107 4.90625C37.0785 4.90625 37.1631 4.90755 37.2646 4.91016C37.3662 4.91276 37.443 4.91667 37.4951 4.92188V5.85937C37.4639 5.85156 37.3923 5.83984 37.2803 5.82422C37.1709 5.80599 37.055 5.79687 36.9326 5.79687C36.641 5.79687 36.3805 5.85807 36.1514 5.98047C35.9248 6.10026 35.7451 6.26693 35.6123 6.48047C35.4821 6.69141 35.417 6.93229 35.417 7.20312V11H34.4951ZM44.4785 3V11H43.5098V4.01562H43.4629L41.5098 5.3125V4.32812L43.5098 3H44.4785Z" fill="#585858"/>
<rect y="12.9614" width="269.343" height="9.16495" fill="#8F82FF"/>
<path d="M282.113 53.632C281.457 53.632 280.873 53.5255 280.362 53.3124C279.854 53.0965 279.454 52.8025 279.165 52.4303C278.875 52.0581 278.73 51.6363 278.73 51.1647C278.73 50.801 278.812 50.4672 278.977 50.1633C279.145 49.8564 279.372 49.6022 279.659 49.4005C279.946 49.1959 280.267 49.0653 280.622 49.0084V48.9488C280.156 48.855 279.778 48.6292 279.488 48.2712C279.199 47.9104 279.054 47.4914 279.054 47.0141C279.054 46.5624 279.186 46.1604 279.45 45.8081C279.714 45.453 280.077 45.1746 280.537 44.9729C281 44.7684 281.525 44.6661 282.113 44.6661C282.702 44.6661 283.226 44.7684 283.686 44.9729C284.149 45.1775 284.513 45.4573 284.777 45.8124C285.041 46.1647 285.175 46.5653 285.177 47.0141C285.175 47.4942 285.027 47.9133 284.734 48.2712C284.442 48.6292 284.067 48.855 283.609 48.9488V49.0084C283.959 49.0653 284.275 49.1959 284.559 49.4005C284.846 49.6022 285.074 49.8564 285.241 50.1633C285.412 50.4672 285.498 50.801 285.501 51.1647C285.498 51.6363 285.352 52.0581 285.062 52.4303C284.773 52.8025 284.372 53.0965 283.861 53.3124C283.352 53.5255 282.77 53.632 282.113 53.632ZM282.113 52.2769C282.406 52.2769 282.662 52.2243 282.881 52.1192C283.099 52.0113 283.27 51.8635 283.392 51.676C283.517 51.4857 283.579 51.267 283.579 51.0198C283.579 50.767 283.515 50.5439 283.388 50.3508C283.26 50.1547 283.086 50.0013 282.868 49.8905C282.649 49.7769 282.398 49.7201 282.113 49.7201C281.832 49.7201 281.581 49.7769 281.359 49.8905C281.138 50.0013 280.963 50.1547 280.835 50.3508C280.71 50.5439 280.648 50.767 280.648 51.0198C280.648 51.267 280.709 51.4857 280.831 51.676C280.953 51.8635 281.125 52.0113 281.346 52.1192C281.568 52.2243 281.824 52.2769 282.113 52.2769ZM282.113 48.3778C282.358 48.3778 282.575 48.328 282.765 48.2286C282.956 48.1292 283.105 47.9914 283.213 47.8153C283.321 47.6391 283.375 47.436 283.375 47.2059C283.375 46.9786 283.321 46.7797 283.213 46.6093C283.105 46.436 282.957 46.301 282.77 46.2045C282.582 46.105 282.363 46.0553 282.113 46.0553C281.866 46.0553 281.648 46.105 281.457 46.2045C281.267 46.301 281.118 46.436 281.01 46.6093C280.905 46.7797 280.852 46.9786 280.852 47.2059C280.852 47.436 280.906 47.6391 281.014 47.8153C281.122 47.9914 281.271 48.1292 281.461 48.2286C281.652 48.328 281.869 48.3778 282.113 48.3778ZM287.623 53.6235C287.342 53.6235 287.101 53.5241 286.899 53.3252C286.7 53.1235 286.601 52.882 286.601 52.6008C286.601 52.3224 286.7 52.0837 286.899 51.8849C287.101 51.686 287.342 51.5866 287.623 51.5866C287.896 51.5866 288.135 51.686 288.339 51.8849C288.544 52.0837 288.646 52.3224 288.646 52.6008C288.646 52.7883 288.598 52.9601 288.501 53.1164C288.407 53.2698 288.284 53.3934 288.131 53.4871C287.977 53.578 287.808 53.6235 287.623 53.6235ZM293.237 53.632C292.634 53.632 292.097 53.5212 291.626 53.2996C291.157 53.078 290.785 52.7726 290.509 52.3834C290.234 51.9942 290.09 51.5482 290.079 51.0454H291.869C291.889 51.3834 292.031 51.6576 292.295 51.8678C292.559 52.078 292.873 52.1831 293.237 52.1831C293.526 52.1831 293.782 52.1192 294.004 51.9914C294.228 51.8607 294.403 51.6803 294.528 51.4502C294.656 51.2172 294.72 50.9502 294.72 50.6491C294.72 50.3422 294.654 50.0724 294.524 49.8394C294.396 49.6064 294.218 49.4246 293.991 49.2939C293.764 49.1633 293.504 49.0965 293.211 49.0937C292.955 49.0937 292.707 49.1462 292.465 49.2513C292.227 49.3564 292.041 49.4999 291.907 49.6817L290.267 49.3877L290.68 44.7854H296.015V46.2939H292.201L291.975 48.48H292.026C292.18 48.2641 292.411 48.0851 292.721 47.9431C293.031 47.801 293.377 47.73 293.761 47.73C294.286 47.73 294.755 47.8536 295.167 48.1008C295.579 48.3479 295.904 48.6874 296.143 49.1192C296.382 49.5482 296.499 50.0425 296.497 50.6022C296.499 51.1903 296.363 51.713 296.088 52.1704C295.815 52.6249 295.433 52.9829 294.941 53.2442C294.453 53.5028 293.884 53.632 293.237 53.632ZM300.612 53.5127V44.7854H302.457V48.6334H302.572L305.713 44.7854H307.925L304.686 48.6931L307.963 53.5127H305.756L303.365 49.9246L302.457 51.0326V53.5127H300.612ZM313.24 44.7854L315.349 51.4161H315.43L317.544 44.7854H319.589L316.58 53.5127H314.203L311.19 44.7854H313.24ZM320.605 53.5127V46.9672H322.421V53.5127H320.605ZM321.517 46.1235C321.247 46.1235 321.016 46.034 320.823 45.855C320.632 45.6732 320.537 45.4559 320.537 45.203C320.537 44.953 320.632 44.7385 320.823 44.5596C321.016 44.3778 321.247 44.2868 321.517 44.2868C321.787 44.2868 322.017 44.3778 322.208 44.5596C322.401 44.7385 322.497 44.953 322.497 45.203C322.497 45.4559 322.401 45.6732 322.208 45.855C322.017 46.034 321.787 46.1235 321.517 46.1235ZM326.858 53.6405C326.184 53.6405 325.605 53.5042 325.119 53.2314C324.636 52.9559 324.264 52.5667 324.003 52.0638C323.741 51.5581 323.611 50.9601 323.611 50.2698C323.611 49.5965 323.741 49.0056 324.003 48.4971C324.264 47.9885 324.632 47.5922 325.106 47.3081C325.584 47.0241 326.143 46.882 326.785 46.882C327.217 46.882 327.619 46.9516 327.991 47.0908C328.366 47.2272 328.693 47.4331 328.971 47.7087C329.253 47.9843 329.471 48.3309 329.628 48.7485C329.784 49.1633 329.862 49.6491 329.862 50.2059V50.7045H324.335V49.5795H328.153C328.153 49.3181 328.096 49.0866 327.983 48.8849C327.869 48.6831 327.711 48.5255 327.51 48.4118C327.311 48.2954 327.079 48.2371 326.815 48.2371C326.54 48.2371 326.295 48.301 326.082 48.4289C325.872 48.5539 325.707 48.7229 325.588 48.936C325.469 49.1462 325.407 49.3806 325.405 49.6391V50.7087C325.405 51.0326 325.464 51.3124 325.584 51.5482C325.706 51.784 325.878 51.9658 326.099 52.0937C326.321 52.2215 326.584 52.2854 326.888 52.2854C327.089 52.2854 327.274 52.257 327.442 52.2002C327.609 52.1434 327.753 52.0581 327.872 51.9445C327.991 51.8309 328.082 51.6917 328.145 51.5269L329.824 51.6377C329.738 52.0411 329.564 52.3934 329.3 52.6945C329.038 52.9928 328.7 53.2258 328.285 53.3934C327.873 53.5581 327.398 53.6405 326.858 53.6405ZM332.291 53.5127L330.51 46.9672H332.346L333.361 51.365H333.42L334.477 46.9672H336.28L337.354 51.3394H337.409L338.406 46.9672H340.238L338.461 53.5127H336.54L335.415 49.3962H335.334L334.209 53.5127H332.291ZM346.653 48.8337L344.991 48.936C344.963 48.7939 344.901 48.6661 344.808 48.5525C344.714 48.436 344.59 48.3437 344.437 48.2755C344.286 48.2045 344.106 48.1689 343.896 48.1689C343.615 48.1689 343.377 48.2286 343.184 48.3479C342.991 48.4644 342.894 48.6206 342.894 48.8167C342.894 48.9729 342.957 49.105 343.082 49.213C343.207 49.3209 343.421 49.4076 343.725 49.4729L344.91 49.7116C345.546 49.8422 346.021 50.0525 346.333 50.3422C346.646 50.632 346.802 51.0127 346.802 51.4843C346.802 51.9133 346.676 52.2897 346.423 52.6135C346.173 52.9374 345.829 53.1903 345.392 53.3721C344.957 53.551 344.455 53.6405 343.887 53.6405C343.021 53.6405 342.33 53.4601 341.816 53.0993C341.305 52.7357 341.005 52.2414 340.917 51.6164L342.703 51.5226C342.757 51.7868 342.887 51.9885 343.095 52.1278C343.302 52.2641 343.568 52.3323 343.892 52.3323C344.21 52.3323 344.465 52.2712 344.659 52.1491C344.855 52.0241 344.954 51.8635 344.957 51.6675C344.954 51.5028 344.884 51.3678 344.748 51.2627C344.612 51.1547 344.401 51.0724 344.117 51.0155L342.984 50.7897C342.345 50.6618 341.869 50.4403 341.556 50.1249C341.247 49.8096 341.092 49.4076 341.092 48.9189C341.092 48.4985 341.205 48.1363 341.433 47.8323C341.663 47.5283 341.985 47.2939 342.4 47.1292C342.818 46.9644 343.306 46.882 343.866 46.882C344.693 46.882 345.343 47.0567 345.818 47.4062C346.295 47.7556 346.573 48.2314 346.653 48.8337Z" fill="black"/>
<path d="M2.61523 42.2915H1.59961L4.53711 34.2915H5.53711L8.47461 42.2915H7.45898L5.06836 35.5571H5.00586L2.61523 42.2915ZM2.99023 39.1665H7.08398V40.0259H2.99023V39.1665ZM13.377 39.8384V36.2915H14.2988V42.2915H13.377V41.2759H13.3145C13.1738 41.5806 12.9551 41.8397 12.6582 42.0532C12.3613 42.2642 11.9863 42.3696 11.5332 42.3696C11.1582 42.3696 10.8249 42.2876 10.5332 42.1235C10.2415 41.9569 10.0124 41.7069 9.8457 41.3735C9.67904 41.0376 9.5957 40.6144 9.5957 40.104V36.2915H10.5176V40.0415C10.5176 40.479 10.64 40.828 10.8848 41.0884C11.1322 41.3488 11.4473 41.479 11.8301 41.479C12.0592 41.479 12.2923 41.4204 12.5293 41.3032C12.7689 41.186 12.9694 41.0063 13.1309 40.7642C13.2949 40.522 13.377 40.2134 13.377 39.8384ZM18.5967 36.2915V37.0728H15.4873V36.2915H18.5967ZM16.3936 34.854H17.3154V40.5728C17.3154 40.8332 17.3532 41.0285 17.4287 41.1587C17.5068 41.2863 17.6058 41.3722 17.7256 41.4165C17.848 41.4582 17.9769 41.479 18.1123 41.479C18.2139 41.479 18.2972 41.4738 18.3623 41.4634C18.4274 41.4504 18.4795 41.4399 18.5186 41.4321L18.7061 42.2603C18.6436 42.2837 18.5563 42.3071 18.4443 42.3306C18.3324 42.3566 18.1904 42.3696 18.0186 42.3696C17.7581 42.3696 17.5029 42.3136 17.2529 42.2017C17.0055 42.0897 16.7998 41.9191 16.6357 41.6899C16.4743 41.4608 16.3936 41.1717 16.3936 40.8228V34.854ZM21.0342 38.6821V42.2915H20.1123V34.2915H21.0342V37.229H21.1123C21.2529 36.9191 21.4639 36.673 21.7451 36.4907C22.029 36.3058 22.4066 36.2134 22.8779 36.2134C23.2868 36.2134 23.6449 36.2954 23.9521 36.4595C24.2594 36.6209 24.4977 36.8696 24.667 37.2056C24.8389 37.5389 24.9248 37.9634 24.9248 38.479V42.2915H24.0029V38.5415C24.0029 38.0649 23.8792 37.6965 23.6318 37.436C23.387 37.173 23.0472 37.0415 22.6123 37.0415C22.3102 37.0415 22.0394 37.1053 21.7998 37.2329C21.5628 37.3605 21.3753 37.5467 21.2373 37.7915C21.1019 38.0363 21.0342 38.3332 21.0342 38.6821ZM29.0488 42.4165C28.5072 42.4165 28.0319 42.2876 27.623 42.0298C27.2168 41.772 26.8991 41.4113 26.6699 40.9478C26.4434 40.4842 26.3301 39.9425 26.3301 39.3228C26.3301 38.6978 26.4434 38.1522 26.6699 37.686C26.8991 37.2199 27.2168 36.8579 27.623 36.6001C28.0319 36.3423 28.5072 36.2134 29.0488 36.2134C29.5905 36.2134 30.0645 36.3423 30.4707 36.6001C30.8796 36.8579 31.1973 37.2199 31.4238 37.686C31.653 38.1522 31.7676 38.6978 31.7676 39.3228C31.7676 39.9425 31.653 40.4842 31.4238 40.9478C31.1973 41.4113 30.8796 41.772 30.4707 42.0298C30.0645 42.2876 29.5905 42.4165 29.0488 42.4165ZM29.0488 41.5884C29.4603 41.5884 29.7988 41.4829 30.0645 41.272C30.3301 41.061 30.5267 40.7837 30.6543 40.4399C30.7819 40.0962 30.8457 39.7238 30.8457 39.3228C30.8457 38.9217 30.7819 38.548 30.6543 38.2017C30.5267 37.8553 30.3301 37.5754 30.0645 37.3618C29.7988 37.1483 29.4603 37.0415 29.0488 37.0415C28.6374 37.0415 28.2988 37.1483 28.0332 37.3618C27.7676 37.5754 27.571 37.8553 27.4434 38.2017C27.3158 38.548 27.252 38.9217 27.252 39.3228C27.252 39.7238 27.3158 40.0962 27.4434 40.4399C27.571 40.7837 27.7676 41.061 28.0332 41.272C28.2988 41.4829 28.6374 41.5884 29.0488 41.5884ZM33.1748 42.2915V36.2915H34.0654V37.1978H34.1279C34.2373 36.9009 34.4352 36.66 34.7217 36.4751C35.0081 36.2902 35.3311 36.1978 35.6904 36.1978C35.7581 36.1978 35.8428 36.1991 35.9443 36.2017C36.0459 36.2043 36.1227 36.2082 36.1748 36.2134V37.1509C36.1436 37.1431 36.0719 37.1313 35.96 37.1157C35.8506 37.0975 35.7347 37.0884 35.6123 37.0884C35.3206 37.0884 35.0602 37.1496 34.8311 37.272C34.6045 37.3918 34.4248 37.5584 34.292 37.772C34.1618 37.9829 34.0967 38.2238 34.0967 38.4946V42.2915H33.1748ZM40.3457 42.2915V41.5884L42.9863 38.6978C43.2962 38.3592 43.5514 38.0649 43.752 37.8149C43.9525 37.5623 44.1009 37.3254 44.1973 37.104C44.2962 36.88 44.3457 36.6457 44.3457 36.4009C44.3457 36.1196 44.278 35.8761 44.1426 35.6704C44.0098 35.4647 43.8275 35.3058 43.5957 35.1938C43.3639 35.0819 43.1035 35.0259 42.8145 35.0259C42.5072 35.0259 42.2389 35.0897 42.0098 35.2173C41.7832 35.3423 41.6074 35.5181 41.4824 35.7446C41.36 35.9712 41.2988 36.2368 41.2988 36.5415H40.377C40.377 36.0728 40.485 35.6613 40.7012 35.3071C40.9173 34.953 41.2116 34.6769 41.584 34.479C41.959 34.2811 42.3796 34.1821 42.8457 34.1821C43.3145 34.1821 43.7298 34.2811 44.0918 34.479C44.4538 34.6769 44.7376 34.9438 44.9434 35.2798C45.1491 35.6157 45.252 35.9894 45.252 36.4009C45.252 36.6951 45.1986 36.9829 45.0918 37.2642C44.9876 37.5428 44.8053 37.854 44.5449 38.1978C44.2871 38.5389 43.929 38.9556 43.4707 39.4478L41.6738 41.3696V41.4321H45.3926V42.2915H40.3457Z" fill="#585858"/>
<rect y="44.2529" width="219.371" height="9.16495" fill="#8F82FF"/>
<path d="M279.203 84.7168L282.821 77.5577V77.498H278.606V75.9895H284.73V77.5194L281.108 84.7168H279.203ZM285.573 84.8276C285.291 84.8276 285.05 84.7282 284.848 84.5293C284.649 84.3276 284.55 84.0861 284.55 83.8049C284.55 83.5265 284.649 83.2878 284.848 83.089C285.05 82.8901 285.291 82.7907 285.573 82.7907C285.845 82.7907 286.084 82.8901 286.289 83.089C286.493 83.2878 286.595 83.5265 286.595 83.8049C286.595 83.9924 286.547 84.1642 286.45 84.3205C286.357 84.4739 286.233 84.5975 286.08 84.6912C285.926 84.7821 285.757 84.8276 285.573 84.8276ZM290.973 84.8361C290.317 84.8361 289.733 84.7296 289.221 84.5165C288.713 84.3006 288.314 84.0066 288.024 83.6344C287.734 83.2623 287.589 82.8404 287.589 82.3688C287.589 82.0051 287.672 81.6713 287.836 81.3674C288.004 81.0605 288.231 80.8063 288.518 80.6046C288.805 80.4 289.126 80.2694 289.481 80.2125V80.1529C289.015 80.0591 288.638 79.8333 288.348 79.4753C288.058 79.1145 287.913 78.6955 287.913 78.2182C287.913 77.7665 288.045 77.3645 288.309 77.0123C288.574 76.6571 288.936 76.3787 289.396 76.177C289.859 75.9725 290.385 75.8702 290.973 75.8702C291.561 75.8702 292.085 75.9725 292.545 76.177C293.008 76.3816 293.372 76.6614 293.636 77.0165C293.9 77.3688 294.034 77.7694 294.037 78.2182C294.034 78.6983 293.886 79.1174 293.594 79.4753C293.301 79.8333 292.926 80.0591 292.469 80.1529V80.2125C292.818 80.2694 293.135 80.4 293.419 80.6046C293.706 80.8063 293.933 81.0605 294.101 81.3674C294.271 81.6713 294.358 82.0051 294.361 82.3688C294.358 82.8404 294.211 83.2623 293.922 83.6344C293.632 84.0066 293.231 84.3006 292.72 84.5165C292.211 84.7296 291.629 84.8361 290.973 84.8361ZM290.973 83.481C291.265 83.481 291.521 83.4284 291.74 83.3233C291.959 83.2154 292.129 83.0676 292.251 82.8801C292.376 82.6898 292.439 82.4711 292.439 82.2239C292.439 81.9711 292.375 81.748 292.247 81.5549C292.119 81.3588 291.946 81.2054 291.727 81.0946C291.508 80.981 291.257 80.9242 290.973 80.9242C290.692 80.9242 290.44 80.981 290.219 81.0946C289.997 81.2054 289.822 81.3588 289.694 81.5549C289.569 81.748 289.507 81.9711 289.507 82.2239C289.507 82.4711 289.568 82.6898 289.69 82.8801C289.812 83.0676 289.984 83.2154 290.206 83.3233C290.427 83.4284 290.683 83.481 290.973 83.481ZM290.973 79.5819C291.217 79.5819 291.434 79.5321 291.625 79.4327C291.815 79.3333 291.964 79.1955 292.072 79.0194C292.18 78.8432 292.234 78.6401 292.234 78.41C292.234 78.1827 292.18 77.9838 292.072 77.8134C291.964 77.6401 291.817 77.5051 291.629 77.4086C291.442 77.3091 291.223 77.2594 290.973 77.2594C290.726 77.2594 290.507 77.3091 290.317 77.4086C290.126 77.5051 289.977 77.6401 289.869 77.8134C289.764 77.9838 289.711 78.1827 289.711 78.41C289.711 78.6401 289.765 78.8432 289.873 79.0194C289.981 79.1955 290.131 79.3333 290.321 79.4327C290.511 79.5321 290.729 79.5819 290.973 79.5819ZM298.479 84.7168V75.9895H300.324V79.8375H300.439L303.58 75.9895H305.792L302.553 79.8972L305.83 84.7168H303.623L301.232 81.1287L300.324 82.2367V84.7168H298.479ZM311.107 75.9895L313.216 82.6202H313.297L315.411 75.9895H317.456L314.448 84.7168H312.07L309.057 75.9895H311.107ZM318.472 84.7168V78.1713H320.288V84.7168H318.472ZM319.384 77.3276C319.115 77.3276 318.883 77.2381 318.69 77.0591C318.499 76.8773 318.404 76.66 318.404 76.4071C318.404 76.1571 318.499 75.9426 318.69 75.7637C318.883 75.5819 319.115 75.4909 319.384 75.4909C319.654 75.4909 319.884 75.5819 320.075 75.7637C320.268 75.9426 320.365 76.1571 320.365 76.4071C320.365 76.66 320.268 76.8773 320.075 77.0591C319.884 77.2381 319.654 77.3276 319.384 77.3276ZM324.725 84.8446C324.052 84.8446 323.472 84.7083 322.986 84.4355C322.503 84.16 322.131 83.7708 321.87 83.2679C321.608 82.7623 321.478 82.1642 321.478 81.4739C321.478 80.8006 321.608 80.2097 321.87 79.7012C322.131 79.1926 322.499 78.7963 322.974 78.5123C323.451 78.2282 324.01 78.0861 324.653 78.0861C325.084 78.0861 325.486 78.1557 325.858 78.2949C326.233 78.4313 326.56 78.6373 326.839 78.9128C327.12 79.1884 327.339 79.535 327.495 79.9526C327.651 80.3674 327.729 80.8532 327.729 81.41V81.9086H322.202V80.7836H326.02C326.02 80.5222 325.964 80.2907 325.85 80.089C325.736 79.8873 325.579 79.7296 325.377 79.6159C325.178 79.4995 324.947 79.4412 324.682 79.4412C324.407 79.4412 324.162 79.5051 323.949 79.633C323.739 79.758 323.574 79.927 323.455 80.1401C323.336 80.3503 323.275 80.5847 323.272 80.8432V81.9128C323.272 82.2367 323.331 82.5165 323.451 82.7523C323.573 82.9881 323.745 83.1699 323.966 83.2978C324.188 83.4256 324.451 83.4895 324.755 83.4895C324.956 83.4895 325.141 83.4611 325.309 83.4043C325.476 83.3475 325.62 83.2623 325.739 83.1486C325.858 83.035 325.949 82.8958 326.012 82.731L327.691 82.8418C327.606 83.2452 327.431 83.5975 327.167 83.8986C326.905 84.1969 326.567 84.4299 326.153 84.5975C325.741 84.7623 325.265 84.8446 324.725 84.8446ZM330.158 84.7168L328.377 78.1713H330.214L331.228 82.5691H331.287L332.344 78.1713H334.147L335.221 82.5435H335.276L336.273 78.1713H338.106L336.329 84.7168H334.407L333.282 80.6003H333.201L332.076 84.7168H330.158ZM344.52 80.0378L342.858 80.1401C342.83 79.998 342.769 79.8702 342.675 79.7566C342.581 79.6401 342.458 79.5478 342.304 79.4796C342.154 79.4086 341.973 79.373 341.763 79.373C341.482 79.373 341.244 79.4327 341.051 79.552C340.858 79.6685 340.762 79.8248 340.762 80.0208C340.762 80.177 340.824 80.3091 340.949 80.4171C341.074 80.525 341.289 80.6117 341.593 80.677L342.777 80.9157C343.414 81.0463 343.888 81.2566 344.2 81.5463C344.513 81.8361 344.669 82.2168 344.669 82.6884C344.669 83.1174 344.543 83.4938 344.29 83.8176C344.04 84.1415 343.696 84.3944 343.259 84.5762C342.824 84.7551 342.323 84.8446 341.754 84.8446C340.888 84.8446 340.198 84.6642 339.683 84.3034C339.172 83.9398 338.872 83.4455 338.784 82.8205L340.57 82.7267C340.624 82.9909 340.754 83.1926 340.962 83.3319C341.169 83.4682 341.435 83.5364 341.759 83.5364C342.077 83.5364 342.333 83.4753 342.526 83.3532C342.722 83.2282 342.821 83.0676 342.824 82.8716C342.821 82.7069 342.752 82.5719 342.615 82.4668C342.479 82.3588 342.269 82.2765 341.985 82.2196L340.851 81.9938C340.212 81.8659 339.736 81.6444 339.423 81.329C339.114 81.0137 338.959 80.6117 338.959 80.123C338.959 79.7026 339.073 79.3404 339.3 79.0364C339.53 78.7324 339.852 78.498 340.267 78.3333C340.685 78.1685 341.173 78.0861 341.733 78.0861C342.56 78.0861 343.21 78.2608 343.685 78.6103C344.162 78.9597 344.441 79.4355 344.52 80.0378Z" fill="black"/>
<path d="M1.29688 73.582H0.28125L3.21875 65.582H4.21875L7.15625 73.582H6.14062L3.75 66.8477H3.6875L1.29688 73.582ZM1.67188 70.457H5.76563V71.3164H1.67188V70.457ZM12.0586 71.1289V67.582H12.9805V73.582H12.0586V72.5664H11.9961C11.8555 72.8711 11.6367 73.1302 11.3398 73.3438C11.043 73.5547 10.668 73.6602 10.2148 73.6602C9.83984 73.6602 9.50651 73.5781 9.21484 73.4141C8.92318 73.2474 8.69401 72.9974 8.52734 72.6641C8.36068 72.3281 8.27734 71.9049 8.27734 71.3945V67.582H9.19922V71.332C9.19922 71.7695 9.32161 72.1185 9.56641 72.3789C9.8138 72.6393 10.1289 72.7695 10.5117 72.7695C10.7409 72.7695 10.974 72.7109 11.2109 72.5938C11.4505 72.4766 11.651 72.2969 11.8125 72.0547C11.9766 71.8125 12.0586 71.5039 12.0586 71.1289ZM17.2783 67.582V68.3633H14.1689V67.582H17.2783ZM15.0752 66.1445H15.9971V71.8633C15.9971 72.1237 16.0348 72.319 16.1104 72.4492C16.1885 72.5768 16.2874 72.6628 16.4072 72.707C16.5296 72.7487 16.6585 72.7695 16.7939 72.7695C16.8955 72.7695 16.9788 72.7643 17.0439 72.7539C17.109 72.7409 17.1611 72.7305 17.2002 72.7227L17.3877 73.5508C17.3252 73.5742 17.238 73.5977 17.126 73.6211C17.014 73.6471 16.8721 73.6602 16.7002 73.6602C16.4398 73.6602 16.1846 73.6042 15.9346 73.4922C15.6872 73.3802 15.4814 73.2096 15.3174 72.9805C15.1559 72.7513 15.0752 72.4622 15.0752 72.1133V66.1445ZM19.7158 69.9727V73.582H18.7939V65.582H19.7158V68.5195H19.7939C19.9346 68.2096 20.1455 67.9635 20.4268 67.7812C20.7106 67.5964 21.0882 67.5039 21.5596 67.5039C21.9684 67.5039 22.3265 67.5859 22.6338 67.75C22.9411 67.9115 23.1794 68.1602 23.3486 68.4961C23.5205 68.8294 23.6064 69.2539 23.6064 69.7695V73.582H22.6846V69.832C22.6846 69.3555 22.5609 68.987 22.3135 68.7266C22.0687 68.4635 21.7288 68.332 21.2939 68.332C20.9919 68.332 20.721 68.3958 20.4814 68.5234C20.2445 68.651 20.057 68.8372 19.9189 69.082C19.7835 69.3268 19.7158 69.6237 19.7158 69.9727ZM27.7305 73.707C27.1888 73.707 26.7135 73.5781 26.3047 73.3203C25.8984 73.0625 25.5807 72.7018 25.3516 72.2383C25.125 71.7747 25.0117 71.2331 25.0117 70.6133C25.0117 69.9883 25.125 69.4427 25.3516 68.9766C25.5807 68.5104 25.8984 68.1484 26.3047 67.8906C26.7135 67.6328 27.1888 67.5039 27.7305 67.5039C28.2721 67.5039 28.7461 67.6328 29.1523 67.8906C29.5612 68.1484 29.8789 68.5104 30.1055 68.9766C30.3346 69.4427 30.4492 69.9883 30.4492 70.6133C30.4492 71.2331 30.3346 71.7747 30.1055 72.2383C29.8789 72.7018 29.5612 73.0625 29.1523 73.3203C28.7461 73.5781 28.2721 73.707 27.7305 73.707ZM27.7305 72.8789C28.1419 72.8789 28.4805 72.7734 28.7461 72.5625C29.0117 72.3516 29.2083 72.0742 29.3359 71.7305C29.4635 71.3867 29.5273 71.0143 29.5273 70.6133C29.5273 70.2122 29.4635 69.8385 29.3359 69.4922C29.2083 69.1458 29.0117 68.8659 28.7461 68.6523C28.4805 68.4388 28.1419 68.332 27.7305 68.332C27.319 68.332 26.9805 68.4388 26.7148 68.6523C26.4492 68.8659 26.2526 69.1458 26.125 69.4922C25.9974 69.8385 25.9336 70.2122 25.9336 70.6133C25.9336 71.0143 25.9974 71.3867 26.125 71.7305C26.2526 72.0742 26.4492 72.3516 26.7148 72.5625C26.9805 72.7734 27.319 72.8789 27.7305 72.8789ZM31.8564 73.582V67.582H32.7471V68.4883H32.8096C32.9189 68.1914 33.1169 67.9505 33.4033 67.7656C33.6898 67.5807 34.0127 67.4883 34.3721 67.4883C34.4398 67.4883 34.5244 67.4896 34.626 67.4922C34.7275 67.4948 34.8044 67.4987 34.8564 67.5039V68.4414C34.8252 68.4336 34.7536 68.4219 34.6416 68.4062C34.5322 68.388 34.4163 68.3789 34.2939 68.3789C34.0023 68.3789 33.7419 68.4401 33.5127 68.5625C33.2861 68.6823 33.1064 68.849 32.9736 69.0625C32.8434 69.2734 32.7783 69.5143 32.7783 69.7852V73.582H31.8564ZM41.7305 73.6914C41.2148 73.6914 40.7552 73.6029 40.3516 73.4258C39.9505 73.2487 39.6315 73.0026 39.3945 72.6875C39.1602 72.3698 39.0326 72.0013 39.0117 71.582H39.9961C40.0169 71.8398 40.1055 72.0625 40.2617 72.25C40.418 72.4349 40.6224 72.5781 40.875 72.6797C41.1276 72.7812 41.4076 72.832 41.7148 72.832C42.0586 72.832 42.3633 72.7721 42.6289 72.6523C42.8945 72.5326 43.1029 72.3659 43.2539 72.1523C43.4049 71.9388 43.4805 71.6914 43.4805 71.4102C43.4805 71.1159 43.4076 70.8568 43.2617 70.6328C43.1159 70.4062 42.9023 70.2292 42.6211 70.1016C42.3398 69.974 41.9961 69.9102 41.5898 69.9102H40.9492V69.0508H41.5898C41.9076 69.0508 42.1862 68.9935 42.4258 68.8789C42.668 68.7643 42.8568 68.6029 42.9922 68.3945C43.1302 68.1862 43.1992 67.9414 43.1992 67.6602C43.1992 67.3893 43.1393 67.1536 43.0195 66.9531C42.8997 66.7526 42.7305 66.5964 42.5117 66.4844C42.2956 66.3724 42.0404 66.3164 41.7461 66.3164C41.4701 66.3164 41.2096 66.3672 40.9648 66.4687C40.7227 66.5677 40.5247 66.7122 40.3711 66.9023C40.2174 67.0898 40.1341 67.3164 40.1211 67.582H39.1836C39.1992 67.1628 39.3255 66.7956 39.5625 66.4805C39.7995 66.1628 40.1094 65.9154 40.4922 65.7383C40.8776 65.5612 41.3008 65.4727 41.7617 65.4727C42.2565 65.4727 42.681 65.5729 43.0352 65.7734C43.3893 65.9714 43.6615 66.2331 43.8516 66.5586C44.0417 66.8841 44.1367 67.2357 44.1367 67.6133C44.1367 68.0638 44.0182 68.4479 43.7812 68.7656C43.5469 69.0833 43.2279 69.3034 42.8242 69.4258V69.4883C43.3294 69.5716 43.724 69.7865 44.0078 70.1328C44.2917 70.4766 44.4336 70.9023 44.4336 71.4102C44.4336 71.8451 44.3151 72.2357 44.0781 72.582C43.8438 72.9258 43.5234 73.1966 43.1172 73.3945C42.7109 73.5924 42.2487 73.6914 41.7305 73.6914Z" fill="#585858"/>
<rect y="75.5435" width="199.89" height="9.16495" fill="#8F82FF"/>
<path d="M282.207 116.04C281.758 116.037 281.325 115.962 280.907 115.814C280.493 115.667 280.121 115.427 279.791 115.094C279.461 114.762 279.2 114.321 279.007 113.773C278.817 113.225 278.721 112.552 278.721 111.753C278.724 111.02 278.808 110.366 278.973 109.789C279.14 109.209 279.379 108.718 279.689 108.314C280.001 107.911 280.375 107.604 280.809 107.394C281.244 107.181 281.731 107.074 282.271 107.074C282.854 107.074 283.368 107.188 283.814 107.415C284.26 107.64 284.618 107.945 284.888 108.331C285.16 108.718 285.325 109.151 285.382 109.631H283.562C283.491 109.327 283.342 109.089 283.115 108.915C282.888 108.742 282.606 108.655 282.271 108.655C281.703 108.655 281.271 108.902 280.976 109.397C280.683 109.891 280.534 110.563 280.528 111.412H280.588C280.719 111.154 280.895 110.934 281.116 110.752C281.341 110.567 281.595 110.427 281.879 110.33C282.166 110.231 282.469 110.181 282.787 110.181C283.304 110.181 283.764 110.303 284.167 110.547C284.571 110.789 284.889 111.121 285.122 111.544C285.355 111.968 285.471 112.452 285.471 112.998C285.471 113.589 285.334 114.114 285.058 114.574C284.785 115.035 284.403 115.395 283.912 115.657C283.423 115.915 282.855 116.043 282.207 116.04ZM282.199 114.591C282.483 114.591 282.737 114.523 282.961 114.387C283.186 114.25 283.362 114.066 283.49 113.833C283.618 113.6 283.682 113.339 283.682 113.049C283.682 112.759 283.618 112.499 283.49 112.269C283.365 112.039 283.192 111.856 282.97 111.719C282.748 111.583 282.496 111.515 282.211 111.515C281.998 111.515 281.801 111.554 281.619 111.634C281.44 111.714 281.282 111.824 281.146 111.966C281.013 112.108 280.907 112.273 280.831 112.461C280.754 112.645 280.716 112.843 280.716 113.053C280.716 113.334 280.78 113.591 280.907 113.824C281.038 114.057 281.214 114.243 281.436 114.383C281.66 114.522 281.915 114.591 282.199 114.591ZM289.608 115.921V107.194H291.453V111.042H291.568L294.709 107.194H296.921L293.682 111.101L296.959 115.921H294.752L292.361 112.333L291.453 113.441V115.921H289.608ZM302.236 107.194L304.345 113.824H304.426L306.54 107.194H308.585L305.577 115.921H303.199L300.186 107.194H302.236ZM309.601 115.921V109.375H311.417V115.921H309.601ZM310.513 108.532C310.243 108.532 310.012 108.442 309.819 108.263C309.628 108.081 309.533 107.864 309.533 107.611C309.533 107.361 309.628 107.147 309.819 106.968C310.012 106.786 310.243 106.695 310.513 106.695C310.783 106.695 311.013 106.786 311.204 106.968C311.397 107.147 311.493 107.361 311.493 107.611C311.493 107.864 311.397 108.081 311.204 108.263C311.013 108.442 310.783 108.532 310.513 108.532ZM315.854 116.049C315.181 116.049 314.601 115.912 314.115 115.64C313.632 115.364 313.26 114.975 312.999 114.472C312.737 113.966 312.607 113.368 312.607 112.678C312.607 112.005 312.737 111.414 312.999 110.905C313.26 110.397 313.628 110 314.102 109.716C314.58 109.432 315.139 109.29 315.781 109.29C316.213 109.29 316.615 109.36 316.987 109.499C317.362 109.635 317.689 109.841 317.968 110.117C318.249 110.392 318.468 110.739 318.624 111.157C318.78 111.571 318.858 112.057 318.858 112.614V113.113H313.331V111.988H317.149C317.149 111.726 317.093 111.495 316.979 111.293C316.865 111.091 316.708 110.934 316.506 110.82C316.307 110.704 316.075 110.645 315.811 110.645C315.536 110.645 315.291 110.709 315.078 110.837C314.868 110.962 314.703 111.131 314.584 111.344C314.465 111.554 314.404 111.789 314.401 112.047V113.117C314.401 113.441 314.46 113.721 314.58 113.956C314.702 114.192 314.874 114.374 315.095 114.502C315.317 114.63 315.58 114.694 315.884 114.694C316.085 114.694 316.27 114.665 316.438 114.608C316.605 114.552 316.749 114.466 316.868 114.353C316.987 114.239 317.078 114.1 317.141 113.935L318.82 114.046C318.735 114.449 318.56 114.802 318.296 115.103C318.034 115.401 317.696 115.634 317.281 115.802C316.869 115.966 316.394 116.049 315.854 116.049ZM321.287 115.921L319.506 109.375H321.343L322.357 113.773H322.416L323.473 109.375H325.276L326.35 113.748H326.405L327.402 109.375H329.235L327.458 115.921H325.536L324.411 111.804H324.33L323.205 115.921H321.287ZM335.649 111.242L333.987 111.344C333.959 111.202 333.898 111.074 333.804 110.961C333.71 110.844 333.586 110.752 333.433 110.684C333.282 110.613 333.102 110.577 332.892 110.577C332.611 110.577 332.373 110.637 332.18 110.756C331.987 110.873 331.89 111.029 331.89 111.225C331.89 111.381 331.953 111.513 332.078 111.621C332.203 111.729 332.417 111.816 332.721 111.881L333.906 112.12C334.542 112.25 335.017 112.461 335.329 112.75C335.642 113.04 335.798 113.421 335.798 113.892C335.798 114.321 335.672 114.698 335.419 115.022C335.169 115.346 334.825 115.598 334.388 115.78C333.953 115.959 333.452 116.049 332.883 116.049C332.017 116.049 331.327 115.868 330.812 115.508C330.301 115.144 330.001 114.65 329.913 114.025L331.699 113.931C331.753 114.195 331.883 114.397 332.091 114.536C332.298 114.672 332.564 114.741 332.888 114.741C333.206 114.741 333.461 114.679 333.655 114.557C333.851 114.432 333.95 114.272 333.953 114.076C333.95 113.911 333.881 113.776 333.744 113.671C333.608 113.563 333.398 113.481 333.113 113.424L331.98 113.198C331.341 113.07 330.865 112.848 330.552 112.533C330.243 112.218 330.088 111.816 330.088 111.327C330.088 110.907 330.202 110.544 330.429 110.241C330.659 109.937 330.981 109.702 331.396 109.537C331.814 109.373 332.302 109.29 332.862 109.29C333.689 109.29 334.339 109.465 334.814 109.814C335.291 110.164 335.569 110.64 335.649 111.242Z" fill="black"/>
<path d="M1.29688 104.874H0.28125L3.21875 96.874H4.21875L7.15625 104.874H6.14062L3.75 98.1396H3.6875L1.29688 104.874ZM1.67188 101.749H5.76563V102.608H1.67188V101.749ZM12.0586 102.421V98.874H12.9805V104.874H12.0586V103.858H11.9961C11.8555 104.163 11.6367 104.422 11.3398 104.636C11.043 104.847 10.668 104.952 10.2148 104.952C9.83984 104.952 9.50651 104.87 9.21484 104.706C8.92318 104.539 8.69401 104.289 8.52734 103.956C8.36068 103.62 8.27734 103.197 8.27734 102.687V98.874H9.19922V102.624C9.19922 103.062 9.32161 103.41 9.56641 103.671C9.8138 103.931 10.1289 104.062 10.5117 104.062C10.7409 104.062 10.974 104.003 11.2109 103.886C11.4505 103.769 11.651 103.589 11.8125 103.347C11.9766 103.104 12.0586 102.796 12.0586 102.421ZM17.2783 98.874V99.6553H14.1689V98.874H17.2783ZM15.0752 97.4365H15.9971V103.155C15.9971 103.416 16.0348 103.611 16.1104 103.741C16.1885 103.869 16.2874 103.955 16.4072 103.999C16.5296 104.041 16.6585 104.062 16.7939 104.062C16.8955 104.062 16.9788 104.056 17.0439 104.046C17.109 104.033 17.1611 104.022 17.2002 104.015L17.3877 104.843C17.3252 104.866 17.238 104.89 17.126 104.913C17.014 104.939 16.8721 104.952 16.7002 104.952C16.4398 104.952 16.1846 104.896 15.9346 104.784C15.6872 104.672 15.4814 104.502 15.3174 104.272C15.1559 104.043 15.0752 103.754 15.0752 103.405V97.4365ZM19.7158 101.265V104.874H18.7939V96.874H19.7158V99.8115H19.7939C19.9346 99.5016 20.1455 99.2555 20.4268 99.0732C20.7106 98.8883 21.0882 98.7959 21.5596 98.7959C21.9684 98.7959 22.3265 98.8779 22.6338 99.042C22.9411 99.2035 23.1794 99.4521 23.3486 99.7881C23.5205 100.121 23.6064 100.546 23.6064 101.062V104.874H22.6846V101.124C22.6846 100.647 22.5609 100.279 22.3135 100.019C22.0687 99.7555 21.7288 99.624 21.2939 99.624C20.9919 99.624 20.721 99.6878 20.4814 99.8154C20.2445 99.943 20.057 100.129 19.9189 100.374C19.7835 100.619 19.7158 100.916 19.7158 101.265ZM27.7305 104.999C27.1888 104.999 26.7135 104.87 26.3047 104.612C25.8984 104.354 25.5807 103.994 25.3516 103.53C25.125 103.067 25.0117 102.525 25.0117 101.905C25.0117 101.28 25.125 100.735 25.3516 100.269C25.5807 99.8024 25.8984 99.4404 26.3047 99.1826C26.7135 98.9248 27.1888 98.7959 27.7305 98.7959C28.2721 98.7959 28.7461 98.9248 29.1523 99.1826C29.5612 99.4404 29.8789 99.8024 30.1055 100.269C30.3346 100.735 30.4492 101.28 30.4492 101.905C30.4492 102.525 30.3346 103.067 30.1055 103.53C29.8789 103.994 29.5612 104.354 29.1523 104.612C28.7461 104.87 28.2721 104.999 27.7305 104.999ZM27.7305 104.171C28.1419 104.171 28.4805 104.065 28.7461 103.854C29.0117 103.644 29.2083 103.366 29.3359 103.022C29.4635 102.679 29.5273 102.306 29.5273 101.905C29.5273 101.504 29.4635 101.131 29.3359 100.784C29.2083 100.438 29.0117 100.158 28.7461 99.9443C28.4805 99.7308 28.1419 99.624 27.7305 99.624C27.319 99.624 26.9805 99.7308 26.7148 99.9443C26.4492 100.158 26.2526 100.438 26.125 100.784C25.9974 101.131 25.9336 101.504 25.9336 101.905C25.9336 102.306 25.9974 102.679 26.125 103.022C26.2526 103.366 26.4492 103.644 26.7148 103.854C26.9805 104.065 27.319 104.171 27.7305 104.171ZM31.8564 104.874V98.874H32.7471V99.7803H32.8096C32.9189 99.4834 33.1169 99.2425 33.4033 99.0576C33.6898 98.8727 34.0127 98.7803 34.3721 98.7803C34.4398 98.7803 34.5244 98.7816 34.626 98.7842C34.7275 98.7868 34.8044 98.7907 34.8564 98.7959V99.7334C34.8252 99.7256 34.7536 99.7139 34.6416 99.6982C34.5322 99.68 34.4163 99.6709 34.2939 99.6709C34.0023 99.6709 33.7419 99.7321 33.5127 99.8545C33.2861 99.9743 33.1064 100.141 32.9736 100.354C32.8434 100.565 32.7783 100.806 32.7783 101.077V104.874H31.8564ZM38.8398 103.233V102.437L42.3555 96.874H42.9336V98.1084H42.543L39.8867 102.312V102.374H44.6211V103.233H38.8398ZM42.6055 104.874V102.991V102.62V96.874H43.5273V104.874H42.6055Z" fill="#585858"/>
<rect y="106.835" width="146.529" height="9.16495" fill="#8F82FF"/>
</svg>
