<svg width="21" height="21" viewBox="0 0 21 21" fill="none" xmlns="http://www.w3.org/2000/svg">
<g clip-path="url(#clip0_977_2389)">
<path d="M8.29891 18.0491H13.2984C13.2984 18.9423 12.8219 19.7675 12.0484 20.214C11.2752 20.6604 10.3222 20.6604 9.54892 20.214C8.77541 19.7675 8.29891 18.9423 8.29891 18.0491ZM10.8987 0.551281V0.551499C10.3843 0.524036 9.8813 0.709297 9.50791 1.06391C9.13433 1.41853 8.92316 1.91113 8.92377 2.42613V3.36357C7.8257 3.75174 6.87542 4.47141 6.20369 5.4228C5.53218 6.37418 5.17235 7.51082 5.1743 8.67535V10.2377C5.1743 11.2313 4.7798 12.1844 4.07756 12.8873L3.8182 13.1467C3.56123 13.4047 3.3897 13.7356 3.32692 14.0946C3.26437 14.4533 3.31363 14.8228 3.46838 15.1527C3.62051 15.4642 3.8583 15.7258 4.15384 15.9067C4.44938 16.0876 4.79026 16.1806 5.13681 16.1745H16.5294C16.9984 16.1745 17.4483 15.9882 17.78 15.6564C18.1117 15.3249 18.2978 14.8751 18.2978 14.406V14.3278C18.2978 13.9061 18.1472 13.4983 17.873 13.1781L17.3262 12.5532V12.553C16.7408 11.8702 16.4202 10.9997 16.4232 10.1004V8.67539C16.4251 7.51086 16.0653 6.37423 15.3938 5.42284C14.7221 4.47145 13.7718 3.75179 12.6737 3.36361V2.53252C12.6842 2.03885 12.5068 1.55937 12.1772 1.19167C11.8479 0.823763 11.3908 0.59493 10.8989 0.551521L10.8987 0.551281Z" fill="#fff"/>
</g>
<defs>
<clipPath id="clip0_977_2389">
<rect width="20" height="20" fill="black" transform="translate(0.633789 0.5)"/>
</clipPath>
</defs>
</svg>
