<svg width="21" height="21" viewBox="0 0 21 21" fill="none" xmlns="http://www.w3.org/2000/svg">
<path d="M10.6339 18.8332C15.2362 18.8332 18.9672 15.1022 18.9672 10.4998C18.9672 5.89746 15.2362 2.1665 10.6339 2.1665C6.0315 2.1665 2.30054 5.89746 2.30054 10.4998C2.30054 15.1022 6.0315 18.8332 10.6339 18.8332Z" fill="#fff" stroke="#fff" stroke-width="1.2" stroke-linecap="round" stroke-linejoin="round"/>
<path d="M8.20874 7.99999C8.40466 7.44304 8.79137 6.97341 9.30037 6.67426C9.80937 6.37512 10.4078 6.26577 10.9897 6.36558C11.5716 6.46539 12.0994 6.76792 12.4796 7.21959C12.8599 7.67126 13.068 8.24292 13.0671 8.83332C13.0671 10.5 10.5671 11.3333 10.5671 11.3333" stroke="black" stroke-width="1.2" stroke-linecap="round" stroke-linejoin="round"/>
<path d="M10.6338 14.6665H10.6463" stroke="black" stroke-width="1.2" stroke-linecap="round" stroke-linejoin="round"/>
</svg>
