<svg
        width="44"
        height="27"
        viewBox="0 0 44 27"
        fill="none"
        xmlns="http://www.w3.org/2000/svg"
      >
        <path
          d="M0.89209 26.3727C0.903484 26.3589 0.914868 26.3451 0.926243 26.3313C3.414 23.3029 5.4164 18.8145 7.37517 14.4239C10.5429 7.32333 13.5966 0.478521 18.4045 0.478521C18.9059 0.478521 19.387 0.552957 19.8501 0.694355C19.1732 1.46827 18.5814 2.28514 18.066 3.07278C17.6711 3.67629 17.2713 4.31634 16.8721 4.98228C16.398 5.4236 15.8289 6.0968 15.1611 7.11732C13.6543 9.42011 12.276 12.5069 10.7063 16.0224L10.3772 16.7591C9.36268 19.028 8.25979 21.4635 7.01869 23.7364C5.4334 25.7584 4.18373 26.3312 3.14318 26.3312V26.3727H0.89209Z"
          fill="url(#paint0_linear_1443_19162)"
        />
        <path
          d="M8.90362 26.3727C8.91502 26.3589 8.92641 26.3451 8.93778 26.3312C11.4255 23.3029 13.4279 18.8145 15.3867 14.4239C18.5545 7.32336 21.6081 0.478516 26.4161 0.478516C27.1298 0.478516 27.8025 0.629369 28.4406 0.909516C25.033 2.39529 22.5408 7.51743 20.0523 13.0604C19.6185 14.0053 19.1763 14.9955 18.7178 16.0224C18.6091 16.2659 18.4994 16.5116 18.3887 16.7591C18.2906 16.9786 18.1916 17.1998 18.0917 17.4222C16.5462 20.7842 14.9147 23.9929 12.9938 26.3312C12.9825 26.3451 12.9711 26.3589 12.9596 26.3727H8.90362Z"
          fill="url(#paint1_linear_1443_19162)"
        />
        <path
          d="M28.4243 5.51589C28.7668 5.91393 29.1491 6.42708 29.5722 7.08754C31.0108 9.33269 32.3168 12.3162 33.8113 15.7304C33.9563 16.0617 34.1031 16.397 34.2519 16.736C35.6422 19.9031 37.2148 23.3995 39.1282 26.3312H43.1842C41.5607 23.8435 40.1824 20.9492 38.9528 18.1946C38.3454 16.8803 37.7565 15.5337 37.1727 14.1986L37.1725 14.1982C36.8227 13.3982 36.4747 12.6024 36.1256 11.8201C35.2949 10.024 34.4851 8.42477 33.6283 7.0875C31.9659 4.49289 30.934 4.17172 30.4721 4.17172C30.1154 4.17172 29.4411 4.36143 28.4243 5.51589Z"
          fill="url(#paint2_linear_1443_19162)"
        />
        <path
          d="M24.368 12.4973C24.8324 13.5204 25.3057 14.6017 25.7997 15.7301L25.7998 15.7305C25.9448 16.0617 26.0916 16.397 26.2404 16.736C27.6307 19.9031 29.2033 23.3995 31.1166 26.3312H35.6883C33.1196 23.251 31.1122 18.6604 29.1611 14.1986C28.2723 12.166 27.3952 10.1601 26.482 8.33592C25.7718 9.56784 25.0791 10.9682 24.368 12.4973Z"
          fill="url(#paint3_linear_1443_19162)"
        />
        <defs>
          <linearGradient
            id="paint0_linear_1443_19162"
            x1="26.4163"
            y1="0.478516"
            x2="26.4163"
            y2="30.0245"
            gradientUnits="userSpaceOnUse"
          >
            <stop stopColor="#941A6B" />
            <stop offset="0.973958" stopColor="#2E68FF" />
          </linearGradient>
          <linearGradient
            id="paint1_linear_1443_19162"
            x1="26.4163"
            y1="0.478516"
            x2="26.4163"
            y2="30.0245"
            gradientUnits="userSpaceOnUse"
          >
            <stop stopColor="#941A6B" />
            <stop offset="0.973958" stopColor="#2E68FF" />
          </linearGradient>
          <linearGradient
            id="paint2_linear_1443_19162"
            x1="26.4163"
            y1="0.478516"
            x2="26.4163"
            y2="30.0245"
            gradientUnits="userSpaceOnUse"
          >
            <stop stopColor="#941A6B" />
            <stop offset="0.973958" stopColor="#2E68FF" />
          </linearGradient>
          <linearGradient
            id="paint3_linear_1443_19162"
            x1="26.4163"
            y1="0.478516"
            x2="26.4163"
            y2="30.0245"
            gradientUnits="userSpaceOnUse"
          >
            <stop stopColor="#941A6B" />
            <stop offset="0.973958" stopColor="#2E68FF" />
          </linearGradient>
        </defs>
      </svg>