<svg width="36" height="23" viewBox="0 0 36 23" fill="none" xmlns="http://www.w3.org/2000/svg">
<path d="M0.00854492 22.3545C0.018163 22.3429 0.0277719 22.3312 0.0373738 22.3195C2.1373 19.7633 3.82754 15.9746 5.48095 12.2684C8.15488 6.27482 10.7325 0.497075 14.7909 0.497075C15.2141 0.497075 15.6202 0.559906 16.0111 0.679262C15.4397 1.33252 14.9402 2.02205 14.5052 2.68691C14.1718 3.19633 13.8343 3.7366 13.4974 4.29873C13.0972 4.67124 12.6168 5.2395 12.0531 6.10093C10.7812 8.04473 9.61776 10.6503 8.29278 13.6177L8.01499 14.2396C7.15862 16.1548 6.22766 18.2106 5.18005 20.1292C3.84189 21.8359 2.78704 22.3195 1.9087 22.3195V22.3545H0.00854492Z" fill="url(#paint0_linear_6781_12822)"/>
<path d="M6.77113 22.3545C6.78075 22.3429 6.79036 22.3312 6.79996 22.3195C8.89989 19.7633 10.5901 15.9746 12.2435 12.2685C14.9175 6.27484 17.4951 0.49707 21.5535 0.49707C22.156 0.49707 22.7238 0.624406 23.2624 0.86088C20.386 2.11503 18.2824 6.43866 16.1818 11.1176C15.8156 11.9151 15.4424 12.751 15.0554 13.6177C14.9636 13.8233 14.871 14.0307 14.7776 14.2396C14.6947 14.4249 14.6111 14.6116 14.5268 14.7993C13.2223 17.6372 11.8451 20.3457 10.2237 22.3195C10.2141 22.3312 10.2045 22.3429 10.1948 22.3545H6.77113Z" fill="url(#paint1_linear_6781_12822)"/>
<path d="M23.2486 4.74914C23.5377 5.08513 23.8604 5.51829 24.2176 6.07579C25.4319 7.97093 26.5343 10.4893 27.7959 13.3713C27.9183 13.6509 28.0422 13.9339 28.1678 14.2201C29.3413 16.8935 30.6688 19.8448 32.2838 22.3195H35.7076C34.3371 20.2196 33.1738 17.7765 32.1358 15.4513C31.6231 14.3419 31.126 13.2052 30.6332 12.0782L30.6331 12.0779C30.3378 11.4027 30.044 10.7309 29.7493 10.0706C29.0482 8.55446 28.3646 7.20455 27.6414 6.07575C26.2381 3.88562 25.3671 3.61453 24.9772 3.61453C24.6761 3.61453 24.107 3.77466 23.2486 4.74914Z" fill="url(#paint2_linear_6781_12822)"/>
<path d="M19.8247 10.6422C20.2167 11.5058 20.6162 12.4186 21.0332 13.371L21.0333 13.3713C21.1557 13.6509 21.2796 13.9339 21.4052 14.2201C22.5787 16.8935 23.9062 19.8448 25.5212 22.3195H29.3802C27.212 19.7195 25.5175 15.8445 23.8706 12.0782C23.1204 10.3625 22.38 8.66936 21.6091 7.12955C21.0097 8.16942 20.425 9.3515 19.8247 10.6422Z" fill="url(#paint3_linear_6781_12822)"/>
<defs>
<linearGradient id="paint0_linear_6781_12822" x1="21.5537" y1="0.49707" x2="21.5537" y2="25.437" gradientUnits="userSpaceOnUse">
<stop stop-color="#941A6B"/>
<stop offset="0.973958" stop-color="#2E68FF"/>
</linearGradient>
<linearGradient id="paint1_linear_6781_12822" x1="21.5537" y1="0.49707" x2="21.5537" y2="25.437" gradientUnits="userSpaceOnUse">
<stop stop-color="#941A6B"/>
<stop offset="0.973958" stop-color="#2E68FF"/>
</linearGradient>
<linearGradient id="paint2_linear_6781_12822" x1="21.5537" y1="0.49707" x2="21.5537" y2="25.437" gradientUnits="userSpaceOnUse">
<stop stop-color="#941A6B"/>
<stop offset="0.973958" stop-color="#2E68FF"/>
</linearGradient>
<linearGradient id="paint3_linear_6781_12822" x1="21.5537" y1="0.49707" x2="21.5537" y2="25.437" gradientUnits="userSpaceOnUse">
<stop stop-color="#941A6B"/>
<stop offset="0.973958" stop-color="#2E68FF"/>
</linearGradient>
</defs>
</svg>
